<svg xmlns="http://www.w3.org/2000/svg" width="62.026" height="6.963" viewBox="0 0 62.026 6.963">
  <g id="Grupo_162350" data-name="Grupo 162350" transform="translate(1158 -370.086) rotate(90)">
    <g id="Grupo_162258" data-name="Grupo 162258" transform="translate(26)">
      <path id="Trazado_204251" data-name="Trazado 204251" d="M26.008,12.9a3.481,3.481,0,1,0,4.922,0,3.48,3.48,0,0,0-4.922,0" transform="translate(319.098 1084.096)" fill="#7f0f98"/>
      <path id="Trazado_204252" data-name="Trazado 204252" d="M26.008,12.9a3.481,3.481,0,1,0,4.922,0,3.48,3.48,0,0,0-4.922,0" transform="translate(319.098 1096.096)" fill="#7f0f98"/>
      <path id="Trazado_204253" data-name="Trazado 204253" d="M26.008,12.9a3.481,3.481,0,1,0,4.922,0,3.48,3.48,0,0,0-4.922,0" transform="translate(319.098 1108.096)" fill="#7f0f98"/>
      <path id="Trazado_204254" data-name="Trazado 204254" d="M26.008,12.9a3.481,3.481,0,1,0,4.922,0,3.48,3.48,0,0,0-4.922,0" transform="translate(319.098 1120.096)" fill="#7f0f98"/>
      <path id="Trazado_204255" data-name="Trazado 204255" d="M26.008,12.9a3.481,3.481,0,1,0,4.922,0,3.48,3.48,0,0,0-4.922,0" transform="translate(319.098 1139.159)" fill="#7f0f98"/>
    </g>
  </g>
</svg>
