<svg xmlns="http://www.w3.org/2000/svg" xmlns:xlink="http://www.w3.org/1999/xlink" width="55.213" height="62.559" viewBox="0 0 55.213 62.559">
  <defs>
    <clipPath id="clip-path">
      <rect id="Rectángulo_46170" data-name="Rectángulo 46170" width="55.213" height="62.559" fill="#7f0f98"/>
    </clipPath>
  </defs>
  <g id="Grupo_157457" data-name="Grupo 157457" transform="translate(0 0)">
    <g id="Grupo_146339" data-name="Grupo 146339" transform="translate(0 0)" clip-path="url(#clip-path)">
      <path id="Trazado_187982" data-name="Trazado 187982" d="M19.053,1.02a3.482,3.482,0,1,1-4.924,0,3.483,3.483,0,0,1,4.924,0" transform="translate(14.686 0.001)" fill="#7f0f98"/>
      <path id="Trazado_187983" data-name="Trazado 187983" d="M24.992,6.959a3.482,3.482,0,1,1-4.924,0,3.48,3.48,0,0,1,4.924,0" transform="translate(-0.517 3.328)" fill="#7f0f98"/>
      <path id="Trazado_187984" data-name="Trazado 187984" d="M30.93,12.9a3.481,3.481,0,1,1-4.922,0,3.48,3.48,0,0,1,4.922,0" transform="translate(-15.721 6.654)" fill="#7f0f98"/>
      <path id="Trazado_187985" data-name="Trazado 187985" d="M36.87,18.838a3.481,3.481,0,1,1-4.922,0,3.48,3.48,0,0,1,4.922,0" transform="translate(-30.928 9.981)" fill="#7f0f98"/>
      <path id="Trazado_187986" data-name="Trazado 187986" d="M19.053,41.579a3.482,3.482,0,1,0-4.924,0,3.483,3.483,0,0,0,4.924,0" transform="translate(14.686 19.96)" fill="#7f0f98"/>
      <path id="Trazado_187987" data-name="Trazado 187987" d="M24.992,35.64a3.482,3.482,0,1,0-4.924,0,3.48,3.48,0,0,0,4.924,0" transform="translate(-0.517 16.634)" fill="#7f0f98"/>
      <path id="Trazado_187988" data-name="Trazado 187988" d="M30.93,29.7a3.48,3.48,0,1,0-4.922,0,3.478,3.478,0,0,0,4.922,0" transform="translate(-15.721 13.307)" fill="#7f0f98"/>
      <path id="Trazado_187989" data-name="Trazado 187989" d="M36.87,23.761a3.481,3.481,0,1,0-4.922,0,3.48,3.48,0,0,0,4.922,0" transform="translate(-30.928 9.981)" fill="#7f0f98"/>
      <path id="Trazado_187990" data-name="Trazado 187990" d="M5.942,1.02a3.482,3.482,0,1,1-4.924,0,3.483,3.483,0,0,1,4.924,0" transform="translate(48.252 0.001)" fill="#7f0f98"/>
      <path id="Trazado_187991" data-name="Trazado 187991" d="M11.882,6.959a3.482,3.482,0,1,1-4.924,0,3.483,3.483,0,0,1,4.924,0" transform="translate(33.045 3.328)" fill="#7f0f98"/>
      <path id="Trazado_187992" data-name="Trazado 187992" d="M17.821,12.9a3.482,3.482,0,1,1-4.924,0,3.48,3.48,0,0,1,4.924,0" transform="translate(17.841 6.654)" fill="#7f0f98"/>
      <path id="Trazado_187993" data-name="Trazado 187993" d="M23.76,18.838a3.481,3.481,0,1,1-4.922,0,3.48,3.48,0,0,1,4.922,0" transform="translate(2.635 9.981)" fill="#7f0f98"/>
      <path id="Trazado_187994" data-name="Trazado 187994" d="M5.942,41.579a3.482,3.482,0,1,0-4.924,0,3.483,3.483,0,0,0,4.924,0" transform="translate(48.252 19.96)" fill="#7f0f98"/>
      <path id="Trazado_187995" data-name="Trazado 187995" d="M11.882,35.64a3.482,3.482,0,1,0-4.924,0,3.483,3.483,0,0,0,4.924,0" transform="translate(33.045 16.634)" fill="#7f0f98"/>
      <path id="Trazado_187996" data-name="Trazado 187996" d="M17.821,29.7a3.481,3.481,0,1,0-4.924,0,3.478,3.478,0,0,0,4.924,0" transform="translate(17.841 13.307)" fill="#7f0f98"/>
      <path id="Trazado_187997" data-name="Trazado 187997" d="M23.76,23.761a3.481,3.481,0,1,0-4.922,0,3.48,3.48,0,0,0,4.922,0" transform="translate(2.635 9.981)" fill="#7f0f98"/>
    </g>
  </g>
</svg>
