<svg id="Grupo_57956" data-name="Grupo 57956" xmlns="http://www.w3.org/2000/svg" xmlns:xlink="http://www.w3.org/1999/xlink" width="217.364" height="220.059" viewBox="0 0 217.364 220.059">
  <defs>
    <clipPath id="clip-path">
      <rect id="Rectángulo_34648" data-name="Rectángulo 34648" width="217.364" height="220.059" fill="none"/>
    </clipPath>
    <clipPath id="clip-path-2">
      <rect id="Rectángulo_34647" data-name="Rectángulo 34647" width="217.364" height="220.059" fill="#d08fdf" opacity="0.67"/>
    </clipPath>
  </defs>
  <g id="Grupo_57961" data-name="Grupo 57961" clip-path="url(#clip-path)">
    <g id="Grupo_57960" data-name="Grupo 57960">
      <g id="Grupo_57959" data-name="Grupo 57959" clip-path="url(#clip-path-2)">
        <path id="Trazado_129803" data-name="Trazado 129803" d="M118.148,2.995C116.4.366,112.738.055,110.2,1.731a9.847,9.847,0,0,0-4.445,6.982,10.028,10.028,0,0,0-4.03-7.353c-2.4-1.893-6.106-1.9-8.092.561a7.707,7.707,0,0,0-1.422,5.426,10.6,10.6,0,0,0,1.732,5.41c3.949,5.256,6.183,6.257,11.379,10.1,5.473-3.372,7.217-4.2,11.579-9.09a10.644,10.644,0,0,0,2.183-5.238,7.752,7.752,0,0,0-.933-5.53" transform="translate(-41.952 0)" fill="#7fa2f0"/>
        <path id="Trazado_129804" data-name="Trazado 129804" d="M23.468,39.459a3.283,3.283,0,0,0,.561-3.569,3.085,3.085,0,1,0-5.644,2.464,3.279,3.279,0,0,0,3.034,2.011c-4.045,2.569-1.766,7.192-1.766,7.192l10.269-4.484s-1.872-4.864-6.454-3.614" transform="translate(-8.235 -15.416)" fill="#f5f5f5"/>
        <path id="Trazado_129805" data-name="Trazado 129805" d="M348.522,176.99a6.447,6.447,0,0,0,5.356-4.651,6.058,6.058,0,1,0-11.593-3.436,6.437,6.437,0,0,0,2.015,6.857c-9.325-1.256-11.748,8.57-11.748,8.57l21.095,6.251s3.341-9.674-5.124-13.591" transform="translate(-151.36 -74.736)" fill="#0e50e2" opacity="0.67"/>
        <path id="Trazado_129806" data-name="Trazado 129806" d="M138.807,313.919a3.875,3.875,0,0,0-3.88-3.869l-83.118.125a3.875,3.875,0,0,0-3.869,3.881l.039,25.556a3.874,3.874,0,0,0,3.88,3.869l72.221-.108,9.572,9.7-.014-9.711,1.339,0a3.875,3.875,0,0,0,3.868-3.88Z" transform="translate(-21.82 -141.119)" fill="#ebebeb"/>
        <path id="Trazado_129807" data-name="Trazado 129807" d="M74.176,363.207l.088.025-.168-2.722Z" transform="translate(-33.725 -164.086)" fill="#f5f5f5"/>
        <path id="Trazado_129808" data-name="Trazado 129808" d="M69.207,315.282a13.9,13.9,0,0,0-7.874,25.352,67.484,67.484,0,0,1-1.09-11.593l-.074.011c.028-.228.059-.572.093-.929v0a12.252,12.252,0,0,1,.168-1.3,10.052,10.052,0,0,1,8.411-8.092c1.214-.023,3.326-.748,6.485,2.5a6.315,6.315,0,0,1,1.529,6.828l-.01-.009c.06,2.157.1,4.6.04,6.107a3.793,3.793,0,0,1-3.274,3.61s-.156,2.755-.2,4.692a13.908,13.908,0,0,0-4.21-27.169" transform="translate(-25.18 -143.5)" fill="#f5f5f5"/>
        <path id="Trazado_129809" data-name="Trazado 129809" d="M81.817,344.876a4.027,4.027,0,0,1-4.111-2.144,7.652,7.652,0,0,0,4.164,1.356,3.793,3.793,0,0,0,3.273-3.61c.062-1.512.021-3.95-.039-6.107l-.519-.474-4.591-1.124a6.022,6.022,0,0,0-.539-3.557l-.03-.028C78.6,334,73.463,334.6,73.463,334.6l.344,11.655.168,2.721a13.967,13.967,0,0,0,7.7-.2c.04-1.937.2-4.692.2-4.692Zm-2.422-9.09a.41.41,0,1,1,.392-.417.4.4,0,0,1-.392.417m4.632-.087a.41.41,0,1,1,.392-.417.4.4,0,0,1-.392.417m-.638-1.168a1.041,1.041,0,0,1,1.259.055c.131.114.174.217.149.241-.05.054-.35-.2-.781-.214s-.75.2-.8.144c-.023-.026.029-.125.168-.227m-1.881.235a16.442,16.442,0,0,1,.873,2.313c.1.319.2.623.3.915a.728.728,0,0,1,.051.464.273.273,0,0,1-.184.165.666.666,0,0,1-.187.021,2.643,2.643,0,0,1-.709-.026,2.618,2.618,0,0,1,.7-.108c.11-.008.215-.027.234-.107a.644.644,0,0,0-.069-.352q-.149-.434-.313-.909a16.533,16.533,0,0,1-.7-2.375m.823,4.992a1.177,1.177,0,0,1-1.418.442.934.934,0,0,1-.676-1.138,8.216,8.216,0,0,0,2.094.7m-3.712-5.137a1.039,1.039,0,0,1,1.259.055c.13.114.174.217.149.241-.05.054-.351-.2-.781-.214s-.75.2-.8.145c-.022-.026.029-.125.169-.227" transform="translate(-33.437 -149.83)" fill="#ebebeb"/>
        <path id="Trazado_129810" data-name="Trazado 129810" d="M92.5,339.631a.41.41,0,1,0,.408.4.405.405,0,0,0-.408-.4" transform="translate(-41.921 -154.582)" fill="#e0e0e0"/>
        <path id="Trazado_129811" data-name="Trazado 129811" d="M92.163,338.921c.431.015.731.268.781.214.025-.024-.019-.127-.15-.241a1.04,1.04,0,0,0-1.259-.055c-.139.1-.191.2-.169.227.046.059.366-.167.8-.144" transform="translate(-41.583 -154.137)" fill="#e0e0e0"/>
        <path id="Trazado_129812" data-name="Trazado 129812" d="M83.995,339.791a.41.41,0,1,0,.408.4.405.405,0,0,0-.408-.4" transform="translate(-38.052 -154.655)" fill="#e0e0e0"/>
        <path id="Trazado_129813" data-name="Trazado 129813" d="M83.407,339.085c.43.016.731.267.781.214.025-.024-.019-.127-.149-.241A1.041,1.041,0,0,0,82.78,339c-.14.1-.191.2-.169.227.046.058.366-.167.8-.145" transform="translate(-37.598 -154.212)" fill="#e0e0e0"/>
        <path id="Trazado_129814" data-name="Trazado 129814" d="M89.233,342.71a.644.644,0,0,1,.069.352c-.02.08-.124.1-.234.107a2.616,2.616,0,0,0-.7.108,2.647,2.647,0,0,0,.709.026.668.668,0,0,0,.187-.021.273.273,0,0,0,.184-.165.728.728,0,0,0-.051-.464l-.3-.915a16.519,16.519,0,0,0-.873-2.313,16.534,16.534,0,0,0,.7,2.375q.164.476.313.909" transform="translate(-40.152 -154.489)" fill="#e0e0e0"/>
        <path id="Trazado_129815" data-name="Trazado 129815" d="M86.509,348.4a1.177,1.177,0,0,0,1.419-.442,8.2,8.2,0,0,1-2.094-.7.933.933,0,0,0,.676,1.138" transform="translate(-39.034 -158.034)" fill="#fff"/>
        <path id="Trazado_129816" data-name="Trazado 129816" d="M81.25,354.045a4.026,4.026,0,0,0,4.111,2.144l.053-.787a7.657,7.657,0,0,1-4.164-1.357" transform="translate(-36.981 -161.143)" fill="#e0e0e0"/>
        <path id="Trazado_129817" data-name="Trazado 129817" d="M69.257,331.076s5.141-.6,5.962-5.41l.03.027a6.025,6.025,0,0,1,.539,3.557l4.591,1.125.519.474.01.009a6.315,6.315,0,0,0-1.529-6.828c-3.159-3.244-5.27-2.518-6.485-2.5a10.052,10.052,0,0,0-8.41,8.092,12.092,12.092,0,0,0-.169,1.3v0c-.034.357-.065.7-.093.928l.073-.011a67.483,67.483,0,0,0,1.09,11.593,13.829,13.829,0,0,0,4.3,1.988l-.08-2.7Z" transform="translate(-29.23 -146.307)" fill="#e0e0e0"/>
        <rect id="Rectángulo_34636" data-name="Rectángulo 34636" width="43.705" height="2.409" transform="matrix(1, -0.002, 0.002, 1, 63.003, 178.809)" fill="#f5f5f5"/>
        <rect id="Rectángulo_34637" data-name="Rectángulo 34637" width="43.705" height="2.409" transform="translate(63.012 185.003) rotate(-0.086)" fill="#f5f5f5"/>
        <rect id="Rectángulo_34638" data-name="Rectángulo 34638" width="21.662" height="2.409" transform="translate(85.064 190.993) rotate(-0.086)" fill="#f5f5f5"/>
        <path id="Trazado_129818" data-name="Trazado 129818" d="M327.16,138.812a1.883,1.883,0,0,0-2.629.156,3.22,3.22,0,0,0-.928,2.543,3.281,3.281,0,0,0-1.805-2.065,1.907,1.907,0,0,0-2.545.749,2.521,2.521,0,0,0-.072,1.833,3.466,3.466,0,0,0,.934,1.606,13.475,13.475,0,0,0,4.346,2.423,12.681,12.681,0,0,0,3.059-3.719,3.484,3.484,0,0,0,.329-1.827,2.536,2.536,0,0,0-.688-1.7" transform="translate(-145.212 -62.968)" fill="#f5f5f5"/>
        <path id="Trazado_129819" data-name="Trazado 129819" d="M92.225,50.487l.718,1.455,1.606.233-1.162,1.132.275,1.6-1.436-.755-1.436.755.274-1.6L89.9,52.175l1.606-.233Z" transform="translate(-40.919 -22.979)" fill="#e0e0e0"/>
        <path id="Trazado_129820" data-name="Trazado 129820" d="M41.732,113.667l1.3,2.632,2.905.422-2.1,2.049.5,2.893-2.6-1.366-2.6,1.366.5-2.893-2.1-2.049,2.905-.422Z" transform="translate(-17.081 -51.735)" fill="#e0e0e0"/>
        <path id="Trazado_129821" data-name="Trazado 129821" d="M78.262,116.949l.359.727.8.117-.581.567.137.8-.718-.378-.718.378.137-.8-.581-.567.8-.117Z" transform="translate(-35.092 -53.229)" fill="#e0e0e0"/>
        <path id="Trazado_129822" data-name="Trazado 129822" d="M289.557,300.845c-11.223-7.841-13.769-22.4-13.325-35.477.074-2.184-.166-4.486.873-6.4s3.463-3.225,5.419-2.3c1.621.763,2.328,2.65,3.236,4.21a12.769,12.769,0,0,0,5.121,4.892c1.391.721,3.111,1.163,4.484.406,1.884-1.04,2.106-3.642,2.092-5.814q-.038-6.072-.076-12.144a20.238,20.238,0,0,1,.655-6.451,6.735,6.735,0,0,1,4.234-4.555c2.067-.579,4.621.613,5.058,2.739a20.128,20.128,0,0,1,.062,2.7,2.285,2.285,0,0,0,1.336,2.15,2.627,2.627,0,0,0,2.385-1,28.883,28.883,0,0,0,5.185-7.828,40.072,40.072,0,0,1,4.835-8.077c2.034-2.392,4.848-4.287,7.958-4.464s6.425,1.744,7.211,4.8-1,6.169-2.942,8.648a48.491,48.491,0,0,1-10.094,9.622,3.988,3.988,0,0,0-1.688,1.815c-.472,1.448.9,2.886,2.33,3.362,1.619.539,3.376.371,5.069.57s3.528.946,4.169,2.547c.89,2.22-.967,4.547-2.793,6.071a41.532,41.532,0,0,1-12.292,7.1,14.008,14.008,0,0,0-4.567,2.22c-1.288,1.123-2.066,3.075-1.287,4.6s2.777,2.021,4.45,1.71a28.952,28.952,0,0,0,4.766-1.82c2.985-1.127,6.839-.921,8.751,1.659a6.873,6.873,0,0,1,.731,6.078,15.839,15.839,0,0,1-3.293,5.368,41.765,41.765,0,0,1-17.832,12.532c-6.923,2.4-13.34,3.051-20.221.534" transform="translate(-125.705 -101.689)" fill="#4f7fea" opacity="0.75"/>
        <path id="Trazado_129823" data-name="Trazado 129823" d="M300.413,312.073a95.39,95.39,0,0,1,3.549-17.9,194.592,194.592,0,0,1,7.726-20.953q1.169-2.729,2.307-5.389c.762-1.766,1.516-3.519,2.361-5.187a97.121,97.121,0,0,1,5.4-9.307c1.861-2.878,3.732-5.54,5.5-8.017s3.47-4.75,5.1-6.757a77.1,77.1,0,0,1,8.411-8.89c1.071-.968,1.927-1.692,2.513-2.174l.671-.545a1.649,1.649,0,0,1,.237-.175,1.558,1.558,0,0,1-.211.206l-.645.575c-.569.5-1.407,1.244-2.462,2.229a81.559,81.559,0,0,0-8.3,8.954c-1.616,2.013-3.3,4.292-5.054,6.771s-3.613,5.149-5.461,8.025a98.167,98.167,0,0,0-5.359,9.283c-.837,1.66-1.583,3.4-2.346,5.169s-1.526,3.568-2.3,5.386a199.483,199.483,0,0,0-7.74,20.9,97,97,0,0,0-3.62,17.822" transform="translate(-136.732 -103.218)" fill="#263238"/>
        <path id="Trazado_129824" data-name="Trazado 129824" d="M327.225,272.615a4.423,4.423,0,0,1-.212-.927c-.114-.6-.251-1.473-.4-2.555-.307-2.162-.629-5.164-.972-8.473s-.707-6.3-1.046-8.451c-.167-1.076-.31-1.946-.417-2.546a4.31,4.31,0,0,1-.121-.943,4.349,4.349,0,0,1,.273.91c.154.591.34,1.456.543,2.53.412,2.147.822,5.142,1.165,8.457.33,3.267.628,6.222.855,8.481.109,1.019.2,1.879.277,2.568a4.322,4.322,0,0,1,.058.949" transform="translate(-147.489 -113.204)" fill="#263238"/>
        <path id="Trazado_129825" data-name="Trazado 129825" d="M357.806,282.973a6.053,6.053,0,0,1-1.114.133c-.716.064-1.754.15-3.032.3-2.558.276-6.077.781-9.936,1.508s-7.322,1.547-9.81,2.208c-1.247.321-2.249.609-2.943.8a5.916,5.916,0,0,1-1.09.267,6.065,6.065,0,0,1,1.044-.418c.681-.24,1.673-.57,2.914-.928,2.476-.733,5.942-1.593,9.812-2.33a98.633,98.633,0,0,1,9.982-1.395c1.286-.112,2.329-.156,3.051-.171a5.91,5.91,0,0,1,1.122.023" transform="translate(-150.145 -128.782)" fill="#263238"/>
        <path id="Trazado_129826" data-name="Trazado 129826" d="M295.809,319.735a1.449,1.449,0,0,1-.192-.341l-.477-1.01c-.411-.879-.972-2.167-1.644-3.767-1.347-3.2-3.069-7.676-4.9-12.643s-3.513-9.456-4.791-12.678l-1.526-3.813c-.164-.416-.3-.758-.409-1.04a1.408,1.408,0,0,1-.118-.374,1.487,1.487,0,0,1,.191.341l.478,1.01c.411.879.972,2.167,1.644,3.767,1.347,3.2,3.069,7.676,4.9,12.645s3.512,9.454,4.79,12.677c.627,1.565,1.142,2.854,1.526,3.812l.409,1.04a1.464,1.464,0,0,1,.118.374" transform="translate(-128.237 -129.294)" fill="#263238"/>
        <path id="Trazado_129827" data-name="Trazado 129827" d="M344.663,327.575a1.493,1.493,0,0,1-.368.152l-1.078.361-3.974,1.288c-3.355,1.088-7.972,2.644-13.07,4.37s-9.736,3.242-13.115,4.261c-1.689.511-3.06.909-4.013,1.165l-1.1.289a1.451,1.451,0,0,1-.391.074,1.5,1.5,0,0,1,.368-.153l1.078-.36,3.973-1.288c3.355-1.087,7.972-2.644,13.073-4.371s9.734-3.242,13.112-4.26c1.69-.51,3.06-.909,4.014-1.165l1.1-.289a1.445,1.445,0,0,1,.391-.074" transform="translate(-139.983 -149.094)" fill="#263238"/>
        <path id="Trazado_129828" data-name="Trazado 129828" d="M370.912,23.856v7.02a2.884,2.884,0,0,1-2.884,2.884h-12.15v4.015L353.7,33.936a2.566,2.566,0,0,1-2.376-2.559V23.856a2.884,2.884,0,0,1,2.884-2.884h13.823a2.884,2.884,0,0,1,2.884,2.884" transform="translate(-159.903 -9.545)" fill="#7fa2f0"/>
        <path id="Trazado_129829" data-name="Trazado 129829" d="M375.125,32.4a1.188,1.188,0,1,0,1.187-1.187,1.187,1.187,0,0,0-1.187,1.187" transform="translate(-170.737 -14.208)" fill="#263238"/>
        <path id="Trazado_129830" data-name="Trazado 129830" d="M366.846,32.4a1.188,1.188,0,1,0,1.187-1.187,1.187,1.187,0,0,0-1.187,1.187" transform="translate(-166.969 -14.208)" fill="#263238"/>
        <path id="Trazado_129831" data-name="Trazado 129831" d="M358.567,32.4a1.187,1.187,0,1,0,1.187-1.187,1.187,1.187,0,0,0-1.187,1.187" transform="translate(-163.201 -14.208)" fill="#263238"/>
        <path id="Trazado_129832" data-name="Trazado 129832" d="M68.462,64.952a1.877,1.877,0,0,1-.04.228l-.139.687c-.132.624-.319,1.515-.559,2.652l-2.1,9.748-.022.1-.105-.023-3.662-.8.019,0c-1.6-.094-3.294-.2-5.057-.331s-3.6-.256-5.5-.519a3.649,3.649,0,0,1-2.5-1.517,4.506,4.506,0,0,1-.8-2.912,8.845,8.845,0,0,1,.294-1.515q.184-.743.368-1.5.382-1.5.77-3.031c.309-1.173.621-2.333.962-3.47.172-.569.346-1.132.566-1.685a4.116,4.116,0,0,1,.19-.415.829.829,0,0,1,.186-.217.793.793,0,0,1,.258-.08,4.7,4.7,0,0,1,.9,0,59.26,59.26,0,0,1,6.6,1.117l.1.02.008.1a.593.593,0,0,0,.011.078l.007.025c-.007,0,.017-.017-.075-.044-.086,0-.077.035-.078.022s.008-.012.013-.022.022-.048.033-.077c.042-.114.076-.241.108-.367.063-.253.116-.509.167-.765.1-.512.188-1.021.271-1.525a25.177,25.177,0,0,1,.558-2.951,5.75,5.75,0,0,1,1.357-2.513,2.817,2.817,0,0,1,2.538-.776l.1.023-.023.105c-.345,1.536-.66,2.937-.95,4.226l-.005-.057,3.153,7.486-.031-.026,1.6.381.385.1a.671.671,0,0,1,.12.035,1.039,1.039,0,0,1-.139-.022l-.4-.078-1.59-.325-.022,0L66.3,64.5l-3.245-7.447-.012-.027L63.052,57c.281-1.291.586-2.694.921-4.232l.076.129a2.6,2.6,0,0,0-2.315.734A5.536,5.536,0,0,0,60.45,56.04a25.126,25.126,0,0,0-.54,2.925c-.082.506-.168,1.017-.268,1.534-.051.258-.1.518-.168.779a4.086,4.086,0,0,1-.117.4.907.907,0,0,1-.046.107.341.341,0,0,1-.039.063.175.175,0,0,1-.157.077c-.128-.034-.118-.089-.141-.114a.452.452,0,0,1-.023-.07.938.938,0,0,1-.018-.12l.1.12a59.855,59.855,0,0,0-6.564-1.1,4.437,4.437,0,0,0-.834,0,.563.563,0,0,0-.157.044,1.136,1.136,0,0,0-.087.117,4,4,0,0,0-.173.381c-.21.533-.385,1.1-.555,1.661-.339,1.131-.651,2.288-.958,3.46q-.39,1.528-.771,3.028-.186.75-.368,1.493a8.484,8.484,0,0,0-.288,1.467,4.231,4.231,0,0,0,.745,2.731,3.374,3.374,0,0,0,2.317,1.412c1.872.264,3.716.388,5.474.531l5.051.352h.01l.009,0,3.658.819-.127.081c.919-4.047,1.669-7.351,2.194-9.659l.616-2.664.167-.7a2.107,2.107,0,0,1,.066-.245" transform="translate(-21.843 -23.95)" fill="#263238"/>
        <path id="Trazado_129833" data-name="Trazado 129833" d="M90.229,74.824a3.277,3.277,0,0,1-.364-.039l-1-.137-3.646-.528.108-.074L82.337,87.774l-.107.482-.107-.169,3.628.806-.162.093L88.858,78.9l.987-2.98.275-.809a2.539,2.539,0,0,1,.109-.289,1.552,1.552,0,0,1-.066.264c-.06.2-.137.465-.232.788l-.9,2.971L85.852,89.07l-.037.121-.125-.027-3.629-.8-.138-.031.031-.138.107-.482C83.279,82.285,84.375,77.4,85.139,74l.02-.089.088.015,3.691.645.971.179a2.128,2.128,0,0,1,.32.07" transform="translate(-37.287 -33.642)" fill="#263238"/>
        <path id="Trazado_129834" data-name="Trazado 129834" d="M315.466,39.99l1.858,3.765,4.155.6-3.006,2.931.709,4.139-3.716-1.954-3.716,1.954.709-4.139-3.007-2.931,4.155-.6Z" transform="translate(-140.847 -18.201)" fill="#0e50e2" opacity="0.71"/>
        <path id="Trazado_129835" data-name="Trazado 129835" d="M374.759,147.251l.929,1.882,2.078.3-1.5,1.466.355,2.069-1.858-.977-1.859.977.355-2.069-1.5-1.466,2.078-.3Z" transform="translate(-169.202 -67.021)" fill="#bcece4"/>
        <path id="Trazado_129836" data-name="Trazado 129836" d="M53.2,228.605l.929,1.883,2.078.3-1.5,1.466.355,2.069-1.858-.977-1.858.977.355-2.069-1.5-1.466,2.078-.3Z" transform="translate(-22.846 -104.049)" fill="#bcece4"/>
        <path id="Trazado_129837" data-name="Trazado 129837" d="M204.994,234.106l-68.73.451a14.971,14.971,0,0,1-15.07-14.867s-.68-97.648-.98-140.725-.22-31.582-.22-31.582a14.972,14.972,0,0,1,14.873-15.076l68.73-.452a14.972,14.972,0,0,1,15.07,14.867l1.2,172.308a14.971,14.971,0,0,1-14.873,15.075" transform="translate(-54.615 -14.499)" fill="#263238"/>
        <path id="Trazado_129838" data-name="Trazado 129838" d="M207.378,42.772l-13.325.088a3.31,3.31,0,0,0-3.212,3.4l.016,2.418a3.31,3.31,0,0,1-3.212,3.4l-25.975.171a3.313,3.313,0,0,1-3.259-3.361l-.017-2.417a3.313,3.313,0,0,0-3.259-3.361l-4.687.031-11.663.077a10.485,10.485,0,0,0-10.416,10.559l1.171,168.184a10.486,10.486,0,0,0,10.554,10.413l68.593-.451A10.486,10.486,0,0,0,219.1,221.369L217.932,53.184a10.486,10.486,0,0,0-10.554-10.412" transform="translate(-58.427 -19.467)" fill="#fafafa"/>
        <path id="Trazado_129839" data-name="Trazado 129839" d="M237.3,383.9l.964.147c0-.018,0-.038,0-.058l-1.372-.149.406.06" transform="translate(-107.822 -174.706)" fill="#b78876"/>
        <path id="Trazado_129840" data-name="Trazado 129840" d="M202,385.352c-.014-.134-.034-.276-.046-.4a21.008,21.008,0,0,1-.041-3.5,9.408,9.408,0,0,1,.112-.946,2.572,2.572,0,0,1,.06-.3c-2.04-.218-3.879-.405-5.386-.556l-3.028-.306.476,6.071Z" transform="translate(-88.148 -172.652)" fill="#b78876"/>
        <path id="Trazado_129841" data-name="Trazado 129841" d="M214.158,381.478c-1.777-.2-3.475-.391-5.054-.56.013.1-.033.538-.049,1.255a25.212,25.212,0,0,0,.159,3.468c.016.137.039.288.057.43l17.2-.113c-.513-1.632-.827-2.664-.872-2.886a1.035,1.035,0,0,1-.011-.173l-.989-.129c-2.67-.35-6.359-.822-10.44-1.293" transform="translate(-95.148 -173.374)" fill="#b78876"/>
        <path id="Trazado_129842" data-name="Trazado 129842" d="M208.9,382.171c.015-.717.061-1.154.049-1.255l-.022,0a2.719,2.719,0,0,0-.06.3c-.038.215-.082.533-.112.946a21,21,0,0,0,.041,3.5c.012.129.032.271.046.4l.275,0c-.018-.142-.042-.293-.057-.43a25.125,25.125,0,0,1-.159-3.468" transform="translate(-94.987 -173.372)" fill="#a36957"/>
        <path id="Trazado_129843" data-name="Trazado 129843" d="M154.307,168.176l-2.766-3.142.267-.27c-2.006,1.546-3.5,2.489-3.635,2-2.41-8.81-2.115-20.144-1.887-24.489.231-.379.5-.8.812-1.258a5.8,5.8,0,0,1,1.341-1.383A8.885,8.885,0,0,1,150.5,138.4c.7-.221.793-1.17.168-1.381s-2.58.35-4.364,1.93-1.141-2.07-.931-3.4.667-5.487.307-5.865c-.528-.555-1.238-.081-1.418,1.256-.181,1.352-1,5.313-1.7,5.186s.473-6.9.473-6.9.484-1.415-.321-1.588c-1.451-.313-2.156,6.97-2.206,7.664-.034.483-.8.373-.737-.144.068-.532,1.319-6.739-.155-7.071-1.131-.256-.636,5.987-1.612,7.149s.11-4.784-.981-4.983c-.406-.074-.721-.073-.851,3.418a76.959,76.959,0,0,0,.539,8.4c-.694,9.594-1.75,38.941,11.454,37.565A23.248,23.248,0,0,0,160.319,175l-5.877-6.677Z" transform="translate(-61.975 -58.084)" fill="#b78876"/>
        <path id="Trazado_129844" data-name="Trazado 129844" d="M225.644,256.481c4.068.113,7.8.222,11.01.32.051-3.356.1-6.624.148-9.777a4.4,4.4,0,0,1-.159-.454l.007-.487c-3.172-.074-6.813-.163-10.753-.264-.093,3.434-.179,6.995-.252,10.662" transform="translate(-102.701 -111.884)" fill="#455a64"/>
        <path id="Trazado_129845" data-name="Trazado 129845" d="M209.365,245.383c-2.173-.058-4.287-.116-6.325-.172-.126,3.437-.257,7-.391,10.657l5.823.153c2.208.059,4.356.118,6.423.175.075-3.667.164-7.228.262-10.661l-5.793-.152" transform="translate(-92.235 -111.607)" fill="#455a64"/>
        <path id="Trazado_129846" data-name="Trazado 129846" d="M236,346.483c-2.991-.065-6.658-.151-10.767-.253.009.935.018,1.853.028,2.733.042,3.023.08,5.7.113,8,4.081.116,7.738.226,10.737.32-.031-2.051-.079-4.377-.087-6.948-.011-1.23-.019-2.52-.024-3.857" transform="translate(-102.513 -157.586)" fill="#455a64"/>
        <path id="Trazado_129847" data-name="Trazado 129847" d="M245.558,372.115c.021,1.452.038,2.583.049,3.363,0,.376,0,.667.006.875s-.008.3-.008.3.913-3.847,2.083-9.708l-2.2-.046c.012,2.029.041,3.782.068,5.217" transform="translate(-111.734 -166.993)" fill="#455a64"/>
        <path id="Trazado_129848" data-name="Trazado 129848" d="M245.4,350.554c0,2.573.029,4.9.046,6.954l2.234.072c.623-3.127,1.315-6.815,1.981-10.791-1.181-.022-2.617-.05-4.267-.086,0,1.335,0,2.623.007,3.852" transform="translate(-111.689 -157.801)" fill="#455a64"/>
        <path id="Trazado_129849" data-name="Trazado 129849" d="M236.449,375.266c-.024-.781-.058-1.911-.1-3.363-.044-1.436-.089-3.192-.116-5.223-3-.065-6.655-.151-10.736-.253.022,1.585.042,2.989.058,4.174.022,1.461.039,2.6.051,3.384,0,.379,0,.671.006.88,0,.093,0,.163,0,.213,2.315.3,4.394.585,6.1.838l1.373.149,3.426.372s-.012-.1-.021-.3-.019-.5-.034-.874" transform="translate(-102.634 -166.779)" fill="#455a64"/>
        <path id="Trazado_129850" data-name="Trazado 129850" d="M251.023,258.426c-2.111-6.9-3.658-7.93-4.5-9.375-.038,2.984-.082,6.066-.132,9.229,1.712.052,3.267.1,4.635.146" transform="translate(-112.143 -113.355)" fill="#455a64"/>
        <path id="Trazado_129851" data-name="Trazado 129851" d="M214.014,285.682c-2.288-.058-4.682-.12-7.151-.186l-5.342-.145c-.142,3.673-.28,7.234-.413,10.655l4.863.128c2.762.074,5.431.147,7.962.218.013-3.437.038-7,.081-10.669" transform="translate(-91.534 -129.877)" fill="#455a64"/>
        <path id="Trazado_129852" data-name="Trazado 129852" d="M246.128,273.193c-.02,1.321-.04,2.627-.059,3.927,2.749.084,5.063.16,6.794.222a38.534,38.534,0,0,0-1.03-7.623c-.311-1.2-.611-2.26-.9-3.218-1.381-.028-2.956-.063-4.692-.1q-.053,3.345-.112,6.795" transform="translate(-111.998 -121.251)" fill="#455a64"/>
        <path id="Trazado_129853" data-name="Trazado 129853" d="M214.543,265.607c-2.068-.053-4.216-.109-6.425-.168-2-.053-3.944-.106-5.826-.159q-.065,1.756-.13,3.535-.141,3.62-.276,7.121l5.339.14c2.467.066,4.86.131,7.146.2q.031-2.581.071-5.22.045-2.756.1-5.445" transform="translate(-91.888 -120.742)" fill="#455a64"/>
        <path id="Trazado_129854" data-name="Trazado 129854" d="M236.253,286.238c-3.176-.072-6.92-.162-11.016-.266-.044,3.667-.074,7.232-.091,10.67,4.1.115,7.821.225,10.947.322.045-3.458.1-7.045.16-10.725" transform="translate(-102.475 -130.16)" fill="#455a64"/>
        <path id="Trazado_129855" data-name="Trazado 129855" d="M236.5,266.162c-3.206-.074-6.943-.165-11.012-.268q-.053,2.689-.1,5.443-.042,2.642-.072,5.223c4.1.114,7.839.224,11.015.321q.032-1.946.065-3.922.052-3.451.1-6.8" transform="translate(-102.554 -121.021)" fill="#455a64"/>
        <path id="Trazado_129856" data-name="Trazado 129856" d="M246.209,173.833c.024.78.058,1.911.1,3.362.015.5.031,1.053.045,1.628.018.182.027.364.028.546,2.6.076,4.983.147,7.083.212a12.941,12.941,0,0,0-6.876-7.228,3.188,3.188,0,0,1-.412.691c.008.2.018.459.031.787" transform="translate(-112.048 -78.447)" fill="#455a64"/>
        <path id="Trazado_129857" data-name="Trazado 129857" d="M244.794,174.446c0-.307,0-.554,0-.749-.035.043-.067.092-.1.132-.051.057-.1.105-.157.157a5.462,5.462,0,0,1-1.334,1.812,5.535,5.535,0,0,1,1.663,2.814c0-.273-.01-.55-.015-.8-.021-1.451-.037-2.582-.048-3.363" transform="translate(-110.689 -79.058)" fill="#455a64"/>
        <path id="Trazado_129858" data-name="Trazado 129858" d="M196.017,203.157c-3.414-.094-6.611-.186-9.478-.271q-.188,1.6-.377,3.27-.168,1.484-.326,2.919a16.42,16.42,0,0,0,1.192,5.444c2.6.061,5.47.132,8.541.21l.448-11.573" transform="translate(-84.583 -92.343)" fill="#455a64"/>
        <path id="Trazado_129859" data-name="Trazado 129859" d="M227.566,195.185l3.812.108a3.77,3.77,0,0,1,.574-.088c-.088-.127-.127-.234-.09-.263.016-.013.044-.01.078,0a2.4,2.4,0,0,1-.726-1.659,6.07,6.07,0,0,1,1.739-3.485,7.525,7.525,0,0,1-1.035-4.458l-3.9-.1c-.109,2.373-.238,5.168-.384,8.336-.023.524-.046,1.065-.069,1.608" transform="translate(-103.576 -84.312)" fill="#455a64"/>
        <path id="Trazado_129860" data-name="Trazado 129860" d="M210.6,225.326c-2.351-.063-4.634-.125-6.823-.186-.124,3.379-.254,6.944-.391,10.659,2.036.052,4.15.107,6.322.165l5.793.157c.107-3.724.224-7.29.348-10.657l-5.249-.138" transform="translate(-92.571 -102.472)" fill="#455a64"/>
        <path id="Trazado_129861" data-name="Trazado 129861" d="M246.276,172.057c-.026.123-.059.244-.094.365a3.026,3.026,0,0,0,.168-.345Z" transform="translate(-112.049 -78.311)" fill="#455a64"/>
        <path id="Trazado_129862" data-name="Trazado 129862" d="M213.5,213.741a7.18,7.18,0,0,1-3.377-1.4,5.954,5.954,0,0,1-.82-.752c-.173-.2-.255-.318-.241-.33.035-.034.422.4,1.179.919a7.464,7.464,0,0,0,6.031,1.137c.132-3.443.27-6.661.406-9.6-2.13-.055-4.346-.112-6.628-.173l-5.5-.149c-.129,3.516-.271,7.4-.424,11.573,2.188.056,4.47.115,6.82.178l5.251.143c.022-.584.044-1.154.065-1.726a7.216,7.216,0,0,1-2.762.179" transform="translate(-92.906 -92.575)" fill="#455a64"/>
        <path id="Trazado_129863" data-name="Trazado 129863" d="M246.546,185.805q.029,1.291.05,2.786c.031,2.075.081,4.437.089,7.049,0,.019,0,.039,0,.057,3.7.112,6.713.21,8.758.286-.27-1.987-.684-4.7-1.316-8.424a11.868,11.868,0,0,0-.416-1.69c-2.118-.047-4.526-.1-7.156-.167,0,.035-.007.069-.009.1" transform="translate(-112.215 -84.521)" fill="#455a64"/>
        <path id="Trazado_129864" data-name="Trazado 129864" d="M237.473,208.7c0-1.55,0-3.037,0-4.45l-4.154-.1a1.853,1.853,0,0,1-.553-.014l-.41-.01c.034.046.056.087.043.111-.022.043-.144.021-.294-.05.009.033.019.066.028.1a2.036,2.036,0,0,1,.145.189,2.765,2.765,0,0,1,.12,2.8,1.607,1.607,0,0,1-.258.357c-.074.075-.12.108-.136.1s0-.069.045-.159.1-.219.167-.38a3.205,3.205,0,0,0,.039-2.242,4.557,4.557,0,0,1-2.539,4.625q.137-.637.274-1.273a2,2,0,0,1-1.461.671,5.051,5.051,0,0,1,.483-1.665l-.986.4a3.835,3.835,0,0,1,2.261-3.628L227.176,204c-.123,2.917-.247,6.112-.368,9.529.191-.051.373-.106.536-.164.867-.3,1.353-.619,1.379-.577.009.015-.1.11-.32.255a5.942,5.942,0,0,1-.988.51,6.374,6.374,0,0,1-.616.217c-.021.6-.042,1.192-.063,1.8,3.842.106,7.414.209,10.556.3l.09-6.907h.016c-3.09-.276-5.362-.521-5.357-.587s2.312.072,5.431.318" transform="translate(-103.198 -92.848)" fill="#455a64"/>
        <path id="Trazado_129865" data-name="Trazado 129865" d="M246.829,208.929c.527.042,1.073.086,1.637.134,4.019.337,7.272.673,7.265.751a1.409,1.409,0,0,1-.412.012l.689.051s.223-.387-.43-5.228c-2.045-.034-5.068-.1-8.773-.182.012,1.416.02,2.907.024,4.462" transform="translate(-112.333 -93.063)" fill="#455a64"/>
        <path id="Trazado_129866" data-name="Trazado 129866" d="M204.921,194.57l5.5.144c2.283.06,4.5.121,6.633.181.026-.544.051-1.086.076-1.611.152-3.168.3-5.962.426-8.331l-2.482-.066c-3.441-.092-6.74-.183-9.8-.27-.07,2.056-.15,4.394-.238,6.977-.035.956-.072,1.955-.11,2.976" transform="translate(-93.269 -84.028)" fill="#455a64"/>
        <path id="Trazado_129867" data-name="Trazado 129867" d="M189.461,176.532c2.546.058,5.459.127,8.632.206.081-1.947.151-3.641.209-5.034.065-1.44.117-2.562.152-3.336.01-.173.018-.327.025-.464a20.31,20.31,0,0,0-8.112,1.581c-.147,1.137-.335,2.6-.56,4.344-.108.839-.224,1.745-.346,2.7" transform="translate(-86.233 -76.42)" fill="#455a64"/>
        <path id="Trazado_129868" data-name="Trazado 129868" d="M196.65,224.926c-3.021-.084-5.851-.166-8.414-.242.08.159.162.315.251.463l4.075,6.734-.664,3.595,4.339.109c.144-3.715.282-7.28.413-10.658" transform="translate(-85.675 -102.264)" fill="#455a64"/>
        <path id="Trazado_129869" data-name="Trazado 129869" d="M226.12,236.405c3.939.11,7.579.215,10.749.31l.14-10.708c-3.144-.074-6.718-.162-10.563-.26-.114,3.368-.225,6.934-.326,10.658" transform="translate(-102.918 -102.748)" fill="#455a64"/>
        <path id="Trazado_129870" data-name="Trazado 129870" d="M194.783,268.652q.069-1.781.137-3.533c-2.186-.06-4.28-.12-6.253-.177a104.076,104.076,0,0,0-2.371,10.629c2.537.061,5.3.13,8.225.205q.128-3.5.262-7.124" transform="translate(-84.792 -120.588)" fill="#455a64"/>
        <path id="Trazado_129871" data-name="Trazado 129871" d="M221.814,168.176a26.983,26.983,0,0,0-2.935-.438,1.916,1.916,0,0,1-.509.066c-.33.026-.808.05-1.4.07-1.182.041-2.815.058-4.617.051l-4.614-.033c-1.066-.01-1.759-.021-1.886-.052,0,.135-.006.286-.01.456-.023.775-.057,1.9-.1,3.339-.047,1.393-.105,3.086-.172,5.033,3.062.077,6.361.162,9.8.253l2.49.067c.08-1.444.154-2.722.222-3.816.092-1.457.163-2.594.212-3.378l.062-.878c.016-.2.031-.3.031-.3s0,.1,0,.3-.02.5-.034.879c-.037.784-.09,1.921-.159,3.38-.05,1.1-.11,2.374-.175,3.815l3.915.108a7.771,7.771,0,0,1,1.638-3.976,5.694,5.694,0,0,1-1.761-4.948" transform="translate(-93.567 -76.346)" fill="#455a64"/>
        <path id="Trazado_129872" data-name="Trazado 129872" d="M243.549,196.509c0-2.611-.031-4.973-.047-7.048,0-.651-.01-1.261-.016-1.854a5.748,5.748,0,0,1-2,3.29,5.116,5.116,0,0,1-.26,4.334,3.012,3.012,0,0,1-1.133,1.225l3.452.1v-.05" transform="translate(-109.28 -85.389)" fill="#455a64"/>
        <path id="Trazado_129873" data-name="Trazado 129873" d="M195.194,373.138c2.685.216,6.391.566,10.475,1.036,1.36.157,2.669.317,3.917.477,0-.05-.009-.119-.013-.211-.008-.209-.019-.5-.034-.879-.023-.785-.058-1.923-.1-3.383-.035-1.184-.072-2.591-.108-4.181-3.032-.076-6.291-.16-9.69-.251l-4.75-.129c-.023.558-.046,1.095-.066,1.582-.065,1.44-.117,2.562-.153,3.337-.02.373-.035.661-.046.867s-.027.3-.027.3-.006-.1,0-.3.011-.5.019-.868c.022-.775.056-1.9.1-3.339.016-.488.035-1.024.054-1.583l-4.44-.124c.728,5.41.914,7.344.914,7.344l.578.063.194.01c.752.044,1.84.123,3.182.231" transform="translate(-86.627 -166.352)" fill="#455a64"/>
        <path id="Trazado_129874" data-name="Trazado 129874" d="M197.383,245.095l-4.376-.124-1.529,8.282c-.187.59-.428,1.382-.7,2.344,1.956.047,4.029.1,6.192.155.142-3.655.28-7.22.413-10.657" transform="translate(-86.832 -111.498)" fill="#455a64"/>
        <path id="Trazado_129875" data-name="Trazado 129875" d="M245.447,326.624c-.034,3.847-.055,7.453-.057,10.744,1.661.053,3.106.1,4.291.143.574-3.436,1.127-7.084,1.6-10.771-1.477-.025-3.458-.064-5.83-.117" transform="translate(-111.689 -148.662)" fill="#455a64"/>
        <path id="Trazado_129876" data-name="Trazado 129876" d="M193.468,356.109c.093-2.736.213-6.25.355-10.415,0-.1.007-.2.011-.295-2.218-.061-4.354-.121-6.381-.179.669,4.547,1.164,8.078,1.529,10.774l4.486.115" transform="translate(-85.319 -157.126)" fill="#455a64"/>
        <path id="Trazado_129877" data-name="Trazado 129877" d="M235.966,326.4c-3.061-.068-6.752-.155-10.851-.258.008,3.841.03,7.416.06,10.679,4.11.117,7.777.227,10.768.322-.011-3.291,0-6.9.022-10.743" transform="translate(-102.461 -148.442)" fill="#455a64"/>
        <path id="Trazado_129878" data-name="Trazado 129878" d="M192.62,315.848c.123-3.349.254-6.916.391-10.655-3.229-.089-6.273-.176-9.039-.257a73.146,73.146,0,0,0,.245,10.7c2.6.063,5.426.134,8.4.211" transform="translate(-83.694 -138.791)" fill="#455a64"/>
        <path id="Trazado_129879" data-name="Trazado 129879" d="M192.522,335.934c.118-3.212.249-6.785.391-10.655-2.962-.081-5.773-.161-8.364-.236.1.942.215,1.885.359,2.827.445,2.923.837,5.542,1.184,7.9,2.042.051,4.194.105,6.43.163" transform="translate(-83.997 -147.943)" fill="#455a64"/>
        <path id="Trazado_129880" data-name="Trazado 129880" d="M204.356,325.608l-4.39-.119c-.15,3.87-.288,7.441-.413,10.653l3.91.1c3.463.093,6.783.184,9.863.272-.044-3.263-.077-6.838-.1-10.68-2.8-.07-5.779-.147-8.875-.23" transform="translate(-90.826 -148.146)" fill="#455a64"/>
        <path id="Trazado_129881" data-name="Trazado 129881" d="M212.95,345.918c-3.083-.077-6.407-.162-9.874-.255l-3.914-.106c0,.1-.008.2-.011.3-.172,4.164-.318,7.678-.431,10.413l4.746.125c3.394.09,6.649.18,9.677.266-.052-2.3-.1-4.976-.151-8-.014-.883-.028-1.8-.04-2.741" transform="translate(-90.447 -157.28)" fill="#455a64"/>
        <path id="Trazado_129882" data-name="Trazado 129882" d="M245.928,286.473c-.056,3.682-.11,7.269-.162,10.728,2.82.088,5.132.165,6.778.226a97.1,97.1,0,0,0,.186-10.813c-1.732-.031-4.049-.078-6.8-.141" transform="translate(-111.86 -130.388)" fill="#455a64"/>
        <path id="Trazado_129883" data-name="Trazado 129883" d="M245.641,306.549c-.038,2.533-.075,5-.111,7.383-.012,1.139-.022,2.252-.032,3.352,2.38.075,4.366.141,5.844.2.459-3.619.835-7.271,1.072-10.794-1.645-.027-3.957-.074-6.772-.136" transform="translate(-111.738 -139.525)" fill="#455a64"/>
        <path id="Trazado_129884" data-name="Trazado 129884" d="M213.579,305.759c-2.533-.064-5.2-.134-7.968-.207l-4.866-.132c-.145,3.739-.283,7.3-.413,10.654l4.387.116c3.093.082,6.071.165,8.866.244-.015-3.375-.018-6.946,0-10.674" transform="translate(-91.18 -139.011)" fill="#455a64"/>
        <path id="Trazado_129885" data-name="Trazado 129885" d="M193.108,295.8c.125-3.421.257-6.983.391-10.656-2.934-.081-5.711-.16-8.256-.235a94.209,94.209,0,0,0-1.17,10.665c2.765.066,5.808.142,9.035.226" transform="translate(-83.78 -129.674)" fill="#455a64"/>
        <path id="Trazado_129886" data-name="Trazado 129886" d="M236.073,306.318c-3.125-.07-6.845-.159-10.945-.263-.019,3.728-.022,7.3-.016,10.674,4.1.116,7.791.226,10.852.321.007-1.1.015-2.209.024-3.347.022-2.383.051-4.853.084-7.387" transform="translate(-102.458 -139.3)" fill="#455a64"/>
        <path id="Trazado_129887" data-name="Trazado 129887" d="M183.273,177.9c.131-.968.258-1.881.377-2.726.242-1.711.452-3.15.622-4.258a14.883,14.883,0,0,0-5.233,3.822q-1.419,1.63-2.667,3.02c1.735.031,4.085.079,6.9.142" transform="translate(-80.275 -77.791)" fill="#455a64"/>
        <path id="Trazado_129888" data-name="Trazado 129888" d="M178.539,205.874q.188-1.654.377-3.246c-3.727-.111-6.882-.211-9.207-.291l5.877,6.677.515.586,2.289-2.4q.073-.66.149-1.327" transform="translate(-77.243 -92.093)" fill="#455a64"/>
        <path id="Trazado_129889" data-name="Trazado 129889" d="M167.153,193.705c2.343.044,5.56.114,9.37.2.439-3.684.874-7.077,1.266-9.974-2.865-.088-5.246-.166-6.986-.229-3.175,3.539-5.416,5.844-6.149,6.587-.169.172-.267.27-.267.27Z" transform="translate(-74.82 -83.613)" fill="#455a64"/>
        <path id="Trazado_129890" data-name="Trazado 129890" d="M187.178,194.113c2.863.068,6.054.147,9.461.234.04-1.022.078-2.022.115-2.979.107-2.582.2-4.917.289-6.972-3.181-.09-6.1-.177-8.648-.255-.366,2.9-.785,6.29-1.216,9.972" transform="translate(-85.194 -83.811)" fill="#455a64"/>
        <path id="Trazado_129891" data-name="Trazado 129891" d="M225.009,285.966l-.282-.007c-.043,3.667-.069,7.232-.081,10.669l.272.008c.017-3.437.047-7,.091-10.67" transform="translate(-102.247 -130.154)" fill="#263238"/>
        <path id="Trazado_129892" data-name="Trazado 129892" d="M226.343,222c-.022.572-.044,1.142-.065,1.726l.25.007c.021-.61.042-1.206.063-1.8-.08.025-.162.047-.247.069" transform="translate(-102.99 -101.011)" fill="#263238"/>
        <path id="Trazado_129893" data-name="Trazado 129893" d="M225.969,225.735c-.124,3.367-.241,6.934-.348,10.658l.272.007c.1-3.724.212-7.291.326-10.658l-.25-.007" transform="translate(-102.691 -102.743)" fill="#263238"/>
        <path id="Trazado_129894" data-name="Trazado 129894" d="M225.388,245.806c-.1,3.434-.187,6.995-.262,10.661l.282.008c.074-3.666.159-7.228.252-10.662l-.272-.007" transform="translate(-102.466 -111.878)" fill="#263238"/>
        <path id="Trazado_129895" data-name="Trazado 129895" d="M228.625,170.532c.015-.378.026-.67.034-.879s0-.3,0-.3-.015.1-.031.3l-.062.878c-.049.784-.12,1.92-.212,3.378-.068,1.095-.142,2.373-.222,3.817l.156,0c.066-1.44.125-2.718.176-3.815.069-1.459.121-2.6.159-3.38" transform="translate(-103.835 -77.08)" fill="#263238"/>
        <path id="Trazado_129896" data-name="Trazado 129896" d="M227.184,195.174l.208.006c.023-.543.046-1.084.069-1.608.146-3.167.275-5.963.384-8.336l-.159,0c-.13,2.37-.273,5.164-.426,8.331-.026.525-.051,1.067-.076,1.611" transform="translate(-103.402 -84.308)" fill="#263238"/>
        <path id="Trazado_129897" data-name="Trazado 129897" d="M225.255,265.888l-.282-.007q-.055,2.69-.1,5.445-.042,2.641-.071,5.22l.283.008q.031-2.583.072-5.222.044-2.755.1-5.443" transform="translate(-102.318 -121.015)" fill="#263238"/>
        <path id="Trazado_129898" data-name="Trazado 129898" d="M226.415,213.584c.085-.02.166-.041.247-.063.121-3.417.246-6.612.368-9.529l-.209-.006c-.137,2.937-.273,6.154-.406,9.6" transform="translate(-103.052 -92.844)" fill="#263238"/>
        <path id="Trazado_129899" data-name="Trazado 129899" d="M224.91,306.049l-.272-.007c-.013,3.728-.01,7.3,0,10.674l.251.007c-.007-3.375,0-6.946.016-10.674" transform="translate(-102.24 -139.294)" fill="#263238"/>
        <path id="Trazado_129900" data-name="Trazado 129900" d="M224.656,326.129c.018,3.841.052,7.417.1,10.68l.214.006c-.03-3.263-.052-6.838-.06-10.68l-.25-.006" transform="translate(-102.252 -148.437)" fill="#263238"/>
        <path id="Trazado_129901" data-name="Trazado 129901" d="M225.471,373.983c-.011-.785-.029-1.924-.051-3.384-.016-1.185-.036-2.589-.058-4.174l-.16,0c.036,1.59.073,3,.108,4.18.045,1.46.08,2.6.1,3.384l.034.879c0,.092.009.161.013.211l.012,0c0-.05,0-.12,0-.213q0-.314-.006-.881" transform="translate(-102.5 -166.776)" fill="#263238"/>
        <path id="Trazado_129902" data-name="Trazado 129902" d="M225.052,346.225l-.213-.005c.013.938.026,1.858.04,2.741.048,3.021.1,5.7.151,8l.162,0c-.033-2.3-.07-4.982-.113-8-.01-.88-.019-1.8-.028-2.733" transform="translate(-102.335 -157.581)" fill="#263238"/>
        <path id="Trazado_129903" data-name="Trazado 129903" d="M246.144,257.816c.05-3.162.094-6.246.131-9.229a4.4,4.4,0,0,1-.277-.556c-.047,3.153-.1,6.421-.148,9.777l.293.009" transform="translate(-111.899 -112.89)" fill="#263238"/>
        <path id="Trazado_129904" data-name="Trazado 129904" d="M246,266.392l-.293-.007q-.051,3.346-.1,6.8c-.023,1.32-.045,2.625-.065,3.922l.29.009c.02-1.3.039-2.605.059-3.927q.059-3.451.112-6.795" transform="translate(-111.756 -121.245)" fill="#263238"/>
        <path id="Trazado_129905" data-name="Trazado 129905" d="M246.379,195.728v.05l.2.006c0-.019,0-.039,0-.057-.008-2.612-.058-4.975-.089-7.049q-.02-1.5-.05-2.786a6.01,6.01,0,0,1-.125.934c.007.593.013,1.2.016,1.854.016,2.074.051,4.436.047,7.048" transform="translate(-112.11 -84.608)" fill="#263238"/>
        <path id="Trazado_129906" data-name="Trazado 129906" d="M246.438,208.907l.221.017c0-1.554-.011-3.046-.024-4.462l-.2,0c.006,1.413.007,2.9,0,4.45" transform="translate(-112.164 -93.058)" fill="#263238"/>
        <path id="Trazado_129907" data-name="Trazado 129907" d="M246.184,174.41c-.013-.328-.023-.587-.03-.787l-.031.04c0,.195,0,.442,0,.749.011.78.028,1.911.048,3.363,0,.254.01.53.015.8a5.837,5.837,0,0,1,.141.822c-.015-.575-.03-1.128-.045-1.628-.044-1.451-.078-2.582-.1-3.362" transform="translate(-112.022 -79.024)" fill="#263238"/>
        <path id="Trazado_129908" data-name="Trazado 129908" d="M245.687,286.468l-.29-.007c-.06,3.68-.114,7.267-.16,10.725l.288.009c.052-3.459.106-7.046.162-10.728" transform="translate(-111.619 -130.382)" fill="#263238"/>
        <path id="Trazado_129909" data-name="Trazado 129909" d="M245.476,375.476c-.012-.781-.028-1.912-.049-3.363-.028-1.435-.056-3.189-.069-5.218l-.157,0c.027,2.031.071,3.787.116,5.223s.078,2.582.1,3.363q.022.563.034.874c.009.2.021.3.021.3s.007-.1.008-.3,0-.5-.005-.875" transform="translate(-111.603 -166.99)" fill="#263238"/>
        <path id="Trazado_129910" data-name="Trazado 129910" d="M245.261,326.619l-.253-.005c-.024,3.845-.033,7.451-.022,10.743l.218.007c0-3.291.023-6.9.057-10.744" transform="translate(-111.503 -148.658)" fill="#263238"/>
        <path id="Trazado_129911" data-name="Trazado 129911" d="M245.209,346.7l-.219,0c0,1.337.013,2.627.025,3.858.008,2.571.056,4.9.087,6.947l.16,0c-.016-2.052-.05-4.381-.046-6.953,0-1.229-.007-2.517-.006-3.852" transform="translate(-111.507 -157.797)" fill="#263238"/>
        <path id="Trazado_129912" data-name="Trazado 129912" d="M245.43,306.544l-.288-.007c-.033,2.534-.062,5-.085,7.387-.009,1.137-.017,2.248-.024,3.346l.253.008c.01-1.1.02-2.213.032-3.352.036-2.382.073-4.85.111-7.383" transform="translate(-111.526 -139.52)" fill="#263238"/>
        <path id="Trazado_129913" data-name="Trazado 129913" d="M201.315,285.345l-.269-.008c-.135,3.673-.265,7.236-.391,10.656l.247.007c.132-3.421.271-6.983.413-10.655" transform="translate(-91.328 -129.871)" fill="#263238"/>
        <path id="Trazado_129914" data-name="Trazado 129914" d="M204.542,194.561l.206.005c.038-1.021.074-2.02.11-2.976.088-2.583.167-4.921.238-6.977l-.149,0c-.085,2.055-.182,4.391-.289,6.972-.037.957-.076,1.958-.115,2.979" transform="translate(-93.097 -84.024)" fill="#263238"/>
        <path id="Trazado_129915" data-name="Trazado 129915" d="M202.556,245.2c-.133,3.437-.271,7-.413,10.657l.276.007c.134-3.656.265-7.22.391-10.657l-.254-.007" transform="translate(-92.005 -111.601)" fill="#263238"/>
        <path id="Trazado_129916" data-name="Trazado 129916" d="M203.334,225.129c-.131,3.379-.269,6.943-.413,10.658l.253.007c.136-3.715.267-7.28.391-10.658l-.232-.007" transform="translate(-92.359 -102.467)" fill="#263238"/>
        <path id="Trazado_129917" data-name="Trazado 129917" d="M205.512,171.705c-.058,1.393-.128,3.087-.209,5.034l.148,0c.066-1.947.124-3.641.171-5.033.043-1.441.076-2.564.1-3.338,0-.17.007-.32.01-.456-.014,0-.026-.007-.027-.011h-.015c-.008.137-.016.29-.025.464-.035.774-.087,1.9-.153,3.336" transform="translate(-93.443 -76.422)" fill="#263238"/>
        <path id="Trazado_129918" data-name="Trazado 129918" d="M204.147,203.384c-.136,3.516-.287,7.4-.448,11.573l.231.005c.153-4.175.3-8.056.424-11.573l-.207-.005" transform="translate(-92.713 -92.57)" fill="#263238"/>
        <path id="Trazado_129919" data-name="Trazado 129919" d="M202.068,265.275l-.276-.008q-.068,1.754-.137,3.532-.133,3.622-.262,7.124l.269.007q.136-3.5.276-7.121.065-1.783.13-3.536" transform="translate(-91.664 -120.736)" fill="#263238"/>
        <path id="Trazado_129920" data-name="Trazado 129920" d="M199.06,345.552l-.2-.005c0,.1-.008.2-.011.295-.142,4.165-.262,7.68-.355,10.415l.124,0c.113-2.735.258-6.248.431-10.412,0-.1.008-.2.011-.3" transform="translate(-90.344 -157.275)" fill="#263238"/>
        <path id="Trazado_129921" data-name="Trazado 129921" d="M199.573,325.477c-.142,3.87-.273,7.442-.391,10.655l.2,0c.125-3.212.263-6.784.413-10.654l-.223-.006" transform="translate(-90.657 -148.14)" fill="#263238"/>
        <path id="Trazado_129922" data-name="Trazado 129922" d="M200.31,305.407c-.137,3.739-.268,7.306-.391,10.655l.224.006c.13-3.349.268-6.915.413-10.655l-.246-.007" transform="translate(-90.993 -139.005)" fill="#263238"/>
        <path id="Trazado_129923" data-name="Trazado 129923" d="M198.277,367.3c-.043,1.441-.076,2.563-.1,3.339-.008.373-.014.661-.019.868s0,.3,0,.3.013-.1.026-.3.027-.495.047-.867c.035-.775.087-1.9.153-3.337.02-.488.042-1.024.065-1.582l-.122,0c-.019.558-.037,1.1-.054,1.583" transform="translate(-90.191 -166.455)" fill="#263238"/>
        <path id="Trazado_129924" data-name="Trazado 129924" d="M189.038,177.849l.23.005c.122-.959.238-1.866.345-2.7.224-1.742.414-3.208.56-4.344l-.137.059c-.169,1.108-.38,2.547-.622,4.258-.119.845-.246,1.758-.377,2.726" transform="translate(-86.04 -77.742)" fill="#263238"/>
        <path id="Trazado_129925" data-name="Trazado 129925" d="M186.451,202.88l-.282-.009q-.19,1.592-.378,3.247-.075.668-.149,1.327l.052-.055s-.015.68.053,1.678q.158-1.435.326-2.919.189-1.666.377-3.27" transform="translate(-84.495 -92.336)" fill="#263238"/>
        <path id="Trazado_129926" data-name="Trazado 129926" d="M188.158,184.134l-.232-.007c-.392,2.9-.828,6.289-1.266,9.973l.282.007c.432-3.683.85-7.075,1.217-9.972" transform="translate(-84.958 -83.805)" fill="#263238"/>
        <path id="Trazado_129927" data-name="Trazado 129927" d="M246.559,185.487c2.63.064,5.038.12,7.156.167-.023-.072-.052-.14-.076-.211-2.1-.065-4.484-.137-7.083-.212,0,.085.007.171,0,.256" transform="translate(-112.22 -84.308)" fill="#263238"/>
        <path id="Trazado_129928" data-name="Trazado 129928" d="M183.149,183.828l.232.007c2.549.078,5.468.165,8.648.256l.149,0c3.063.087,6.362.178,9.8.27l2.482.066.159,0,3.9.1c.007-.092.02-.184.03-.276l-3.915-.108-.156,0-2.49-.068c-3.441-.092-6.739-.177-9.8-.253l-.148,0c-3.173-.079-6.087-.149-8.632-.206l-.23,0c-2.815-.063-5.166-.112-6.9-.142l-.114.128c1.74.063,4.121.141,6.986.229" transform="translate(-80.18 -83.506)" fill="#263238"/>
        <path id="Trazado_129929" data-name="Trazado 129929" d="M194.272,202.936c2.281.061,4.5.119,6.628.173l.209.005,3.106.078a3.931,3.931,0,0,1,.718-.246l-3.812-.108-.208-.006c-2.131-.059-4.35-.12-6.633-.181l-5.5-.144-.207-.005c-3.406-.088-6.6-.167-9.461-.234l-.282-.006c-3.81-.09-7.027-.16-9.37-.2l.134.152c2.325.08,5.48.18,9.208.291l.282.009c2.868.085,6.064.177,9.478.271l.207.006,5.5.149" transform="translate(-77.131 -91.966)" fill="#263238"/>
        <path id="Trazado_129930" data-name="Trazado 129930" d="M236.879,204.065l.41.01a2.066,2.066,0,0,1-.606-.212,1.487,1.487,0,0,1,.2.2" transform="translate(-107.725 -92.787)" fill="#263238"/>
        <path id="Trazado_129931" data-name="Trazado 129931" d="M242.962,203.951l-3.452-.1a1.807,1.807,0,0,1-.7.234l4.154.1.2,0c3.706.086,6.728.148,8.773.183-.006-.042-.011-.082-.017-.125-2.045-.075-5.061-.173-8.757-.286l-.2-.006" transform="translate(-108.693 -92.781)" fill="#263238"/>
        <path id="Trazado_129932" data-name="Trazado 129932" d="M196.785,224.73c2.189.061,4.472.124,6.823.186l5.249.137.25.007c3.844.1,7.419.187,10.563.261l0-.236c-3.142-.094-6.714-.2-10.556-.3l-.25-.007c-1.7-.047-3.457-.095-5.251-.143-2.35-.063-4.632-.122-6.82-.178l-.231-.006c-3.071-.078-5.945-.149-8.541-.21q.056.123.116.243c2.563.076,5.393.157,8.414.242l.232.007" transform="translate(-85.578 -102.062)" fill="#263238"/>
        <path id="Trazado_129933" data-name="Trazado 129933" d="M199.5,244.883c2.037.057,4.151.114,6.325.172l5.793.152.272.007c3.94.1,7.582.19,10.753.264l0-.231c-3.17-.1-6.81-.2-10.749-.311l-.272-.007c-1.872-.052-3.809-.1-5.793-.157-2.172-.058-4.286-.113-6.321-.166l-.253-.007-4.339-.109-.048.262,4.376.124.254.007" transform="translate(-88.694 -111.28)" fill="#263238"/>
        <path id="Trazado_129934" data-name="Trazado 129934" d="M197.177,264.913c1.882.052,3.83.105,5.826.159,2.209.059,4.358.115,6.425.168l.282.007c4.069.1,7.806.2,11.012.269l.293.007c1.736.04,3.311.074,4.692.1-.018-.06-.037-.119-.054-.179-1.367-.045-2.923-.094-4.634-.146l-.293-.009c-3.205-.1-6.941-.206-11.01-.319l-.282-.008c-2.067-.057-4.215-.116-6.423-.175l-5.823-.153-.276-.007c-2.164-.056-4.237-.107-6.192-.155l-.071.256c1.973.057,4.067.117,6.253.177l.276.008" transform="translate(-86.773 -120.374)" fill="#263238"/>
        <path id="Trazado_129935" data-name="Trazado 129935" d="M194.745,284.941c1.733.048,3.516.1,5.342.145,2.468.066,4.863.129,7.151.187l.282.007c4.1.1,7.839.195,11.015.266l.29.007c2.754.062,5.071.11,6.8.141,0-.045,0-.09-.006-.135-1.73-.062-4.044-.137-6.793-.222l-.29-.009c-3.176-.1-6.919-.207-11.016-.322l-.282-.008c-2.286-.064-4.68-.13-7.146-.2-1.825-.049-3.608-.1-5.339-.14l-.269-.007c-2.922-.075-5.688-.144-8.225-.205-.014.083-.027.166-.041.248,2.545.075,5.322.154,8.256.235l.269.008" transform="translate(-84.758 -129.467)" fill="#263238"/>
        <path id="Trazado_129936" data-name="Trazado 129936" d="M193.087,304.986l.246.006,4.866.132c2.765.074,5.435.143,7.968.207l.272.007c4.1.1,7.82.192,10.946.263l.288.006c2.816.063,5.127.11,6.772.136l.008-.121c-1.645-.061-3.958-.138-6.777-.226l-.289-.009c-3.125-.1-6.846-.207-10.946-.322l-.272-.008c-2.531-.071-5.2-.144-7.962-.218l-4.863-.128-.246-.006c-3.228-.083-6.271-.159-9.035-.226,0,.083-.009.164-.014.247,2.765.082,5.809.168,9.039.257" transform="translate(-83.769 -138.584)" fill="#263238"/>
        <path id="Trazado_129937" data-name="Trazado 129937" d="M192.889,325.067l.223.006,4.39.119c3.1.083,6.077.16,8.875.23l.25.006c4.1.1,7.79.19,10.851.258l.253.006c2.372.052,4.352.092,5.829.116l.016-.124c-1.478-.054-3.464-.12-5.844-.2l-.254-.008c-3.061-.1-6.753-.205-10.852-.321l-.251-.007c-2.8-.079-5.773-.161-8.866-.244l-4.387-.116-.224-.006c-2.977-.077-5.8-.148-8.4-.211.008.085.02.169.028.254,2.591.076,5.4.155,8.364.236" transform="translate(-83.973 -147.73)" fill="#263238"/>
        <path id="Trazado_129938" data-name="Trazado 129938" d="M193.8,345.176l.2.005,3.914.106c3.467.093,6.792.178,9.874.255l.213,0c4.109.1,7.776.189,10.767.253l.218,0c1.65.035,3.087.064,4.268.086l.023-.137c-1.186-.043-2.631-.09-4.291-.143l-.219-.007c-2.991-.095-6.658-.2-10.768-.321l-.214-.007c-3.08-.088-6.4-.179-9.863-.271l-3.91-.1-.2,0c-2.236-.058-4.388-.113-6.43-.163.013.088.026.178.039.265,2.027.058,4.163.118,6.381.179" transform="translate(-85.286 -156.904)" fill="#263238"/>
        <path id="Trazado_129939" data-name="Trazado 129939" d="M194.735,365.389l.122,0,4.749.129c3.4.091,6.659.175,9.69.251l.16,0c4.082.1,7.738.188,10.737.253l.158,0,2.2.047.034-.173-2.233-.073-.16,0c-3-.095-6.656-.2-10.737-.32l-.162,0c-3.027-.086-6.283-.176-9.677-.266l-4.746-.125-.124,0-4.486-.114c.013.09.025.183.036.27l4.441.124" transform="translate(-86.596 -166.127)" fill="#263238"/>
        <path id="Trazado_129940" data-name="Trazado 129940" d="M207.953,167.847l4.614.033c1.8.007,3.436-.009,4.617-.051.591-.02,1.069-.044,1.4-.07a1.924,1.924,0,0,0,.509-.066h0a1.038,1.038,0,0,0-.346-.036v.028l-10.563-.045-.235.008c-.591.02-1.068.044-1.4.07a1.786,1.786,0,0,0-.511.068s.013.007.026.011c.127.032.821.042,1.886.052" transform="translate(-93.779 -76.301)" fill="#263238"/>
        <path id="Trazado_129941" data-name="Trazado 129941" d="M217.657,220.029a7.715,7.715,0,0,1-3.3-1.282c-.757-.52-1.144-.953-1.179-.919-.014.012.068.132.241.33a5.925,5.925,0,0,0,.82.751,7.083,7.083,0,0,0,6.139,1.222c.085-.022.167-.045.247-.069a6.263,6.263,0,0,0,.616-.217,5.957,5.957,0,0,0,.988-.511c.22-.144.33-.24.32-.254-.026-.042-.512.274-1.379.577-.163.058-.345.113-.536.164-.081.022-.162.043-.247.063a7.664,7.664,0,0,1-2.734.144" transform="translate(-97.028 -99.143)" fill="#263238"/>
        <path id="Trazado_129942" data-name="Trazado 129942" d="M251.029,213.248c.007-.078-3.247-.415-7.266-.752q-.845-.07-1.637-.133l-.222-.017c-3.119-.245-5.426-.384-5.431-.318s2.267.311,5.357.586c.609.054,1.247.11,1.909.165,3.181.267,5.882.453,6.876.481a1.414,1.414,0,0,0,.413-.012" transform="translate(-107.631 -96.496)" fill="#263238"/>
        <path id="Trazado_129943" data-name="Trazado 129943" d="M229.664,155.2a3.154,3.154,0,0,0,3.626,2.074,5.277,5.277,0,0,0-.511,1.631,5.7,5.7,0,0,0,1.762,4.948,7.772,7.772,0,0,0-1.639,3.976c-.01.092-.023.183-.031.276a7.525,7.525,0,0,0,1.035,4.458,6.071,6.071,0,0,0-1.739,3.485,2.4,2.4,0,0,0,.727,1.659,2.06,2.06,0,0,1,.436.307c.056.047.109.092.158.136a2.056,2.056,0,0,0,.606.212,1.922,1.922,0,0,0,.785-.029,1.993,1.993,0,0,0,.469-.191,3.008,3.008,0,0,0,1.133-1.225,5.116,5.116,0,0,0,.26-4.334,5.749,5.749,0,0,0,2-3.29,5.943,5.943,0,0,0,.125-.934c0-.035.008-.069.009-.1,0-.086,0-.171,0-.256,0-.183-.01-.365-.028-.547a6.017,6.017,0,0,0-.141-.822,5.532,5.532,0,0,0-1.663-2.814,5.463,5.463,0,0,0,1.334-1.812,3.29,3.29,0,0,1-1.024.695,2.753,2.753,0,0,1-.951.227,1.506,1.506,0,0,1-.265-.008c-.06-.007-.092-.015-.092-.025s.031-.021.09-.033.145-.018.253-.045a3.386,3.386,0,0,0,1.948-1.14,3.15,3.15,0,0,0,.334-.489c.034-.122.068-.242.094-.366a5.716,5.716,0,0,0,.013-2.29,3.372,3.372,0,0,0-.76-1.076,5.957,5.957,0,0,0-1.061-.715c0-.01.035-.008.094,0a1.47,1.47,0,0,1,.256.07,2.753,2.753,0,0,1,.844.493,3.134,3.134,0,0,1,.394.4,5.3,5.3,0,0,0-1.287-1.993,8.587,8.587,0,0,0-.858-8.333c-.867,3.512-2.749,6.868-6.731,7.825m6.249,8.778c-.02.078-.311.068-.654.1s-.63.081-.662.008.242-.26.64-.29.7.113.677.186m-.994,8.62c-.567-.086-1.041-.092-1.049-.173s.481-.2,1.091-.108,1.046.349,1.014.417-.488-.056-1.055-.136m-.311-16.531a1.693,1.693,0,0,1,1.138-.064c0,.081-.483.167-1.059.337s-1.035.354-1.074.283.381-.379,1-.555" transform="translate(-104.531 -67.08)" fill="#263238"/>
        <path id="Trazado_129944" data-name="Trazado 129944" d="M213.777,118.572a9.558,9.558,0,0,0,.957,2.469,9.188,9.188,0,0,0,.872,1.3,8.643,8.643,0,0,0,2.537,2.166,9.258,9.258,0,0,0,1.418.657,9.562,9.562,0,0,0,2.589.558c.084.006.159.007.239.011l.019-1.832s-7.352-.639-8.9-7.4c0,.084,0,.181.014.292a9.9,9.9,0,0,0,.254,1.777" transform="translate(-97.178 -53.026)" fill="#b78876"/>
        <path id="Trazado_129945" data-name="Trazado 129945" d="M215.333,144.155l.124-3.219-.041.011.113-11-.021-.025a6.713,6.713,0,0,1,.038-1.59l.027-2.633c-.083,0-.162,0-.249,0a9.3,9.3,0,0,1-4.132-1.174,8.641,8.641,0,0,1-2.618-2.236,9.291,9.291,0,0,1-1.807-3.9,8.16,8.16,0,0,1-.169-1.818,4.52,4.52,0,0,1,.033-.5c0-.02,0-.028.006-.044s0-.017-.006-.026l-.043.041c-.43,1.077-1.186,3.385-.636,5.233l-6.676,1.843-.74.716c0,3.162.049,6.735.2,8.946a5.556,5.556,0,0,0,4.949,5.146,11.219,11.219,0,0,0,6.041-2.165s-1.338,3.463-5.929,3.316l-.112-1.151s.373,4.955.337,6.2l.743,0,10.563.044ZM200.17,125.738a.6.6,0,1,1,.579-.607.593.593,0,0,1-.579.607m1.141-1.413c-.065.087-.543-.228-1.172-.178s-1.059.423-1.135.347c-.038-.034.022-.187.209-.36a1.524,1.524,0,0,1,1.841-.134c.209.143.289.286.257.325m1.152,5.633a.4.4,0,0,1-.275-.234,1.069,1.069,0,0,1,.054-.682q.19-.646.4-1.352a24.165,24.165,0,0,1,1.18-3.425,24.174,24.174,0,0,1-.92,3.508l-.419,1.346a.94.94,0,0,0-.085.518c.032.116.186.14.348.147a3.911,3.911,0,0,1,1.032.128,3.831,3.831,0,0,1-1.038.069,1.006,1.006,0,0,1-.275-.022m2.462,2.239a1.723,1.723,0,0,1-2.1-.587c1.286-.014,3.671-1.55,3.038-1.109a1.367,1.367,0,0,1-.941,1.7m2.032-6.531a.6.6,0,1,1,.579-.606.593.593,0,0,1-.579.606m1.344-1.414c-.065.087-.543-.228-1.172-.178s-1.059.423-1.135.347c-.037-.034.022-.187.209-.36a1.525,1.525,0,0,1,1.842-.134c.209.143.289.286.257.325" transform="translate(-90.363 -52.8)" fill="#b78876"/>
        <path id="Trazado_129946" data-name="Trazado 129946" d="M201.029,131.66a.6.6,0,1,0,.592.595.593.593,0,0,0-.592-.595" transform="translate(-91.234 -59.925)" fill="#263238"/>
        <path id="Trazado_129947" data-name="Trazado 129947" d="M201.437,130.471a1.524,1.524,0,0,0-1.842.135c-.187.172-.246.325-.209.359.076.077.5-.305,1.135-.346s1.107.265,1.172.178c.032-.039-.048-.181-.257-.325" transform="translate(-90.746 -59.271)" fill="#263238"/>
        <path id="Trazado_129948" data-name="Trazado 129948" d="M213.486,131.53a.6.6,0,1,0,.592.595.593.593,0,0,0-.592-.595" transform="translate(-96.904 -59.866)" fill="#263238"/>
        <path id="Trazado_129949" data-name="Trazado 129949" d="M214.267,130.337a1.525,1.525,0,0,0-1.842.134c-.186.173-.246.325-.209.36.076.077.505-.305,1.135-.347s1.107.265,1.171.178c.032-.039-.047-.181-.257-.325" transform="translate(-96.585 -59.21)" fill="#263238"/>
        <path id="Trazado_129950" data-name="Trazado 129950" d="M205.762,136.68c-.162-.007-.316-.03-.348-.147a.942.942,0,0,1,.085-.519q.2-.641.419-1.345a24.2,24.2,0,0,0,.92-3.508,24.08,24.08,0,0,0-1.18,3.425c-.139.472-.272.921-.4,1.352a1.07,1.07,0,0,0-.054.683.4.4,0,0,0,.276.234,1.009,1.009,0,0,0,.275.022,3.836,3.836,0,0,0,1.038-.069,3.881,3.881,0,0,0-1.032-.128" transform="translate(-93.381 -59.698)" fill="#263238"/>
        <path id="Trazado_129951" data-name="Trazado 129951" d="M206.414,143.652a1.724,1.724,0,0,0,2.1.587,1.367,1.367,0,0,0,.941-1.7c.634-.441-1.751,1.1-3.038,1.109" transform="translate(-93.949 -64.842)" fill="#fff"/>
        <path id="Trazado_129952" data-name="Trazado 129952" d="M214.034,152.274a11.217,11.217,0,0,1-6.041,2.165l.112,1.151c4.591.147,5.929-3.316,5.929-3.316" transform="translate(-94.668 -69.307)" fill="#a36957"/>
        <path id="Trazado_129953" data-name="Trazado 129953" d="M205.341,116.085c-.549-1.847.206-4.156.636-5.232l.043-.041c0,.009,0,.016.006.025.01-.077.02-.127.028-.126s.017.06.023.173c0,.054,0,.121.007.2,1.547,6.758,8.9,7.4,8.9,7.4l-.019,1.832a9.85,9.85,0,0,0,1.556-.039c.213-.015.375-.048.488-.057s.173-.014.175,0-.054.03-.163.06a4.713,4.713,0,0,1-.484.11,8.025,8.025,0,0,1-1.574.121l-.027,2.634a3.124,3.124,0,0,1,.131-.5,1.972,1.972,0,0,1,1.485-1.356,1.669,1.669,0,0,1,1.757,1.341,2.055,2.055,0,0,1-.99,2.063,2.544,2.544,0,0,1-1.613.313c-.008.031-.019.053-.025.086a1.079,1.079,0,0,0,.153.762,1.081,1.081,0,0,0,1.664.226,1.078,1.078,0,0,0,.35-.694,2.349,2.349,0,0,0-.11-.765c.014-.028.306.219.311.777a1.234,1.234,0,0,1-.372.872,1.306,1.306,0,0,1-2.067-.281,1.229,1.229,0,0,1-.125-.939c.007-.026.017-.047.026-.072a2.931,2.931,0,0,1-.539-.154l-.051-.059-.113,11,.041-.011.039-.011c3.981-.957,5.863-4.313,6.731-7.825q.087-.351.161-.7c-.034.069-.068.143-.1.208a9.478,9.478,0,0,1-.842,1.349,2.06,2.06,0,0,1-.385.438c-.044-.03.479-.679,1.047-1.876a11,11,0,0,0,.476-1.174,32.391,32.391,0,0,0,.33-6.025l-.011-.323a11.556,11.556,0,0,0-.873-2.435c-.586-1.188-1.119-1.828-1.076-1.86a2.045,2.045,0,0,1,.391.433,9.376,9.376,0,0,1,.863,1.335,10.471,10.471,0,0,1,.659,1.491l-.018-.523c0,.017,0,.011,0-.02v-.008l0-.011c0-.032-.009-.077-.018-.149v0a17.7,17.7,0,0,0-.3-1.9c-2.6-9.769-11.005-11.507-12.665-11.49-1.779.019-4.9-.953-9.391,3.934a9.252,9.252,0,0,0-1.947,10.065l.014-.014.74-.716Z" transform="translate(-89.753 -47.605)" fill="#263238"/>
        <path id="Trazado_129954" data-name="Trazado 129954" d="M232.888,203.792a1.312,1.312,0,0,1-.242-.265,3.841,3.841,0,0,0-.574.088,3.951,3.951,0,0,0-.718.246,3.836,3.836,0,0,0-2.261,3.628l.986-.4a5.048,5.048,0,0,0-.482,1.664,2.005,2.005,0,0,0,1.461-.671q-.137.636-.273,1.273a4.559,4.559,0,0,0,2.539-4.624,3.188,3.188,0,0,0-.15-.372c-.154-.312-.29-.489-.257-.519.017-.018.136.056.285.23-.009-.034-.018-.067-.028-.1a1.319,1.319,0,0,1-.285-.181" transform="translate(-104.271 -92.635)" fill="#263238"/>
        <path id="Trazado_129955" data-name="Trazado 129955" d="M235.438,203.038c-.037.028,0,.136.09.263a1.325,1.325,0,0,0,.527.446c.15.072.272.093.294.05.013-.024-.009-.064-.044-.111a1.507,1.507,0,0,0-.2-.2c-.049-.044-.1-.089-.158-.136a2.061,2.061,0,0,0-.436-.307c-.035-.012-.062-.015-.078,0" transform="translate(-107.153 -92.408)" fill="#e8505b"/>
        <path id="Trazado_129956" data-name="Trazado 129956" d="M238.473,193.131c-.61-.091-1.1.034-1.091.108s.482.087,1.049.172,1.023.211,1.055.136-.4-.329-1.014-.417" transform="translate(-108.044 -87.889)" fill="#e8505b"/>
        <path id="Trazado_129957" data-name="Trazado 129957" d="M238.715,177.8c.032.074.317.018.661-.007s.635-.019.655-.1-.28-.219-.677-.186-.673.221-.64.29" transform="translate(-108.649 -80.79)" fill="#e8505b"/>
        <path id="Trazado_129958" data-name="Trazado 129958" d="M237.983,163.5c.576-.169,1.064-.256,1.059-.337a1.69,1.69,0,0,0-1.138.064c-.614.177-1.035.491-1,.555s.5-.117,1.075-.283" transform="translate(-107.827 -74.233)" fill="#e8505b"/>
        <path id="Trazado_129959" data-name="Trazado 129959" d="M223.878,125.493a4.707,4.707,0,0,0,.484-.11c.109-.031.165-.051.163-.06s-.062-.008-.174,0-.275.042-.488.057a9.841,9.841,0,0,1-1.556.039c-.08,0-.156,0-.24-.011a9.535,9.535,0,0,1-2.588-.559,9.209,9.209,0,0,1-1.419-.657,8.661,8.661,0,0,1-2.537-2.166,9.289,9.289,0,0,1-.871-1.3,9.555,9.555,0,0,1-.958-2.469,9.9,9.9,0,0,1-.254-1.778c-.01-.111-.013-.207-.014-.292s0-.145-.007-.2c-.005-.113-.014-.173-.023-.173s-.017.049-.027.126c0,.016,0,.025-.006.044a4.51,4.51,0,0,0-.033.5,8.157,8.157,0,0,0,.169,1.818,9.292,9.292,0,0,0,1.807,3.9,8.622,8.622,0,0,0,2.618,2.236,9.3,9.3,0,0,0,4.132,1.174c.087,0,.166,0,.249,0a8.027,8.027,0,0,0,1.574-.121" transform="translate(-97.095 -52.716)" fill="#263238"/>
        <path id="Trazado_129960" data-name="Trazado 129960" d="M240.067,125.053a2.062,2.062,0,0,0-.391-.433c-.043.032.489.672,1.076,1.86a11.569,11.569,0,0,1,.872,2.435,11.234,11.234,0,0,1,.319,2.535,11.518,11.518,0,0,1-.638,3.813,11.168,11.168,0,0,1-.476,1.174c-.568,1.2-1.091,1.845-1.047,1.876a2.079,2.079,0,0,0,.385-.439,9.472,9.472,0,0,0,.842-1.349c.034-.065.068-.138.1-.207a10.8,10.8,0,0,0,.7-7.739c-.069-.244-.146-.476-.226-.7a10.559,10.559,0,0,0-.659-1.491,9.426,9.426,0,0,0-.863-1.335" transform="translate(-109.087 -56.721)" fill="#263238"/>
        <path id="Trazado_129961" data-name="Trazado 129961" d="M243.47,165.126a2.752,2.752,0,0,0-.844-.493,1.47,1.47,0,0,0-.256-.07c-.059-.011-.092-.013-.094,0a5.974,5.974,0,0,1,1.061.715,3.363,3.363,0,0,1,.759,1.076c.007.014.014.025.02.039a3.044,3.044,0,0,1,.233,1.621,2.909,2.909,0,0,1-.191.649,3.328,3.328,0,0,1-.5.835,3.386,3.386,0,0,1-1.948,1.14c-.108.027-.2.03-.253.045s-.09.023-.09.033.031.017.091.024a1.45,1.45,0,0,0,.265.008,2.753,2.753,0,0,0,.951-.227,3.3,3.3,0,0,0,1.024-.7c.053-.052.107-.1.158-.156.036-.041.068-.089.1-.132l.032-.04a3.212,3.212,0,0,0,.412-.691,3.072,3.072,0,0,0,.228-.75,3.174,3.174,0,0,0-.275-1.77,3.4,3.4,0,0,0-.489-.761,3.127,3.127,0,0,0-.394-.4" transform="translate(-109.856 -74.896)" fill="#263238"/>
        <path id="Trazado_129962" data-name="Trazado 129962" d="M236.106,204.1c-.033.031.1.208.257.519a3.059,3.059,0,0,1,.15.372,3.2,3.2,0,0,1-.039,2.242c-.063.162-.122.293-.167.38s-.06.147-.045.159.062-.022.136-.1a1.612,1.612,0,0,0,.258-.358,2.765,2.765,0,0,0-.12-2.8,2.186,2.186,0,0,0-.145-.189c-.15-.173-.268-.248-.285-.23" transform="translate(-107.461 -92.897)" fill="#263238"/>
        <path id="Trazado_129963" data-name="Trazado 129963" d="M230.273,138.893c.162-.476.475-.623.481-.594a3.4,3.4,0,0,0-.286.622,2.549,2.549,0,0,0,1.614-.313,2.055,2.055,0,0,0,.989-2.063,1.668,1.668,0,0,0-1.756-1.341,1.971,1.971,0,0,0-1.485,1.356,3.146,3.146,0,0,0-.131.5,6.717,6.717,0,0,0-.038,1.59l.021.025.051.059a2.916,2.916,0,0,0,.539.154m1.065-2.783a.834.834,0,0,1,.714.118.97.97,0,0,1,.314.825,1.32,1.32,0,0,1-.294.8.982.982,0,0,1-.614.348c-.416.052-.615-.168-.581-.2.025-.047.23.051.526-.048a.95.95,0,0,0,.609-.917.718.718,0,0,0-.167-.559.634.634,0,0,0-.465-.125c-.317.036-.537.127-.557.074-.014-.035.137-.2.513-.319" transform="translate(-104.517 -61.532)" fill="#b78876"/>
        <path id="Trazado_129964" data-name="Trazado 129964" d="M232.376,137.095a.637.637,0,0,1,.465.125.719.719,0,0,1,.166.559.95.95,0,0,1-.609.917c-.3.1-.5,0-.527.049-.033.027.165.248.581.2a.978.978,0,0,0,.613-.348,1.317,1.317,0,0,0,.294-.8.971.971,0,0,0-.314-.826.837.837,0,0,0-.714-.118c-.375.118-.527.284-.513.319.02.053.241-.037.557-.074" transform="translate(-105.512 -62.272)" fill="#a36957"/>
        <path id="Trazado_129965" data-name="Trazado 129965" d="M230.752,141.485c-.008.025-.018.046-.026.072a1.233,1.233,0,0,0,.125.94,1.307,1.307,0,0,0,2.067.281,1.233,1.233,0,0,0,.371-.872c0-.558-.3-.8-.31-.777a2.347,2.347,0,0,1,.11.765,1.085,1.085,0,0,1-.35.694,1.082,1.082,0,0,1-1.665-.226,1.084,1.084,0,0,1-.153-.762c.005-.033.017-.056.025-.086a3.406,3.406,0,0,1,.285-.622c-.005-.029-.318.118-.481.594" transform="translate(-104.995 -64.125)" fill="#e8505b"/>
        <path id="Trazado_129966" data-name="Trazado 129966" d="M200.992,380.049l.021,0c1.58.169,3.277.355,5.055.56,4.08.471,7.77.943,10.439,1.293l.989.128,2.174.282.861.1a.153.153,0,1,0,.009-.056l-.854-.154c-.554-.1-1.294-.215-2.186-.353l-.964-.147-.406-.061c-1.705-.253-3.785-.543-6.1-.837l-.013,0c-1.248-.159-2.558-.32-3.917-.477-4.085-.471-7.791-.82-10.476-1.036-1.342-.108-2.429-.187-3.182-.231l-.195-.01-.672-.035a1.22,1.22,0,0,0-.3,0,1.237,1.237,0,0,0,.3.053l.862.1.145.015,3.028.306c1.508.15,3.346.338,5.386.556" transform="translate(-87.057 -172.507)" fill="#263238"/>
        <path id="Trazado_129967" data-name="Trazado 129967" d="M130.97,138.376s-7.417-1.421-18.071-11.1S97,104.491,95.728,104.591s-6.884-2.316-16.775,20.916-5.589,28.44-3.491,28.338,16.228-4.477,25.155-3.718,20.494,5.071,20.494,5.071Z" transform="translate(-33.092 -47.591)" fill="#7fa2f0"/>
        <path id="Trazado_129969" data-name="Trazado 129969" d="M186.1,177.073l-2.379,4.852-1.066,2.173a6.241,6.241,0,0,1-8.055,2.993l-15.953-5.056,8.6-21.263,16.021,7.963a6.242,6.242,0,0,1,2.827,8.337" transform="translate(-72.207 -73.176)" fill="#7fa2f0"/>
        <path id="Trazado_129970" data-name="Trazado 129970" d="M169.152,202.55,164.4,212.559l-2.537-.628L145.8,225.77l-4.849-8.864s9.6-4.461,11.295-7.976-.4-4.242-.4-4.242l4.425-5.325Z" transform="translate(-64.153 -90.74)" fill="#7fa2f0"/>
        <path id="Trazado_129971" data-name="Trazado 129971" d="M80.95,128.3c-5.258,12.582-7.28,23.719-4.515,24.874s9.268-8.108,14.527-20.69,7.28-23.718,4.515-24.874S86.208,115.72,80.95,128.3" transform="translate(-34.226 -48.935)" fill="#263238"/>
        <path id="Trazado_129972" data-name="Trazado 129972" d="M208.267,198l-4.32-1.223,2.506-5.113,3.268,1.9Z" transform="translate(-92.826 -87.238)" fill="#455a64"/>
        <path id="Trazado_129973" data-name="Trazado 129973" d="M166.283,202.712,178,209.724l1.356-2.853Z" transform="translate(-75.683 -92.264)" fill="#263238"/>
        <path id="Trazado_129974" data-name="Trazado 129974" d="M206.454,191.668l-2.507,5.113.888.252,2.011-5.136Z" transform="translate(-92.826 -87.237)" fill="#263238"/>
        <path id="Trazado_129975" data-name="Trazado 129975" d="M157.374,181.78s-3.027-1.014-2.93-.983,9.372-17.1,9.372-17.1l.739.333-6.883,17.18" transform="translate(-70.294 -74.508)" fill="#263238"/>
        <path id="Trazado_129976" data-name="Trazado 129976" d="M195.308,190.643a23.912,23.912,0,0,1-4.825-1.719,23.994,23.994,0,0,1-4.614-2.228,24.084,24.084,0,0,1,4.826,1.72,24.118,24.118,0,0,1,4.613,2.227" transform="translate(-84.598 -84.967)" fill="#263238"/>
        <path id="Trazado_129977" data-name="Trazado 129977" d="M198.341,185.111a20.122,20.122,0,0,1-4.371-1.7,20.131,20.131,0,0,1-4.142-2.2,20.192,20.192,0,0,1,4.371,1.7,20.2,20.2,0,0,1,4.142,2.2" transform="translate(-86.399 -82.472)" fill="#263238"/>
        <path id="Trazado_129978" data-name="Trazado 129978" d="M193.122,196.849c-.021.074-.532-.029-1.351-.257-.409-.113-.894-.258-1.43-.427s-1.089-.438-1.684-.687a18.191,18.191,0,0,1-4.137-2.162,22.051,22.051,0,0,1,4.352,1.656c.59.247,1.138.522,1.653.72s.981.372,1.368.531c.776.319,1.249.554,1.229.627" transform="translate(-83.983 -87.979)" fill="#263238"/>
        <path id="Trazado_129979" data-name="Trazado 129979" d="M97.7,139.319s-6.519-3.791-9.778,4.964,3.521,9.986,3.521,9.986A57.673,57.673,0,0,0,97.7,139.319" transform="translate(-39.613 -63.039)" fill="#7fa2f0"/>
        <path id="Trazado_129980" data-name="Trazado 129980" d="M104.136,120.716a9.657,9.657,0,0,1-.2,1.661c-.173,1.063-.416,2.607-.773,4.5l-.8,3.053q-.217.824-.45,1.7-.116.439-.236.889c-.087.3-.2.592-.307.894l-1.341,3.775-.354.99c-.115.335-.283.651-.423.98l-.9,1.99-.9,1.99c-.154.324-.281.658-.455.966l-.508.921-1.943,3.5c-.159.277-.3.558-.467.822l-.512.767-.979,1.466c-.633.94-1.223,1.819-1.764,2.622-1.183,1.518-2.177,2.719-2.859,3.551a9.733,9.733,0,0,1-1.111,1.253,9.755,9.755,0,0,1,.942-1.384l2.72-3.658,1.694-2.64.947-1.467.5-.767c.161-.263.3-.545.454-.822l1.9-3.5.5-.916c.172-.306.3-.639.449-.961l.89-1.977.893-1.975c.141-.327.308-.641.423-.972l.355-.981,1.362-3.739c.106-.3.225-.59.315-.884l.246-.88q.244-.867.473-1.683c.308-1.084.6-2.094.859-3.02l.94-4.451a9.829,9.829,0,0,1,.415-1.625" transform="translate(-39.532 -54.944)" fill="#263238"/>
        <path id="Trazado_129981" data-name="Trazado 129981" d="M197.632,212.034s-6.291,11.645-7.976,11.821c-9.331.973-19.323-2.091-22.825-3.307-.357-.405-.763-.892-1.216-1.488a5.7,5.7,0,0,1-.882-1.709,8.886,8.886,0,0,1-.5-2.357.728.728,0,0,0-1.26-.578c-.4.539-.5,2.591.423,4.785s-2.338.476-3.539-.128-5-2.294-5.479-2.062c-.7.341-.477,1.169.736,1.744,1.228.581,4.73,2.562,4.382,3.2s-6.412-2.535-6.412-2.535-1.189-.891-1.614-.169c-.767,1.3,5.931,4.176,6.575,4.433.448.179.094.885-.376.667s-5.982-3.3-6.775-1.979c-.609,1.012,5.488,2.415,6.277,3.706s-4.514-1.546-5.057-.555c-.2.369-.3.673,2.975,1.849a68.019,68.019,0,0,0,7.306,1.832l-.012.035s31.492,14.716,39.789.111c5.413-9.529,5.924-10.737,7.843-16.121" transform="translate(-68.658 -96.507)" fill="#b78876"/>
        <path id="Trazado_129982" data-name="Trazado 129982" d="M1.561,248.567H62.915a1.56,1.56,0,0,1,1.56,1.561v12.434c.409,5.282,0,6.587-6.023,7.019v5.612l-5.519-5.52H1.561A1.56,1.56,0,0,1,0,268.112V250.127a1.56,1.56,0,0,1,1.56-1.56" transform="translate(0 -113.135)" fill="#7fa2f0"/>
        <rect id="Rectángulo_34640" data-name="Rectángulo 34640" width="32.443" height="1.388" transform="translate(20.277 142.035)" fill="#f1f1f1"/>
        <rect id="Rectángulo_34641" data-name="Rectángulo 34641" width="32.443" height="1.388" transform="translate(20.277 144.952)" fill="#f1f1f1"/>
        <rect id="Rectángulo_34642" data-name="Rectángulo 34642" width="16.441" height="1.388" transform="translate(20.277 148.092)" fill="#f1f1f1"/>
        <rect id="Rectángulo_34643" data-name="Rectángulo 34643" width="9.061" height="9.061" transform="translate(8.346 141.415)" fill="#f1f1f1"/>
        <path id="Trazado_129983" data-name="Trazado 129983" d="M337.469,78.066a2.734,2.734,0,0,0-2.747-2.72l-67.89.333a2.734,2.734,0,0,0-2.72,2.747l.105,21.42a2.734,2.734,0,0,0,2.748,2.72l1.476-.007.038,7.84,7.677-7.879,58.7-.288a2.734,2.734,0,0,0,2.72-2.747Z" transform="translate(-120.21 -34.294)" fill="#7fa2f0"/>
        <path id="Trazado_129984" data-name="Trazado 129984" d="M356.765,94.526c-.044-1.228-.024-3.044.011-4.664l-.008.008a5.1,5.1,0,0,1,1.2-5.52c2.533-2.635,4.242-2.061,5.222-2.048a8.115,8.115,0,0,1,6.832,6.489,9.911,9.911,0,0,1,.143,1.051h0c.028.269.052.525.075.708h0a5.685,5.685,0,0,0,2.981,4.672,11.227,11.227,0,1,0-15.964,5.2,16.033,16.033,0,0,1-.5-5.9" transform="translate(-160.079 -36.194)" fill="#e0e0e0"/>
        <path id="Trazado_129985" data-name="Trazado 129985" d="M382.433,99.762h0l0,.041-.059-.009c.019,2.154-.247,9.551-3.886,10.877a11.252,11.252,0,0,0,6.926-6.239,5.684,5.684,0,0,1-2.981-4.672" transform="translate(-172.268 -45.407)" fill="#263238"/>
        <path id="Trazado_129986" data-name="Trazado 129986" d="M360.933,107.327c0-.084-.008-.174-.011-.266a16.037,16.037,0,0,0,.5,5.9,11.149,11.149,0,0,0,2.358,1.052c-.042-1.564-.182-3.786-.182-3.786a3.062,3.062,0,0,1-2.661-2.9" transform="translate(-164.236 -48.729)" fill="#263238"/>
        <path id="Trazado_129987" data-name="Trazado 129987" d="M370.379,95.105s-4.153-.454-4.84-4.337l-.024.022a4.863,4.863,0,0,0-.417,2.874l-3.7.932-.417.385c-.035,1.62-.055,3.436-.011,4.663,0,.093.007.181.011.267a3.061,3.061,0,0,0,2.661,2.9A6.177,6.177,0,0,0,367,101.692a3.251,3.251,0,0,1-3.308,1.752l-.047-.636s.141,2.222.183,3.787a11.1,11.1,0,0,0,6.217.105Zm-5.1.654a.323.323,0,1,1,.319.335.327.327,0,0,1-.319-.335M365.2,95.2a.84.84,0,0,1,1.016-.051c.113.082.156.161.137.182-.036.047-.3-.132-.643-.112s-.589.22-.63.177c-.02-.02.015-.1.119-.2m-3.851-.048a.839.839,0,0,1,1.016-.051c.113.082.156.161.138.183-.037.047-.3-.133-.643-.113s-.589.22-.63.177c-.02-.02.015-.1.12-.2m.188.56a.323.323,0,1,1,.319.335.327.327,0,0,1-.319-.335m1.529,2.689a.221.221,0,0,1-.149-.132.588.588,0,0,1,.039-.375q.112-.353.237-.74a13.282,13.282,0,0,1,.693-1.872,13.323,13.323,0,0,1-.55,1.921l-.248.736a.519.519,0,0,0-.053.284c.016.064.1.08.19.085a2.134,2.134,0,0,1,.567.084,2.123,2.123,0,0,1-.573.025.581.581,0,0,1-.151-.016m1.328,1.265a.95.95,0,0,1-1.147-.35,6.626,6.626,0,0,0,1.687-.573.754.754,0,0,1-.54.922" transform="translate(-164.283 -41.313)" fill="#455a64"/>
        <path id="Trazado_129988" data-name="Trazado 129988" d="M362.68,99.577a.323.323,0,1,0-.327.327.327.327,0,0,0,.327-.327" transform="translate(-164.779 -45.17)" fill="#263238"/>
        <path id="Trazado_129989" data-name="Trazado 129989" d="M362.737,98.78c.018-.021-.024-.1-.137-.182a.84.84,0,0,0-1.016.051c-.105.093-.139.176-.119.2.041.044.282-.162.629-.177s.607.16.643.113" transform="translate(-164.517 -44.81)" fill="#263238"/>
        <path id="Trazado_129990" data-name="Trazado 129990" d="M369.543,99.662a.323.323,0,1,0-.327.327.327.327,0,0,0,.327-.327" transform="translate(-167.903 -45.208)" fill="#263238"/>
        <path id="Trazado_129991" data-name="Trazado 129991" d="M369.806,98.868c.018-.021-.024-.1-.137-.182a.84.84,0,0,0-1.016.051c-.1.093-.139.176-.119.2.041.044.282-.162.629-.177s.606.16.643.113" transform="translate(-167.735 -44.85)" fill="#263238"/>
        <path id="Trazado_129992" data-name="Trazado 129992" d="M365.424,102.161a2.149,2.149,0,0,0-.567-.083c-.089-.006-.173-.021-.19-.086a.519.519,0,0,1,.053-.284l.248-.736a13.475,13.475,0,0,0,.551-1.921,13.233,13.233,0,0,0-.693,1.872c-.083.258-.162.5-.236.74a.588.588,0,0,0-.039.375.22.22,0,0,0,.149.132.557.557,0,0,0,.151.016,2.124,2.124,0,0,0,.573-.025" transform="translate(-165.916 -45.083)" fill="#263238"/>
        <path id="Trazado_129993" data-name="Trazado 129993" d="M365.171,105.942a.95.95,0,0,0,1.147.35.753.753,0,0,0,.54-.922,6.612,6.612,0,0,1-1.687.573" transform="translate(-166.207 -47.939)" fill="#fff"/>
        <path id="Trazado_129994" data-name="Trazado 129994" d="M369.249,110.818a6.182,6.182,0,0,1-3.355,1.116l.047.636a3.251,3.251,0,0,0,3.308-1.752" transform="translate(-166.536 -50.439)" fill="#263238"/>
        <path id="Trazado_129995" data-name="Trazado 129995" d="M374.119,92.854l.059.009-.005-.041c-.023-.183-.047-.439-.075-.708v0a9.81,9.81,0,0,0-.143-1.051,8.115,8.115,0,0,0-6.832-6.489c-.98-.013-2.689-.587-5.222,2.049a5.1,5.1,0,0,0-1.2,5.52l.008-.007.416-.385,3.7-.931a4.86,4.86,0,0,1,.416-2.875l.024-.022c.688,3.883,4.841,4.337,4.841,4.337l-.338,11.6c.154-.041.311-.074.463-.122,3.639-1.326,3.905-8.724,3.886-10.877" transform="translate(-164.013 -38.465)" fill="#263238"/>
        <rect id="Rectángulo_34644" data-name="Rectángulo 34644" width="35.283" height="1.945" transform="translate(152.234 49.272) rotate(-0.281)" fill="#263238"/>
        <rect id="Rectángulo_34645" data-name="Rectángulo 34645" width="35.283" height="1.945" transform="translate(152.258 54.273) rotate(-0.281)" fill="#263238"/>
        <rect id="Rectángulo_34646" data-name="Rectángulo 34646" width="17.488" height="1.945" transform="translate(152.282 59.135) rotate(-0.282)" fill="#263238"/>
      </g>
    </g>
  </g>
</svg>
