<svg xmlns="http://www.w3.org/2000/svg" xmlns:xlink="http://www.w3.org/1999/xlink" width="295" height="222" viewBox="0 0 295 222">
  <defs>
    <clipPath id="clip-path">
      <rect id="Rectángulo_52014" data-name="Rectángulo 52014" width="295" height="222" transform="translate(-5402.294 -11191.556)" fill="none" stroke="#707070" stroke-width="1"/>
    </clipPath>
    <clipPath id="clip-path-2">
      <rect id="Rectángulo_52013" data-name="Rectángulo 52013" width="370.379" height="247.787" fill="#eaeaea"/>
    </clipPath>
    <clipPath id="clip-path-3">
      <rect id="Rectángulo_52002" data-name="Rectángulo 52002" width="370.379" height="247.787" fill="none"/>
    </clipPath>
    <clipPath id="clip-path-4">
      <rect id="Rectángulo_52001" data-name="Rectángulo 52001" width="239.662" height="145.85" fill="#f0f0f0"/>
    </clipPath>
    <clipPath id="clip-path-5">
      <path id="Trazado_202283" data-name="Trazado 202283" d="M249.919,128.917q-1.111.706-2.283,1.388c-.522,1.268-3.806,7.47-5.521,8.465l-8.194,4.754c-4.692,2.722-8.724,5.654-13.325,8.449l-.37.225c-6.055,3.69-11.973,7.6-17.857,11.553q-2.268,1.522-4.531,3.052c-1.652,1.112-2,1.031-2.033,2.909-.061,3.1,126.825-52.719,127.513-49.716,2.883,12.576,13.355,12.387,20.232,23.25.757,1.2-138.7,80.543-141.662,81.838a9.594,9.594,0,0,1-10.1.039L151.775,207.3c-8.188-3.647-37.457-18.585-39.136-19.651-.621-.394-1.918-1.079-2.143-1.855-.16-.554.9-2.476,1.36-1.977l-7.962-8.641,45.764-33.156c.814-.6.529-2.572.687-3.277.6-2.676,1.283-5.35,2.07-8.015,1.673-5.665,2.168-11.964,7.178-17.116,2.6-2.676,8.3-5.039,11.947-7.349,4.879-3.091,10.007-6.072,15.222-9,6.183-3.477,12.486-6.9,18.963-10.226l26.866,1.8L248.7,80.69l4.952,2.144,3.866,3.87,2.537,5.129-.127.215,2.456-1.229c.288-.059,8.062,11.154,8.635,12.211.884,1.63,2.185,3.2,2.758,4.876.811,2.366,2.987,5.867,1.845,8.268-1.228,2.583-6.162,4.173-9.046,6.211-4.955,3.5-11.425,3.206-16.658,6.532" transform="translate(-103.893 -80.69)" fill="#f0f0f0"/>
    </clipPath>
    <clipPath id="clip-path-6">
      <path id="Trazado_202287" data-name="Trazado 202287" d="M242.616,226.263c-.331.15-.667.317-1.007.508-6.186,3.464-11.271,11.929-11.356,18.909,0,.377.01.736.035,1.087.009.12.022.236.033.353.023.224.05.443.084.655.021.134.043.268.068.4.039.194.085.382.135.568a6.384,6.384,0,0,0,2.584,3.878l-.007.012.164.1c.045.027.09.055.136.08l5.6,3.247,4.23-6.9h0l8.566-13.977h0l3.513-5.731-5.958-3.458-.014.024a5.782,5.782,0,0,0-2.858-.707,9.543,9.543,0,0,0-3.953.96" transform="translate(-230.252 -225.303)" fill="none"/>
    </clipPath>
    <linearGradient id="linear-gradient" x1="-4.174" y1="2.261" x2="-4.156" y2="2.261" gradientUnits="objectBoundingBox">
      <stop offset="0" stop-color="#2a3338"/>
      <stop offset="0.161" stop-color="#2a3338"/>
      <stop offset="0.163" stop-color="#3c4851"/>
      <stop offset="0.559" stop-color="#3c4851"/>
      <stop offset="0.562" stop-color="#556773"/>
      <stop offset="0.873" stop-color="#556773"/>
      <stop offset="0.874" stop-color="#51626e"/>
      <stop offset="1" stop-color="#51626e"/>
    </linearGradient>
    <clipPath id="clip-path-8">
      <path id="Trazado_202291" data-name="Trazado 202291" d="M257.627,240.233c-.06,4.946-3.663,10.945-8.048,13.4a6.05,6.05,0,0,1-5,.788c1.429,1.251,3.654,1.326,6.174-.085,4.384-2.454,7.987-8.453,8.047-13.4.034-2.793-1.07-4.652-2.827-5.3a5.815,5.815,0,0,1,1.654,4.6" transform="translate(-244.579 -235.637)" fill="none"/>
    </clipPath>
    <linearGradient id="linear-gradient-2" x1="-7.178" y1="3.317" x2="-7.148" y2="3.317" gradientUnits="objectBoundingBox">
      <stop offset="0" stop-color="#ccc"/>
      <stop offset="0.161" stop-color="#ccc"/>
      <stop offset="0.163" stop-color="#e3e3e3"/>
      <stop offset="0.559" stop-color="#e3e3e3"/>
      <stop offset="0.562" stop-color="#ccc"/>
      <stop offset="0.873" stop-color="#ccc"/>
      <stop offset="0.874" stop-color="#b7b7b7"/>
      <stop offset="1" stop-color="#b7b7b7"/>
    </linearGradient>
    <clipPath id="clip-path-10">
      <path id="Trazado_202295" data-name="Trazado 202295" d="M384.961,144.1c-.331.149-.667.317-1.007.507-6.187,3.464-11.271,11.93-11.356,18.909,0,.376.01.735.035,1.087.008.121.022.235.033.353.023.223.05.442.084.655.021.134.043.267.069.4.039.2.085.383.134.568a6.391,6.391,0,0,0,2.585,3.879l-.007.012.163.1c.045.027.09.055.136.08l5.6,3.248,4.23-6.9h0l8.566-13.978,3.513-5.731-5.957-3.457-.015.023a5.777,5.777,0,0,0-2.857-.707,9.56,9.56,0,0,0-3.954.96" transform="translate(-372.597 -143.139)" fill="none"/>
    </clipPath>
    <linearGradient id="linear-gradient-3" x1="-6.866" y1="3.901" x2="-6.847" y2="3.901" xlink:href="#linear-gradient"/>
    <clipPath id="clip-path-12">
      <path id="Trazado_202299" data-name="Trazado 202299" d="M399.972,158.068c-.061,4.946-3.663,10.946-8.047,13.4a6.049,6.049,0,0,1-5,.789c1.429,1.252,3.654,1.326,6.174-.085,4.384-2.454,7.988-8.453,8.048-13.4.034-2.793-1.07-4.652-2.828-5.3a5.812,5.812,0,0,1,1.655,4.595" transform="translate(-386.923 -153.473)" fill="none"/>
    </clipPath>
    <linearGradient id="linear-gradient-4" x1="-11.478" y1="6.036" x2="-11.448" y2="6.036" xlink:href="#linear-gradient-2"/>
    <clipPath id="clip-path-13">
      <rect id="Rectángulo_52012" data-name="Rectángulo 52012" width="370.379" height="247.787" fill="#a6bae6"/>
    </clipPath>
    <clipPath id="clip-path-14">
      <rect id="Rectángulo_52010" data-name="Rectángulo 52010" width="12.73" height="10.484" fill="#a6bae6"/>
    </clipPath>
    <clipPath id="clip-path-15">
      <rect id="Rectángulo_52011" data-name="Rectángulo 52011" width="24.169" height="14.851" fill="none"/>
    </clipPath>
  </defs>
  <g id="Enmascarar_grupo_56346" data-name="Enmascarar grupo 56346" transform="translate(5402.294 11191.556)" clip-path="url(#clip-path)">
    <g id="Grupo_160958" data-name="Grupo 160958" transform="translate(-5439.017 -11181.685)">
      <g id="Grupo_160957" data-name="Grupo 160957" transform="translate(0)" clip-path="url(#clip-path-2)">
        <g id="Grupo_160934" data-name="Grupo 160934">
          <g id="Grupo_160933" data-name="Grupo 160933" clip-path="url(#clip-path-3)">
            <g id="Grupo_160932" data-name="Grupo 160932" transform="translate(77.023 59.821)" style="mix-blend-mode: multiply;isolation: isolate">
              <g id="Grupo_160931" data-name="Grupo 160931">
                <g id="Grupo_160930" data-name="Grupo 160930" clip-path="url(#clip-path-4)">
                  <g id="Grupo_160929" data-name="Grupo 160929" transform="translate(0 0)">
                    <g id="Grupo_160928" data-name="Grupo 160928" clip-path="url(#clip-path-5)">
                      <path id="Trazado_202282" data-name="Trazado 202282" d="M-65.578,104.557l199,160.569,292.7-103.708L227.121.849Z" transform="translate(-60.062 -60.04)" fill="#f0f0f0"/>
                    </g>
                  </g>
                </g>
              </g>
            </g>
            <path id="Trazado_202284" data-name="Trazado 202284" d="M207.457,138.722s2.865-3.506-.767-8.873c-3.1-4.578-5.431-3.072-5.431-3.072a5.062,5.062,0,0,0-1.243,6.772c1.462,2.739,2.9,6.463,3.9,6.46s1.552,3.348,1.552,3.348l2.914-3.028Z" transform="translate(-51.529 -32.728)" fill="#92b3ff"/>
            <path id="Trazado_202285" data-name="Trazado 202285" d="M263.542,235.284l-20-11.1L267.678,214.1Z" transform="translate(-62.989 -55.375)" fill="#293237"/>
            <path id="Trazado_202286" data-name="Trazado 202286" d="M405.883,153.626l-20-11.1,24.133-10.083Z" transform="translate(-99.803 -34.255)" fill="#293237"/>
          </g>
        </g>
        <g id="Grupo_160936" data-name="Grupo 160936" transform="translate(170.701 167.032)">
          <g id="Grupo_160935" data-name="Grupo 160935" clip-path="url(#clip-path-6)">
            <rect id="Rectángulo_52003" data-name="Rectángulo 52003" width="39.207" height="37.157" transform="translate(-13.32 23.064) rotate(-59.999)" fill="url(#linear-gradient)"/>
          </g>
        </g>
        <g id="Grupo_160938" data-name="Grupo 160938">
          <g id="Grupo_160937" data-name="Grupo 160937" clip-path="url(#clip-path-3)">
            <path id="Trazado_202288" data-name="Trazado 202288" d="M260.348,237.586c-.085,6.98-5.17,15.446-11.356,18.909s-11.133.613-11.048-6.366,5.17-15.446,11.356-18.909,11.133-.613,11.048,6.366" transform="translate(-61.54 -59.42)" fill="#414c5c"/>
            <path id="Trazado_202289" data-name="Trazado 202289" d="M258.222,240.847a11.832,11.832,0,0,1-.209,2.027,17.372,17.372,0,0,1-2.47,6.058,17.778,17.778,0,0,1-2.622,3.234,13.382,13.382,0,0,1-2.744,2.083,8.353,8.353,0,0,1-2.188.878,4.645,4.645,0,0,1-3.258-.282c-.024-.016-.056-.032-.08-.048a3.564,3.564,0,0,1-.918-.716,4.1,4.1,0,0,1-.555-.756,1.864,1.864,0,0,1-.193-.378,4.406,4.406,0,0,1-.337-.877,2.491,2.491,0,0,1-.081-.274,6.753,6.753,0,0,1-.161-.965,7.967,7.967,0,0,1-.056-1.094c0-.121.008-.234.016-.354a10.528,10.528,0,0,1,.136-1.407,11.51,11.51,0,0,1,.265-1.215,15.849,15.849,0,0,1,.587-1.81,18.275,18.275,0,0,1,1.2-2.5c0-.007.007-.007.007-.015.113-.209.234-.411.362-.612a18.108,18.108,0,0,1,2.124-2.768l.016-.016a5.208,5.208,0,0,1,.459-.483,13.542,13.542,0,0,1,2.027-1.689,9.175,9.175,0,0,1,.844-.523c.25-.145.5-.265.741-.378.306-.136.611-.249.9-.346.217-.064.419-.12.62-.168a6.076,6.076,0,0,1,.9-.129,4.471,4.471,0,0,1,1.191.056,3.712,3.712,0,0,1,1.143.4A4.5,4.5,0,0,1,258.053,239a8.268,8.268,0,0,1,.169,1.851" transform="translate(-62.68 -60.858)" fill="#a1a1a1"/>
            <path id="Trazado_202290" data-name="Trazado 202290" d="M252.325,238.053a11.851,11.851,0,0,1-.209,2.028,17.387,17.387,0,0,1-2.469,6.058,17.814,17.814,0,0,1-2.623,3.234,13.417,13.417,0,0,1-2.744,2.084,8.921,8.921,0,0,1-1.632.724c-.033-.088-.152-.641-.176-.738a1.889,1.889,0,0,1-.065-.5,7.949,7.949,0,0,1-.056-1.093,12.054,12.054,0,0,1,.153-1.762,11.5,11.5,0,0,1,.265-1.214,17.759,17.759,0,0,1,1.794-4.329c.113-.209.234-.41.363-.611a17.719,17.719,0,0,1,2.14-2.784,5.118,5.118,0,0,1,.459-.483,13.127,13.127,0,0,1,2.872-2.212c.249-.145.5-.265.74-.378.306-.137.612-.249.9-.346a4.528,4.528,0,0,1,.121.475,8.262,8.262,0,0,1,.169,1.85" transform="translate(-62.68 -60.967)" fill="#293237"/>
          </g>
        </g>
        <g id="Grupo_160940" data-name="Grupo 160940" transform="translate(181.322 174.693)">
          <g id="Grupo_160939" data-name="Grupo 160939" clip-path="url(#clip-path-8)">
            <rect id="Rectángulo_52005" data-name="Rectángulo 52005" width="24.544" height="22.4" transform="matrix(0.5, -0.866, 0.866, 0.5, -8.708, 15.083)" fill="url(#linear-gradient-2)"/>
          </g>
        </g>
        <g id="Grupo_160942" data-name="Grupo 160942">
          <g id="Grupo_160941" data-name="Grupo 160941" clip-path="url(#clip-path-3)">
            <path id="Trazado_202292" data-name="Trazado 202292" d="M256.073,241.473l-4.947,2.856,2.293,7.372c-.125.375-1.466-.425-1.466-.425l-3.41-3.665-2.494,6.114c-.788.193-.259,1.45-.926,1.313a3.459,3.459,0,0,1-1.5-1.079l1.465-6.147-2.719,1.577a10.516,10.516,0,0,1,.137-1.408,13.023,13.023,0,0,1,.677-2.554l2.34-1.718-.789-1.565c0-.007.065-.116.194-.317a18.036,18.036,0,0,1,2.124-2.768l1.053,1.368,1.956-3.884c.274-.193.047-.033.337-.195.249-.145.5-.265.74-.377.306-.137.612-.25.9-.346.217-.064.418-.121.619-.169a5.981,5.981,0,0,1,.9-.128l-2,4.9,5.27-2.093s1.323.666,1.315,1.342c-.008.66-1.943,1.314-2.072,2" transform="translate(-62.686 -60.864)" fill="#a1a1a1"/>
            <path id="Trazado_202293" data-name="Trazado 202293" d="M258.131,242.33l-5.065,3.381,1.859,4.115a6.45,6.45,0,0,1-1.6,1.93l-2.845-2.762-2.919,6.2a2.684,2.684,0,0,1-2.449-.181l1.916-5.818-4.525,2.32a6.286,6.286,0,0,1-.157-1.8,7.329,7.329,0,0,1,.1-1.377l5.021-3.249-2.18-3.865a8.14,8.14,0,0,1,1.778-2.209l2.985,2.792,3.134-6.472a3.064,3.064,0,0,1,2.212.194l-1.9,6.077,4.638-2.159a4.681,4.681,0,0,1,.085,1.378,6.414,6.414,0,0,1-.092,1.5" transform="translate(-62.68 -60.837)" fill="#d3d3d3"/>
            <path id="Trazado_202294" data-name="Trazado 202294" d="M254.189,247.038a3.791,3.791,0,0,1-1.767,2.943c-.963.539-1.733.095-1.72-.991a3.789,3.789,0,0,1,1.768-2.943c.962-.539,1.733-.095,1.719.991" transform="translate(-64.84 -63.577)" fill="#b6b6b6"/>
          </g>
        </g>
        <g id="Grupo_160944" data-name="Grupo 160944" transform="translate(276.23 106.118)">
          <g id="Grupo_160943" data-name="Grupo 160943" clip-path="url(#clip-path-10)">
            <rect id="Rectángulo_52007" data-name="Rectángulo 52007" width="39.207" height="37.157" transform="matrix(0.5, -0.866, 0.866, 0.5, -13.32, 23.064)" fill="url(#linear-gradient-3)"/>
          </g>
        </g>
        <g id="Grupo_160946" data-name="Grupo 160946">
          <g id="Grupo_160945" data-name="Grupo 160945" clip-path="url(#clip-path-3)">
            <path id="Trazado_202296" data-name="Trazado 202296" d="M402.693,155.421c-.085,6.98-5.17,15.446-11.356,18.909s-11.133.613-11.048-6.366,5.17-15.446,11.356-18.909,11.133-.613,11.048,6.366" transform="translate(-98.356 -38.17)" fill="#414c5c"/>
            <path id="Trazado_202297" data-name="Trazado 202297" d="M400.567,158.683a11.839,11.839,0,0,1-.209,2.027,17.372,17.372,0,0,1-2.47,6.058A17.777,17.777,0,0,1,395.266,170a13.434,13.434,0,0,1-2.744,2.084,8.346,8.346,0,0,1-2.188.876,4.637,4.637,0,0,1-3.258-.282c-.025-.016-.056-.032-.08-.048a3.535,3.535,0,0,1-.918-.716,4.049,4.049,0,0,1-.555-.756,1.825,1.825,0,0,1-.194-.378,4.389,4.389,0,0,1-.337-.876,2.59,2.59,0,0,1-.081-.274,6.754,6.754,0,0,1-.161-.966,7.966,7.966,0,0,1-.056-1.094c0-.121.008-.234.016-.354a10.54,10.54,0,0,1,.136-1.408,11.4,11.4,0,0,1,.265-1.214,15.73,15.73,0,0,1,.588-1.81,18.3,18.3,0,0,1,1.2-2.5c0-.008.008-.008.008-.016.113-.209.233-.41.363-.611a18,18,0,0,1,2.123-2.767l.016-.016a5.209,5.209,0,0,1,.458-.483,13.676,13.676,0,0,1,2.028-1.69,9.34,9.34,0,0,1,.844-.523c.25-.145.5-.265.741-.378.306-.136.611-.249.9-.345.217-.064.418-.122.62-.169a6.083,6.083,0,0,1,.9-.129,4.441,4.441,0,0,1,1.191.056,3.722,3.722,0,0,1,1.142.4,4.5,4.5,0,0,1,2.164,3.218,8.267,8.267,0,0,1,.169,1.85" transform="translate(-99.495 -39.607)" fill="#a1a1a1"/>
            <path id="Trazado_202298" data-name="Trazado 202298" d="M394.67,155.888a11.845,11.845,0,0,1-.209,2.027,17.381,17.381,0,0,1-2.469,6.058,17.819,17.819,0,0,1-2.623,3.234,13.464,13.464,0,0,1-2.744,2.084,8.924,8.924,0,0,1-1.633.723c-.032-.088-.152-.641-.176-.738a1.876,1.876,0,0,1-.065-.5,7.985,7.985,0,0,1-.056-1.094,11.968,11.968,0,0,1,.154-1.761,11.211,11.211,0,0,1,.265-1.215,17.773,17.773,0,0,1,1.794-4.328c.113-.209.233-.41.363-.612a17.738,17.738,0,0,1,2.139-2.783,5.111,5.111,0,0,1,.459-.483,13.09,13.09,0,0,1,2.872-2.212c.249-.145.5-.266.74-.379.306-.136.612-.249.9-.346a4.279,4.279,0,0,1,.121.475,8.278,8.278,0,0,1,.169,1.85" transform="translate(-99.495 -39.717)" fill="#293237"/>
          </g>
        </g>
        <g id="Grupo_160948" data-name="Grupo 160948" transform="translate(286.851 113.78)">
          <g id="Grupo_160947" data-name="Grupo 160947" clip-path="url(#clip-path-12)">
            <rect id="Rectángulo_52009" data-name="Rectángulo 52009" width="24.543" height="22.401" transform="translate(-8.708 15.082) rotate(-60)" fill="url(#linear-gradient-4)"/>
          </g>
        </g>
        <g id="Grupo_160956" data-name="Grupo 160956">
          <g id="Grupo_160955" data-name="Grupo 160955" clip-path="url(#clip-path-13)">
            <path id="Trazado_202300" data-name="Trazado 202300" d="M398.417,159.308l-4.947,2.856,2.293,7.372c-.125.376-1.466-.424-1.466-.424l-3.41-3.665-2.494,6.114c-.788.193-.259,1.45-.926,1.313a3.457,3.457,0,0,1-1.5-1.079l1.466-6.147-2.719,1.577a10.508,10.508,0,0,1,.137-1.408,13.032,13.032,0,0,1,.677-2.554l2.34-1.718-.789-1.565c0-.008.064-.116.193-.318a18.065,18.065,0,0,1,2.124-2.767l1.054,1.368,1.956-3.885c.273-.194.047-.033.337-.194.249-.145.5-.265.74-.378a9.651,9.651,0,0,1,.9-.346c.217-.065.418-.121.619-.169a6,6,0,0,1,.9-.128l-2,4.9,5.27-2.093s1.323.666,1.315,1.343c-.008.659-1.943,1.314-2.072,2" transform="translate(-99.501 -39.613)" fill="#a1a1a1"/>
            <path id="Trazado_202301" data-name="Trazado 202301" d="M400.475,160.165l-5.065,3.381,1.859,4.115a6.472,6.472,0,0,1-1.6,1.931l-2.845-2.763-2.919,6.2a2.684,2.684,0,0,1-2.449-.181l1.916-5.818-4.525,2.32a6.283,6.283,0,0,1-.157-1.8,7.315,7.315,0,0,1,.1-1.377l5.021-3.249-2.179-3.865a8.151,8.151,0,0,1,1.778-2.209l2.985,2.792,3.134-6.472a3.059,3.059,0,0,1,2.212.194l-1.9,6.076,4.638-2.158a4.683,4.683,0,0,1,.084,1.378,6.407,6.407,0,0,1-.092,1.5" transform="translate(-99.495 -39.587)" fill="#d3d3d3"/>
            <path id="Trazado_202302" data-name="Trazado 202302" d="M396.534,164.873a3.79,3.79,0,0,1-1.768,2.943c-.962.539-1.733.095-1.719-.991a3.789,3.789,0,0,1,1.768-2.943c.963-.54,1.733-.1,1.72.99" transform="translate(-101.655 -42.326)" fill="#b6b6b6"/>
            <path id="Trazado_202303" data-name="Trazado 202303" d="M367.119,123.712l.106,6.075-6.7,9.735a10.846,10.846,0,0,0-1.107-1.392,6.913,6.913,0,0,0-2.5-1.618,7.367,7.367,0,0,0-2.868-.54,12.33,12.33,0,0,0-5.849,1.7,24.978,24.978,0,0,0-8.8,9.058,23.718,23.718,0,0,0-3.493,11.443,13.444,13.444,0,0,0,.568,4.146l-80.1,46c.056-.569.113-1.165.113-1.733.028-3.18-.852-5.792-2.584-7.525a7,7,0,0,0-1.818-1.334,7.449,7.449,0,0,0-3.55-.852,11.992,11.992,0,0,0-5.849,1.732,25.1,25.1,0,0,0-9.426,10.137,23.175,23.175,0,0,0-2.868,10.364,12.857,12.857,0,0,0,.483,3.862V223l-2.257,1.2-7.463-1.738-4.827-6.843,2.541-1.595-3.038-12.182,47.537-31.62s8.1-28.176,15.354-35.087c9.269-8.836,45.91-25.274,45.91-25.274l22.377,11.524,15.454-6.8,3.063,3.613Z" transform="translate(-55.821 -28.414)" fill="#adc5fc"/>
            <path id="Trazado_202304" data-name="Trazado 202304" d="M365.927,119.844,217.382,203.99l46.386-31.936,83.641-49.021,15.455-6.8Z" transform="translate(-56.223 -30.061)" fill="#adc5fc"/>
            <path id="Trazado_202305" data-name="Trazado 202305" d="M348.558,171.041a13.44,13.44,0,0,0,.568,4.146l-80.1,46c.056-.568.113-1.164.113-1.732.028-3.18-.852-5.793-2.584-7.525a6.961,6.961,0,0,0-1.817-1.334l87.316-51a23.715,23.715,0,0,0-3.493,11.443" transform="translate(-68.47 -41.278)" fill="#adc5fc"/>
            <path id="Trazado_202306" data-name="Trazado 202306" d="M290.249,202.12l-.338-14.85-1.881-10.132.768-.14,1.887,10.192L291,200.827l34.084-18.5,1.384-14.855-2.384-12.952.072-.125,13.36-23.206.34.2,12.942,7.727.039.165,2.925,12.961L350.838,168.7l-.769-.134,2.894-16.31-2.853-12.644L337.8,132.261l-12.892,22.4,2.35,12.774-.005.055-1.428,15.326-.183.1Z" transform="translate(-74.495 -33.93)" fill="#2e8989"/>
            <path id="Trazado_202307" data-name="Trazado 202307" d="M270.522,220.613a14.81,14.81,0,0,1,.11,1.692c0,.568-.057,1.165-.113,1.732l80.1-46a12.485,12.485,0,0,1-.506-3.132Z" transform="translate(-69.966 -45.236)" fill="#546672"/>
            <path id="Trazado_202308" data-name="Trazado 202308" d="M269.137,233.342a10.676,10.676,0,0,0-2.034-6.82l-2.367,1.383a6.971,6.971,0,0,1,1.817,1.334,9.416,9.416,0,0,1,2.472,5.809c.056-.56.112-1.146.112-1.706" transform="translate(-68.47 -58.586)" fill="#409e4e"/>
            <path id="Trazado_202309" data-name="Trazado 202309" d="M270.522,222.109a14.808,14.808,0,0,1,.11,1.692c0,.568-.057,1.164-.113,1.732l80.1-46a12.491,12.491,0,0,1-.506-3.132Z" transform="translate(-69.966 -45.623)" fill="#414c5c"/>
            <path id="Trazado_202310" data-name="Trazado 202310" d="M419.149,135.621v4.572l-1.561,4.77-3.919,4-1.732,4.969-.88.511a13.2,13.2,0,0,0,.17-2.1,11.593,11.593,0,0,0-1.476-6.162,10.926,10.926,0,0,0-1.108-1.392,6.915,6.915,0,0,0-2.5-1.618l7.553-4.43,1.59-.908Z" transform="translate(-105.043 -35.076)" fill="#414c5c"/>
            <path id="Trazado_202311" data-name="Trazado 202311" d="M358.609,126.214l-2.492,6.249-5.622,3.209-.625.341-.653.4-1.732,1.05-1.42.852-.881.54-1.193.709-.965.568-19.9,11.955-2.556,1.534-26.834,16.1-1.249.738-6.758,4.061-.767-4.316,8.77-22.936,1.221-3.315,3.606-6.589L338.706,115.3l.454-.284,1.318-.714Z" transform="translate(-73.7 -29.562)" fill="#414c5c"/>
            <path id="Trazado_202312" data-name="Trazado 202312" d="M340.163,116.589l15.384,12.256-.5,3.773-68.085,40.674-.4-2.289,13.23-32.226Z" transform="translate(-74.117 -30.154)" fill="#5c8cf8"/>
            <path id="Trazado_202313" data-name="Trazado 202313" d="M367.673,136.338l-.88.909-.625.34-.653.4-10.909-20.118.4-.993.454-.284.965.483Z" transform="translate(-91.714 -30.154)" fill="#414c5c"/>
            <path id="Trazado_202314" data-name="Trazado 202314" d="M335.33,155.367l-2.556,1.533-6.552-23.122,2.584-1.278Z" transform="translate(-84.372 -34.269)" fill="#414c5c"/>
            <path id="Trazado_202315" data-name="Trazado 202315" d="M298.321,154.063l2.191,23.048-1.25.738-2.475-20.3,1.221-3.315Z" transform="translate(-76.76 -39.846)" fill="#414c5c"/>
            <path id="Trazado_202316" data-name="Trazado 202316" d="M273.219,207.884v4.7L350.6,163.855l-1.065-.621Z" transform="translate(-70.664 -42.218)" fill="#546672"/>
            <path id="Trazado_202317" data-name="Trazado 202317" d="M274.655,208.722v4.7l76.312-44.65v-4.7Z" transform="translate(-71.035 -42.435)" fill="#414c5c"/>
            <path id="Trazado_202318" data-name="Trazado 202318" d="M149.415,206.016l-1.184-10.659,50.6,28.344L201.1,235s-33.676-8.251-51.686-28.982" transform="translate(-38.338 -50.526)" fill="#293237"/>
            <path id="Trazado_202319" data-name="Trazado 202319" d="M200.927,235.244l-.362-1.8c-4.038-1.424-29.459-10.8-50.47-28.49-.367-.309-.465-1.863-.465-1.863l-.227.195.094,1.59.133-.115s.1,1.555.465,1.864c21.8,18.349,48.344,27.758,50.832,28.616" transform="translate(-38.641 -52.527)" fill="#293237"/>
            <path id="Trazado_202320" data-name="Trazado 202320" d="M200.927,231.9l-.362-1.8c-4.038-1.424-29.459-10.8-50.47-28.49-.367-.309-.465-1.864-.465-1.864l-.227.2.094,1.59.133-.115s.1,1.555.465,1.864c21.8,18.349,48.344,27.758,50.832,28.616" transform="translate(-38.641 -51.663)" fill="#293237"/>
            <path id="Trazado_202321" data-name="Trazado 202321" d="M200.927,228.564l-.362-1.8c-4.038-1.424-29.459-10.8-50.47-28.49-.367-.309-.465-1.864-.465-1.864l-.227.2.094,1.59.133-.115s.1,1.555.465,1.864c21.8,18.349,48.344,27.759,50.832,28.616" transform="translate(-38.641 -50.799)" fill="#293237"/>
            <path id="Trazado_202322" data-name="Trazado 202322" d="M200.927,235.845l-.362-1.8c-4.038-1.423-29.459-10.8-50.47-28.49-.367-.309-.465-1.863-.465-1.863l-.227.195.094,1.59.133-.115s.1,1.555.465,1.864c21.8,18.349,48.344,27.759,50.832,28.616" transform="translate(-38.641 -52.683)" fill="#546672"/>
            <path id="Trazado_202323" data-name="Trazado 202323" d="M200.927,232.505l-.362-1.8c-4.038-1.424-29.459-10.8-50.47-28.49-.367-.309-.465-1.864-.465-1.864l-.227.2.094,1.589.133-.115s.1,1.555.465,1.864c21.8,18.349,48.344,27.758,50.832,28.616" transform="translate(-38.641 -51.819)" fill="#546672"/>
            <path id="Trazado_202324" data-name="Trazado 202324" d="M200.927,229.165l-.362-1.8c-4.038-1.424-29.459-10.8-50.47-28.49-.367-.309-.465-1.864-.465-1.864l-.227.2.094,1.59.133-.115s.1,1.555.465,1.864c21.8,18.349,48.344,27.759,50.832,28.616" transform="translate(-38.641 -50.955)" fill="#546672"/>
            <path id="Trazado_202325" data-name="Trazado 202325" d="M200.726,224.756c-4.021-1.417-29.236-10.729-50.193-28.266a9.944,9.944,0,0,0-.51,1,.985.985,0,0,0,.233.445c21.8,18.349,48.344,27.758,50.832,28.615Z" transform="translate(-38.801 -50.819)" fill="#546672"/>
            <path id="Trazado_202326" data-name="Trazado 202326" d="M153.194,226.785l51.307,29.2.454-4.438-51.3-29.225Z" transform="translate(-39.621 -57.501)" fill="#141e25"/>
            <path id="Trazado_202327" data-name="Trazado 202327" d="M212.224,245.42a12.884,12.884,0,0,0,.483,3.862l-2.328,1.221-7.838,2.7.454-4.429-1.618-.114c-1.59-.113-3.123,1.031-4.571.379-.341-.171-.682-.341-.994-.512l-47.676-27.06a4.35,4.35,0,0,1-2.187-3.379l-.368-6.512,1.249.682,49.976,27.685,1.363.767v.2l16.924-6.591v.741a23.173,23.173,0,0,0-2.868,10.364" transform="translate(-37.652 -54.72)" fill="#414c5c"/>
            <path id="Trazado_202328" data-name="Trazado 202328" d="M197.24,240.178v9.086c-.341-.17-.681-.34-.994-.511a161.3,161.3,0,0,1-21.921-9.739c-3.946-2.1-8.177-4.515-12.408-7.3a118.656,118.656,0,0,1-13.346-10.023,8.363,8.363,0,0,1-1.306-1.136v-8.065Z" transform="translate(-38.088 -54.958)" fill="#293237"/>
            <path id="Trazado_202329" data-name="Trazado 202329" d="M213.514,234.483l-9.3-4.417a1.1,1.1,0,0,0-1.475,1.034l.285,3.435a3.091,3.091,0,0,0,1.833,2.6l7.938,3.628Z" transform="translate(-52.434 -59.483)" fill="#9cb7d2"/>
            <path id="Trazado_202330" data-name="Trazado 202330" d="M158.367,203.849l-7.133-5.573.554,7.625,6.92,5.43a.884.884,0,0,0,1.427-.759l-.283-3.939a3.888,3.888,0,0,0-1.484-2.784" transform="translate(-39.114 -51.281)" fill="#9cb7d2"/>
            <path id="Trazado_202331" data-name="Trazado 202331" d="M150.978,198.107c.24-.624-2.45-2.157-2.45-2.157-1.294,4.975.776,7.757.776,7.757l1.674,1.592s-.512-5.857,0-7.192" transform="translate(-38.304 -50.68)" fill="#e08a35"/>
            <path id="Trazado_202332" data-name="Trazado 202332" d="M179.412,219.386a4.462,4.462,0,0,0,2.081,3.464c1.134.635,2.04.113,2.024-1.166a4.461,4.461,0,0,0-2.08-3.464c-1.134-.635-2.04-.113-2.025,1.166" transform="translate(-46.402 -56.369)" fill="#768a99"/>
            <path id="Trazado_202333" data-name="Trazado 202333" d="M178.623,219.765a4.462,4.462,0,0,0,2.081,3.464c1.134.635,2.04.113,2.024-1.166a4.461,4.461,0,0,0-2.08-3.464c-1.134-.635-2.04-.113-2.025,1.166" transform="translate(-46.198 -56.467)" fill="#c4c4c4"/>
            <path id="Trazado_202334" data-name="Trazado 202334" d="M213.614,232.331l1.489.755-15,6.827a4.313,4.313,0,0,1-3.75-.245s-37.6-14.939-50.114-28.42c-.626-.673-.909-1.561-.213-2.162l2.625-2.264s.1,1.555.465,1.864c22.893,19.269,51.04,28.687,51.04,28.687Z" transform="translate(-37.663 -53.491)" fill="#546672"/>
            <path id="Trazado_202335" data-name="Trazado 202335" d="M203.43,249.337v1.3a1.3,1.3,0,0,0,.826,1.251l5.548,2.154a.8.8,0,0,0,1.007-.758v-.365l-4.645-1.8a1.3,1.3,0,0,1-.826-1.251v-.931l-.9-.346a.8.8,0,0,0-1.006.75" transform="translate(-52.614 -64.283)" fill="#546672"/>
            <path id="Trazado_202336" data-name="Trazado 202336" d="M206.006,249.067V250a1.3,1.3,0,0,0,.826,1.251l4.645,1.8v-.922a1.306,1.306,0,0,0-.826-1.26Z" transform="translate(-53.28 -64.417)" fill="#bed5df"/>
            <path id="Trazado_202337" data-name="Trazado 202337" d="M148.554,216.8v.958a1.649,1.649,0,0,0,.494,1.246l3.32,2.808c.268.227.6-.061.6-.514v-.325l-2.78-2.346a1.651,1.651,0,0,1-.494-1.245v-.634l-.541-.452c-.268-.226-.6.061-.6.506" transform="translate(-38.421 -55.921)" fill="#546672"/>
            <path id="Trazado_202338" data-name="Trazado 202338" d="M150.1,216.935v.634a1.651,1.651,0,0,0,.494,1.246l2.779,2.346v-.626a1.657,1.657,0,0,0-.494-1.253Z" transform="translate(-38.82 -56.107)" fill="#bed5df"/>
            <path id="Trazado_202339" data-name="Trazado 202339" d="M179.464,239.39v4.089a1.414,1.414,0,0,1-.057.369c-3.946-2.1-8.177-4.515-12.408-7.3a1.111,1.111,0,0,1-.085-.4v-4.089c0-.823.6-1.108,1.334-.681l9.882,5.764a2.913,2.913,0,0,1,1.334,2.243" transform="translate(-43.17 -59.793)" fill="#12181d"/>
            <path id="Trazado_202340" data-name="Trazado 202340" d="M168.24,237.273a2.9,2.9,0,0,1-1.333-2.236v-4.1c0-.8.6-1.107,1.332-.677l9.885,5.775a2.9,2.9,0,0,1,1.333,2.234v4.1c0,.8-.6,1.108-1.334.678Z" transform="translate(-43.168 -59.503)" fill="#d3d3d3"/>
            <path id="Trazado_202341" data-name="Trazado 202341" d="M178.212,242.883l-9.885-5.775a2.35,2.35,0,0,1-1.082-1.816v-4.1c0-.654.485-.9,1.082-.55l9.885,5.775a2.349,2.349,0,0,1,1.083,1.815v4.1c0,.653-.484.9-1.082.55" transform="translate(-43.255 -59.611)" fill="#adc5fc"/>
            <path id="Trazado_202342" data-name="Trazado 202342" d="M179.291,238.2a2.355,2.355,0,0,0-1.078-1.787l-9.885-5.775c-.589-.345-1.064-.106-1.077.526Z" transform="translate(-43.257 -59.612)" fill="#d3a944"/>
            <path id="Trazado_202343" data-name="Trazado 202343" d="M167.251,237.008a2.354,2.354,0,0,0,1.077,1.786l9.885,5.775c.589.345,1.065.106,1.077-.526Z" transform="translate(-43.257 -61.299)" fill="#d3a944"/>
            <path id="Trazado_202344" data-name="Trazado 202344" d="M336.268,74.9l52.515,30.388-15.455,6.8L317.594,79.825l12.029-5.294a7.353,7.353,0,0,1,6.645.365" transform="translate(-82.141 -19.115)" fill="#adc5fc"/>
            <path id="Trazado_202345" data-name="Trazado 202345" d="M214.231,234.6l-8.728-4.155.231,2.78a3.093,3.093,0,0,0,1.833,2.6l5.741,2.624Z" transform="translate(-53.15 -59.602)" fill="#bed5df"/>
            <path id="Trazado_202346" data-name="Trazado 202346" d="M160.643,207.251a3.884,3.884,0,0,0-1.483-2.784l-4.863-3.8.254,3.5a3.587,3.587,0,0,0,1.363,2.561l4.974,3.9Z" transform="translate(-39.906 -51.9)" fill="#bed5df"/>
            <path id="Trazado_202347" data-name="Trazado 202347" d="M310.527,78.132c19.012,6.648,55.734,32.263,55.734,32.263L343.885,98.871l-53.614-31.51s15.169,8.992,20.256,10.771" transform="translate(-75.074 -17.422)" fill="#414c5c"/>
            <path id="Trazado_202348" data-name="Trazado 202348" d="M347.811,100.913c-24.461-16.3-41.552-22.649-41.552-22.649,3.069,1.144,5.986,2.355,7.722,2.96,13.936,4.875,36.772,20.054,49.154,28.272,0,0-12.43-6.655-15.324-8.584" transform="translate(-79.209 -20.242)" fill="#88d5de"/>
            <path id="Trazado_202349" data-name="Trazado 202349" d="M149.51,183.792c21.63,16.663,50.05,28.362,50.05,28.362l46.386-32.119L190.19,147.8l-41.722,35.192Z" transform="translate(-38.399 -38.225)" fill="#adc5fc"/>
            <path id="Trazado_202350" data-name="Trazado 202350" d="M211.249,155.023s1.894,6.127,15.736,13.935,21.372,7.573,21.372,7.573l12.37,3.688-55.1-32.422Z" transform="translate(-53.181 -38.225)" fill="#414c5c"/>
            <path id="Trazado_202351" data-name="Trazado 202351" d="M222.793,102.28s15.963,15.259,53.062,30.895c0,0-7.226,19.061-15.354,35.087,0,0-33.134-12.11-55.756-32.238a181.745,181.745,0,0,1,18.049-33.745" transform="translate(-52.954 -26.453)" fill="#414c5c"/>
            <path id="Trazado_202352" data-name="Trazado 202352" d="M274.885,133.968c-2.681,4.4-7.549,20.26-14.42,33.663-4.884-1.874-33.9-13.46-54.292-31.4,1.335-2.783,7.833-18.585,17.117-32.3.426.369,1.05.88,1.846,1.534,2.5,2.016,10.223,7.6,16.555,11.693,8.433,5.395,17.008,9.916,33.193,16.816" transform="translate(-53.323 -26.879)" fill="#5c8cf8"/>
            <path id="Trazado_202353" data-name="Trazado 202353" d="M160.335,189.476l37.441-33.77s-5.515-6.3-7.252-5.123c-19.942,13.5-37,31.4-37,31.4Z" transform="translate(-39.707 -38.908)" fill="#69bbb8"/>
            <path id="Trazado_202354" data-name="Trazado 202354" d="M158.965,188.793l36.724-34.711-5.56-6.285c-19.941,13.5-41.9,35.259-41.9,35.259Z" transform="translate(-38.338 -38.225)" fill="#adc5fc"/>
            <path id="Trazado_202355" data-name="Trazado 202355" d="M211.531,221.679l47.643-31.436-12.37-3.688-47.188,28.457Z" transform="translate(-51.628 -48.25)" fill="#adc5fc"/>
            <path id="Trazado_202356" data-name="Trazado 202356" d="M248.272,187.768l-.853.563a2.255,2.255,0,0,1-1.9.042l-8.753-3.894c-1.09-.492-1.176-1.306-.183-1.753l.825-.372a2.374,2.374,0,0,1,1.738.03l8.65,3.762c.989.434,1.2,1.145.474,1.623" transform="translate(-61.01 -47.124)" fill="#3e2f37"/>
            <path id="Trazado_202357" data-name="Trazado 202357" d="M247.381,189.5l.7.207,3.8-2.149-.577-.311Z" transform="translate(-63.981 -48.43)" fill="#6edae0"/>
            <path id="Trazado_202358" data-name="Trazado 202358" d="M244.86,188.558l.7.207,3.8-2.15-.578-.311Z" transform="translate(-63.329 -48.185)" fill="#6edae0"/>
            <path id="Trazado_202359" data-name="Trazado 202359" d="M242.34,187.611l.705.207,3.8-2.15-.578-.31Z" transform="translate(-62.677 -47.94)" fill="#6edae0"/>
            <path id="Trazado_202360" data-name="Trazado 202360" d="M239.819,186.664l.7.207,3.8-2.15-.578-.311Z" transform="translate(-62.026 -47.695)" fill="#6edae0"/>
            <path id="Trazado_202361" data-name="Trazado 202361" d="M237.463,185.631l.7.207,3.8-2.15-.578-.31Z" transform="translate(-61.416 -47.428)" fill="#6edae0"/>
            <path id="Trazado_202362" data-name="Trazado 202362" d="M235.488,184.368l.7.207,3.8-2.149-.578-.311Z" transform="translate(-60.906 -47.101)" fill="#6edae0"/>
            <path id="Trazado_202363" data-name="Trazado 202363" d="M208.747,163.668l.827-.594a1.463,1.463,0,0,1,1.631.116l6.813,5.379a1.158,1.158,0,0,1-.147,2.1l-.77.37a1.512,1.512,0,0,1-1.482-.188l-6.747-5.214c-.771-.6-.825-1.462-.124-1.965" transform="translate(-53.862 -42.126)" fill="#3e2f37"/>
            <path id="Trazado_202364" data-name="Trazado 202364" d="M212.014,163.6l-.566-.307-3.627,2.218.44.419Z" transform="translate(-53.75 -42.233)" fill="#6edae0"/>
            <path id="Trazado_202365" data-name="Trazado 202365" d="M214.006,164.942l-.566-.306-3.628,2.218.441.418Z" transform="translate(-54.265 -42.581)" fill="#6edae0"/>
            <path id="Trazado_202366" data-name="Trazado 202366" d="M216,166.285l-.567-.306L211.8,168.2l.44.418Z" transform="translate(-54.78 -42.928)" fill="#6edae0"/>
            <path id="Trazado_202367" data-name="Trazado 202367" d="M217.99,167.627l-.566-.307-3.627,2.218.44.419Z" transform="translate(-55.295 -43.275)" fill="#6edae0"/>
            <path id="Trazado_202368" data-name="Trazado 202368" d="M219.826,169.057l-.567-.306-3.627,2.217.441.419Z" transform="translate(-55.77 -43.645)" fill="#6edae0"/>
            <path id="Trazado_202369" data-name="Trazado 202369" d="M221.3,170.726l-.566-.306-3.627,2.218.441.418Z" transform="translate(-56.15 -44.077)" fill="#6edae0"/>
            <path id="Trazado_202370" data-name="Trazado 202370" d="M223.588,112.481l-11,23.667.4,2.289,10.1-6.019Z" transform="translate(-54.983 -29.091)" fill="#b9c9eb"/>
            <path id="Trazado_202371" data-name="Trazado 202371" d="M247.456,117.688,228.464,130l.733-21.452,1.7-2.556c2.5,2.016,10.223,7.6,16.555,11.694" transform="translate(-59.089 -27.414)" fill="#b9c9eb"/>
            <path id="Trazado_202372" data-name="Trazado 202372" d="M274.447,67.354c-2.131-.835-45.358,25.888-45.358,25.888s17.619,16.561,53.062,30.895l45.91-25.273s-34.487-24.018-53.614-31.51" transform="translate(-59.25 -17.415)" fill="#adc5fc"/>
            <path id="Trazado_202373" data-name="Trazado 202373" d="M418.492,134.476l-2.773-3.282-.153,2.326L403.6,140.865l1.883,1.164Z" transform="translate(-104.386 -33.931)" fill="#546672"/>
            <path id="Trazado_202374" data-name="Trazado 202374" d="M417.131,121.1a6.5,6.5,0,0,0-.655.4,3.024,3.024,0,0,0-.836,1.117,2.9,2.9,0,0,0-.282,1.42v4.793a1.374,1.374,0,0,0,.4.979.983.983,0,0,0,.122.114c.308.241.721-.093.991-.242a12.187,12.187,0,0,0,1.181-.832c.446-.321.223-.241.669-.561v-1.675Z" transform="translate(-107.426 -31.322)" fill="#e08a35"/>
            <path id="Trazado_202375" data-name="Trazado 202375" d="M274.284,224.082v4.7l-1.065-.621v-4.7Z" transform="translate(-70.664 -57.795)" fill="#293237"/>
            <path id="Trazado_202376" data-name="Trazado 202376" d="M238.346,238.083s5.854-8.7,10.722-10.794,8.731-.437,9.92,1.111,2.616,3.227,2.543,6.242l-.073,3.015.539-5.981s-.844-9.657-10.871-8.262S235.492,237.1,235.492,237.1Z" transform="translate(-60.906 -57.747)" fill="#546672"/>
            <path id="Trazado_202377" data-name="Trazado 202377" d="M258.587,224.934a10.516,10.516,0,0,0-5.4-.5c-10.028,1.395-15.5,14.265-15.5,14.265l.981.132c1.248-1.776,6.752-9.464,10.97-11.276,3.953-1.7,7.214-.92,8.948.259,1.15.408,2.915,3.316,3.442,10.109l1.811-1.04c-.7-6.743-2.324-9.989-5.25-11.946" transform="translate(-61.473 -58.011)" fill="#414c5c"/>
            <path id="Trazado_202378" data-name="Trazado 202378" d="M398.88,145.43s-6.452-1.039-10.288,1.86-8.816,8.853-9.348,14.62L377.654,168l-.663-.728s.65-5.068,1.168-7.2a20.927,20.927,0,0,1,9.043-13.7c5.155-3.536,9.518-2.217,9.518-2.217Z" transform="translate(-97.503 -37.221)" fill="#546672"/>
            <path id="Trazado_202379" data-name="Trazado 202379" d="M377.943,171.552l.962-.678a29.269,29.269,0,0,1,.755-9.821c1.331-4.808,5.147-10.265,9.495-12.439s7.661-2.541,9.51-1.559,4,2.687,4.479,4.608,1.363-.741,1.363-.741l-3.372-5.18-2.469.11a16.007,16.007,0,0,0-7.414.289c-3.728,1.142-10.151,6.871-12.322,14.913-1.693,6.271-1.489,7.368-1.489,7.368l-1.283,2.808Z" transform="translate(-97.286 -37.643)" fill="#414c5c"/>
            <path id="Trazado_202380" data-name="Trazado 202380" d="M264.781,213.019l-1.65.916a1.435,1.435,0,0,0-.719,1.244v.612a.718.718,0,0,0,1.077.622l1.65-.925a1.435,1.435,0,0,0,.717-1.242v-.6a.718.718,0,0,0-1.076-.623" transform="translate(-67.869 -55.069)" fill="#e06e18"/>
            <path id="Trazado_202381" data-name="Trazado 202381" d="M265.186,213.334l-1.649.916a1.435,1.435,0,0,0-.72,1.243v.613a.718.718,0,0,0,1.077.622l1.65-.925a1.432,1.432,0,0,0,.717-1.242v-.6a.718.718,0,0,0-1.076-.623" transform="translate(-67.974 -55.151)" fill="#e0ab35"/>
            <path id="Trazado_202382" data-name="Trazado 202382" d="M216.194,235.6l.643.306c.067.041.658-.363.784-.389,1-.2,1.126.858,1.316,1.479.233.76.782,1.268,1.014,2.028.207.677.613,2.208.105,2.984-.2.311-1.6,1.249-1.934,1.1l-2.008-.914s-1.252-3.618.079-6.592" transform="translate(-55.757 -60.906)" fill="#e08a35"/>
            <path id="Trazado_202383" data-name="Trazado 202383" d="M216.372,145.323a16.331,16.331,0,0,1-9.1-.36,21.1,21.1,0,0,0-1.1,1.876c20.388,17.946,49.408,29.531,54.292,31.4.716-1.4,2.226-4.3,2.945-5.674-10.645-6.52-24.3-14.44-47.036-27.247" transform="translate(-53.323 -37.492)" fill="#4b81fa"/>
            <path id="Trazado_202384" data-name="Trazado 202384" d="M304.554,186.366a4.23,4.23,0,0,1-3.181,4.259,7.093,7.093,0,0,1-2.016.256c-3.465-.057-7.809.426-8.49-.54-.71-.937-4.089.171-4.089.171a2.418,2.418,0,0,1,0-3.634l.71-.6,2.073.085a5.538,5.538,0,0,1,.313-.8c.681-1.42,2.811-4.287,8.349-3.293,7.212,1.306,6.332,4.089,6.332,4.089" transform="translate(-73.958 -47.09)" fill="#92b3ff"/>
            <path id="Trazado_202385" data-name="Trazado 202385" d="M333.864,174.058l-5.7,3.342c0-1.091-.185-1.733.944-2.394a34.859,34.859,0,0,1,3.358-2.028c1.5-.763,1.394,1.08,1.394,1.08" transform="translate(-84.873 -44.69)" fill="#414c5c"/>
            <path id="Trazado_202386" data-name="Trazado 202386" d="M368.77,153.084l-5.7,3.342c0-1.091-.185-1.733.944-2.394A34.848,34.848,0,0,1,367.376,152c1.5-.763,1.394,1.08,1.394,1.08" transform="translate(-93.9 -39.266)" fill="#414c5c"/>
            <path id="Trazado_202387" data-name="Trazado 202387" d="M157.708,160.147v-1.505l-6.178,3.576v1.5Z" transform="translate(-39.191 -41.03)" fill="#9f9e9e"/>
            <path id="Trazado_202388" data-name="Trazado 202388" d="M149.864,162.506l-4.774-2.749v1.505l4.774,2.749Z" transform="translate(-37.525 -41.319)" fill="#858482"/>
            <path id="Trazado_202389" data-name="Trazado 202389" d="M156.043,157.683l-6.179,3.576-4.774-2.749,6.179-3.576Z" transform="translate(-37.525 -40.071)" fill="silver"/>
            <path id="Trazado_202390" data-name="Trazado 202390" d="M155.417,118.32V3.311l-.566.331V118.651Z" transform="translate(-40.05 -0.856)" fill="#c8d4d4"/>
            <path id="Trazado_202391" data-name="Trazado 202391" d="M154.482,3.543l-1.059-.612v115.01l1.059.611Z" transform="translate(-39.681 -0.758)" fill="#a2b3af"/>
            <path id="Trazado_202392" data-name="Trazado 202392" d="M155.048,3.1l-.566.331-1.059-.612.567-.331Z" transform="translate(-39.68 -0.643)" fill="#e1f0f0"/>
            <path id="Trazado_202393" data-name="Trazado 202393" d="M153.507,118.5V3.487L151,4.941v115.01Z" transform="translate(-39.053 -0.902)" fill="#bdcccc"/>
            <path id="Trazado_202394" data-name="Trazado 202394" d="M153.381,3.412,150.87,4.866l-.361-.218,2.512-1.453Z" transform="translate(-38.927 -0.826)" fill="#e1f0f0"/>
            <path id="Trazado_202395" data-name="Trazado 202395" d="M150.87,5.373l-.36-.217V120.165l.36.217Z" transform="translate(-38.927 -1.333)" fill="#a2b3af"/>
            <path id="Trazado_202396" data-name="Trazado 202396" d="M151.258,120.709V5.7l-.566.331V121.04Z" transform="translate(-38.974 -1.474)" fill="#c8d4d4"/>
            <path id="Trazado_202397" data-name="Trazado 202397" d="M150.323,5.932l-1.059-.612v115.01l1.059.611Z" transform="translate(-38.605 -1.376)" fill="#a2b3af"/>
            <path id="Trazado_202398" data-name="Trazado 202398" d="M150.889,5.486l-.566.331L149.263,5.2l.567-.331Z" transform="translate(-38.605 -1.261)" fill="#e1f0f0"/>
            <path id="Trazado_202399" data-name="Trazado 202399" d="M153.049,156.926a1.291,1.291,0,0,1-.612,1.01.31.31,0,0,1-.431-.18.738.738,0,0,1-.05-.38,1.212,1.212,0,0,1,.612-1,.363.363,0,0,1,.1-.02c.251-.05.411.19.381.57" transform="translate(-39.3 -40.437)" fill="#a2b3af"/>
            <path id="Trazado_202400" data-name="Trazado 202400" d="M152.727,156.739a1.257,1.257,0,0,1-.612,1,.538.538,0,0,1-.11.019.738.738,0,0,1-.05-.38,1.211,1.211,0,0,1,.612-1,.362.362,0,0,1,.1-.019.74.74,0,0,1,.06.38" transform="translate(-39.3 -40.44)" fill="#fff"/>
            <path id="Trazado_202401" data-name="Trazado 202401" d="M153.049,149.736a1.279,1.279,0,0,1-.612,1.01.31.31,0,0,1-.431-.18.738.738,0,0,1-.05-.38,1.212,1.212,0,0,1,.612-1,.364.364,0,0,1,.1-.02c.251-.05.414.191.381.57" transform="translate(-39.3 -38.578)" fill="#a2b3af"/>
            <path id="Trazado_202402" data-name="Trazado 202402" d="M152.727,149.549a1.243,1.243,0,0,1-.612,1,.539.539,0,0,1-.11.019.738.738,0,0,1-.05-.38,1.211,1.211,0,0,1,.612-1,.363.363,0,0,1,.1-.019.725.725,0,0,1,.06.38" transform="translate(-39.3 -38.58)" fill="#fff"/>
            <path id="Trazado_202403" data-name="Trazado 202403" d="M153.049,142.546a1.279,1.279,0,0,1-.612,1.01.31.31,0,0,1-.431-.18.738.738,0,0,1-.05-.38,1.213,1.213,0,0,1,.612-1,.364.364,0,0,1,.1-.02c.251-.05.414.191.381.57" transform="translate(-39.3 -36.718)" fill="#a2b3af"/>
            <path id="Trazado_202404" data-name="Trazado 202404" d="M152.727,142.359a1.244,1.244,0,0,1-.612,1,.548.548,0,0,1-.11.02.742.742,0,0,1-.05-.38,1.211,1.211,0,0,1,.612-1,.36.36,0,0,1,.1-.019.725.725,0,0,1,.06.38" transform="translate(-39.3 -36.721)" fill="#fff"/>
            <path id="Trazado_202405" data-name="Trazado 202405" d="M153.049,135.356a1.279,1.279,0,0,1-.612,1.01.31.31,0,0,1-.431-.18.738.738,0,0,1-.05-.38,1.212,1.212,0,0,1,.612-1,.361.361,0,0,1,.1-.02c.251-.05.414.191.381.57" transform="translate(-39.3 -34.859)" fill="#a2b3af"/>
            <path id="Trazado_202406" data-name="Trazado 202406" d="M152.727,135.168a1.244,1.244,0,0,1-.612,1,.542.542,0,0,1-.11.02.742.742,0,0,1-.05-.38,1.211,1.211,0,0,1,.612-1,.362.362,0,0,1,.1-.019.725.725,0,0,1,.06.38" transform="translate(-39.3 -34.861)" fill="#fff"/>
            <path id="Trazado_202407" data-name="Trazado 202407" d="M153.049,128.165a1.279,1.279,0,0,1-.612,1.01.31.31,0,0,1-.431-.18.738.738,0,0,1-.05-.38,1.213,1.213,0,0,1,.612-1,.365.365,0,0,1,.1-.02c.251-.05.414.191.381.57" transform="translate(-39.3 -32.999)" fill="#a2b3af"/>
            <path id="Trazado_202408" data-name="Trazado 202408" d="M152.727,127.978a1.243,1.243,0,0,1-.612,1,.545.545,0,0,1-.11.02.742.742,0,0,1-.05-.38,1.208,1.208,0,0,1,.612-1,.338.338,0,0,1,.1-.02.725.725,0,0,1,.06.38" transform="translate(-39.3 -33.001)" fill="#fff"/>
            <path id="Trazado_202409" data-name="Trazado 202409" d="M153.049,120.975a1.279,1.279,0,0,1-.612,1.01.31.31,0,0,1-.431-.18.738.738,0,0,1-.05-.38,1.213,1.213,0,0,1,.612-1,.363.363,0,0,1,.1-.02c.251-.05.414.191.381.57" transform="translate(-39.3 -31.139)" fill="#a2b3af"/>
            <path id="Trazado_202410" data-name="Trazado 202410" d="M152.727,120.788a1.244,1.244,0,0,1-.612,1,.546.546,0,0,1-.11.02.742.742,0,0,1-.05-.38,1.208,1.208,0,0,1,.612-1,.337.337,0,0,1,.1-.02.725.725,0,0,1,.06.38" transform="translate(-39.3 -31.142)" fill="#fff"/>
            <path id="Trazado_202411" data-name="Trazado 202411" d="M153.049,113.785a1.279,1.279,0,0,1-.612,1.01.31.31,0,0,1-.431-.18.738.738,0,0,1-.05-.38,1.212,1.212,0,0,1,.612-1,.363.363,0,0,1,.1-.02c.251-.05.414.191.381.57" transform="translate(-39.3 -29.28)" fill="#a2b3af"/>
            <path id="Trazado_202412" data-name="Trazado 202412" d="M152.727,113.6a1.243,1.243,0,0,1-.612,1,.543.543,0,0,1-.11.02.742.742,0,0,1-.05-.38,1.208,1.208,0,0,1,.612-1,.338.338,0,0,1,.1-.02.725.725,0,0,1,.06.38" transform="translate(-39.3 -29.282)" fill="#fff"/>
            <path id="Trazado_202413" data-name="Trazado 202413" d="M153.049,106.595a1.279,1.279,0,0,1-.612,1.01.31.31,0,0,1-.431-.18.738.738,0,0,1-.05-.38,1.213,1.213,0,0,1,.612-1,.364.364,0,0,1,.1-.02c.251-.05.414.191.381.57" transform="translate(-39.3 -27.42)" fill="#a2b3af"/>
            <path id="Trazado_202414" data-name="Trazado 202414" d="M152.727,106.408a1.243,1.243,0,0,1-.612,1,.543.543,0,0,1-.11.02.742.742,0,0,1-.05-.38,1.208,1.208,0,0,1,.612-1,.337.337,0,0,1,.1-.02.725.725,0,0,1,.06.38" transform="translate(-39.3 -27.423)" fill="#fff"/>
            <path id="Trazado_202415" data-name="Trazado 202415" d="M153.049,99.4a1.279,1.279,0,0,1-.612,1.01.31.31,0,0,1-.431-.18.738.738,0,0,1-.05-.38,1.212,1.212,0,0,1,.612-1,.362.362,0,0,1,.1-.02c.251-.05.414.191.381.57" transform="translate(-39.3 -25.56)" fill="#a2b3af"/>
            <path id="Trazado_202416" data-name="Trazado 202416" d="M152.727,99.217a1.243,1.243,0,0,1-.612,1,.543.543,0,0,1-.11.02.742.742,0,0,1-.05-.38,1.208,1.208,0,0,1,.612-1,.338.338,0,0,1,.1-.02.725.725,0,0,1,.06.38" transform="translate(-39.3 -25.563)" fill="#fff"/>
            <path id="Trazado_202417" data-name="Trazado 202417" d="M153.049,92.214a1.279,1.279,0,0,1-.612,1.01.31.31,0,0,1-.431-.18.738.738,0,0,1-.05-.38,1.212,1.212,0,0,1,.612-1,.363.363,0,0,1,.1-.02c.251-.05.414.191.381.57" transform="translate(-39.3 -23.701)" fill="#a2b3af"/>
            <path id="Trazado_202418" data-name="Trazado 202418" d="M152.727,92.027a1.244,1.244,0,0,1-.612,1,.543.543,0,0,1-.11.02.742.742,0,0,1-.05-.38,1.208,1.208,0,0,1,.612-1,.338.338,0,0,1,.1-.02.725.725,0,0,1,.06.38" transform="translate(-39.3 -23.703)" fill="#fff"/>
            <path id="Trazado_202419" data-name="Trazado 202419" d="M153.049,85.024a1.279,1.279,0,0,1-.612,1.01.31.31,0,0,1-.431-.18.738.738,0,0,1-.05-.38,1.212,1.212,0,0,1,.612-1,.362.362,0,0,1,.1-.02c.251-.05.414.191.381.57" transform="translate(-39.3 -21.841)" fill="#a2b3af"/>
            <path id="Trazado_202420" data-name="Trazado 202420" d="M152.727,84.837a1.243,1.243,0,0,1-.612,1,.536.536,0,0,1-.11.019.738.738,0,0,1-.05-.38,1.211,1.211,0,0,1,.612-1,.362.362,0,0,1,.1-.019.725.725,0,0,1,.06.38" transform="translate(-39.3 -21.844)" fill="#fff"/>
            <path id="Trazado_202421" data-name="Trazado 202421" d="M153.049,77.834a1.279,1.279,0,0,1-.612,1.01.31.31,0,0,1-.431-.18.738.738,0,0,1-.05-.38,1.213,1.213,0,0,1,.612-1,.363.363,0,0,1,.1-.02c.251-.05.414.191.381.57" transform="translate(-39.3 -19.981)" fill="#a2b3af"/>
            <path id="Trazado_202422" data-name="Trazado 202422" d="M152.727,77.647a1.243,1.243,0,0,1-.612,1,.545.545,0,0,1-.11.02.742.742,0,0,1-.05-.38,1.208,1.208,0,0,1,.612-1,.338.338,0,0,1,.1-.02.725.725,0,0,1,.06.38" transform="translate(-39.3 -19.984)" fill="#fff"/>
            <path id="Trazado_202423" data-name="Trazado 202423" d="M153.049,70.644a1.279,1.279,0,0,1-.612,1.01.31.31,0,0,1-.431-.18.738.738,0,0,1-.05-.38,1.212,1.212,0,0,1,.612-1,.363.363,0,0,1,.1-.02c.251-.05.414.191.381.57" transform="translate(-39.3 -18.122)" fill="#a2b3af"/>
            <path id="Trazado_202424" data-name="Trazado 202424" d="M152.727,70.457a1.244,1.244,0,0,1-.612,1,.544.544,0,0,1-.11.02.742.742,0,0,1-.05-.38,1.208,1.208,0,0,1,.612-1,.338.338,0,0,1,.1-.02.725.725,0,0,1,.06.38" transform="translate(-39.3 -18.124)" fill="#fff"/>
            <path id="Trazado_202425" data-name="Trazado 202425" d="M153.049,63.454a1.279,1.279,0,0,1-.612,1.01.31.31,0,0,1-.431-.18.738.738,0,0,1-.05-.38,1.212,1.212,0,0,1,.612-1,.362.362,0,0,1,.1-.02c.251-.05.414.191.381.57" transform="translate(-39.3 -16.262)" fill="#a2b3af"/>
            <path id="Trazado_202426" data-name="Trazado 202426" d="M152.727,63.266a1.243,1.243,0,0,1-.612,1,.543.543,0,0,1-.11.02.742.742,0,0,1-.05-.38,1.208,1.208,0,0,1,.612-1,.338.338,0,0,1,.1-.02.725.725,0,0,1,.06.38" transform="translate(-39.3 -16.265)" fill="#fff"/>
            <path id="Trazado_202427" data-name="Trazado 202427" d="M153.049,56.263a1.279,1.279,0,0,1-.612,1.01.31.31,0,0,1-.431-.18.738.738,0,0,1-.05-.38,1.212,1.212,0,0,1,.612-1,.363.363,0,0,1,.1-.02c.251-.05.414.191.381.57" transform="translate(-39.3 -14.402)" fill="#a2b3af"/>
            <path id="Trazado_202428" data-name="Trazado 202428" d="M152.727,56.076a1.243,1.243,0,0,1-.612,1,.543.543,0,0,1-.11.02.741.741,0,0,1-.05-.38,1.208,1.208,0,0,1,.612-1,.338.338,0,0,1,.1-.02.725.725,0,0,1,.06.38" transform="translate(-39.3 -14.405)" fill="#fff"/>
            <path id="Trazado_202429" data-name="Trazado 202429" d="M153.049,49.073a1.279,1.279,0,0,1-.612,1.01.31.31,0,0,1-.431-.18.738.738,0,0,1-.05-.38,1.213,1.213,0,0,1,.612-1,.363.363,0,0,1,.1-.02c.251-.05.414.191.381.57" transform="translate(-39.3 -12.543)" fill="#a2b3af"/>
            <path id="Trazado_202430" data-name="Trazado 202430" d="M152.727,48.886a1.244,1.244,0,0,1-.612,1,.544.544,0,0,1-.11.02.742.742,0,0,1-.05-.38,1.208,1.208,0,0,1,.612-1,.338.338,0,0,1,.1-.02.725.725,0,0,1,.06.38" transform="translate(-39.3 -12.545)" fill="#fff"/>
            <path id="Trazado_202431" data-name="Trazado 202431" d="M153.049,41.883a1.279,1.279,0,0,1-.612,1.01.31.31,0,0,1-.431-.18.739.739,0,0,1-.05-.38,1.213,1.213,0,0,1,.612-1,.363.363,0,0,1,.1-.02c.251-.05.414.191.381.57" transform="translate(-39.3 -10.683)" fill="#a2b3af"/>
            <path id="Trazado_202432" data-name="Trazado 202432" d="M152.727,41.7a1.243,1.243,0,0,1-.612,1,.543.543,0,0,1-.11.02.741.741,0,0,1-.05-.38,1.209,1.209,0,0,1,.612-1,.338.338,0,0,1,.1-.02.725.725,0,0,1,.06.38" transform="translate(-39.3 -10.686)" fill="#fff"/>
            <path id="Trazado_202433" data-name="Trazado 202433" d="M153.049,34.693a1.279,1.279,0,0,1-.612,1.01.31.31,0,0,1-.431-.18.739.739,0,0,1-.05-.38,1.213,1.213,0,0,1,.612-1,.364.364,0,0,1,.1-.02c.251-.05.414.191.381.57" transform="translate(-39.3 -8.824)" fill="#a2b3af"/>
            <path id="Trazado_202434" data-name="Trazado 202434" d="M152.727,34.506a1.243,1.243,0,0,1-.612,1,.543.543,0,0,1-.11.02.742.742,0,0,1-.05-.38,1.209,1.209,0,0,1,.612-1,.338.338,0,0,1,.1-.02.725.725,0,0,1,.06.38" transform="translate(-39.3 -8.826)" fill="#fff"/>
            <path id="Trazado_202435" data-name="Trazado 202435" d="M153.049,27.5a1.279,1.279,0,0,1-.612,1.01.31.31,0,0,1-.431-.18.739.739,0,0,1-.05-.38,1.212,1.212,0,0,1,.612-1,.363.363,0,0,1,.1-.02c.251-.05.414.191.381.57" transform="translate(-39.3 -6.964)" fill="#a2b3af"/>
            <path id="Trazado_202436" data-name="Trazado 202436" d="M152.727,27.315a1.243,1.243,0,0,1-.612,1,.544.544,0,0,1-.11.02.741.741,0,0,1-.05-.38,1.209,1.209,0,0,1,.612-1,.338.338,0,0,1,.1-.02.725.725,0,0,1,.06.38" transform="translate(-39.3 -6.966)" fill="#fff"/>
            <path id="Trazado_202437" data-name="Trazado 202437" d="M153.049,20.312a1.279,1.279,0,0,1-.612,1.01.31.31,0,0,1-.431-.18.738.738,0,0,1-.05-.38,1.212,1.212,0,0,1,.612-1,.363.363,0,0,1,.1-.02c.251-.05.414.191.381.57" transform="translate(-39.3 -5.104)" fill="#a2b3af"/>
            <path id="Trazado_202438" data-name="Trazado 202438" d="M152.727,20.125a1.243,1.243,0,0,1-.612,1,.544.544,0,0,1-.11.02.742.742,0,0,1-.05-.38,1.209,1.209,0,0,1,.612-1,.338.338,0,0,1,.1-.02.725.725,0,0,1,.06.38" transform="translate(-39.3 -5.107)" fill="#fff"/>
            <path id="Trazado_202439" data-name="Trazado 202439" d="M153.049,13.122a1.279,1.279,0,0,1-.612,1.01.31.31,0,0,1-.431-.18.739.739,0,0,1-.05-.38,1.212,1.212,0,0,1,.612-1,.363.363,0,0,1,.1-.02c.251-.05.414.191.381.57" transform="translate(-39.3 -3.245)" fill="#a2b3af"/>
            <path id="Trazado_202440" data-name="Trazado 202440" d="M152.727,12.935a1.243,1.243,0,0,1-.612,1,.543.543,0,0,1-.11.02.742.742,0,0,1-.05-.38,1.208,1.208,0,0,1,.612-1,.338.338,0,0,1,.1-.02.725.725,0,0,1,.06.38" transform="translate(-39.3 -3.247)" fill="#fff"/>
            <path id="Trazado_202441" data-name="Trazado 202441" d="M153.049,5.932a1.291,1.291,0,0,1-.612,1.01.31.31,0,0,1-.431-.18.739.739,0,0,1-.05-.38,1.212,1.212,0,0,1,.612-1,.363.363,0,0,1,.1-.02c.251-.05.411.191.381.57" transform="translate(-39.3 -1.385)" fill="#a2b3af"/>
            <path id="Trazado_202442" data-name="Trazado 202442" d="M152.727,5.745a1.257,1.257,0,0,1-.612,1,.543.543,0,0,1-.11.02.742.742,0,0,1-.05-.38,1.209,1.209,0,0,1,.612-1,.338.338,0,0,1,.1-.02.74.74,0,0,1,.06.38" transform="translate(-39.3 -1.388)" fill="#fff"/>
            <path id="Trazado_202443" data-name="Trazado 202443" d="M163.447,33.507V2.427A2.43,2.43,0,0,0,159.8.33L138.563,12.594a5.293,5.293,0,0,0-2.649,4.582v31.59a2.337,2.337,0,0,0,3.5,2.019l21.024-12.09a5.985,5.985,0,0,0,3-5.187" transform="translate(-35.152 0)" fill="#a2b3af"/>
            <path id="Trazado_202444" data-name="Trazado 202444" d="M164.184,34.14V3.06a2.43,2.43,0,0,0-3.648-2.1L139.3,13.227a5.293,5.293,0,0,0-2.649,4.582V49.4a2.337,2.337,0,0,0,3.5,2.019l21.023-12.089a5.986,5.986,0,0,0,3.005-5.188" transform="translate(-35.343 -0.164)" fill="#f4fafc"/>
            <path id="Trazado_202445" data-name="Trazado 202445" d="M140.718,15.282a3.63,3.63,0,0,0-1.818,3.144V49.6a.9.9,0,0,0,1.346.776l20.459-11.74A4.78,4.78,0,0,0,163.1,34.5V3.917a.9.9,0,0,0-1.348-.775Z" transform="translate(-35.924 -0.781)" fill="#a6bae6"/>
            <path id="Trazado_202446" data-name="Trazado 202446" d="M161.879,18.714a16.71,16.71,0,0,1-1.77,7.832,13.015,13.015,0,0,1-5.115,5.336l-6.563,3.854V45.823l-4.1,2.378V20.376l11.129-6.5q6.42-3.724,6.419,4.84M148.43,31.244l6.323-3.714A5.568,5.568,0,0,0,157,25.181a8.632,8.632,0,0,0,.739-3.854c0-1.458-.226-2.409-.678-2.85s-1.15-.391-2.094.157L148.43,22.47Z" transform="translate(-37.329 -3.296)" fill="#f4fafc"/>
            <path id="Trazado_202447" data-name="Trazado 202447" d="M163.447,69.9V59.721a2.578,2.578,0,0,0-3.869-2.225L138.563,69.631a5.294,5.294,0,0,0-2.649,4.583V84.489a2.492,2.492,0,0,0,3.736,2.154L160.79,74.487a5.3,5.3,0,0,0,2.657-4.588" transform="translate(-35.152 -14.78)" fill="#a2b3af"/>
            <path id="Trazado_202448" data-name="Trazado 202448" d="M164.184,69.958v-9.6a2.578,2.578,0,0,0-3.869-2.225L139.3,70.265a5.293,5.293,0,0,0-2.649,4.582V85.123a2.492,2.492,0,0,0,3.736,2.154l20.64-11.869a6.286,6.286,0,0,0,3.157-5.449" transform="translate(-35.343 -14.944)" fill="#f4fafc"/>
            <path id="Trazado_202449" data-name="Trazado 202449" d="M139.508,86.989a1.734,1.734,0,0,1-1.733-1.73V75.137a4.475,4.475,0,0,1,2.234-3.865l21.033-12.14a1.731,1.731,0,0,1,2.6,1.495v9.539a5.616,5.616,0,0,1-2.81,4.851l-20.461,11.74a1.745,1.745,0,0,1-.862.231" transform="translate(-35.633 -15.233)" fill="#555d69"/>
            <path id="Trazado_202450" data-name="Trazado 202450" d="M140.718,72.282a3.63,3.63,0,0,0-1.818,3.144V85.551a.9.9,0,0,0,1.346.776l20.459-11.74a4.779,4.779,0,0,0,2.393-4.131V60.917a.9.9,0,0,0-1.348-.775Z" transform="translate(-35.924 -15.523)" fill="#f4fafc"/>
            <path id="Trazado_202451" data-name="Trazado 202451" d="M164.728,70.35c-.245,2.989-2.153,6.121-4.261,6.99s-3.617-.856-3.372-3.846,2.154-6.129,4.262-7,3.617.856,3.371,3.854" transform="translate(-40.624 -17.14)" fill="#f4fafc"/>
            <path id="Trazado_202452" data-name="Trazado 202452" d="M159.324,77.744a2.217,2.217,0,0,1-1.331-.427c-.956-.7-1.418-2.134-1.27-3.943.253-3.086,2.243-6.329,4.433-7.232a2.477,2.477,0,0,1,2.483.184c.956.7,1.419,2.138,1.27,3.95-.254,3.08-2.241,6.322-4.433,7.223a3.014,3.014,0,0,1-1.152.245m2.985-11.291a2.483,2.483,0,0,0-.942.2c-2.017.831-3.852,3.865-4.091,6.763-.129,1.588.26,2.876,1.044,3.45a1.916,1.916,0,0,0,1.946.116c2.016-.83,3.851-3.861,4.09-6.755.131-1.592-.26-2.884-1.045-3.457a1.66,1.66,0,0,0-1-.321" transform="translate(-40.527 -17.044)" fill="#555d69"/>
            <path id="Trazado_202453" data-name="Trazado 202453" d="M156.17,76.115c-.206,2.51-1.807,5.138-3.577,5.868s-3.036-.719-2.83-3.229,1.808-5.145,3.578-5.874,3.036.718,2.83,3.235" transform="translate(-38.728 -18.8)" fill="#f4fafc"/>
            <path id="Trazado_202454" data-name="Trazado 202454" d="M151.616,82.351a1.905,1.905,0,0,1-1.144-.368,3.659,3.659,0,0,1-1.084-3.35c.215-2.605,1.9-5.346,3.75-6.108a2.129,2.129,0,0,1,2.128.159,3.67,3.67,0,0,1,1.082,3.356c-.213,2.6-1.893,5.339-3.747,6.1a2.6,2.6,0,0,1-.985.208m2.506-9.479a2.013,2.013,0,0,0-.773.169c-1.679.689-3.207,3.219-3.407,5.639a3.194,3.194,0,0,0,.858,2.856,1.574,1.574,0,0,0,1.592.093c1.679-.691,3.207-3.218,3.405-5.633a3.206,3.206,0,0,0-.858-2.862,1.353,1.353,0,0,0-.815-.261" transform="translate(-38.631 -18.704)" fill="#555d69"/>
            <path id="Trazado_202455" data-name="Trazado 202455" d="M152.652,80.976l-.6.35V78.888c0-.266.011-.575.032-.933-.01.025-.05.106-.116.241s-.2.384-.389.745l-.342-.272.875-1.531.544-.317Z" transform="translate(-39.114 -19.869)" fill="#555d69"/>
            <path id="Trazado_202456" data-name="Trazado 202456" d="M155.006,76.984c.248-.143.444-.148.591-.016a1.033,1.033,0,0,1,.218.768,2.629,2.629,0,0,1-.273,1.215,1.923,1.923,0,0,1-.759.819,1.072,1.072,0,0,1-.7.2v-.723a.66.66,0,0,0,.3.015.887.887,0,0,0,.337-.113,1.049,1.049,0,0,0,.483-.99c0-.442-.156-.571-.471-.39a2.012,2.012,0,0,0-.4.32l-.2-.068.1-2.143,1.4-.814v.692l-.88.51-.045.923a1.942,1.942,0,0,1,.289-.2" transform="translate(-39.851 -19.413)" fill="#555d69"/>
            <path id="Trazado_202457" data-name="Trazado 202457" d="M161.2,75.639l-2.017,1.171v-.66l.669-1.582c.183-.437.31-.752.378-.953a4.071,4.071,0,0,0,.151-.545,2.475,2.475,0,0,0,.049-.482.461.461,0,0,0-.1-.353.206.206,0,0,0-.25.009.834.834,0,0,0-.254.239,3.444,3.444,0,0,0-.289.494l-.391-.293a4.214,4.214,0,0,1,.5-.82,1.885,1.885,0,0,1,.5-.434q.455-.265.711-.075a.946.946,0,0,1,.255.79,3.251,3.251,0,0,1-.045.543,4.536,4.536,0,0,1-.141.571q-.093.3-.235.646t-.73,1.637v.025l1.231-.715Z" transform="translate(-41.161 -18.435)" fill="#555d69"/>
            <path id="Trazado_202458" data-name="Trazado 202458" d="M164.538,71.328a6.4,6.4,0,0,1-.246,2.007,1.811,1.811,0,0,1-.788,1.033q-.546.316-.784-.125a4.128,4.128,0,0,1-.239-1.722,6.366,6.366,0,0,1,.251-2.011,1.8,1.8,0,0,1,.78-1.035q.544-.316.784.111a4.1,4.1,0,0,1,.241,1.741m-1.357.787a7.664,7.664,0,0,0,.068,1.3c.044.2.132.269.258.2a.5.5,0,0,0,.2-.265,2.259,2.259,0,0,0,.1-.555c.02-.241.03-.6.03-1.063a7.213,7.213,0,0,0-.073-1.294c-.048-.211-.134-.28-.259-.207a.687.687,0,0,0-.258.5,9.437,9.437,0,0,0-.068,1.38" transform="translate(-42.023 -17.934)" fill="#555d69"/>
            <path id="Trazado_202459" data-name="Trazado 202459" d="M147.966,81.364c-.177,2.158-1.555,4.419-3.076,5.046s-2.611-.618-2.435-2.776,1.555-4.425,3.077-5.052,2.61.618,2.433,2.782" transform="translate(-36.839 -20.282)" fill="#f4fafc"/>
            <path id="Trazado_202460" data-name="Trazado 202460" d="M144.037,86.752a1.688,1.688,0,0,1-1.008-.323,3.185,3.185,0,0,1-.946-2.916c.185-2.253,1.641-4.623,3.248-5.285a1.867,1.867,0,0,1,1.868.141,3.191,3.191,0,0,1,.947,2.922c-.185,2.251-1.642,4.619-3.248,5.28a2.278,2.278,0,0,1-.861.182m2.154-8.151a1.72,1.72,0,0,0-.65.141c-1.432.591-2.736,2.75-2.905,4.817a2.709,2.709,0,0,0,.721,2.421,1.31,1.31,0,0,0,1.33.076c1.432-.589,2.736-2.748,2.905-4.811a2.72,2.72,0,0,0-.723-2.427,1.127,1.127,0,0,0-.678-.216" transform="translate(-36.742 -20.185)" fill="#555d69"/>
            <path id="Trazado_202461" data-name="Trazado 202461" d="M144.908,85.624l-.532.308V83.784c0-.234.009-.507.028-.821-.009.022-.043.093-.1.211s-.173.339-.343.657l-.3-.239.772-1.349.479-.277Z" transform="translate(-37.155 -21.199)" fill="#555d69"/>
            <path id="Trazado_202462" data-name="Trazado 202462" d="M147.713,82.2a4.965,4.965,0,0,1-.189,1.546,1.4,1.4,0,0,1-.609.8c-.28.162-.482.132-.6-.095a3.168,3.168,0,0,1-.182-1.328,4.96,4.96,0,0,1,.191-1.551,1.407,1.407,0,0,1,.6-.8c.277-.159.48-.132.6.087a3.153,3.153,0,0,1,.186,1.342m-1.046.607a5.791,5.791,0,0,0,.053,1q.051.236.2.152a.374.374,0,0,0,.153-.205,1.652,1.652,0,0,0,.079-.426q.023-.281.023-.819a5.727,5.727,0,0,0-.054-1c-.039-.162-.105-.215-.2-.159a.531.531,0,0,0-.2.391,7.1,7.1,0,0,0-.053,1.062" transform="translate(-37.794 -20.865)" fill="#555d69"/>
            <path id="Trazado_202463" data-name="Trazado 202463" d="M89.774,170.333v-2.778l19.15,11.013v2.879Z" transform="translate(-23.219 -43.336)" fill="#8e9c9e"/>
            <path id="Trazado_202464" data-name="Trazado 202464" d="M115.606,179.786l13.061-7.524V175.1l-13.061,7.563Z" transform="translate(-29.9 -44.553)" fill="#ccd2d6"/>
            <path id="Trazado_202465" data-name="Trazado 202465" d="M89.774,164.917l19.151,11.013,13.062-7.526-19.154-11.051Z" transform="translate(-23.219 -40.697)" fill="#ebebeb"/>
            <path id="Trazado_202466" data-name="Trazado 202466" d="M93.431,142.56V71.453l16.7,9.6v71.195Z" transform="translate(-24.165 -18.48)" fill="#8e9c9e"/>
            <path id="Trazado_202467" data-name="Trazado 202467" d="M93.431,78.766v-2.75l16.7,9.6v2.839Z" transform="translate(-24.165 -19.66)" fill="#a6bae6"/>
            <path id="Trazado_202468" data-name="Trazado 202468" d="M115.956,82.118l11.389-6.561v71.161l-11.389,6.6Z" transform="translate(-29.99 -19.542)" fill="#d9dee1"/>
            <path id="Trazado_202469" data-name="Trazado 202469" d="M115.956,86.681l11.389-6.561v2.8l-11.389,6.594Z" transform="translate(-29.99 -20.722)" fill="#a6bae6"/>
            <path id="Trazado_202470" data-name="Trazado 202470" d="M93.431,164.242v-2.75l16.7,9.6v2.839Z" transform="translate(-24.165 -41.767)" fill="#a6bae6"/>
            <path id="Trazado_202471" data-name="Trazado 202471" d="M115.956,172.156l11.389-6.561v2.8l-11.389,6.6Z" transform="translate(-29.99 -42.829)" fill="#a6bae6"/>
            <path id="Trazado_202472" data-name="Trazado 202472" d="M93.431,69.152l16.7,9.6,11.39-6.562-16.7-9.636Z" transform="translate(-24.165 -16.179)" fill="#ebebeb"/>
            <path id="Trazado_202473" data-name="Trazado 202473" d="M126.608,107.247V96.714a.633.633,0,0,0-.964-.54l-5.792,3.444a1.467,1.467,0,0,0-.719,1.259V111.49a.634.634,0,0,0,.963.54l5.71-3.381a1.634,1.634,0,0,0,.8-1.4" transform="translate(-30.812 -24.85)" fill="#3a8abf"/>
            <path id="Trazado_202474" data-name="Trazado 202474" d="M119.893,111.972a.507.507,0,0,1-.516-.508V100.952a1.288,1.288,0,0,1,.629-1.1l5.711-3.395a.527.527,0,0,1,.258-.074.507.507,0,0,1,.516.508v10.352a1.6,1.6,0,0,1-.785,1.372L120.15,111.9a.521.521,0,0,1-.257.073" transform="translate(-30.875 -24.928)" fill="#f4fafc"/>
            <path id="Trazado_202475" data-name="Trazado 202475" d="M120.237,100.179a1.008,1.008,0,0,0-.494.864v10.511a.241.241,0,0,0,.365.206l5.555-3.283a1.326,1.326,0,0,0,.65-1.135V96.989a.241.241,0,0,0-.366-.205Z" transform="translate(-30.97 -25.023)" fill="#a6bae6"/>
            <path id="Trazado_202476" data-name="Trazado 202476" d="M125.718,102.759a4.608,4.608,0,0,1-.481,2.14,3.621,3.621,0,0,1-1.389,1.474l-1.782,1.077V110.2l-1.113.665v-7.575l3.022-1.817q1.743-1.041,1.743,1.291m-3.652,3.468,1.717-1.038a1.549,1.549,0,0,0,.609-.649,2.366,2.366,0,0,0,.2-1.052,1.124,1.124,0,0,0-.184-.773q-.184-.178-.569.052l-1.774,1.072Z" transform="translate(-31.283 -26.16)" fill="#f4fafc"/>
            <path id="Trazado_202477" data-name="Trazado 202477" d="M96.11,85.788v20.124l12.73,7.394v-20.2L98.167,86.973Z" transform="translate(-24.857 -22.188)" fill="#d9dee1"/>
            <path id="Trazado_202478" data-name="Trazado 202478" d="M96.11,108.466v.027l12.73,7.394V95.662l-9.431,10.257Z" transform="translate(-24.857 -24.742)" fill="#adb1b5"/>
            <path id="Trazado_202479" data-name="Trazado 202479" d="M109.99,109.854l-9.431-5.477v-.028l1.6-14.756,7.827,4.5Z" transform="translate(-26.008 -23.172)" fill="#a6bae6"/>
            <path id="Trazado_202480" data-name="Trazado 202480" d="M111.134,107.561l-6.153-3.573v-.018l1.046-9.627,5.106,2.936Z" transform="translate(-27.152 -24.4)" fill="#f4fafc"/>
            <path id="Trazado_202481" data-name="Trazado 202481" d="M96.11,115.358l.425-.238,12.73,7.321v6.467l-.425.238Z" transform="translate(-24.857 -29.774)" fill="#ebebeb"/>
            <path id="Trazado_202482" data-name="Trazado 202482" d="M97.236,152.908l-.079-.046V131.28l11.095,6.379.081.047v21.641Zm.242-21.073v20.841l10.533,6.112v-20.9Z" transform="translate(-25.128 -33.954)" fill="#768e91"/>
            <path id="Trazado_202483" data-name="Trazado 202483" d="M117.185,95.266l10.309-5.9v53.506l-10.309,5.845Zm9.988-5.35-9.667,5.535V148.16l9.667-5.479Z" transform="translate(-30.308 -23.112)" fill="#a8a8a8"/>
            <path id="Trazado_202484" data-name="Trazado 202484" d="M103.14,160.739a1.913,1.913,0,0,0,.89,1.484c.486.271.873.048.867-.5a1.908,1.908,0,0,0-.89-1.483c-.486-.272-.873-.048-.867.5" transform="translate(-26.676 -41.414)" fill="#929da6"/>
            <path id="Trazado_202485" data-name="Trazado 202485" d="M102.966,161.078a1.684,1.684,0,0,0,.785,1.308c.428.24.77.043.764-.44a1.684,1.684,0,0,0-.785-1.308c-.429-.24-.77-.042-.764.44" transform="translate(-26.631 -41.52)" fill="#bfbfbf"/>
            <path id="Trazado_202486" data-name="Trazado 202486" d="M103.14,161.206a1.406,1.406,0,0,0,.655,1.091c.357.2.642.035.637-.367a1.4,1.4,0,0,0-.655-1.091c-.357-.2-.642-.036-.637.367" transform="translate(-26.676 -41.577)" fill="#cecece"/>
            <path id="Trazado_202487" data-name="Trazado 202487" d="M103.659,161.591a.568.568,0,0,0,.264.441c.145.081.26.014.258-.149a.567.567,0,0,0-.264-.44c-.145-.082-.261-.015-.258.148" transform="translate(-26.81 -41.746)" fill="#6b777f"/>
            <path id="Trazado_202488" data-name="Trazado 202488" d="M96.11,121.84v-6.4l12.73,7.321v6.467Z" transform="translate(-24.857 -29.857)" fill="#aeb3bd"/>
            <path id="Trazado_202489" data-name="Trazado 202489" d="M108.65,123.263,96.5,116.277v5.494l12.147,7.05Z" transform="translate(-24.959 -30.073)" fill="#eac72f"/>
            <path id="Trazado_202490" data-name="Trazado 202490" d="M108.417,123.582l-11.438-6.56v4.744l11.438,6.617Z" transform="translate(-25.082 -30.266)" fill="#aeb3bd"/>
            <g id="Grupo_160951" data-name="Grupo 160951" transform="translate(71.252 63.6)" style="mix-blend-mode: multiply;isolation: isolate">
              <g id="Grupo_160950" data-name="Grupo 160950">
                <g id="Grupo_160949" data-name="Grupo 160949" clip-path="url(#clip-path-14)">
                  <path id="Trazado_202491" data-name="Trazado 202491" d="M96.11,85.788l4.576,5.82,8.154,4.664V93.109Z" transform="translate(-96.11 -85.788)" fill="#a6bae6"/>
                </g>
              </g>
            </g>
            <path id="Trazado_202492" data-name="Trazado 202492" d="M106.128,126.382v-3l4.026,2.293v3.031Z" transform="translate(-27.448 -31.912)" fill="#dce0e3"/>
            <path id="Trazado_202493" data-name="Trazado 202493" d="M107.257,125.476v-1.447l3.077,1.756v1.472Z" transform="translate(-27.74 -32.078)" fill="#9aa7b0"/>
            <path id="Trazado_202494" data-name="Trazado 202494" d="M107.726,125.181v-.174l2.645,1.512v.194Z" transform="translate(-27.862 -32.331)" fill="#555d69"/>
            <path id="Trazado_202495" data-name="Trazado 202495" d="M106.965,125.309l-.836,1.074v-3l.836.477Z" transform="translate(-27.449 -31.912)" fill="#77888b"/>
            <path id="Trazado_202496" data-name="Trazado 202496" d="M97.919,119.368v-.963l4.3,2.447v1Z" transform="translate(-25.325 -30.624)" fill="#a6ea5b"/>
            <path id="Trazado_202497" data-name="Trazado 202497" d="M98.4,119.472v-.238l3.551,2.042v.255Z" transform="translate(-25.45 -30.838)" fill="#464f5c"/>
            <path id="Trazado_202498" data-name="Trazado 202498" d="M113.705,124.995l-.426.237V131.7l.425-.238Z" transform="translate(-29.298 -32.328)" fill="#d9dee1"/>
            <path id="Trazado_202499" data-name="Trazado 202499" d="M101.815,124.944v-2l1.409.8v2.014Z" transform="translate(-26.333 -31.797)" fill="#b6bfc6"/>
            <path id="Trazado_202500" data-name="Trazado 202500" d="M102.567,125.191l.339.2.005-1.417-.347-.2Z" transform="translate(-26.527 -32.011)" fill="#dce0e3"/>
            <path id="Trazado_202501" data-name="Trazado 202501" d="M102.673,125.178l.158.094V124.1l-.162-.1Z" transform="translate(-26.554 -32.071)" fill="#464f5c"/>
            <path id="Trazado_202502" data-name="Trazado 202502" d="M119.589,134.448a1.518,1.518,0,0,1-.709,1.18c-.386.216-.695.039-.689-.4a1.519,1.519,0,0,1,.709-1.18c.386-.216.695-.038.689.4" transform="translate(-30.568 -34.646)" fill="#d1d6da"/>
            <path id="Trazado_202503" data-name="Trazado 202503" d="M119.785,134.717a1.341,1.341,0,0,1-.625,1.041c-.34.191-.613.034-.608-.351a1.337,1.337,0,0,1,.625-1.04c.34-.191.613-.034.608.35" transform="translate(-30.662 -34.731)" fill="#ababab"/>
            <path id="Trazado_202504" data-name="Trazado 202504" d="M119.719,134.821a1.116,1.116,0,0,1-.521.867c-.284.159-.511.028-.506-.292a1.115,1.115,0,0,1,.52-.867c.284-.159.511-.028.507.292" transform="translate(-30.698 -34.776)" fill="#bababa"/>
            <path id="Trazado_202505" data-name="Trazado 202505" d="M119.519,135.126a.454.454,0,0,1-.211.351c-.115.064-.208.011-.205-.119a.452.452,0,0,1,.211-.351c.115-.064.207-.011.205.119" transform="translate(-30.804 -34.911)" fill="#5c656b"/>
            <g id="Grupo_160954" data-name="Grupo 160954" transform="translate(49.538 132.504)" style="mix-blend-mode: multiply;isolation: isolate">
              <g id="Grupo_160953" data-name="Grupo 160953">
                <g id="Grupo_160952" data-name="Grupo 160952" clip-path="url(#clip-path-15)">
                  <path id="Trazado_202506" data-name="Trazado 202506" d="M66.937,184.3c.92,3.969,7.024,8.019,13.633,9.045s11.222-1.361,10.3-5.33-7.024-8.019-13.633-9.045-11.222,1.361-10.3,5.33" transform="translate(-66.82 -178.73)" fill="#e3dadd"/>
                </g>
              </g>
            </g>
            <path id="Trazado_202507" data-name="Trazado 202507" d="M70.574,118.394a5.026,5.026,0,0,0,.141,1.228,4.19,4.19,0,0,0,.24.771,1.394,1.394,0,0,0,.074.165,14.156,14.156,0,0,0,.64,1.407c.209.415.431.813.664,1.213,1.734,3.023,2.012,3.3,2.328,4.64.052.221.079.416.129.6.011.042.024.075.035.117l0,.01a1.182,1.182,0,0,0,.148.282.493.493,0,0,0,.073.125,8.077,8.077,0,0,0,.527.694,11.551,11.551,0,0,0,.871,1.219c.3.414.091.449,1.248.542s.783-.477.783-.477l.333-.107a.252.252,0,0,0,.156-.4l-.91-1.905c.011-.1.013-.2.017-.305.411.219,1.339.632,1.549.4.277-.308-1-.758-1.412-1.117-.153-.123-.4-.308-.651-.492a.7.7,0,0,0-.132-.129,7.2,7.2,0,0,1-1.085-.835,3.335,3.335,0,0,1-.631-1.176c-.59-1.776-.9-5.276-1.745-7.127l0-.01a.009.009,0,0,1-.007-.011.571.571,0,0,0-.082-.128c-.5-.877-1.6-.629-2.406-.266-.011.007-.033.013-.044.02a2.5,2.5,0,0,1-.375.118.01.01,0,0,1-.012.007.934.934,0,0,0-.308.132c0,.01-.009,0-.011.007s-.037.032-.042.051c-.15.187-.1.476-.1.736" transform="translate(-18.25 -30.258)" fill="#f6c09c"/>
            <path id="Trazado_202508" data-name="Trazado 202508" d="M71.473,103.893c.011-.042.031-.081.045-.122,0,.021,0,.044,0,.065Z" transform="translate(-18.485 -26.839)" fill="#f6c09c"/>
            <path id="Trazado_202509" data-name="Trazado 202509" d="M70.577,113.214a18.8,18.8,0,0,1,.341-4.085,10.1,10.1,0,0,0,.276-2.265.265.265,0,0,0,0-.057l0-.321c.013-.554.016-1.114.016-1.653,0-.219.008-.447.006-.667a8.782,8.782,0,0,1,.168-2.1,6.435,6.435,0,0,1,.812-1.753,4.709,4.709,0,0,1,.692-.863,2.2,2.2,0,0,1,.919-.517,3.074,3.074,0,0,1,1.67.122c0,.124-.059.239-.062.365a5.492,5.492,0,0,0,.071.576,15.113,15.113,0,0,1-.039,2.641c-.065.807-.022,1.57-.026,2.378a27.8,27.8,0,0,1-1.286,7.374,3.9,3.9,0,0,0-.23,1.058,8.8,8.8,0,0,0,.073,1.168c.008.034.046.245.073.483a3.568,3.568,0,0,1,.087.758c-.6.3-1.994.815-2.727.438.062.262.14.537.212.8a.892.892,0,0,1,.041.178,14.014,14.014,0,0,1-.641-1.407,1.379,1.379,0,0,1-.073-.165,4.194,4.194,0,0,1-.241-.771,7.3,7.3,0,0,1-.14-1.718" transform="translate(-18.253 -25.568)" fill="#a6bae6"/>
            <path id="Trazado_202510" data-name="Trazado 202510" d="M71.274,121.548a50.493,50.493,0,0,0,2.522,4.975c.944,1.432,2.805-.7,2.805-.7l-3.08-5.6Z" transform="translate(-18.434 -31.092)" fill="#b0e2e2"/>
            <path id="Trazado_202511" data-name="Trazado 202511" d="M72.853,178.131a.589.589,0,0,0-.066.038c.013-.012.009-.033.018-.048.016,0,.031.008.048.01" transform="translate(-18.825 -46.068)" fill="#e6ab81"/>
            <path id="Trazado_202512" data-name="Trazado 202512" d="M76.435,141.724a6.585,6.585,0,0,0-2.118,2,3.674,3.674,0,0,0-.91,2.65,28.84,28.84,0,0,0,.716,5.035c.222.949.879,3.136.719,4.122a17.763,17.763,0,0,1-.551,1.721,8.634,8.634,0,0,0-.456,2.12,35.854,35.854,0,0,0,.76,6.1c.1,1.088-.056,1.863.019,2.951a1.439,1.439,0,0,0,1.375,1.449c.411.036,2.3,2.891,6.08,1.57.258-.09-1.24-1.3-1.489-1.451-.542-.336-1.753-.751-1.72-1.31.058-.971.176-1.953.273-2.929.111-1.119.645-7.055.95-8.615.3-1.535.785-3.021,1.088-4.554a35.384,35.384,0,0,0,.417-4.983q.023-.478.041-.957c.022-.626.033-1.254.007-1.881-.038-.9.3-1.612-.489-2.318a3.643,3.643,0,0,0-1.348-.7,4.8,4.8,0,0,0-3.364-.016" transform="translate(-18.984 -36.577)" fill="#e8b58f"/>
            <path id="Trazado_202513" data-name="Trazado 202513" d="M74.816,177.048s-.89.526-.343,3.252a22.476,22.476,0,0,1,.36,4.2c.259.411.807.091.807.091l.227-3.406.46-.18c.207.531.873,2.547,1.316,2.532a9.476,9.476,0,0,0,4.451-1.228c.824-.507,1.725-.9,1.869-1.462a1.224,1.224,0,0,0-.833-1.473l-2.395-.587s.612.387,0,.933a2.577,2.577,0,0,1-2.148-.031,10.2,10.2,0,0,1-3.488-1.843,1.454,1.454,0,0,1-.281-.8" transform="translate(-19.215 -45.791)" fill="#1e1a19"/>
            <path id="Trazado_202514" data-name="Trazado 202514" d="M79.638,152.725a6.7,6.7,0,0,1,.193,2.788,12.416,12.416,0,0,1-.559,1.927,13.533,13.533,0,0,0-.416,5.8c.245,1.952.692,3.873.839,5.838.092,1.222-.552,4.334,1.129,4.485.411.036,1.355,2.726,4.189,3.031.271.03,1.575-2.624,1.3-2.711a3.915,3.915,0,0,1-2.57-3.338c.058-.971.176-1.952.274-2.929q.167-1.678.4-3.348c.225-1.573.447-3.148.752-4.708.3-1.535.784-3.021,1.087-4.553a35.168,35.168,0,0,0,.417-4.983q.024-.479.042-.958c.022-.626.033-1.254.007-1.88q-.128-3.093-.334-6.181c-.041-.613-.06-1.228-.07-1.843-.017-1.016-.009-2.032-.029-3.047-.014-.739-.06-1.085-.9-.959-.51.076-.885.454-1.42.506a7.073,7.073,0,0,1-1.529-.039c-1.655-.208-3.2-.924-4.857-1.118-.434-.05-1.056-.179-1.351.239-.176.249-.091.658-.124.939-.051.435-.193.854-.286,1.28a14.21,14.21,0,0,0,.352,5.8,19.007,19.007,0,0,0,1.538,5.367,23.183,23.183,0,0,1,1.933,4.591" transform="translate(-19.561 -34.773)" fill="#f1bc95"/>
            <path id="Trazado_202515" data-name="Trazado 202515" d="M80.9,184.921s-.89.526-.344,3.252a22.477,22.477,0,0,1,.36,4.2c.259.411.807.091.807.091l.228-3.406.459-.18c.207.531.873,2.547,1.317,2.532a9.477,9.477,0,0,0,4.45-1.229c.824-.507,1.725-.9,1.87-1.462a1.225,1.225,0,0,0-.833-1.473l-2.395-.587s.613.387,0,.933a2.572,2.572,0,0,1-2.147-.03,10.2,10.2,0,0,1-3.488-1.843,1.447,1.447,0,0,1-.281-.8" transform="translate(-20.789 -47.827)" fill="#1e1a19"/>
            <path id="Trazado_202516" data-name="Trazado 202516" d="M73.1,133.651a5.511,5.511,0,0,1,2.154-.867l.074.034c.015-.283.026-.568.027-.854.394-.017.787-.027,1.185-.021.171-.006.349.006.52.008,1.717.078,3.418.265,5.117.5.431.062.87.133,1.3.2a4.766,4.766,0,0,0,.962.156c.338-.016.676-.164.985-.168.14.007.259-.178.406-.192a3.989,3.989,0,0,1,.8.136.4.4,0,0,1,.244.1.393.393,0,0,1,.08.171l.331,1.156a14.922,14.922,0,0,1,.4,2.413c.437,3.461-.292,6.058-.521,11.9,0,0,.065,1.105-3.083,2.029a19.753,19.753,0,0,1-5.869-.17,14.2,14.2,0,0,1-5.037-2.269c.07-4.571-3.159-11.608-.067-14.258" transform="translate(-18.559 -34.125)" fill="#455a64"/>
            <path id="Trazado_202517" data-name="Trazado 202517" d="M80,99.725a7.293,7.293,0,0,0-.893-.506,7.611,7.611,0,0,0-1.655-.073c-.517-.049-.975-.3-1.5-.322a1.577,1.577,0,0,0-.371.01,1.9,1.9,0,0,0-.449.156,3.452,3.452,0,0,0-1.4.819,4.331,4.331,0,0,0-.878,1.628,13.528,13.528,0,0,0-.643,3.353,23.106,23.106,0,0,0,.1,4.494c.137,1.036.2,2.081.323,3.117a24.173,24.173,0,0,0,.654,2.382,18.258,18.258,0,0,1,.211,5.852,27.4,27.4,0,0,1-.672,3.375q-.179.764-.374,1.523c-.065.251-.143.5-.2.755a1.469,1.469,0,0,0-.082.522c.123.673,2.375,1.584,2.953,1.839a12.478,12.478,0,0,0,3.067.9,13.87,13.87,0,0,0,5.173-.2,13.49,13.49,0,0,0,4.416-1.745c-.41-1.384-2.759-15.9-2.515-17.206a14.126,14.126,0,0,0,.185-1.92c.01-.312.029-.624.049-.936.019-.623.059-1.248.087-1.871a6.448,6.448,0,0,0,.087-.975c-.029-.42-.409-.566-.5-.926a4.308,4.308,0,0,0-.068-.683,3.576,3.576,0,0,0-2.028-1.638c-.173-.078-.348-.149-.519-.231-.214-.1-.42-.22-.626-.338-.311-.178-.621-.4-.922-.609A6.9,6.9,0,0,0,80,99.725" transform="translate(-18.659 -25.558)" fill="#a6bae6"/>
            <path id="Trazado_202518" data-name="Trazado 202518" d="M82.015,95.673s0,3.575,0,3.6a1.01,1.01,0,0,1-.8.91,5.7,5.7,0,0,1-1.9,0,3.658,3.658,0,0,1-1.387-.5,2.129,2.129,0,0,1-.979-1.328,9.641,9.641,0,0,1,0-1.485Z" transform="translate(-19.891 -24.744)" fill="#f6c09c"/>
            <path id="Trazado_202519" data-name="Trazado 202519" d="M83.09,100.943c.053-.1.112-.188.174-.279a.345.345,0,0,1,.174-.153c.078-.022.042-.134.116-.1.265.115.644.381.9.51a1.385,1.385,0,0,1,.292.179.7.7,0,0,1,.12.131l.02-.172a.345.345,0,0,1,.053.4.811.811,0,0,1-.309.3,1.05,1.05,0,0,1-.244.12,1.14,1.14,0,0,1-.305.04,1.791,1.791,0,0,1-.666-.089.814.814,0,0,1-.305-.193.506.506,0,0,1-.143-.326.756.756,0,0,1,.122-.372" transform="translate(-21.458 -25.968)" fill="#f6c09c"/>
            <path id="Trazado_202520" data-name="Trazado 202520" d="M84.083,101.228c.02-.171-.893-.825-.893-.825s-.437.546-1.923.305-1.333.777-1.333.777l2.249.294Z" transform="translate(-20.672 -25.968)" fill="#daf2ff"/>
            <path id="Trazado_202521" data-name="Trazado 202521" d="M82.992,100.475c.661.4,1,.588,1.638,1.025a6.608,6.608,0,0,1-4.7.466,7.473,7.473,0,0,1-2.879-1.355c-.681-.59-1.667-1.418-1.245-2.274.013-.027.465-.05.492-.062a.141.141,0,0,1,.075-.007l.6.062a.084.084,0,0,1,.051.018.086.086,0,0,1,.018.058,1.816,1.816,0,0,0,.938,1.3c.412.306,3.295,1.819,5.008.772" transform="translate(-19.581 -25.415)" fill="#a6bae6"/>
            <path id="Trazado_202522" data-name="Trazado 202522" d="M86.37,119.167a98.7,98.7,0,0,1,.546,13.024,13.509,13.509,0,0,0,4.416-1.744c-.409-1.385-2.759-15.9-2.515-17.206A13.987,13.987,0,0,0,89,111.32c.01-.312.03-.624.049-.936-1.111-.819-2.808-1.014-3.031.721-.342,2.554.127,5.5.351,8.062" transform="translate(-22.216 -28.392)" fill="#a6bae6"/>
            <path id="Trazado_202523" data-name="Trazado 202523" d="M78.235,95.618a10.308,10.308,0,0,0,3.284.675,2.068,2.068,0,0,0,1.516-.4,1.507,1.507,0,0,0,.248-.417l.686-1.494a6.031,6.031,0,0,1,.3-.642c.122-.2.29-.371.413-.572a2.713,2.713,0,0,0,.312-1.346,2.6,2.6,0,0,1,.068-.608c.122-.469.208-.954.342-1.415.182-.631.582-1.435.158-2.068a1.539,1.539,0,0,0-.514-.424,5.127,5.127,0,0,0-1.485-.723,5.948,5.948,0,0,0-2.927.287,5.678,5.678,0,0,0-2.5,1.443,4.938,4.938,0,0,0-.94,1.578,14.26,14.26,0,0,0-.5,1.659c-.105.415-.208.832-.287,1.253a1.705,1.705,0,0,0-.02,1.005c.267.615.288,1.225.855,1.676a3.652,3.652,0,0,0,1,.526" transform="translate(-19.737 -22.271)" fill="#f8cfb3"/>
            <path id="Trazado_202524" data-name="Trazado 202524" d="M82.149,91.592a8.584,8.584,0,0,0-.279-1.668.833.833,0,0,0-1.457-.026c-.225.4.075.735.168,1.114a7.872,7.872,0,0,1-.425,4.25,1.3,1.3,0,0,1-.2.449c-.383.476-1.816-.061-2.274-.252a3.453,3.453,0,0,1-1.833-1.589,1.578,1.578,0,0,1-.22-1.01c.077-.486.223-.954.329-1.434a14.749,14.749,0,0,0,.128-3.573,7.057,7.057,0,0,1,.255-3.179,2.823,2.823,0,0,1,.184-.337c.735-1.145,2.392-1.291,3.6-1.432a7.683,7.683,0,0,1,2.927.332,3.4,3.4,0,0,1,2.689,2.337,2.361,2.361,0,0,1,.028.751,1.12,1.12,0,0,1-.348.891,7.415,7.415,0,0,0-1.273,1.4c-.41.457-1.029.741-1.3,1.316-.243.517-.156,1.145-.411,1.657h-.294" transform="translate(-19.557 -21.432)" fill="#5d270e"/>
            <path id="Trazado_202525" data-name="Trazado 202525" d="M109.394,108.173c-.265-1.069-.731-.581-.731-.581l-.213-.274a.287.287,0,0,0-.451-.034l-1.658,1.352c-.1.016-.2.042-.317.068.095-.434.226-1.392-.078-1.519-.4-.168-.46,1.119-.7,1.592-.078.173-.188.45-.3.727a.623.623,0,0,0-.09.155,6.38,6.38,0,0,1-.514,1.217,3.363,3.363,0,0,1-1,.9c-.268.169-.547.323-.831.472.655.425,1.247.985,1.9,1.4a8.237,8.237,0,0,1,2.266-1.73c.209-.108.4-.186.569-.282.04-.021.069-.042.119-.064a1.193,1.193,0,0,0,.241-.212.472.472,0,0,0,.105-.1,8.006,8.006,0,0,0,.543-.67,11.188,11.188,0,0,0,.97-1.128c.329-.385.429-.206.163-1.285" transform="translate(-26.514 -27.718)" fill="#f8cfb3"/>
            <path id="Trazado_202526" data-name="Trazado 202526" d="M73.322,101.288q-.038-1.571-.047-3.143c-.024-3.934-.339-8.186.908-11.949.718-2.17,3.165-3.278,5.33-3.278.131-.021-1.635,2.017-1.612,2.169a2.472,2.472,0,0,0,.247.873c.143.235.373.313.546.531a.772.772,0,0,1,.136.3,3.8,3.8,0,0,0,.18.381,1.765,1.765,0,0,1,.113.5,9.047,9.047,0,0,1,.147,2.019,3.014,3.014,0,0,1-.28.758,1.819,1.819,0,0,0,0,.886,17.4,17.4,0,0,1,.66,3.731c-.014.376-.073.748-.113,1.122a21.277,21.277,0,0,0,.038,3.707c.049.715.1,1.433.165,2.149a19.66,19.66,0,0,0,1.252,5.782c.009.022-1.188-.072-1.3-.1a17.153,17.153,0,0,1-2.246-.518,13.343,13.343,0,0,1-2.571-1.318,3.13,3.13,0,0,1-1.5-3.046q-.024-.777-.044-1.555" transform="translate(-18.938 -21.445)" fill="#5d270e"/>
            <path id="Trazado_202527" data-name="Trazado 202527" d="M101.056,111.485c-.081.785-.814,1.065-1.417,1.363a49.3,49.3,0,0,1-4.976,1.805c-1.038.256-1.8-.4-2.634-.876q-1.391-.8-2.713-1.711a17.107,17.107,0,0,1-3.166-3.106,4.054,4.054,0,0,1-.938-3.294c.211-1.045.428-2.167,1.465-2.733.17-.093.606.053.767.1a3.174,3.174,0,0,1,1.585,1.116c.743.969,1.664,1.784,2.4,2.768.808,1.074,1.641,2.105,2.53,3.115a.857.857,0,0,0,.441.322.911.911,0,0,0,.3-.01c.681-.095,3.818-.462,4.493-.7a1.419,1.419,0,0,1,.319-.1c.81-.08,1.5,1.115,1.54,1.78a.983.983,0,0,1,0,.162" transform="translate(-22.022 -26.614)" fill="#a6bae6"/>
          </g>
        </g>
      </g>
    </g>
  </g>
</svg>
