<svg xmlns="http://www.w3.org/2000/svg" width="221.46" height="222.266" viewBox="0 0 221.46 222.266">
  <g id="Grupo_164207" data-name="Grupo 164207" transform="translate(-671.321 43.299)">
    <g id="Grupo_164209" data-name="Grupo 164209" transform="translate(708.457 -26.378)">
      <path id="Trazado_208248" data-name="Trazado 208248" d="M762.932,24.8h0A17.068,17.068,0,0,1,745.865,7.735h0A17.068,17.068,0,0,1,762.932-9.333h0A17.068,17.068,0,0,1,780,7.735h0A17.068,17.068,0,0,1,762.932,24.8Z" transform="translate(-745.865 9.333)" fill="#ebebeb"/>
      <g id="Grupo_164208" data-name="Grupo 164208" transform="translate(8.989 7.557)">
        <g id="Grupo_164207-2" data-name="Grupo 164207" transform="translate(0 0)">
          <rect id="Rectángulo_52721" data-name="Rectángulo 52721" width="3.532" height="11.411" transform="translate(0.34 5.706)" fill="#fff"/>
          <path id="Trazado_208249" data-name="Trazado 208249" d="M766,10.048a2.106,2.106,0,1,0-2.089-2.106A2.1,2.1,0,0,0,766,10.048Z" transform="translate(-763.908 -5.837)" fill="#fff"/>
        </g>
        <path id="Trazado_208250" data-name="Trazado 208250" d="M779.6,22.36c0-1.6.738-2.56,2.152-2.56,1.3,0,1.923.917,1.923,2.56v5.99h3.516V21.125c0-3.057-1.732-4.535-4.152-4.535a3.978,3.978,0,0,0-3.439,1.886V16.939h-3.388V28.35H779.6Z" transform="translate(-770.083 -11.233)" fill="#fff"/>
      </g>
    </g>
    <path id="Trazado_208251" data-name="Trazado 208251" d="M819.38-43.3l2.337,4.273,4.273,2.337-4.273,2.337-2.337,4.273-2.337-4.273-4.273-2.337,4.273-2.337Z" transform="translate(-70.982)" fill="#f5f5f5"/>
    <path id="Trazado_208252" data-name="Trazado 208252" d="M1016.694,189.088l1.753,3.2,3.2,1.753-3.2,1.753-1.753,3.2-1.753-3.2-3.2-1.753,3.2-1.753Z" transform="translate(-170.829 -116.617)" fill="#ebebeb"/>
    <path id="Trazado_208253" data-name="Trazado 208253" d="M1029.387,157.323l.791,1.446,1.446.791-1.446.791-.791,1.446-.791-1.446-1.446-.791,1.446-.791Z" transform="translate(-178.564 -100.677)" fill="#e0e0e0"/>
    <path id="Trazado_208254" data-name="Trazado 208254" d="M790.278-40.073l.791,1.446,1.446.791-1.446.791-.791,1.446-.791-1.446-1.446-.791,1.446-.791Z" transform="translate(-58.573 -1.619)" fill="#e0e0e0"/>
    <g id="Grupo_164211" data-name="Grupo 164211" transform="translate(681.532 82.692)">
      <g id="Grupo_164210" data-name="Grupo 164210">
        <path id="Trazado_208255" data-name="Trazado 208255" d="M702.346,219.553a5.168,5.168,0,0,0,3.016-4.819,4.856,4.856,0,1,0-9.691.08,5.158,5.158,0,0,0,3.15,4.784c-7.442,1.22-7,9.319-7,9.319l17.633-.147S709.752,220.573,702.346,219.553Z" transform="translate(-691.818 -209.606)" fill="#e0e0e0"/>
      </g>
    </g>
    <g id="Grupo_164212" data-name="Grupo 164212" transform="translate(850.318 143.818)">
      <path id="Trazado_208256" data-name="Trazado 208256" d="M1041.5,334.52a6.074,6.074,0,0,1-8.054-2.19,2.837,2.837,0,0,0-2.773,2.238,3.7,3.7,0,0,0,.665,2.673,11.026,11.026,0,0,0,1.935,2.046c.985.877,1.9,1.7,2.881,2.578.977-.886,1.809-1.718,2.786-2.6a10.962,10.962,0,0,0,1.917-2.062A3.7,3.7,0,0,0,1041.5,334.52Z" transform="translate(-1030.625 -332.305)" fill="#ebebeb"/>
    </g>
    <g id="Grupo_164215" data-name="Grupo 164215" transform="translate(867.062 30.273)">
      <g id="Grupo_164213" data-name="Grupo 164213" transform="translate(5.614 0)">
        <path id="Trazado_208257" data-name="Trazado 208257" d="M1075.506,115.135l1.889-.375,2.984-6.564-.748-3.772s2.885-.759,3.521,4.248.758,3.676.758,3.676,6.206-1.206,6.828-.769c.452.317,1.843,6.443,2.57,9.771a3.688,3.688,0,0,1-1.84,4.152,2.768,2.768,0,0,1-.65.222c-1.546.306-9.7.616-9.7.616l-3.264.647Z" transform="translate(-1075.506 -104.384)" fill="#e0e0e0"/>
      </g>
      <g id="Grupo_164214" data-name="Grupo 164214" transform="translate(0 10.177)">
        <path id="Trazado_208258" data-name="Trazado 208258" d="M1064.236,125.424l3.725,12.692,3.236-.642-2.511-12.663Z" transform="translate(-1064.236 -124.811)" fill="#e0e0e0"/>
      </g>
    </g>
    <g id="Grupo_164216" data-name="Grupo 164216" transform="translate(671.321 178.477)">
      <path id="Trazado_208259" data-name="Trazado 208259" d="M892,402.007c0,.072-49.4.13-110.332.13-60.95,0-110.343-.058-110.343-.13s49.393-.13,110.343-.13C842.592,401.877,892,401.935,892,402.007Z" transform="translate(-671.321 -401.877)" fill="#263238"/>
    </g>
    <g id="Grupo_164217" data-name="Grupo 164217" transform="translate(824.52 -2.406)">
      <path id="Trazado_208260" data-name="Trazado 208260" d="M1007.939,77.235h0a20.241,20.241,0,0,1-27.055-9.35h0a20.24,20.24,0,0,1,9.349-27.055h0a20.241,20.241,0,0,1,27.055,9.349h0A20.242,20.242,0,0,1,1007.939,77.235Z" transform="translate(-978.84 -38.787)" fill="#e8505b"/>
      <path id="Trazado_208261" data-name="Trazado 208261" d="M1003.777,71.8a.475.475,0,0,0,.471-.612c-.049-.245-.181-.861-.232-1.12-.068-.353-.153-.446-.515-.6a3.988,3.988,0,0,1-2-2.038,6.54,6.54,0,0,1,3.221-8.921c3.334-1.622,6.157-.475,7.481,2.247,1.741,3.58,1.627,7.372-.726,8.516a2.138,2.138,0,0,1-3.124-1.438c-.391-1.755-.494-3.8-1.047-4.94a1.849,1.849,0,0,0-2.582-1.05c-1.328.646-1.727,2.539-.832,4.379A5.314,5.314,0,0,0,1005.242,68s1.442,6.42,1.694,7.543a15.467,15.467,0,0,0,2.258,4.737.184.184,0,0,0,.33-.072,14.726,14.726,0,0,0,.264-5.154c-.116-.627-.786-3.838-.786-3.838a3.958,3.958,0,0,0,3.786.072c3.992-1.942,4.931-6.9,2.561-11.769-1.791-3.684-6.579-5.6-11.321-3.29-5.9,2.869-6.818,8.546-5.1,12.073C999.965,70.434,1001.7,71.941,1003.777,71.8Z" transform="translate(-988.533 -47.034)" fill="#fff"/>
    </g>
    <g id="Grupo_164219" data-name="Grupo 164219" transform="translate(864.853 66.131)">
      <path id="Trazado_208262" data-name="Trazado 208262" d="M1068.784,203.367h0a13.96,13.96,0,0,1-8.058-18.023h0a13.96,13.96,0,0,1,18.023-8.058h0a13.96,13.96,0,0,1,8.058,18.023h0A13.96,13.96,0,0,1,1068.784,203.367Z" transform="translate(-1059.803 -176.363)" fill="#e8505b"/>
      <g id="Grupo_164218" data-name="Grupo 164218" transform="translate(4.078 6.359)">
        <path id="Trazado_208263" data-name="Trazado 208263" d="M1085.162,199.1a7.52,7.52,0,0,0-13.987-5.491c-.042.1-.085.2-.124.3a7.407,7.407,0,0,0-.37,3.985l-2.694,3.255,4.362.25a7.528,7.528,0,0,0,12.748-2.123C1085.12,199.222,1085.143,199.163,1085.162,199.1Zm-9.326,3.354a6.292,6.292,0,0,1-2.877-2.211l-2.545-.144,1.568-1.9a6.206,6.206,0,0,1,.188-3.865,5.82,5.82,0,0,1,.246-.557,6.324,6.324,0,0,1,11.718,4.606c-.045.156-.1.31-.155.464A6.3,6.3,0,0,1,1075.836,202.457Z" transform="translate(-1067.988 -189.127)" fill="#fff" fill-rule="evenodd"/>
        <path id="Trazado_208264" data-name="Trazado 208264" d="M1087.914,202.605c-.141-.152-.828-.889-.965-1.005s-.24-.19-.42-.063-.66.385-.8.459-.249.051-.391-.1a4.987,4.987,0,0,1-1.06-1.377,5.46,5.46,0,0,1-.506-1.546c-.033-.209.091-.267.209-.319s.248-.135.374-.2l.094-.059a2.026,2.026,0,0,0,.187-.162.329.329,0,0,0,.1-.3c-.01-.1-.034-1.076-.048-1.473s-.178-.392-.28-.431-.207-.1-.322-.142a.682.682,0,0,0-.542.038,2.047,2.047,0,0,0-1.147,1.2,2.328,2.328,0,0,0-.133.616,4.138,4.138,0,0,0,.162,1.419,7.567,7.567,0,0,0,1.953,3.7c1.492,1.35,1.579,1.123,1.906,1.215a1.838,1.838,0,0,0,1.471-.369,1.508,1.508,0,0,0,.412-.773C1088.151,202.842,1088.052,202.756,1087.914,202.605Z" transform="translate(-1075.146 -192.497)" fill="#fff" fill-rule="evenodd"/>
      </g>
    </g>
    <g id="Grupo_164220" data-name="Grupo 164220" transform="translate(681.663 7.325)">
      <path id="Trazado_208265" data-name="Trazado 208265" d="M702.726,79.61h0a10.645,10.645,0,0,1-10.645-10.646h0a10.645,10.645,0,0,1,10.645-10.645h0a10.645,10.645,0,0,1,10.646,10.645h0A10.645,10.645,0,0,1,702.726,79.61Z" transform="translate(-692.081 -58.319)" fill="#e8505b"/>
      <path id="Trazado_208266" data-name="Trazado 208266" d="M702.064,78.608a6.619,6.619,0,0,0,10.183-5.877,4.733,4.733,0,0,0,1.161-1.2,4.672,4.672,0,0,1-1.337.366,2.329,2.329,0,0,0,1.023-1.288,4.664,4.664,0,0,1-1.478.565,2.329,2.329,0,0,0-3.966,2.123,6.605,6.605,0,0,1-4.8-2.432,2.33,2.33,0,0,0,.72,3.108,2.315,2.315,0,0,1-1.055-.291,2.329,2.329,0,0,0,1.867,2.312,2.329,2.329,0,0,1-1.051.04,2.328,2.328,0,0,0,2.174,1.616A4.678,4.678,0,0,1,702.064,78.608Z" transform="translate(-697.091 -64.399)" fill="#fff"/>
    </g>
    <g id="Grupo_164222" data-name="Grupo 164222" transform="translate(688.851 111.69)">
      <path id="Trazado_208267" data-name="Trazado 208267" d="M729.1,303.989h0A18.335,18.335,0,0,1,707.012,290.4h0A18.334,18.334,0,0,1,720.6,268.318h0A18.335,18.335,0,0,1,742.683,281.9h0A18.334,18.334,0,0,1,729.1,303.989Z" transform="translate(-706.509 -267.815)" fill="#455a64"/>
      <g id="Grupo_164221" data-name="Grupo 164221" transform="translate(7.488 7.488)">
        <path id="Trazado_208268" data-name="Trazado 208268" d="M730.481,285.679c2.612-.622,2.923-.686,3.966-.884a5.568,5.568,0,0,1,1.9-.1,3.33,3.33,0,0,1,2.3,1.414,5.582,5.582,0,0,1,.769,1.736c.293,1.02.377,1.327,1,3.938s.685,2.923.885,3.965a5.568,5.568,0,0,1,.1,1.9,3.33,3.33,0,0,1-1.414,2.3,5.555,5.555,0,0,1-1.736.77c-1.02.292-1.327.376-3.938,1s-2.923.685-3.965.884a5.545,5.545,0,0,1-1.9.1,3.328,3.328,0,0,1-2.3-1.413,5.571,5.571,0,0,1-.769-1.736c-.292-1.02-.376-1.327-1-3.938s-.686-2.923-.884-3.965a5.573,5.573,0,0,1-.1-1.9,3.33,3.33,0,0,1,1.414-2.3,5.566,5.566,0,0,1,1.736-.77c1.02-.292,1.327-.376,3.938-1m-.419-1.762c-2.656.633-2.987.723-4.018,1.019a7.373,7.373,0,0,0-2.265,1.02A5.136,5.136,0,0,0,721.6,289.5a7.365,7.365,0,0,0,.111,2.482c.2,1.055.269,1.39.9,4.046s.723,2.987,1.02,4.018a7.362,7.362,0,0,0,1.02,2.265,5.139,5.139,0,0,0,3.542,2.179,7.394,7.394,0,0,0,2.482-.111c1.055-.2,1.39-.269,4.046-.9s2.986-.723,4.018-1.019a7.374,7.374,0,0,0,2.265-1.02,5.139,5.139,0,0,0,2.179-3.542,7.4,7.4,0,0,0-.111-2.482c-.2-1.054-.269-1.39-.9-4.046s-.723-2.987-1.019-4.018a7.384,7.384,0,0,0-1.02-2.265,5.141,5.141,0,0,0-3.542-2.179,7.379,7.379,0,0,0-2.482.111c-1.054.2-1.39.269-4.046.9" transform="translate(-721.54 -282.846)" fill="#fff"/>
        <path id="Trazado_208269" data-name="Trazado 208269" d="M736.924,294.4a5.162,5.162,0,1,0,6.218,3.825,5.162,5.162,0,0,0-6.218-3.825m1.973,8.281a3.351,3.351,0,1,1,2.483-4.036,3.351,3.351,0,0,1-2.483,4.036" transform="translate(-727.269 -288.575)" fill="#fff"/>
        <path id="Trazado_208270" data-name="Trazado 208270" d="M751.262,290.157a1.206,1.206,0,1,1-1.453-.894,1.207,1.207,0,0,1,1.453.894" transform="translate(-735.26 -286.049)" fill="#fff"/>
      </g>
    </g>
    <g id="Grupo_164223" data-name="Grupo 164223" transform="translate(841.767 114.627)">
      <path id="Trazado_208271" data-name="Trazado 208271" d="M1022.012,290.81h0a8.55,8.55,0,0,1-8.55-8.55h0a8.55,8.55,0,0,1,8.55-8.55h0a8.55,8.55,0,0,1,8.55,8.55h0A8.55,8.55,0,0,1,1022.012,290.81Z" transform="translate(-1013.462 -273.71)" fill="#455a64"/>
      <path id="Trazado_208272" data-name="Trazado 208272" d="M1026.919,290.836H1029v-5.212h1.452l.155-1.745H1029v-.994c0-.411.082-.574.48-.574h1.126V280.5h-1.441c-1.549,0-2.247.682-2.247,1.988v1.391h-1.083v1.767h1.083Z" transform="translate(-1019.672 -277.117)" fill="#fff"/>
    </g>
    <g id="Grupo_164289" data-name="Grupo 164289" transform="translate(737.51 -23.212)">
      <g id="Grupo_164288" data-name="Grupo 164288" transform="translate(0 0)">
        <g id="Grupo_164283" data-name="Grupo 164283">
          <g id="Grupo_164231" data-name="Grupo 164231">
            <g id="Grupo_164230" data-name="Grupo 164230">
              <g id="Grupo_164226" data-name="Grupo 164226">
                <g id="Grupo_164225" data-name="Grupo 164225">
                  <g id="Grupo_164224" data-name="Grupo 164224">
                    <path id="Trazado_208273" data-name="Trazado 208273" d="M887.83,199.2l-68.692-.041a14.963,14.963,0,0,1-14.955-14.966l.034-172.212A14.964,14.964,0,0,1,819.189-2.978l68.692.04a14.964,14.964,0,0,1,14.954,14.966L902.8,184.241A14.963,14.963,0,0,1,887.83,199.2Z" transform="translate(-804.183 2.978)" fill="#263238"/>
                  </g>
                </g>
              </g>
              <g id="Grupo_164229" data-name="Grupo 164229" transform="translate(4.552 6.091)">
                <g id="Grupo_164228" data-name="Grupo 164228">
                  <g id="Grupo_164227" data-name="Grupo 164227">
                    <path id="Trazado_208274" data-name="Trazado 208274" d="M892.393,9.289l-13.318-.007a3.308,3.308,0,0,0-3.235,3.379v2.416a3.308,3.308,0,0,1-3.234,3.379l-25.96-.015a3.312,3.312,0,0,1-3.234-3.383V12.642a3.312,3.312,0,0,0-3.234-3.383l-4.684,0-11.656-.007a10.48,10.48,0,0,0-10.486,10.478l-.033,168.092A10.48,10.48,0,0,0,823.793,198.3l68.555.04a10.479,10.479,0,0,0,10.485-10.477l.033-168.092A10.479,10.479,0,0,0,892.393,9.289Z" transform="translate(-813.32 -9.249)" fill="#fff"/>
                  </g>
                </g>
              </g>
            </g>
          </g>
          <g id="Grupo_164241" data-name="Grupo 164241" transform="translate(76.89 19.732)">
            <g id="Grupo_164234" data-name="Grupo 164234">
              <g id="Grupo_164233" data-name="Grupo 164233">
                <g id="Grupo_164232" data-name="Grupo 164232">
                  <path id="Trazado_208275" data-name="Trazado 208275" d="M966.264,36.686c0,.045-1.731.1-3.868.114s-3.869,0-3.869-.05,1.731-.1,3.868-.114S966.264,36.64,966.264,36.686Z" transform="translate(-958.527 -36.63)" fill="#263238"/>
                </g>
              </g>
            </g>
            <g id="Grupo_164237" data-name="Grupo 164237" transform="translate(0.016 1.98)">
              <g id="Grupo_164236" data-name="Grupo 164236">
                <g id="Grupo_164235" data-name="Grupo 164235">
                  <path id="Trazado_208276" data-name="Trazado 208276" d="M966.3,40.659c0,.045-1.731.1-3.868.114s-3.869,0-3.869-.049,1.731-.1,3.868-.114S966.3,40.614,966.3,40.659Z" transform="translate(-958.56 -40.604)" fill="#263238"/>
                </g>
              </g>
            </g>
            <g id="Grupo_164240" data-name="Grupo 164240" transform="translate(0.033 3.959)">
              <g id="Grupo_164239" data-name="Grupo 164239">
                <g id="Grupo_164238" data-name="Grupo 164238">
                  <path id="Trazado_208277" data-name="Trazado 208277" d="M966.33,44.633c0,.045-1.732.1-3.868.114s-3.869,0-3.869-.049,1.731-.1,3.868-.114S966.33,44.588,966.33,44.633Z" transform="translate(-958.593 -44.578)" fill="#263238"/>
                </g>
              </g>
            </g>
          </g>
          <g id="Grupo_164244" data-name="Grupo 164244" transform="translate(11.68 17.515)">
            <g id="Grupo_164243" data-name="Grupo 164243">
              <g id="Grupo_164242" data-name="Grupo 164242">
                <path id="Trazado_208278" data-name="Trazado 208278" d="M827.733,40.343a1.563,1.563,0,0,1,.2-.013l.565-.019,2.082-.049-.058.058c-.008-.461-.015-.965-.024-1.509,0-.28-.024-.545,0-.869a.8.8,0,0,1,.7-.642c.336-.006.631-.022.995,0a.808.808,0,0,1,.682.8c.008.7.016,1.439.025,2.2l-.1-.1,2.627-.026-.1.1c-.009-1.058-.019-2.152-.029-3.273q0-.42-.007-.833a.849.849,0,0,0-.369-.621l-1.148-1.132-1.107-1.093-.537-.53c-.184-.178-.329-.362-.543-.406a.706.706,0,0,0-.6.115c-.159.135-.328.325-.489.481l-.943.951c-.593.616-1.21,1.178-1.659,1.71a1.856,1.856,0,0,0-.132.98q0,.489,0,.926-.005.851-.009,1.491c0,.381-.007.7-.01.954,0,.22-.008.339-.012.344a2.331,2.331,0,0,1-.018-.316c-.007-.254-.016-.563-.026-.939q-.014-.644-.034-1.5-.008-.445-.017-.944,0-.252-.008-.516a1.094,1.094,0,0,1,.145-.55c.486-.6,1.066-1.122,1.663-1.756l.935-.958c.169-.165.306-.33.507-.5a.894.894,0,0,1,.762-.15,1.419,1.419,0,0,1,.63.451l.539.528,1.111,1.09,1.15,1.129a2.195,2.195,0,0,1,.293.318.854.854,0,0,1,.137.443q0,.416.007.837c.009,1.121.017,2.215.025,3.273v.1h-.1l-2.626.017h-.1v-.1c0-.763-.008-1.5-.012-2.2a.633.633,0,0,0-.53-.638c-.3-.016-.659-.005-.953,0a.645.645,0,0,0-.567.511c-.025.264-.006.572-.011.839q0,.816,0,1.51v.059h-.058l-2.117-.014-.552-.009A1.019,1.019,0,0,1,827.733,40.343Z" transform="translate(-827.629 -32.181)" fill="#263238"/>
              </g>
            </g>
          </g>
          <g id="Grupo_164263" data-name="Grupo 164263" transform="translate(10.018 150.923)">
            <g id="Grupo_164249" data-name="Grupo 164249" transform="translate(28.763 5.972)">
              <g id="Grupo_164248" data-name="Grupo 164248">
                <g id="Grupo_164245" data-name="Grupo 164245">
                  <path id="Trazado_208279" data-name="Trazado 208279" d="M900.346,312.09a3.871,3.871,0,0,1-.72.051l-1.963.041c-1.657.023-3.947.038-6.476.038s-4.819-.015-6.476-.038l-1.963-.041a3.871,3.871,0,0,1-.72-.051,3.855,3.855,0,0,1,.72-.05l1.963-.041c1.657-.023,3.947-.038,6.476-.038s4.818.014,6.476.038l1.963.041A3.854,3.854,0,0,1,900.346,312.09Z" transform="translate(-882.029 -311.961)" fill="#455a64"/>
                </g>
                <g id="Grupo_164246" data-name="Grupo 164246" transform="translate(0 4.506)">
                  <path id="Trazado_208280" data-name="Trazado 208280" d="M929.136,321.136c0,.072-10.546.13-23.552.13s-23.555-.058-23.555-.13,10.544-.13,23.555-.13S929.136,321.064,929.136,321.136Z" transform="translate(-882.029 -321.006)" fill="#455a64"/>
                </g>
                <g id="Grupo_164247" data-name="Grupo 164247" transform="translate(0 8.745)">
                  <path id="Trazado_208281" data-name="Trazado 208281" d="M914.415,329.646c0,.072-7.25.13-16.192.13s-16.194-.058-16.194-.13,7.249-.13,16.194-.13S914.415,329.574,914.415,329.646Z" transform="translate(-882.029 -329.516)" fill="#455a64"/>
                </g>
              </g>
            </g>
            <g id="Grupo_164250" data-name="Grupo 164250" transform="translate(73.944 18.819)">
              <path id="Trazado_208282" data-name="Trazado 208282" d="M975.58,342.029l-1.464-1.468-1.393,1.39.006-4.2,2.857,0Zm-1.463-1.651.046.046,1.288,1.293.006-3.834-2.6,0-.006,3.761Z" transform="translate(-972.723 -337.749)" fill="#263238"/>
            </g>
            <g id="Grupo_164251" data-name="Grupo 164251" transform="translate(35.197 19.657)">
              <path id="Trazado_208283" data-name="Trazado 208283" d="M897.576,342.327l-.516-.231a1.308,1.308,0,1,1,.4-.286Zm-1.207-2.8a1.336,1.336,0,0,0,.021,2.673,1.384,1.384,0,0,0,.644-.2l.021-.012.381.17-.086-.374.017-.019a1.334,1.334,0,0,0-1-2.234Z" transform="translate(-894.945 -339.431)" fill="#263238"/>
            </g>
            <g id="Grupo_164252" data-name="Grupo 164252" transform="translate(39.447 19.853)">
              <path id="Trazado_208284" data-name="Trazado 208284" d="M905.177,342.3l-.592-1.445-1.11-1.012,2.693-.021Zm-1.451-2.36.946.868.5,1.231.846-2.117Z" transform="translate(-903.475 -339.825)" fill="#263238"/>
            </g>
            <g id="Grupo_164253" data-name="Grupo 164253" transform="translate(40.617 19.853)">
              <rect id="Rectángulo_52722" data-name="Rectángulo 52722" width="1.751" height="0.098" transform="translate(0 0.955) rotate(-33.054)" fill="#263238"/>
            </g>
            <g id="Grupo_164254" data-name="Grupo 164254" transform="translate(30.292 19.507)">
              <path id="Trazado_208285" data-name="Trazado 208285" d="M888.4,339.8a1.844,1.844,0,0,1-2.447-.656.861.861,0,0,0-.839.682,1.124,1.124,0,0,0,.2.81,3.338,3.338,0,0,0,.59.619c.3.265.577.514.877.779.3-.27.547-.523.843-.793a3.326,3.326,0,0,0,.579-.628A1.127,1.127,0,0,0,888.4,339.8Z" transform="translate(-885.099 -339.131)" fill="#e8505b"/>
            </g>
            <g id="Grupo_164255" data-name="Grupo 164255">
              <path id="Trazado_208286" data-name="Trazado 208286" d="M904.094,326.79s-.006-.161-.009-.469,0-.767-.009-1.364c0-1.2-.012-2.97-.021-5.26-.011-4.578-.027-11.239-.047-19.6l.086.086-79.666.044h-.006l.13-.13c0,9.275,0,18.271,0,26.687l-.126-.126,57.008.058,16.642.035,4.466.016,1.157.008c.261,0,.4.008.4.008s-.126.005-.383.007l-1.142.008-4.439.016-16.613.035-57.095.058H824.3v-.126c0-8.416,0-17.412,0-26.687v-.13h.135l79.666.044h.086v.085c-.02,8.378-.036,15.056-.046,19.647-.01,2.281-.016,4.043-.021,5.24q-.006.885-.009,1.348C904.1,326.64,904.094,326.79,904.094,326.79Z" transform="translate(-824.293 -299.973)" fill="#263238"/>
            </g>
            <g id="Grupo_164262" data-name="Grupo 164262" transform="translate(3.211 4.472)">
              <g id="Grupo_164259" data-name="Grupo 164259">
                <g id="Grupo_164258" data-name="Grupo 164258">
                  <g id="Grupo_164257" data-name="Grupo 164257">
                    <rect id="Rectángulo_52723" data-name="Rectángulo 52723" width="17.644" height="22.069" transform="matrix(0.006, -1, 1, 0.006, 0.132, 17.76)" fill="#ebebeb"/>
                    <g id="Grupo_164256" data-name="Grupo 164256">
                      <path id="Trazado_208287" data-name="Trazado 208287" d="M853.039,309.192a.837.837,0,0,1-.11.006l-.313,0-1.2.007-4.525,0-15.916-.032.117-.116c-.026,5.253-.055,11.272-.087,17.641.027.031-.242-.245-.124-.129h.377l.382,0,.761,0,1.51.009,2.974.018,5.726.037,10.335.075-.109.107c.053-5.3.1-9.693.129-12.779.021-1.534.037-2.743.048-3.582q.011-.607.018-.949c.005-.216.013-.333.013-.333s.008.1.01.31,0,.532.007.928c0,.834,0,2.034.008,3.559,0,3.1-.01,7.521-.017,12.847v.108h-.108L842.6,326.9l-5.726-.028-2.974-.016-1.51-.008-.761,0-.382,0h-.377c.114.117-.162-.158-.133-.132.041-6.369.08-12.388.114-17.641v-.117h.116l15.99.149,4.5.056,1.182.02.3.008A.429.429,0,0,1,853.039,309.192Z" transform="translate(-830.739 -308.949)" fill="#263238"/>
                    </g>
                  </g>
                </g>
              </g>
              <rect id="Rectángulo_52724" data-name="Rectángulo 52724" width="15.422" height="20.519" transform="matrix(0.006, -1, 1, 0.006, 0.899, 16.654)" fill="#e0e0e0"/>
              <path id="Trazado_208288" data-name="Trazado 208288" d="M832.543,332.764l7.221-9.545,4.405,6.023,3.029-3.189,5.863,6.828Z" transform="translate(-831.644 -316.11)" fill="#f5f5f5"/>
              <g id="Grupo_164261" data-name="Grupo 164261" transform="translate(11.219 4.346)">
                <g id="Grupo_164260" data-name="Grupo 164260">
                  <path id="Trazado_208289" data-name="Trazado 208289" d="M856.49,319.3a1.616,1.616,0,1,1-1.607-1.625A1.616,1.616,0,0,1,856.49,319.3Z" transform="translate(-853.259 -317.672)" fill="#f5f5f5"/>
                </g>
              </g>
            </g>
          </g>
          <g id="Grupo_164278" data-name="Grupo 164278" transform="translate(13.218 37.587)">
            <g id="Grupo_164273" data-name="Grupo 164273">
              <g id="Grupo_164266" data-name="Grupo 164266" transform="translate(14.263 3.465)">
                <g id="Grupo_164265" data-name="Grupo 164265">
                  <g id="Grupo_164264" data-name="Grupo 164264">
                    <path id="Trazado_208290" data-name="Trazado 208290" d="M882.541,79.557a.81.81,0,0,1-.236.026l-.676.024-2.485.041c-2.1.023-5,.038-8.2.038s-6.1-.015-8.2-.038l-2.485-.041-.676-.024a.809.809,0,0,1-.235-.026.823.823,0,0,1,.235-.026l.676-.024,2.485-.041c2.1-.023,5-.038,8.2-.038s6.1.014,8.2.038l2.485.041.676.024A.824.824,0,0,1,882.541,79.557Z" transform="translate(-859.346 -79.427)" fill="#263238"/>
                  </g>
                </g>
              </g>
              <g id="Grupo_164272" data-name="Grupo 164272" transform="translate(0 94.477)">
                <g id="Grupo_164267" data-name="Grupo 164267" transform="translate(65.815 0.291)">
                  <path id="Trazado_208291" data-name="Trazado 208291" d="M967.073,269.06l-2.175-2.182-2.071,2.065.009-6.245,4.246.007Zm-2.174-2.454.068.068,1.915,1.921.009-5.7-3.862-.005-.009,5.589Z" transform="translate(-962.828 -262.699)" fill="#263238"/>
                </g>
                <g id="Grupo_164268" data-name="Grupo 164268" transform="translate(9.654 0.294)">
                  <path id="Trazado_208292" data-name="Trazado 208292" d="M855.274,268.407l-1.017-.453a2.785,2.785,0,1,1,1.485-2.446,2.815,2.815,0,0,1-.7,1.883ZM852.9,262.9a2.63,2.63,0,1,0,.042,5.261,2.724,2.724,0,0,0,1.267-.4l.042-.023.75.334-.17-.737.034-.037a2.627,2.627,0,0,0-1.965-4.4Z" transform="translate(-850.095 -262.707)" fill="#263238"/>
                </g>
                <g id="Grupo_164269" data-name="Grupo 164269" transform="translate(18.02 0.681)">
                  <path id="Trazado_208293" data-name="Trazado 208293" d="M870.237,268.36l-1.165-2.844-2.185-1.991,5.3-.043Zm-2.855-4.646,1.861,1.708.992,2.422,1.665-4.167Z" transform="translate(-866.887 -263.482)" fill="#263238"/>
                </g>
                <g id="Grupo_164270" data-name="Grupo 164270" transform="translate(20.324 0.681)">
                  <rect id="Rectángulo_52725" data-name="Rectángulo 52725" width="3.448" height="0.194" transform="matrix(0.838, -0.545, 0.545, 0.838, 0, 1.88)" fill="#263238"/>
                </g>
                <g id="Grupo_164271" data-name="Grupo 164271">
                  <path id="Trazado_208294" data-name="Trazado 208294" d="M837.21,263.433a3.628,3.628,0,0,1-4.815-1.291,1.694,1.694,0,0,0-1.651,1.343,2.212,2.212,0,0,0,.4,1.6,6.568,6.568,0,0,0,1.16,1.218c.59.522,1.136,1.012,1.727,1.534.582-.531,1.077-1.03,1.659-1.561a6.561,6.561,0,0,0,1.141-1.236A2.21,2.21,0,0,0,837.21,263.433Z" transform="translate(-830.716 -262.116)" fill="#e8505b"/>
                </g>
              </g>
              <circle id="Elipse_5526" data-name="Elipse 5526" cx="3.595" cy="3.595" r="3.595" transform="translate(2.416)" fill="#ebebeb"/>
            </g>
            <g id="Grupo_164277" data-name="Grupo 164277" transform="translate(1.367 74.768)">
              <g id="Grupo_164274" data-name="Grupo 164274" transform="translate(0 5.607)">
                <path id="Trazado_208295" data-name="Trazado 208295" d="M900.8,233.939c0,.071-15.075.13-33.666.13s-33.669-.058-33.669-.13,15.071-.13,33.669-.13S900.8,233.867,900.8,233.939Z" transform="translate(-833.461 -233.809)" fill="#455a64"/>
              </g>
              <g id="Grupo_164275" data-name="Grupo 164275">
                <path id="Trazado_208296" data-name="Trazado 208296" d="M900.8,222.684c0,.072-15.075.13-33.666.13s-33.669-.058-33.669-.13,15.071-.13,33.669-.13S900.8,222.612,900.8,222.684Z" transform="translate(-833.461 -222.554)" fill="#455a64"/>
              </g>
              <g id="Grupo_164276" data-name="Grupo 164276" transform="translate(0 11.289)">
                <path id="Trazado_208297" data-name="Trazado 208297" d="M870.112,245.345c0,.072-8.205.13-18.325.13s-18.326-.058-18.326-.13,8.2-.13,18.326-.13S870.112,245.273,870.112,245.345Z" transform="translate(-833.461 -245.215)" fill="#455a64"/>
              </g>
            </g>
          </g>
          <g id="Grupo_164282" data-name="Grupo 164282" transform="translate(43.853 183.406)">
            <g id="Grupo_164279" data-name="Grupo 164279">
              <path id="Trazado_208298" data-name="Trazado 208298" d="M895.071,366.636a1.431,1.431,0,1,1-1.424-1.458A1.441,1.441,0,0,1,895.071,366.636Z" transform="translate(-892.21 -365.178)" fill="#263238"/>
            </g>
            <g id="Grupo_164280" data-name="Grupo 164280" transform="translate(4.433 0.02)">
              <path id="Trazado_208299" data-name="Trazado 208299" d="M903.969,366.677a1.431,1.431,0,1,1-1.425-1.458A1.441,1.441,0,0,1,903.969,366.677Z" transform="translate(-901.108 -365.219)" fill="#263238"/>
            </g>
            <g id="Grupo_164281" data-name="Grupo 164281" transform="translate(8.866 0.04)">
              <path id="Trazado_208300" data-name="Trazado 208300" d="M912.867,366.717a1.431,1.431,0,1,1-1.424-1.458A1.44,1.44,0,0,1,912.867,366.717Z" transform="translate(-910.006 -365.259)" fill="#263238"/>
            </g>
          </g>
        </g>
        <g id="Grupo_164286" data-name="Grupo 164286" transform="translate(10.625 48.297)">
          <rect id="Rectángulo_52726" data-name="Rectángulo 52726" width="79.672" height="48.723" fill="#e0e0e0"/>
          <path id="Trazado_208301" data-name="Trazado 208301" d="M840.275,161.009l22.83-30.557,14.153,19.11,9.593-10.221,18.814,21.649Z" transform="translate(-832.92 -112.277)" fill="#f5f5f5"/>
          <g id="Grupo_164285" data-name="Grupo 164285" transform="translate(40.04 9.28)">
            <g id="Grupo_164284" data-name="Grupo 164284">
              <path id="Trazado_208302" data-name="Trazado 208302" d="M916.183,117.743a5.149,5.149,0,1,1-5.15-5.147A5.148,5.148,0,0,1,916.183,117.743Z" transform="translate(-905.885 -112.596)" fill="#f5f5f5"/>
            </g>
          </g>
        </g>
        <g id="Grupo_164287" data-name="Grupo 164287" transform="translate(10.281 31.956)">
          <path id="Trazado_208303" data-name="Trazado 208303" d="M904.622,171.514c0-1.042-.048-45.058-.118-110.216l.118.118-79.662.012h-.009l.13-.13c-.009,41.219-.017,79.365-.024,110.216l-.105-.106,79.671.106-79.671.106h-.106v-.106c-.007-30.852-.015-69-.024-110.216v-.13h.139l79.662.012h.118V61.3c-.024,32.612-.044,60.178-.058,79.595-.013,9.695-.024,17.354-.031,22.594-.006,2.612-.011,4.621-.014,5.98,0,.674-.005,1.187-.007,1.534S904.622,171.514,904.622,171.514Z" transform="translate(-824.821 -61.168)" fill="#263238"/>
        </g>
      </g>
    </g>
    <g id="Grupo_164316" data-name="Grupo 164316" transform="translate(704.95 6.105)">
      <g id="Grupo_164310" data-name="Grupo 164310" transform="translate(0)">
        <g id="Grupo_164308" data-name="Grupo 164308">
          <g id="Grupo_164290" data-name="Grupo 164290" transform="translate(52.929 99.612)">
            <path id="Trazado_208304" data-name="Trazado 208304" d="M877.348,282.869l1.762-5.922c.307-1.284.716-2.8,1.266-4.528a12.2,12.2,0,0,1,2.917-4.362c1.8-1.83,2.654-1.842,3.864-2.813.11-.071.233-.172.337-.228a1.9,1.9,0,0,0,.588-.509c1.042-1.127.042-2.872-2.075-2.706-1.594.125-4.192.581-8.417,4.94-.053.066-.108.122-.16.189-2.218,2.882-4.3-5.346-4.676-8.409a3.209,3.209,0,0,0-4.339-2.49l-10.292,4.814a4.8,4.8,0,0,0-3.005.1,3.059,3.059,0,0,0-1.961,3.631l4.175,16.665-12.261,40.8H871.5Z" transform="translate(-845.071 -255.824)" fill="#ffbe9d"/>
          </g>
          <g id="Grupo_164306" data-name="Grupo 164306">
            <g id="Grupo_164298" data-name="Grupo 164298">
              <g id="Grupo_164292" data-name="Grupo 164292" transform="translate(59.127 83.427)">
                <g id="Grupo_164291" data-name="Grupo 164291">
                  <path id="Trazado_208305" data-name="Trazado 208305" d="M903.893,229.1,895.724,245.1l-4.085-1.135-20.533,16.7a4.159,4.159,0,0,1-5.777-.514l-7.817-9.084s15.763-6.79,18.678-12.411-.453-6.9-.453-6.9l7.419-8.43Z" transform="translate(-857.512 -223.337)" fill="#e8505b"/>
                </g>
              </g>
              <g id="Grupo_164293" data-name="Grupo 164293">
                <path id="Trazado_208306" data-name="Trazado 208306" d="M833.737,112.358s-11.958-2.645-28.786-18.827S780.217,55.86,778.157,55.965,767.1,51.894,750,89.1s-10.368,45.85-6.964,45.78,26.516-6.511,40.953-4.87,32.992,9.164,32.992,9.164Z" transform="translate(-738.825 -55.871)" fill="#e8505b"/>
              </g>
              <g id="Grupo_164294" data-name="Grupo 164294" transform="translate(75.582 49.475)">
                <path id="Trazado_208307" data-name="Trazado 208307" d="M935.277,182.477l-4.08,7.756-1.828,3.475a10.123,10.123,0,0,1-13.2,4.483l-25.631-8.93,14.927-34.077,25.607,13.647A10.124,10.124,0,0,1,935.277,182.477Z" transform="translate(-890.543 -155.183)" fill="#e8505b"/>
              </g>
              <g id="Grupo_164295" data-name="Grupo 164295" transform="translate(75.582 49.475)" opacity="0.4">
                <path id="Trazado_208308" data-name="Trazado 208308" d="M935.277,182.477l-4.08,7.756-1.828,3.475a10.123,10.123,0,0,1-13.2,4.483l-25.631-8.93,14.927-34.077,25.607,13.647A10.124,10.124,0,0,1,935.277,182.477Z" transform="translate(-890.543 -155.183)"/>
              </g>
              <g id="Grupo_164296" data-name="Grupo 164296" transform="translate(2.24 0.853)">
                <path id="Trazado_208309" data-name="Trazado 208309" d="M753.637,90.64c-9.1,20.156-12.893,38.118-8.464,40.118s15.4-12.718,24.5-32.875,12.893-38.118,8.464-40.118S762.74,70.484,753.637,90.64Z" transform="translate(-743.321 -57.584)" fill="#e8505b"/>
              </g>
              <g id="Grupo_164297" data-name="Grupo 164297" transform="translate(2.24 0.853)" opacity="0.5">
                <path id="Trazado_208310" data-name="Trazado 208310" d="M753.637,90.64c-9.1,20.156-12.893,38.118-8.464,40.118s15.4-12.718,24.5-32.875,12.893-38.118,8.464-40.118S762.74,70.484,753.637,90.64Z" transform="translate(-743.321 -57.584)"/>
              </g>
            </g>
            <g id="Grupo_164299" data-name="Grupo 164299" transform="translate(115.569 77.62)">
              <path id="Trazado_208311" data-name="Trazado 208311" d="M977.756,222.035l-6.947-2.182,4.3-8.174,5.21,3.239Z" transform="translate(-970.809 -211.68)" fill="#e8505b"/>
            </g>
            <g id="Grupo_164300" data-name="Grupo 164300" transform="translate(115.569 77.62)" opacity="0.6">
              <path id="Trazado_208312" data-name="Trazado 208312" d="M975.108,211.68l-4.3,8.174,1.427.449,3.5-8.235Z" transform="translate(-970.809 -211.68)"/>
            </g>
            <g id="Grupo_164301" data-name="Grupo 164301" transform="translate(99.959 72.648)">
              <path id="Trazado_208313" data-name="Trazado 208313" d="M954.6,208.557c-.1.225-3.569-1.123-7.743-3.01s-7.479-3.6-7.377-3.824,3.567,1.123,7.744,3.01S954.7,208.333,954.6,208.557Z" transform="translate(-939.474 -201.699)" fill="#e8505b"/>
            </g>
            <g id="Grupo_164302" data-name="Grupo 164302" transform="translate(103.593 67.905)">
              <path id="Trazado_208314" data-name="Trazado 208314" d="M960.394,198.911c-.109.222-3.247-1.1-7.008-2.953s-6.723-3.534-6.613-3.755,3.245,1.1,7.007,2.955S960.5,198.69,960.394,198.911Z" transform="translate(-946.77 -192.179)" fill="#e8505b"/>
            </g>
            <g id="Grupo_164303" data-name="Grupo 164303" transform="translate(98.6 78.459)">
              <path id="Trazado_208315" data-name="Trazado 208315" d="M950.533,219.517c-.037.118-.862-.072-2.178-.479-.657-.2-1.437-.46-2.3-.758s-1.746-.76-2.7-1.192c-3.8-1.764-6.7-3.491-6.608-3.7.112-.242,3.214,1.138,6.98,2.885.944.428,1.82.9,2.646,1.244s1.573.648,2.194.924C949.812,219,950.569,219.4,950.533,219.517Z" transform="translate(-936.747 -213.364)" fill="#e8505b"/>
            </g>
            <g id="Grupo_164304" data-name="Grupo 164304" transform="translate(13.396 27.951)">
              <path id="Trazado_208316" data-name="Trazado 208316" d="M783.434,113.454s-10.393-6.445-16.08,7.6S772.6,137.4,772.6,137.4A93.554,93.554,0,0,0,783.434,113.454Z" transform="translate(-765.715 -111.978)" fill="#e8505b"/>
            </g>
            <g id="Grupo_164305" data-name="Grupo 164305" transform="translate(12.39 12.692)" opacity="0.5">
              <path id="Trazado_208317" data-name="Trazado 208317" d="M793.474,81.348a15.6,15.6,0,0,1-.407,2.683c-.329,1.716-.794,4.207-1.46,7.265-.439,1.506-.92,3.151-1.435,4.914q-.39,1.326-.808,2.737-.208.706-.424,1.431c-.155.48-.358.95-.539,1.435l-2.348,6.058q-.306.788-.619,1.589c-.2.537-.488,1.042-.73,1.57l-1.545,3.185-1.55,3.184c-.265.518-.486,1.055-.782,1.546l-.867,1.469-3.312,5.593c-.269.442-.514.891-.795,1.31l-.865,1.221-1.655,2.33-2.979,4.17c-1.987,2.408-3.654,4.308-4.8,5.626a15.818,15.818,0,0,1-1.859,1.981,15.906,15.906,0,0,1,1.591-2.2l4.579-5.805,2.868-4.2,1.6-2.334.84-1.22c.273-.418.512-.869.774-1.311l3.245-5.581.854-1.463c.292-.489.51-1.022.772-1.537l1.534-3.164,1.538-3.161c.243-.524.529-1.025.731-1.556l.622-1.575,2.38-6c.185-.48.392-.945.552-1.419s.295-.95.44-1.415q.435-1.4.845-2.707c.549-1.743,1.062-3.369,1.532-4.857l1.729-7.173A16.053,16.053,0,0,1,793.474,81.348Z" transform="translate(-763.695 -81.348)"/>
            </g>
          </g>
          <g id="Grupo_164307" data-name="Grupo 164307" transform="translate(61.617 95.813)" opacity="0.4">
            <path id="Trazado_208318" data-name="Trazado 208318" d="M862.511,262.435a20.262,20.262,0,0,0,3.319,4.845,6.834,6.834,0,0,0,5.285,2.153,4.183,4.183,0,0,0,3.828-3.786,2.449,2.449,0,0,0,3.154-.556,5.516,5.516,0,0,0,1.123-3.272,3.086,3.086,0,0,0,3.9-1.055,5.039,5.039,0,0,0,.491-4.263,14.914,14.914,0,0,0-2.046-3.919,5.419,5.419,0,0,0,2.9-.3,1.868,1.868,0,0,0,.959-2.447,2.44,2.44,0,0,0-1.429-.911,9.226,9.226,0,0,0-4.218-.681c-.372,0,.641,4.223-9.408,9.993A84.6,84.6,0,0,1,862.511,262.435Z" transform="translate(-862.511 -248.198)"/>
          </g>
        </g>
        <g id="Grupo_164309" data-name="Grupo 164309" transform="translate(74.038 115.907)">
          <path id="Trazado_208319" data-name="Trazado 208319" d="M897.65,288.772c-.007.046-.676-.082-1.76-.052a9.943,9.943,0,0,0-7.384,3.54c-.7.827-1.021,1.429-1.061,1.4a1.547,1.547,0,0,1,.2-.436,7.968,7.968,0,0,1,.722-1.085,9.41,9.41,0,0,1,7.525-3.608,8.02,8.02,0,0,1,1.3.116A1.557,1.557,0,0,1,897.65,288.772Z" transform="translate(-887.442 -288.535)" fill="#eb996e"/>
        </g>
        <path id="Trazado_208320" data-name="Trazado 208320" d="M863.826,262.5c1.619,1.555,2.726,3.271,4.423,4.837.771.711,1.97,2.059,3,2.239s1.7.042,2.106-.925c.331-.783-.263-1.852-.675-2.5-1.082-1.7-2.116-3.023-2.926-4.342-.379-.618.112-.745.291-.459.779.808,1.941,1.508,2.639,2.387.956,1.2,1.129,2.8,3.629,2.294a2.248,2.248,0,0,0,.928-.386,2.5,2.5,0,0,0,.584-2.976,8.134,8.134,0,0,0-1.391-2.106c1.064,1.2,2.226,2.467,3.918,2.6a2.331,2.331,0,0,0,2.369-1.282c.5-1.137-.217-2.236-.938-3.125a32.575,32.575,0,0,0-4.249-4.341,3.237,3.237,0,0,0-2.065-.766,3.014,3.014,0,0,0-2.511.92,3.4,3.4,0,0,0-.68,2.6,4.324,4.324,0,0,0-3.958.051,5.594,5.594,0,0,0-2.2,3.164Z" transform="translate(-801.553 -155.122)" fill="#ffbe9d"/>
        <path id="Trazado_208321" data-name="Trazado 208321" d="M886.643,247.906a2.628,2.628,0,0,1-.311-2.969c.373-.731.844-1.442,1.322-1.6,2.088-.7,11.21.874,11.127,2.9-.085,2.079-.749,2.994-5.7,2.279-.871-.126-2.238-.3-2.238-.3l-1.195,1.793Z" transform="translate(-812.69 -149.859)" fill="#ffbe9d"/>
      </g>
      <g id="Grupo_164311" data-name="Grupo 164311" transform="translate(70.558 101.963)">
        <path id="Trazado_208322" data-name="Trazado 208322" d="M885.486,265.106a11.971,11.971,0,0,0-5.027-4.557,2.921,2.921,0,0,1,.966.34,8.659,8.659,0,0,1,3.628,3.289A2.934,2.934,0,0,1,885.486,265.106Z" transform="translate(-880.459 -260.544)" fill="#eb996e"/>
      </g>
      <g id="Grupo_164312" data-name="Grupo 164312" transform="translate(74.113 98.524)">
        <path id="Trazado_208323" data-name="Trazado 208323" d="M890.6,255.421c-.046.042-.648-.449-1.469-.952a10.326,10.326,0,0,0-1.071-.59c-.282-.133-.469-.169-.468-.208s.215-.06.532.036a4.9,4.9,0,0,1,1.144.542A3.531,3.531,0,0,1,890.6,255.421Z" transform="translate(-887.594 -253.641)" fill="#eb996e"/>
      </g>
      <g id="Grupo_164313" data-name="Grupo 164313" transform="translate(75.438 97.22)">
        <path id="Trazado_208324" data-name="Trazado 208324" d="M893.468,252.225a3.938,3.938,0,0,1-1.757-.2,3.211,3.211,0,0,1-1.124-.589c-.251-.213-.355-.391-.33-.412a7.328,7.328,0,0,0,1.531.754A12.9,12.9,0,0,1,893.468,252.225Z" transform="translate(-890.253 -251.023)" fill="#eb996e"/>
      </g>
      <g id="Grupo_164314" data-name="Grupo 164314" transform="translate(62.539 104.487)">
        <path id="Trazado_208325" data-name="Trazado 208325" d="M871.608,270.155a6.328,6.328,0,0,1-.832-1.082,9.818,9.818,0,0,0-2.13-2.42,4.291,4.291,0,0,0-3.016-.8,5.5,5.5,0,0,0-1.27.4c-.008-.011.087-.1.291-.23a2.839,2.839,0,0,1,.95-.355,4.238,4.238,0,0,1,3.2.769,8.655,8.655,0,0,1,2.131,2.529A8.117,8.117,0,0,1,871.608,270.155Z" transform="translate(-864.36 -265.611)" fill="#eb996e"/>
      </g>
      <g id="Grupo_164315" data-name="Grupo 164315" transform="translate(69.28 129.188)">
        <path id="Trazado_208326" data-name="Trazado 208326" d="M885.378,315.213a54.675,54.675,0,0,1-7.485.814,54.65,54.65,0,0,1,7.485-.814Z" transform="translate(-877.893 -315.193)" fill="#eb996e"/>
      </g>
    </g>
    <g id="Grupo_164317" data-name="Grupo 164317" transform="translate(681.886 -30.368)">
      <path id="Trazado_208327" data-name="Trazado 208327" d="M1048.847-17.342l.563,1.028,1.028.562-1.028.562-.562,1.028-.562-1.028-1.028-.562,1.028-.562Z" transform="translate(-870.54 17.342)" fill="#e8505b"/>
      <path id="Trazado_208328" data-name="Trazado 208328" d="M1072.452,33.829l.563,1.028,1.028.562-1.028.562-.563,1.028-.562-1.028-1.028-.562,1.028-.562Z" transform="translate(-882.385 -8.337)" fill="#e8505b"/>
      <path id="Trazado_208329" data-name="Trazado 208329" d="M694.119,170.348l.562,1.028,1.028.562-1.028.562-.562,1.028-.562-1.028-1.028-.562,1.028-.562Z" transform="translate(-692.529 -76.846)" fill="#e8505b"/>
      <path id="Trazado_208330" data-name="Trazado 208330" d="M1015.78-4.623l1.3,2.375,2.375,1.3-2.375,1.3-1.3,2.375-1.3-2.375-2.375-1.3,2.375-1.3Z" transform="translate(-852.901 10.959)" fill="#e8505b"/>
      <path id="Trazado_208331" data-name="Trazado 208331" d="M713.187,137.912l1.3,2.369,2.369,1.3-2.369,1.3-1.3,2.369-1.3-2.369-2.369-1.3,2.369-1.3Z" transform="translate(-701.056 -60.568)" fill="#e8505b"/>
      <path id="Trazado_208332" data-name="Trazado 208332" d="M1076.784,251.38l1.3,2.369,2.369,1.3-2.369,1.3-1.3,2.369-1.3-2.369-2.369-1.3,2.369-1.3Z" transform="translate(-883.518 -117.509)" fill="#e8505b"/>
    </g>
  </g>
</svg>
