<svg xmlns="http://www.w3.org/2000/svg" xmlns:xlink="http://www.w3.org/1999/xlink" width="223.496" height="230.548" viewBox="0 0 223.496 230.548">
  <defs>
    <clipPath id="clip-path">
      <rect id="Rectángulo_51985" data-name="Rectángulo 51985" width="223.496" height="230.548" fill="none"/>
    </clipPath>
    <clipPath id="clip-path-2">
      <rect id="Rectángulo_51984" data-name="Rectángulo 51984" width="223.496" height="230.548" fill="#9b44ae"/>
    </clipPath>
    <clipPath id="clip-path-3">
      <rect id="Rectángulo_51973" data-name="Rectángulo 51973" width="68.295" height="148.018" fill="none"/>
    </clipPath>
    <clipPath id="clip-path-4">
      <rect id="Rectángulo_51974" data-name="Rectángulo 51974" width="58.339" height="139.149" fill="none"/>
    </clipPath>
    <clipPath id="clip-path-5">
      <rect id="Rectángulo_51975" data-name="Rectángulo 51975" width="97.574" height="97.574" fill="none"/>
    </clipPath>
    <clipPath id="clip-path-6">
      <rect id="Rectángulo_51976" data-name="Rectángulo 51976" width="31.887" height="82.173" fill="none"/>
    </clipPath>
    <clipPath id="clip-path-7">
      <rect id="Rectángulo_51977" data-name="Rectángulo 51977" width="22.98" height="78.279" fill="none"/>
    </clipPath>
    <clipPath id="clip-path-8">
      <rect id="Rectángulo_51978" data-name="Rectángulo 51978" width="72.3" height="72.299" fill="none"/>
    </clipPath>
    <clipPath id="clip-path-9">
      <rect id="Rectángulo_51979" data-name="Rectángulo 51979" width="23.919" height="61.316" fill="none"/>
    </clipPath>
    <clipPath id="clip-path-10">
      <rect id="Rectángulo_51980" data-name="Rectángulo 51980" width="16.44" height="58.788" fill="none"/>
    </clipPath>
    <clipPath id="clip-path-11">
      <rect id="Rectángulo_51981" data-name="Rectángulo 51981" width="96.774" height="104.068" fill="none"/>
    </clipPath>
    <clipPath id="clip-path-12">
      <rect id="Rectángulo_51982" data-name="Rectángulo 51982" width="33.515" height="90.909" fill="none"/>
    </clipPath>
    <clipPath id="clip-path-13">
      <rect id="Rectángulo_51983" data-name="Rectángulo 51983" width="24.127" height="86.417" fill="none"/>
    </clipPath>
  </defs>
  <g id="Grupo_160896" data-name="Grupo 160896" clip-path="url(#clip-path)">
    <g id="Grupo_160895" data-name="Grupo 160895">
      <g id="Grupo_160894" data-name="Grupo 160894" clip-path="url(#clip-path-2)">
        <path id="Trazado_201947" data-name="Trazado 201947" d="M225.94,408.515c0,3.491-28.955,6.321-64.673,6.321s-64.673-2.83-64.673-6.321,28.955-6.321,64.673-6.321,64.673,2.83,64.673,6.321" transform="translate(-44.26 -184.288)" fill="#f0f0f0"/>
        <path id="Trazado_201948" data-name="Trazado 201948" d="M195.55,223.233l-63.386,32.459a7.585,7.585,0,0,1-10.208-3.294L49.429,110.767a7.585,7.585,0,0,1,3.294-10.208L56.7,98.522,116.144,73.81c3.729-1.909,4.353-3.647,6.263.082l76.438,139.132a7.585,7.585,0,0,1-3.294,10.208" transform="translate(-22.266 -32.85)" fill="#2d4059"/>
        <path id="Trazado_201949" data-name="Trazado 201949" d="M200.921,219.082l-58.383,29.9a7.044,7.044,0,0,1-9.479-3.059l-73.02-142.6A7.043,7.043,0,0,1,63.1,93.845l58.383-29.9a7.044,7.044,0,0,1,9.479,3.059l73.02,142.6a7.043,7.043,0,0,1-3.059,9.479" transform="translate(-27.155 -28.946)" fill="#fff"/>
        <path id="Trazado_201950" data-name="Trazado 201950" d="M118.517,101.843a1.084,1.084,0,0,1-.879-1.978l13.8-7.08a1.084,1.084,0,0,1,.989,1.928l-13.8,7.08a1,1,0,0,1-.111.049" transform="translate(-53.633 -42.46)" fill="#2d4059"/>
        <path id="Trazado_201951" data-name="Trazado 201951" d="M104.006,114.895a1.626,1.626,0,0,0,0-3.251,1.626,1.626,0,0,0,0,3.251" transform="translate(-46.937 -51.156)" fill="#2d4059"/>
        <path id="Trazado_201952" data-name="Trazado 201952" d="M200.767,211.042l-63.1,32.31a1.083,1.083,0,0,1-1.458-.47l-7.02-13.708L72.914,119.27a1.083,1.083,0,0,1,.471-1.458l63.1-32.31a1.083,1.083,0,0,1,1.458.471l45.036,87.948,18.262,35.663a1.084,1.084,0,0,1-.471,1.459" transform="translate(-33.355 -39.123)" fill="#a6bae6"/>
        <path id="Trazado_201953" data-name="Trazado 201953" d="M176.89,304.052l7.019,13.708a1.084,1.084,0,0,0,1.459.47l63.1-32.31a1.084,1.084,0,0,0,.47-1.458L230.673,248.8s-9.06,5.553-13.488,23.709c-6.057,24.835-40.3,31.543-40.3,31.543" transform="translate(-81.052 -114.001)" fill="#4f7fea"/>
        <g id="Grupo_160863" data-name="Grupo 160863" transform="translate(58.378 56.986)" opacity="0.22">
          <g id="Grupo_160862" data-name="Grupo 160862">
            <g id="Grupo_160861" data-name="Grupo 160861" clip-path="url(#clip-path-3)">
              <path id="Trazado_201954" data-name="Trazado 201954" d="M107.75,116.927,152.64,253.2l23.405-12.4L131.783,105.18Z" transform="translate(-107.75 -105.181)" fill="#fff"/>
            </g>
          </g>
        </g>
        <g id="Grupo_160866" data-name="Grupo 160866" transform="translate(89.04 48.787)" opacity="0.22">
          <g id="Grupo_160865" data-name="Grupo 160865">
            <g id="Grupo_160864" data-name="Grupo 160864" clip-path="url(#clip-path-4)">
              <path id="Trazado_201955" data-name="Trazado 201955" d="M164.343,94.852,211.436,229.2l11.245-5.759L175.145,90.048Z" transform="translate(-164.343 -90.048)" fill="#fff"/>
            </g>
          </g>
        </g>
        <path id="Trazado_201956" data-name="Trazado 201956" d="M261.316,356.6a5.824,5.824,0,1,0-5.824,5.824,5.824,5.824,0,0,0,5.824-5.824" transform="translate(-114.4 -160.729)" fill="#f2f2f2"/>
        <g id="Grupo_160869" data-name="Grupo 160869" transform="translate(45.307 7.585)" opacity="0.18" style="mix-blend-mode: multiply;isolation: isolate">
          <g id="Grupo_160868" data-name="Grupo 160868">
            <g id="Grupo_160867" data-name="Grupo 160867" clip-path="url(#clip-path-5)">
              <path id="Trazado_201957" data-name="Trazado 201957" d="M180.608,79.145l-63.1,32.31a1.083,1.083,0,0,1-1.458-.47l-32.31-63.1a1.084,1.084,0,0,1,.471-1.458l63.1-32.31a1.083,1.083,0,0,1,1.458.471l32.31,63.1a1.084,1.084,0,0,1-.471,1.459" transform="translate(-83.624 -14)"/>
            </g>
          </g>
        </g>
        <path id="Trazado_201958" data-name="Trazado 201958" d="M180.608,65.145l-63.1,32.31a1.083,1.083,0,0,1-1.458-.47l-32.31-63.1a1.084,1.084,0,0,1,.471-1.459L147.31.12a1.083,1.083,0,0,1,1.458.471l32.31,63.1a1.084,1.084,0,0,1-.471,1.459" transform="translate(-38.317 0)" fill="#fff"/>
        <path id="Trazado_201959" data-name="Trazado 201959" d="M177.861,59.78l-63.1,32.31a1.083,1.083,0,0,1-1.458-.47L98.758,63.21a1.084,1.084,0,0,1,.471-1.459l63.1-32.31a1.083,1.083,0,0,1,1.458.471l14.548,28.409a1.084,1.084,0,0,1-.471,1.459" transform="translate(-45.197 -13.436)" fill="#f0f0f0"/>
        <path id="Trazado_201960" data-name="Trazado 201960" d="M105.487,60.922a4.734,4.734,0,1,1-6.421-1.9,4.734,4.734,0,0,1,6.421,1.9" transform="translate(-44.26 -26.782)" fill="#1c52cb"/>
        <path id="Trazado_201961" data-name="Trazado 201961" d="M104.665,64.979a1.358,1.358,0,1,0-1.717.935,3.465,3.465,0,0,0-1.014,2.426,3.458,3.458,0,0,0,5.319-2.895,3.467,3.467,0,0,0-2.588-.465" transform="translate(-46.707 -28.987)" fill="#fff"/>
        <path id="Trazado_201962" data-name="Trazado 201962" d="M151.908,142.213a2.68,2.68,0,0,0-4.78,2.3,2.68,2.68,0,0,0-4.78,2.3s1.644,5.22,8.207,4.8c4.413-4.874,1.353-9.411,1.353-9.411" transform="translate(-65.133 -64.604)" fill="#1c52cb"/>
        <path id="Trazado_201963" data-name="Trazado 201963" d="M179.773,136.924,178,135.608a5.35,5.35,0,1,0-.395,2.258l1.915-.1a.469.469,0,0,0,.256-.846" transform="translate(-76.671 -59.797)" fill="#e6e6e6"/>
        <path id="Trazado_201964" data-name="Trazado 201964" d="M197.962,115.52l-2.494,7.183-5.642.561Z" transform="translate(-86.979 -52.932)" fill="#ccc"/>
        <path id="Trazado_201965" data-name="Trazado 201965" d="M202.734,115.52l-2.494,7.183,4.081,3.937Z" transform="translate(-91.751 -52.932)" fill="#e6e6e6"/>
        <path id="Trazado_201966" data-name="Trazado 201966" d="M121.072,52.618l-.491-.966a.542.542,0,0,1,.237-.729l14.295-7.274a.542.542,0,0,1,.729.237l.491.966a.542.542,0,0,1-.237.729L121.8,52.855a.542.542,0,0,1-.729-.237" transform="translate(-55.224 -19.973)" fill="#ccc"/>
        <g id="Grupo_160872" data-name="Grupo 160872" transform="translate(69.983 11.585)" opacity="0.84">
          <g id="Grupo_160871" data-name="Grupo 160871">
            <g id="Grupo_160870" data-name="Grupo 160870" clip-path="url(#clip-path-6)">
              <path id="Trazado_201967" data-name="Trazado 201967" d="M129.17,29.893,145.6,103.555l15.456-7.915L145.79,21.382Z" transform="translate(-129.17 -21.382)" fill="#fff"/>
            </g>
          </g>
        </g>
        <g id="Grupo_160875" data-name="Grupo 160875" transform="translate(92.211 4.848)" opacity="0.22">
          <g id="Grupo_160874" data-name="Grupo 160874">
            <g id="Grupo_160873" data-name="Grupo 160873" clip-path="url(#clip-path-7)">
              <path id="Trazado_201968" data-name="Trazado 201968" d="M170.2,12.813,185.16,87.227l8.017-4.106L177.745,8.948Z" transform="translate(-170.197 -8.948)" fill="#fff"/>
            </g>
          </g>
        </g>
        <path id="Trazado_201969" data-name="Trazado 201969" d="M313.612,64.936a13.7,13.7,0,1,0-13.7,13.7,13.7,13.7,0,0,0,13.7-13.7" transform="translate(-131.142 -23.476)" fill="#a6bae6"/>
        <path id="Trazado_201970" data-name="Trazado 201970" d="M309.433,79.915a2.709,2.709,0,1,0-3.626,1.237,2.708,2.708,0,0,0,3.626-1.237" transform="translate(-139.429 -34.829)" fill="#fff"/>
        <path id="Trazado_201971" data-name="Trazado 201971" d="M302.83,71.134l-1.621-2.171a7.317,7.317,0,0,1,11.7,5.745l-2.708.044a4.608,4.608,0,0,0-7.366-3.618" transform="translate(-138.016 -30.931)" fill="#fff"/>
        <path id="Trazado_201972" data-name="Trazado 201972" d="M297.961,63.883l-1.62-2.171a11.72,11.72,0,0,1,18.735,9.2l-2.708.044a9.012,9.012,0,0,0-14.406-7.076" transform="translate(-135.786 -27.205)" fill="#fff"/>
        <path id="Trazado_201973" data-name="Trazado 201973" d="M365.676,93.871,350.89,88.479a.31.31,0,0,1-.185-.4l3.592-9.849a.31.31,0,0,1,.4-.185l7.393,2.7,7.393,2.7a.31.31,0,0,1,.185.4l-3.591,9.85a.311.311,0,0,1-.4.185" transform="translate(-160.687 -35.752)" fill="#a6bae6"/>
        <path id="Trazado_201974" data-name="Trazado 201974" d="M372.526,84.018a.311.311,0,0,0-.008-.581l-7.392-2.7-7.393-2.7a.311.311,0,0,0-.38.439l5.148,8.851a.31.31,0,0,0,.388.142Z" transform="translate(-163.724 -35.752)" fill="#fff"/>
        <path id="Trazado_201975" data-name="Trazado 201975" d="M353.542,182.414a8.466,8.466,0,1,0-6.473,10.072,8.466,8.466,0,0,0,6.473-10.072" transform="translate(-154.325 -80.528)" fill="#a6bae6"/>
        <path id="Trazado_201976" data-name="Trazado 201976" d="M352.594,190.058a1.244,1.244,0,1,0-.951,1.48,1.243,1.243,0,0,0,.951-1.48" transform="translate(-160.434 -86.637)" fill="#fff"/>
        <path id="Trazado_201977" data-name="Trazado 201977" d="M345.953,191.5a1.244,1.244,0,1,0-.951,1.48,1.243,1.243,0,0,0,.951-1.48" transform="translate(-157.391 -87.299)" fill="#fff"/>
        <path id="Trazado_201978" data-name="Trazado 201978" d="M359.235,188.613a1.244,1.244,0,1,0-.951,1.48,1.243,1.243,0,0,0,.951-1.48" transform="translate(-163.477 -85.975)" fill="#fff"/>
        <path id="Trazado_201979" data-name="Trazado 201979" d="M179.567,270.792s-1.49,9.21,5.147,15.712,14.742,18.646,16.378,33.309l17.254-8.835a68.179,68.179,0,0,1-8.475-14.595,25.043,25.043,0,0,1-2.142-10.789,38.807,38.807,0,0,0-2.3-17.066l-21.238,1.859Z" transform="translate(-82.213 -123.042)" fill="#f5b4b3"/>
        <path id="Trazado_201980" data-name="Trazado 201980" d="M193.447,258.679l-15.37-28.613a4.063,4.063,0,1,1,7.159-3.846l16.45,30.623" transform="translate(-81.374 -102.675)" fill="#4f7fea"/>
        <path id="Trazado_201981" data-name="Trazado 201981" d="M179.688,260.633s2.279-8.832,4.2-12.17c1.342-2.331,5.044-3.819,5.044,1.6a86.606,86.606,0,0,1-.722,10.571Z" transform="translate(-82.334 -112.882)" fill="#f5b4b3"/>
        <path id="Trazado_201982" data-name="Trazado 201982" d="M214.536,290.614a25.042,25.042,0,0,1-2.142-10.789,38.8,38.8,0,0,0-2.3-17.067l-16.615-6.821s-11.559,9.518,5.261,25.728c5.982,5.766,15.8,8.948,15.8,8.948" transform="translate(-86.877 -117.273)" fill="#dab0af"/>
        <path id="Trazado_201983" data-name="Trazado 201983" d="M215.1,284.554l2.46,4.58a4.064,4.064,0,1,1-7.159,3.846l-3.541-6.59" transform="translate(-94.783 -130.385)" fill="#4f7fea"/>
        <path id="Trazado_201984" data-name="Trazado 201984" d="M202.405,269.208s10.294-1.806,12.822-4.7-2.167-14.361-9.571-19.642-12.59,7.625-13.248,8.577-2.1,4.654-1.109,6.279a1.759,1.759,0,0,0,2.347.9s-1.212,1.272-.308,2.356a2.356,2.356,0,0,0,2.3.714s-.81,1.319-.121,2.248a1.813,1.813,0,0,0,2.289.642,1.772,1.772,0,0,0,.18,1.986c.813.813,2.966.764,2.966.764s1.043-.055,1.46-.132" transform="translate(-87.499 -111.622)" fill="#f5b4b3"/>
        <path id="Trazado_201985" data-name="Trazado 201985" d="M196.611,266.928a.2.2,0,0,1-.131-.048.2.2,0,0,1-.025-.286c.281-.335,6.9-8.229,7.251-8.591a.2.2,0,0,1,.292.283c-.273.281-4.85,5.728-7.231,8.569a.2.2,0,0,1-.156.073" transform="translate(-89.996 -118.191)" fill="#d18959"/>
        <path id="Trazado_201986" data-name="Trazado 201986" d="M199.413,275.526a.2.2,0,0,1-.112-.373c.344-.225,8.441-5.52,10.051-6.167a.2.2,0,0,1,.151.377c-1.573.632-9.9,6.076-9.98,6.13a.2.2,0,0,1-.111.034" transform="translate(-91.279 -123.245)" fill="#d18959"/>
        <path id="Trazado_201987" data-name="Trazado 201987" d="M203.413,283.253a.2.2,0,0,1-.059-.4c.093-.028,9.325-2.779,10.518-3.31a.2.2,0,0,1,.165.372c-1.217.541-10.186,3.213-10.567,3.327a.2.2,0,0,1-.057.009" transform="translate(-93.112 -128.082)" fill="#d18959"/>
        <path id="Trazado_201988" data-name="Trazado 201988" d="M189.03,248.9a2.959,2.959,0,0,0-1.4,1.291,16.322,16.322,0,0,0-1.112,2.282c-.135.587-.179,1.129.418,1.265s2.562.406,3.239,0,1.014-2.706.607-3.789c-.3-.8-.934-1.4-1.747-1.048" transform="translate(-85.423 -114.001)" fill="#b35141"/>
        <path id="Trazado_201989" data-name="Trazado 201989" d="M194.87,265.877s-1.761-1.28-2.37.608-.079,3.106.435,3.343,1.462.1,2.545-1.49a1.531,1.531,0,0,0-.609-2.461" transform="translate(-88.08 -121.632)" fill="#b35141"/>
        <path id="Trazado_201990" data-name="Trazado 201990" d="M197.535,273.772s-2.015,1.693-1.168,2.523,2.777-.592,2.777-.592a1.068,1.068,0,0,0,.1-1.643,1.14,1.14,0,0,0-1.71-.288" transform="translate(-89.882 -125.323)" fill="#b35141"/>
        <path id="Trazado_201991" data-name="Trazado 201991" d="M206.854,285.555s-2.239.371-1.976,1.358,2.321.781,2.321.781a.92.92,0,0,0,.8-1.174.983.983,0,0,0-1.143-.966" transform="translate(-93.867 -130.838)" fill="#b35141"/>
        <path id="Trazado_201992" data-name="Trazado 201992" d="M201.925,280.037s-2.186.738-1.593,2.009,2.663.09,3.115-.18-.181-1.851-.406-2.009-.8.056-1.116.181" transform="translate(-91.747 -128.206)" fill="#b35141"/>
        <path id="Trazado_201993" data-name="Trazado 201993" d="M177.509,186.068a18.177,18.177,0,0,0-6.581,4.531,29.492,29.492,0,0,1-5.442,4.7c-4.879,2.5-11.708-1.087-15.252-8.009s-2-13.806,2.417-17.057c1.828-1.346,4.778-1.531,8.053-1.937a16.336,16.336,0,0,0,6.374-2.6,10.066,10.066,0,0,0,5.718-7.964c.886-6.1,7.3-18,16.891-22.817l25.633,51.259s-9.537,5.78-20.779,3.794-10.36-6.175-17.032-3.9" transform="translate(-67.941 -61.819)" fill="#4f7fea"/>
        <path id="Trazado_201994" data-name="Trazado 201994" d="M245.87,150.853c7.223,14.1,5.018,29.667-4.925,34.759s-23.859-2.215-31.082-16.32-5.018-29.667,4.925-34.759,23.859,2.215,31.082,16.32" transform="translate(-94.213 -60.901)" fill="#f2f2f2"/>
        <path id="Trazado_201995" data-name="Trazado 201995" d="M242.131,158.929c6.029,11.773,3.94,24.889-4.665,29.3s-20.468-1.565-26.5-13.338-3.94-24.889,4.665-29.3,20.468,1.565,26.5,13.338" transform="translate(-95.089 -66.046)" fill="#e6e6e6"/>
        <path id="Trazado_201996" data-name="Trazado 201996" d="M226.817,175.629l-4.488-8.765s-5.813,1.687-9.787,8.765a12.063,12.063,0,0,1-8.084,5.763c-3.161.582,1.275,4.389,1.275,4.389s1.579,5.068,3.132,4.391c3.36-1.467,6.623-3.524,9.86-3.081,8.042,1.1,12.376-2.594,12.376-2.594Z" transform="translate(-93.163 -76.458)" fill="#4f7fea"/>
        <path id="Trazado_201997" data-name="Trazado 201997" d="M210.742,135.9c-9.943,5.092-12.149,20.654-4.925,34.759s21.139,21.412,31.082,16.32l-4.783,2.449c-9.944,5.092-23.859-2.215-31.082-16.32s-5.018-29.667,4.925-34.759Z" transform="translate(-90.168 -62.272)" fill="#a6bae6"/>
        <path id="Trazado_201998" data-name="Trazado 201998" d="M177.839,204.907c-2.572-5.022-2.208-10.5.63-13.18a5.92,5.92,0,0,0-1.6.547c-4.049,2.073-4.947,8.41-2.006,14.154s8.608,8.719,12.657,6.646a5.935,5.935,0,0,0,1.376-.974c-3.836.734-8.49-2.171-11.062-7.193" transform="translate(-79.333 -87.851)" fill="#a6bae6"/>
        <path id="Trazado_201999" data-name="Trazado 201999" d="M246.407,171.995c2.479,4.841,1.722,10.181-1.69,11.929s-8.188-.76-10.667-5.6-1.722-10.182,1.69-11.929,8.188.76,10.667,5.6" transform="translate(-106.575 -75.988)" fill="#1c52cb"/>
        <path id="Trazado_202000" data-name="Trazado 202000" d="M325.09,119.542c-4.056-7.92-16.19-9.811-27.1-4.223s-16.472,16.539-12.416,24.46a13.66,13.66,0,0,0,9.048,6.774l-11.7,10.331s16.233-6.719,26.167-11.329a30.349,30.349,0,0,0,6.633-3.342,6.188,6.188,0,0,0,.639-.439c8.422-5.943,12.3-15.261,8.733-22.232" transform="translate(-129.635 -51.369)" fill="#4f7fea"/>
        <path id="Trazado_202001" data-name="Trazado 202001" d="M306.431,139.513a3.634,3.634,0,0,0-6.482,3.125,3.634,3.634,0,0,0-6.482,3.125s2.229,7.079,11.128,6.513c5.986-6.61,1.836-12.763,1.836-12.763" transform="translate(-134.343 -63.167)" fill="#fff"/>
        <path id="Trazado_202002" data-name="Trazado 202002" d="M327.115,134.766l-.961,1.539-1.726-1.154,1.838-3.245,1.866-.937,4.154,8.273-2.336,1.174Z" transform="translate(-148.656 -60.01)" fill="#fff"/>
        <path id="Trazado_202003" data-name="Trazado 202003" d="M334.043,126.228l2.336-1.173,1.639,3.263,1.143-4.66,2.758-1.385-1.323,4.992,5.718,3.16-2.794,1.4-3.7-2.061-.383,1.369,1.1,2.192L338.2,134.5Z" transform="translate(-153.061 -56.026)" fill="#fff"/>
        <path id="Trazado_202004" data-name="Trazado 202004" d="M299.748,206.474a13.4,13.4,0,0,0-9.492,3.926s-3.523,2.142-10.848.243c0,0,4.961,3.049,7.054,11.288a13.438,13.438,0,1,0,13.286-15.457" transform="translate(-128.027 -94.608)" fill="#fff"/>
        <path id="Trazado_202005" data-name="Trazado 202005" d="M308.238,218.938l3.328,2.807a.609.609,0,0,0,.714.051l3.7-2.3a.609.609,0,0,1,.886.747l-1.641,4.033a.609.609,0,0,0,.171.7l3.329,2.807a.609.609,0,0,1-.437,1.073l-4.342-.315a.609.609,0,0,0-.608.378l-1.641,4.033a.609.609,0,0,1-1.155-.084l-1.043-4.227a.609.609,0,0,0-.547-.462l-4.342-.314a.609.609,0,0,1-.277-1.125l3.7-2.3a.61.61,0,0,0,.27-.663l-1.043-4.228a.609.609,0,0,1,.984-.611" transform="translate(-139.314 -100.252)" fill="#a6bae6"/>
        <path id="Trazado_202006" data-name="Trazado 202006" d="M240.382,102.375a12.346,12.346,0,0,0,5.427,7.755s2.63,2.741,2.384,9.711c0,0,1.752-5.072,8.747-8.6a12.383,12.383,0,1,0-16.558-8.866" transform="translate(-110.009 -40.005)" fill="#a6bae6"/>
        <path id="Trazado_202007" data-name="Trazado 202007" d="M263.33,105.487l-2.717-8.519-6.02,6.612,2.709.591-1.8,7.243,3.537.877,1.82-7.342Z" transform="translate(-116.656 -44.431)" fill="#fff"/>
        <g id="Grupo_160878" data-name="Grupo 160878" transform="translate(149.571 144.159)" opacity="0.18" style="mix-blend-mode: multiply;isolation: isolate">
          <g id="Grupo_160877" data-name="Grupo 160877">
            <g id="Grupo_160876" data-name="Grupo 160876" clip-path="url(#clip-path-8)">
              <path id="Trazado_202008" data-name="Trazado 202008" d="M347.777,314.507,301.4,338.258a1.084,1.084,0,0,1-1.458-.47l-23.751-46.381a1.083,1.083,0,0,1,.471-1.458L323.039,266.2a1.083,1.083,0,0,1,1.458.47l23.751,46.381a1.084,1.084,0,0,1-.471,1.458" transform="translate(-276.067 -266.078)"/>
            </g>
          </g>
        </g>
        <path id="Trazado_202009" data-name="Trazado 202009" d="M350.777,304.507,304.4,328.257a1.083,1.083,0,0,1-1.458-.47l-23.751-46.381a1.083,1.083,0,0,1,.471-1.458L326.039,256.2a1.083,1.083,0,0,1,1.458.47l23.751,46.381a1.084,1.084,0,0,1-.471,1.459" transform="translate(-127.871 -117.337)" fill="#fff"/>
        <path id="Trazado_202010" data-name="Trazado 202010" d="M350.6,309.933l-37.125,19.011a1.084,1.084,0,0,1-1.458-.471l-7.363-14.379a1.084,1.084,0,0,1,.47-1.458l37.125-19.01a1.082,1.082,0,0,1,1.458.471l7.363,14.379a1.084,1.084,0,0,1-.471,1.459" transform="translate(-139.54 -134.486)" fill="#f0f0f0"/>
        <path id="Trazado_202011" data-name="Trazado 202011" d="M298.231,301.645a3.6,3.6,0,1,1-4.888-1.442,3.6,3.6,0,0,1,4.888,1.442" transform="translate(-133.55 -137.354)" fill="#1c52cb"/>
        <path id="Trazado_202012" data-name="Trazado 202012" d="M297.606,304.732a1.034,1.034,0,1,0-1.307.711,2.632,2.632,0,1,0,1.307-.711" transform="translate(-135.413 -139.032)" fill="#fff"/>
        <path id="Trazado_202013" data-name="Trazado 202013" d="M307.059,292.531l-.491-.965a.542.542,0,0,1,.237-.729l10.649-5.419a.541.541,0,0,1,.729.237l.491.965a.542.542,0,0,1-.237.729l-10.65,5.419a.543.543,0,0,1-.729-.237" transform="translate(-140.445 -130.753)" fill="#ccc"/>
        <path id="Trazado_202014" data-name="Trazado 202014" d="M310.549,293.406l-.246-.483a.541.541,0,0,1,.236-.729l25.857-13.222a.541.541,0,0,1,.729.236l.247.483a.542.542,0,0,1-.236.729l-25.856,13.221a.542.542,0,0,1-.729-.236" transform="translate(-142.156 -127.8)" fill="#ccc"/>
        <path id="Trazado_202015" data-name="Trazado 202015" d="M313.34,299.046l-.246-.483a.541.541,0,0,1,.236-.729l25.857-13.222a.541.541,0,0,1,.729.236l.246.483a.541.541,0,0,1-.236.729l-25.856,13.222a.542.542,0,0,1-.729-.236" transform="translate(-143.435 -130.384)" fill="#ccc"/>
        <path id="Trazado_202016" data-name="Trazado 202016" d="M368.351,342.9a4.329,4.329,0,0,1-5.619.806,1.71,1.71,0,0,0-1.007,2.186,3.925,3.925,0,1,0,6.626-2.991" transform="translate(-165.689 -156.72)" fill="#e6e6e6"/>
        <path id="Trazado_202017" data-name="Trazado 202017" d="M332.85,361.939c-.8-1.671-3.132-2.221-5.2-1.227s-3.1,3.154-2.3,4.826,3.132,2.221,5.2,1.227l.959,2a29.576,29.576,0,0,0,1.52-4.855v0a2.9,2.9,0,0,0-.177-1.968" transform="translate(-148.95 -165.054)" fill="#1c52cb"/>
        <path id="Trazado_202018" data-name="Trazado 202018" d="M347.892,360.3a.833.833,0,0,1-1.108-.39l-.926-1.931,1.4,1.375.379-.387-3.6-3.523.493,5.013.539-.053-.192-1.956.926,1.933a1.917,1.917,0,0,0,2.553.9l1.733-.831-.469-.977Z" transform="translate(-157.642 -162.864)" fill="#ccc"/>
        <path id="Trazado_202019" data-name="Trazado 202019" d="M349.489,352.057a.83.83,0,0,1,1.106.39l.924,1.927-1.4-1.374-.379.387,3.6,3.524-.493-5.013-.539.053.192,1.955-.924-1.927a1.912,1.912,0,0,0-2.551-.9l-1.731.83.469.976Z" transform="translate(-159.13 -160.781)" fill="#ccc"/>
        <g id="Grupo_160881" data-name="Grupo 160881" transform="translate(168.27 147.751)" opacity="0.84">
          <g id="Grupo_160880" data-name="Grupo 160880">
            <g id="Grupo_160879" data-name="Grupo 160879" clip-path="url(#clip-path-9)">
              <path id="Trazado_202020" data-name="Trazado 202020" d="M310.58,278.987l11.877,55.036,12.042-6.167-11.417-55.15Z" transform="translate(-310.58 -272.707)" fill="#fff"/>
            </g>
          </g>
        </g>
        <g id="Grupo_160884" data-name="Grupo 160884" transform="translate(186.102 141.761)" opacity="0.22">
          <g id="Grupo_160883" data-name="Grupo 160883">
            <g id="Grupo_160882" data-name="Grupo 160882" clip-path="url(#clip-path-10)">
              <path id="Trazado_202021" data-name="Trazado 202021" d="M343.494,264.768l10.678,55.672,5.762-2.951L349.58,261.651Z" transform="translate(-343.494 -261.651)" fill="#fff"/>
            </g>
          </g>
        </g>
        <g id="Grupo_160887" data-name="Grupo 160887" transform="translate(0 106.783)" opacity="0.18" style="mix-blend-mode: multiply;isolation: isolate">
          <g id="Grupo_160886" data-name="Grupo 160886">
            <g id="Grupo_160885" data-name="Grupo 160885" clip-path="url(#clip-path-11)">
              <path id="Trazado_202022" data-name="Trazado 202022" d="M96.184,271.594l-57.5,29.446a1.083,1.083,0,0,1-1.458-.47L.119,228.116a1.083,1.083,0,0,1,.471-1.458l57.5-29.447a1.084,1.084,0,0,1,1.459.471l37.1,72.453a1.084,1.084,0,0,1-.471,1.458" transform="translate(0 -197.092)"/>
            </g>
          </g>
        </g>
        <path id="Trazado_202023" data-name="Trazado 202023" d="M96.184,257.594l-57.5,29.446a1.083,1.083,0,0,1-1.458-.47L.119,214.116a1.083,1.083,0,0,1,.471-1.458l57.5-29.447a1.084,1.084,0,0,1,1.459.471l37.1,72.453a1.084,1.084,0,0,1-.471,1.458" transform="translate(0 -83.894)" fill="#fff"/>
        <path id="Trazado_202024" data-name="Trazado 202024" d="M93.853,253.041l-57.5,29.446a1.083,1.083,0,0,1-1.458-.47L14.249,241.708a1.084,1.084,0,0,1,.47-1.459l57.5-29.446a1.084,1.084,0,0,1,1.458.471l20.641,40.309a1.084,1.084,0,0,1-.471,1.459" transform="translate(-6.474 -96.537)" fill="#f0f0f0"/>
        <path id="Trazado_202025" data-name="Trazado 202025" d="M23.16,238.795a4.383,4.383,0,1,1-5.945-1.754,4.382,4.382,0,0,1,5.945,1.754" transform="translate(-6.84 -108.369)" fill="#1c52cb"/>
        <path id="Trazado_202026" data-name="Trazado 202026" d="M22.4,242.55a1.257,1.257,0,1,0-1.59.865,3.211,3.211,0,0,0-.939,2.246,3.2,3.2,0,0,0,4.924-2.68,3.21,3.21,0,0,0-2.4-.431" transform="translate(-9.105 -110.41)" fill="#fff"/>
        <path id="Trazado_202027" data-name="Trazado 202027" d="M35.543,225.806l-.491-.965a.541.541,0,0,1,.237-.729l13.162-6.7a.542.542,0,0,1,.729.237l.491.965a.541.541,0,0,1-.237.729l-13.162,6.7a.542.542,0,0,1-.729-.237" transform="translate(-16.034 -99.593)" fill="#ccc"/>
        <path id="Trazado_202028" data-name="Trazado 202028" d="M39.573,231.168l-.247-.483a.542.542,0,0,1,.236-.729L59.058,220a.542.542,0,0,1,.729.236l.247.483a.542.542,0,0,1-.236.729L40.3,231.4a.542.542,0,0,1-.729-.236" transform="translate(-17.993 -100.779)" fill="#ccc"/>
        <path id="Trazado_202029" data-name="Trazado 202029" d="M72.93,352.825l-2.717,1.307a.542.542,0,0,1-.723-.253l-3.026-6.291a.542.542,0,0,1,.253-.723l2.717-1.307a.542.542,0,0,1,.723.253l3.026,6.291a.542.542,0,0,1-.254.723" transform="translate(-30.429 -158.312)" fill="#1c52cb"/>
        <path id="Trazado_202030" data-name="Trazado 202030" d="M76.443,348.5l4.58-2.2a.913.913,0,0,0,.387-.352,1.879,1.879,0,0,0,.112-1.832l-1.068-2.22a1.3,1.3,0,0,0-.678-.638,1.959,1.959,0,0,0-1.395-.167l-1.579.759a6.526,6.526,0,0,0-.407-3c-.577-.93-1.286-.248-1.263.607s.543,2.873-1.246,3.734Z" transform="translate(-33.855 -155.057)" fill="#ccc"/>
        <path id="Trazado_202031" data-name="Trazado 202031" d="M97.505,329.452l-5.856,3a.806.806,0,0,0-.35,1.084l2.129,4.158a.805.805,0,0,0,1.084.35l.565-.289.524,1.953,1.107-2.788,3.66-1.874a.806.806,0,0,0,.349-1.085L98.589,329.8a.805.805,0,0,0-1.084-.35" transform="translate(-41.793 -150.917)" fill="#e6e6e6"/>
        <path id="Trazado_202032" data-name="Trazado 202032" d="M116.216,332.353s-2.478-5.248,1.488-7.278l-1.1-2.148,5.059,1.327-2.1,4.456-.929-1.61s-1.943.89-2.42,5.253" transform="translate(-52.901 -147.967)" fill="#ccc"/>
        <g id="Grupo_160890" data-name="Grupo 160890" transform="translate(26.757 110.032)" opacity="0.84">
          <g id="Grupo_160889" data-name="Grupo 160889">
            <g id="Grupo_160888" data-name="Grupo 160888" clip-path="url(#clip-path-12)">
              <path id="Trazado_202033" data-name="Trazado 202033" d="M49.386,211.6,65.616,294,82.9,285.262,66.006,203.089Z" transform="translate(-49.386 -203.089)" fill="#fff"/>
            </g>
          </g>
        </g>
        <g id="Grupo_160893" data-name="Grupo 160893" transform="translate(48.985 103.295)" opacity="0.22">
          <g id="Grupo_160892" data-name="Grupo 160892">
            <g id="Grupo_160891" data-name="Grupo 160891" clip-path="url(#clip-path-13)">
              <path id="Trazado_202034" data-name="Trazado 202034" d="M90.413,194.52l15.928,82.552,8.2-4.2L97.961,190.655Z" transform="translate(-90.413 -190.655)" fill="#fff"/>
            </g>
          </g>
        </g>
      </g>
    </g>
  </g>
</svg>
