<svg id="Grupo_160959" data-name="Grupo 160959" xmlns="http://www.w3.org/2000/svg" xmlns:xlink="http://www.w3.org/1999/xlink" width="246.44" height="242.317" viewBox="0 0 246.44 242.317">
  <defs>
    <clipPath id="clip-path">
      <rect id="Rectángulo_52020" data-name="Rectángulo 52020" width="23.645" height="33.768" fill="#0e50e2"/>
    </clipPath>
    <clipPath id="clip-path-2">
      <rect id="Rectángulo_52021" data-name="Rectángulo 52021" width="21.149" height="30.092" fill="none"/>
    </clipPath>
    <clipPath id="clip-path-4">
      <rect id="Rectángulo_52023" data-name="Rectángulo 52023" width="8.613" height="5.067" fill="none"/>
    </clipPath>
    <clipPath id="clip-path-5">
      <rect id="Rectángulo_52024" data-name="Rectángulo 52024" width="39.131" height="27.275" fill="none"/>
    </clipPath>
    <clipPath id="clip-path-6">
      <rect id="Rectángulo_52025" data-name="Rectángulo 52025" width="18.318" height="32.634" fill="none"/>
    </clipPath>
    <clipPath id="clip-path-7">
      <rect id="Rectángulo_52026" data-name="Rectángulo 52026" width="1.317" height="6.446" fill="none"/>
    </clipPath>
    <clipPath id="clip-path-8">
      <rect id="Rectángulo_52027" data-name="Rectángulo 52027" width="34.638" height="21.02" fill="none"/>
    </clipPath>
  </defs>
  <g id="Grupo_160995" data-name="Grupo 160995" transform="translate(0 0)">
    <path id="Trazado_202529" data-name="Trazado 202529" d="M36.091,317.054c-48.12-27.582-48.12-72.3,0-99.883s126.14-27.582,174.26,0,48.12,72.3,0,99.883-126.14,27.582-174.26,0" transform="translate(0 -95.424)" fill="#f0f0f0"/>
    <path id="Trazado_202530" data-name="Trazado 202530" d="M125.175,330.684,51.71,288.545c-2.866-1.643-2.866-4.331,0-5.974l118.954-68.232a4.792,4.792,0,0,1,4.291,0l75.269,43.177a2.247,2.247,0,0,1,0,3.9L129.467,330.684a4.791,4.791,0,0,1-4.291,0" transform="translate(-23.884 -103.849)" fill="#e0e0e0"/>
    <path id="Trazado_202531" data-name="Trazado 202531" d="M366.056,373.549c10.633,6.1,10.633,15.977,0,22.072s-27.873,6.095-38.507,0-10.633-15.977,0-22.072,27.874-6.095,38.507,0" transform="translate(-154.009 -179.196)" fill="#e0e0e0"/>
    <path id="Trazado_202532" data-name="Trazado 202532" d="M38.159,277.206s-.155-10.98-4.75-19.943-11.542-14.962-18.461-16.2-13.191,4.577-6.167,9.689,19.834,10.886,24.294,27.85Z" transform="translate(-2.749 -116.992)" fill="#7fa2f0"/>
    <path id="Trazado_202534" data-name="Trazado 202534" d="M41.493,277.095a.324.324,0,0,0,.076-.014.37.37,0,0,0,.253-.461C36.266,257.9,23.008,249,16.774,246.91a.375.375,0,0,0-.474.234.371.371,0,0,0,.235.471c6.107,2.047,19.1,10.787,24.569,29.215a.374.374,0,0,0,.389.265" transform="translate(-7.846 -119.904)" fill="#fff"/>
    <path id="Trazado_202535" data-name="Trazado 202535" d="M39.615,308.058a16.806,16.806,0,0,1-8.753,2.81,25.117,25.117,0,0,1-9.894-1.334c-.875-.313-2.226-1-1.466-1.833.393-.432,5.013-1.16,6.667-3.09a30.5,30.5,0,0,1-6.481,1.141,8.5,8.5,0,0,1-5.622-1.709,12.525,12.525,0,0,1-3.122-4.976c-.264-.621-.514-1.382-.109-1.923a1.986,1.986,0,0,1,1.12-.594L17.2,295.1c1.142-.242.336-.991-.1-1.055a9.983,9.983,0,0,0-1.9-.085c-2,.106-4.219.482-5.856-.673a4.836,4.836,0,0,1-1.8-3c-.087-.411-.432-5.783-.194-5.848a27.1,27.1,0,0,1,4.006-.692c1.27-.144,2.508-.2,3.773-.373a31.619,31.619,0,0,1,4.31-.28,2.661,2.661,0,0,1,1.42.281,2.259,2.259,0,0,1,.866,1.731,8.135,8.135,0,0,0,.27,1.976c.615-.053.816-.847.8-1.46s0-1.377.553-1.642a1.477,1.477,0,0,1,.922-.017,25.308,25.308,0,0,1,5.672,1.873,6.52,6.52,0,0,1,2.247,1.522,5.745,5.745,0,0,1,1.145,3.765c.008,1.339-.2,2.677-.113,4.013a10.946,10.946,0,0,0,2.639-5.181c2.269,1.449,3.614,4.434,4.037,8.517a41.125,41.125,0,0,1-.166,8.972c-.013.094-.035.571-.119.619" transform="translate(-3.504 -137.484)" fill="#7fa2f0"/>
    <path id="Trazado_202537" data-name="Trazado 202537" d="M42.758,310.34a.311.311,0,0,1-.276-.166c-7.349-14.011-23.609-19.916-27.561-20.73a.309.309,0,0,1-.241-.365.316.316,0,0,1,.368-.24c4.013.827,20.523,6.823,27.986,21.049a.308.308,0,0,1-.132.417.313.313,0,0,1-.143.035" transform="translate(-7.072 -140.274)" fill="#fff"/>
    <path id="Trazado_202538" data-name="Trazado 202538" d="M27.369,310.654a.309.309,0,0,1-.024-.616c8.112-.633,10.735-3.786,10.761-3.818a.312.312,0,0,1,.436-.05.307.307,0,0,1,.052.433c-.11.138-2.782,3.394-11.2,4.05h-.025" transform="translate(-13.04 -148.661)" fill="#fff"/>
    <path id="Trazado_202539" data-name="Trazado 202539" d="M427.957,227.112c-3.6,3.9-10.191,10.328-14.025,16.531a.2.2,0,0,0-.026.046,18.859,18.859,0,0,0-2.865,7.026l-.269,3.966-1.642-.941-.275-.159-.679-.386a3.215,3.215,0,0,1-1.613-2.7,49.174,49.174,0,0,1,4.857-22.866c3.445-6.794,9.9-13.723,15.511-13.044,5.217.633,6.041,7.083,1.026,12.524" transform="translate(-195.922 -104.193)" fill="#7fa2f0"/>
    <path id="Trazado_202541" data-name="Trazado 202541" d="M426.828,221.336c-6.87,4.31-16.677,19.334-16.455,35.243l-.679-.386c-.057-16.006,9.833-31.066,16.77-35.423a.336.336,0,0,1,.363.566" transform="translate(-197.44 -107.193)" fill="#fff"/>
    <path id="Trazado_202542" data-name="Trazado 202542" d="M434.435,258.384c-1.2,3.225-8.026,6.023-13.066,10.678a32.511,32.511,0,0,0-3.458,3.73,3.189,3.189,0,0,1-4.091.78l-.6-.345-.041-.021-1.643-.941a32.825,32.825,0,0,1,4.777-10.05.241.241,0,0,1,.026-.046c3.337-4.8,7.455-8.276,10.331-9.063,5.652-1.543,9.2,1.4,7.767,5.277" transform="translate(-198.327 -122.719)" fill="#7fa2f0"/>
    <path id="Trazado_202544" data-name="Trazado 202544" d="M431.2,259.371c-4.129,1.157-12.128,6.157-15.812,17.128l-.6-.345c3.736-11.1,11.688-16.156,16.232-17.426a.334.334,0,1,1,.181.643" transform="translate(-199.893 -125.646)" fill="#7fa2f0"/>
    <path id="Trazado_202545" data-name="Trazado 202545" d="M60.939,276.288a6.392,6.392,0,0,0,3.005,4.954l65.427,37.509a6.684,6.684,0,0,0,6.01,0L250.59,252.715a5.586,5.586,0,0,0,0-9.908L185.164,205.3a6.687,6.687,0,0,0-6.01,0L63.944,271.334a6.389,6.389,0,0,0-3,4.954" transform="translate(-29.368 -99.357)" fill="#455a64"/>
    <path id="Trazado_202546" data-name="Trazado 202546" d="M320.051,284.211a6.389,6.389,0,0,1-3.006,4.953L201.834,355.2a6.232,6.232,0,0,1-3,.711v-6.461a6.171,6.171,0,0,0,3-.717L317.046,282.7c1.453-.832,1.635-2.119.544-3.065a6.389,6.389,0,0,1,2.461,4.573" transform="translate(-95.822 -135.808)" fill="#37474f"/>
    <path id="Trazado_202547" data-name="Trazado 202547" d="M132.377,376.216v6.456a6.166,6.166,0,0,1-3-.71L63.942,344.451a5.567,5.567,0,0,1-.306-9.714c-1.346.958-1.242,2.363.306,3.252L129.372,375.5a6.167,6.167,0,0,0,3,.717" transform="translate(-29.367 -162.567)" fill="#263238"/>
    <path id="Trazado_202548" data-name="Trazado 202548" d="M54.128,172.084c-1.469-1.029-1.472-2.4-1.472-4.3V71.664A6.584,6.584,0,0,1,55.66,66.5L170.869.46c1.66-.952,3.191-.262,4.748.63s2.55,1.662,2.55,3.565v96.119a6.587,6.587,0,0,1-3.005,5.168L59.952,171.978c-2.512,1.681-4.224,1.226-5.824.106" transform="translate(-25.376 -0.001)" fill="#37474f"/>
    <path id="Trazado_202549" data-name="Trazado 202549" d="M59.953,236.871c-2.512,1.679-4.228,1.225-5.824.1-1.467-1.027-1.472-2.4-1.472-4.3V136.557a6.113,6.113,0,0,1,.875-2.937l4.292,2.479a6.016,6.016,0,0,0-.876,2.928v96.122c0,1.9,1.343,2.671,3,1.723" transform="translate(-25.377 -64.893)" fill="#263238"/>
    <path id="Trazado_202550" data-name="Trazado 202550" d="M178.984,4.652c0-1.9-1.347-2.669-3.006-1.722L60.766,68.969a6.082,6.082,0,0,0-2.123,2.23l-4.288-2.476H54.35a6.144,6.144,0,0,1,2.128-2.231L171.684.458c1.659-.952,3.19-.263,4.747.63s2.553,1.664,2.553,3.563" transform="translate(-26.193 0)" fill="#455a64"/>
    <path id="Trazado_202551" data-name="Trazado 202551" d="M68.182,80.448,179.258,16.8c1-.57,1.8-.108,1.8,1.034v88.162a3.952,3.952,0,0,1-1.8,3.1L68.182,172.743c-1,.571-1.8.108-1.8-1.033V83.549a3.951,3.951,0,0,1,1.8-3.1" transform="translate(-31.99 -8.039)" fill="#263238"/>
    <path id="Trazado_202552" data-name="Trazado 202552" d="M68.182,81.033a3.951,3.951,0,0,0-1.8,3.1v87.629L176.8,108.487a3.951,3.951,0,0,0,1.8-3.1V17.756Z" transform="translate(-31.99 -8.623)" fill="#f0f0f0"/>
    <path id="Trazado_202553" data-name="Trazado 202553" d="M82.212,276.489l106.939-61.3a3.343,3.343,0,0,1,3.005,0l3.111,1.623a.907.907,0,0,1,0,1.723L88.312,279.825a3.346,3.346,0,0,1-3.005,0l-3.1-1.613a.907.907,0,0,1,0-1.723" transform="translate(-39.32 -104.337)" fill="#37474f"/>
    <path id="Trazado_202554" data-name="Trazado 202554" d="M98.324,286.07l106.938-61.3a3.083,3.083,0,0,1,2.745-.149l27.835,15.955c.687.394.57,1.1-.26,1.574L128.769,303.367a3.1,3.1,0,0,1-2.749.153l-27.952-15.88c-.689-.391-.574-1.094.256-1.569" transform="translate(-47.045 -108.966)" fill="#263238"/>
    <path id="Trazado_202555" data-name="Trazado 202555" d="M192.4,252.519l3.348-1.918c.142-.082.163-.2.047-.269l-2.954-1.693a.526.526,0,0,0-.468.027l-3.348,1.919c-.142.081-.163.2-.046.268l2.953,1.693a.525.525,0,0,0,.468-.027M187.731,246l-3.348,1.919c-.142.082-.163.2-.047.269l2.954,1.693a.527.527,0,0,0,.468-.026l3.348-1.92c.143-.082.164-.2.047-.269l-2.954-1.693a.528.528,0,0,0-.469.027m-10.817,6.2-5.666,3.248c-.143.081-.163.2-.047.268l2.954,1.693a.525.525,0,0,0,.468-.027l5.666-3.248c.142-.081.163-.2.047-.268l-2.954-1.693a.529.529,0,0,0-.468.027m5.924-3.4-3.348,1.92c-.142.081-.163.2-.047.268l2.954,1.693a.527.527,0,0,0,.468-.026l3.348-1.92c.142-.081.163-.2.047-.268l-2.954-1.693a.527.527,0,0,0-.468.026M169.7,256.337l-3.348,1.919c-.142.082-.163.2-.047.269l2.954,1.693a.527.527,0,0,0,.468-.027l3.348-1.92c.142-.081.163-.2.047-.268l-2.954-1.693a.526.526,0,0,0-.468.027m-4.894,2.8-3.348,1.919c-.142.082-.163.2-.047.269l2.954,1.693a.526.526,0,0,0,.469-.027l3.348-1.919c.142-.082.163-.2.046-.268l-2.953-1.693a.526.526,0,0,0-.469.026m12.408,7.408,3.349-1.92c.141-.081.163-.2.046-.268l-2.953-1.693a.526.526,0,0,0-.469.027l-3.348,1.919c-.143.082-.164.2-.047.268l2.954,1.693a.527.527,0,0,0,.468-.027m-4.893,2.8,3.348-1.919c.142-.082.163-.2.046-.269l-2.953-1.693a.528.528,0,0,0-.469.027l-3.348,1.919c-.142.082-.163.2-.047.268l2.954,1.693a.527.527,0,0,0,.468-.027m-4.894,2.805,3.348-1.92c.143-.081.163-.2.047-.268l-2.954-1.693a.529.529,0,0,0-.468.027l-3.348,1.919c-.142.081-.163.2-.047.269l2.954,1.693a.527.527,0,0,0,.468-.026m-4.893,2.8,3.348-1.919c.143-.081.163-.2.047-.269l-2.954-1.693a.527.527,0,0,0-.468.027l-3.348,1.919c-.142.082-.163.2-.047.269l2.954,1.693a.528.528,0,0,0,.469-.027m24.974-19.64,3.348-1.92c.142-.081.163-.2.047-.268l-2.954-1.693a.527.527,0,0,0-.468.027l-3.348,1.919c-.142.082-.163.2-.047.268l2.953,1.693a.528.528,0,0,0,.469-.027m-5.4,8.42,7.469-4.281c.143-.082.163-.2.047-.268l-7.6-4.355a.527.527,0,0,0-.469.027L177.7,257.08c-.142.081-.163.2-.047.269l4.223,2.421c.116.067.1.187-.047.268l-3.09,1.772c-.142.081-.163.2-.047.268l2.954,1.693a.527.527,0,0,0,.468-.027m-22.195-1.8-3.349,1.92c-.142.081-.163.2-.046.268l2.954,1.693a.528.528,0,0,0,.468-.027l3.348-1.919c.142-.082.163-.2.046-.269l-2.953-1.693a.527.527,0,0,0-.468.026m-4.894,2.805-3.348,1.919c-.142.082-.163.2-.047.269l2.954,1.693a.525.525,0,0,0,.468-.027l3.348-1.919c.142-.082.163-.2.047-.269l-2.954-1.693a.529.529,0,0,0-.468.027m-27.21,29.874a.527.527,0,0,0,.468-.027l3.348-1.92c.142-.081.163-.2.047-.268l-2.954-1.693a.527.527,0,0,0-.468.027l-3.348,1.919c-.142.082-.163.2-.047.269Zm-11.939-7.434-3.348,1.919c-.142.081-.163.2-.047.268l2.954,1.693a.526.526,0,0,0,.468-.027l3.348-1.919c.142-.081.163-.2.047-.268l-2.954-1.693a.525.525,0,0,0-.468.027m6.006,5.51a.528.528,0,0,0,.469-.027l3.348-1.919c.142-.081.163-.2.046-.268l-2.953-1.693a.528.528,0,0,0-.469.027l-3.348,1.919c-.142.082-.163.2-.047.268Zm13.622,3.084,3.348-1.919c.142-.082.163-.2.047-.269l-2.954-1.693a.528.528,0,0,0-.469.027l-3.348,1.919c-.142.081-.163.2-.047.269l2.954,1.693a.526.526,0,0,0,.468-.027m-5.362,2.831a.526.526,0,0,0,.468-.027l3.348-1.919c.142-.081.163-.2.047-.268l-2.954-1.693a.527.527,0,0,0-.468.026l-3.348,1.919c-.142.081-.163.2-.047.269Zm-9.373-14.23-3.348,1.919c-.142.082-.163.2-.047.269l2.954,1.693a.526.526,0,0,0,.468-.027l3.348-1.919c.142-.082.163-.2.047-.268l-2.954-1.693a.526.526,0,0,0-.469.026m24.468-14.025-3.348,1.919c-.142.082-.163.2-.047.269l2.953,1.693a.528.528,0,0,0,.469-.027l3.348-1.92c.142-.081.163-.2.047-.268l-2.954-1.693a.527.527,0,0,0-.468.027m-19.575,11.22-3.348,1.919c-.142.081-.163.2-.046.268l2.953,1.693a.528.528,0,0,0,.469-.027l3.348-1.919c.142-.082.163-.2.047-.269l-2.953-1.693a.526.526,0,0,0-.469.027m24.468-14.025-3.348,1.919c-.142.081-.163.2-.046.268l2.953,1.693a.527.527,0,0,0,.469-.027l3.348-1.919c.142-.081.163-.2.047-.269L150.6,267.53a.528.528,0,0,0-.469.027m-9.787,5.61-3.348,1.92c-.142.081-.163.2-.047.268l2.954,1.693a.527.527,0,0,0,.469-.027l3.348-1.919c.142-.081.164-.2.047-.268l-2.954-1.693a.527.527,0,0,0-.468.026m-4.894,2.805-3.348,1.919c-.142.082-.163.2-.047.268l2.954,1.693a.527.527,0,0,0,.468-.027l3.348-1.919c.142-.082.163-.2.047-.269l-2.954-1.693a.528.528,0,0,0-.469.027m-4.893,2.8L127.2,280.7c-.142.082-.163.2-.047.269l2.954,1.693a.525.525,0,0,0,.468-.027l3.348-1.919c.142-.082.163-.2.047-.269l-2.954-1.693a.528.528,0,0,0-.468.027m22.195,1.8,3.348-1.92c.142-.081.163-.2.047-.268l-2.954-1.693a.527.527,0,0,0-.468.027l-3.348,1.919c-.142.082-.163.2-.047.269l2.954,1.693a.527.527,0,0,0,.468-.027m45.8-40.772-3.348,1.92c-.142.081-.163.2-.047.268l2.954,1.693a.527.527,0,0,0,.468-.027l3.348-1.919c.142-.082.163-.2.047-.268l-2.954-1.693a.528.528,0,0,0-.469.027m-5.924,3.4-3.348,1.919c-.142.082-.163.2-.047.269l2.954,1.693a.528.528,0,0,0,.468-.027L196,245.133c.142-.082.163-.2.047-.269l-2.954-1.693a.526.526,0,0,0-.468.027m10.818-6.2-3.348,1.919c-.142.081-.163.2-.047.269L203,240.878a.527.527,0,0,0,.468-.026l3.348-1.919c.143-.082.163-.2.047-.269l-2.953-1.693a.527.527,0,0,0-.469.027M176.177,261.82l3.348-1.919c.142-.082.163-.2.046-.269l-2.953-1.693a.527.527,0,0,0-.468.027l-3.348,1.919c-.142.082-.163.2-.047.268l2.954,1.693a.527.527,0,0,0,.468-.027M208.8,234.167a.528.528,0,0,0-.469.026l-3.348,1.919c-.142.082-.163.2-.047.269l2.954,1.693a.527.527,0,0,0,.468-.026l3.348-1.92c.142-.082.163-.2.047-.268Zm-51.162,43.6,3.348-1.919c.142-.082.163-.2.046-.268l-2.953-1.693a.527.527,0,0,0-.468.027l-3.349,1.92c-.142.081-.163.2-.046.268l2.953,1.693a.527.527,0,0,0,.469-.027m60.011-34.4L221,241.453c.142-.082.163-.2.047-.269l-2.954-1.693a.527.527,0,0,0-.469.027l-3.348,1.919c-.142.081-.163.2-.047.269l2.954,1.693a.526.526,0,0,0,.468-.027m-9.538.143,3.348-1.92c.142-.081.163-.2.046-.268l-2.954-1.693a.526.526,0,0,0-.468.027l-3.348,1.919c-.142.082-.163.2-.047.269l2.954,1.693a.527.527,0,0,0,.468-.027m5.335-6.685a.526.526,0,0,0-.468.027l-3.348,1.919c-.142.082-.163.2-.046.268l2.954,1.693a.526.526,0,0,0,.468-.026l3.348-1.92c.142-.081.164-.2.047-.269Zm1.03-.59,7.6,4.355a.528.528,0,0,0,.469-.027l3.348-1.919c.142-.082.163-.2.047-.269l-7.6-4.356a.529.529,0,0,0-.469.027l-3.348,1.919c-.142.081-.163.2-.047.268m-11.286,6.227-3.348,1.919c-.142.081-.163.2-.047.268l2.954,1.693a.526.526,0,0,0,.469-.027l3.348-1.919c.142-.082.163-.2.047-.269l-2.953-1.693a.529.529,0,0,0-.469.027m-36.831,21.11-3.348,1.92c-.142.082-.163.2-.046.269l2.953,1.693a.527.527,0,0,0,.468-.026l3.348-1.919c.142-.082.163-.2.047-.269l-2.954-1.693a.527.527,0,0,0-.468.026M212.291,246.2a.527.527,0,0,0,.468-.027l3.348-1.919c.142-.082.163-.2.047-.268L213.2,242.3a.526.526,0,0,0-.468.027l-3.349,1.92c-.142.081-.163.2-.047.268Zm-41.035,14.568-3.348,1.919c-.142.082-.163.2-.047.269l2.954,1.693a.527.527,0,0,0,.468-.026l3.348-1.92c.142-.081.163-.2.047-.268l-2.954-1.693a.525.525,0,0,0-.468.027M132.7,291.82a.526.526,0,0,0,.469-.027l3.348-1.919c.142-.082.163-.2.046-.268l-2.954-1.693a.526.526,0,0,0-.468.026l-3.348,1.92c-.142.081-.163.2-.047.269Zm-5.491-5.8-3.348,1.92c-.142.081-.163.2-.047.268l2.954,1.693a.525.525,0,0,0,.468-.027l3.348-1.919c.142-.082.163-.2.047-.268l-2.954-1.693a.527.527,0,0,0-.468.027m10.853,2.973,3.348-1.919c.142-.082.163-.2.047-.269l-2.954-1.693a.527.527,0,0,0-.468.027l-3.348,1.919c-.142.082-.163.2-.047.269l2.954,1.693a.527.527,0,0,0,.468-.027m4.894-2.8,3.348-1.919c.142-.082.163-.2.047-.269L143.4,282.3a.527.527,0,0,0-.469.027l-3.348,1.919c-.142.082-.163.2-.047.269l2.954,1.693a.526.526,0,0,0,.468-.026m4.894-2.805,3.348-1.919c.142-.082.163-.2.047-.269L148.3,279.5a.528.528,0,0,0-.469.027l-3.348,1.919c-.143.082-.163.2-.047.269l2.953,1.693a.527.527,0,0,0,.469-.027m-15.748-.168-3.348,1.919c-.142.082-.163.2-.047.269l2.954,1.693a.527.527,0,0,0,.468-.027l3.348-1.918c.142-.082.163-.2.047-.269l-2.954-1.693a.527.527,0,0,0-.469.027M137,280.406l-3.348,1.919c-.142.081-.164.2-.047.269l2.954,1.693a.525.525,0,0,0,.468-.027l3.348-1.919c.142-.082.163-.2.046-.268l-2.953-1.693a.527.527,0,0,0-.468.026m19.574-11.219-3.348,1.919c-.142.082-.163.2-.047.269l2.954,1.693a.527.527,0,0,0,.468-.027l3.348-1.918c.142-.082.163-.2.047-.269l-2.954-1.693a.525.525,0,0,0-.468.027m-4.894,2.8-3.348,1.92c-.142.081-.163.2-.046.268l2.953,1.693a.527.527,0,0,0,.468-.027l3.348-1.919c.142-.082.163-.2.047-.269l-2.953-1.693a.528.528,0,0,0-.469.027m9.787-5.61-3.348,1.919c-.143.082-.163.2-.047.269l2.953,1.693a.527.527,0,0,0,.469-.027l3.348-1.919c.142-.082.163-.2.046-.269l-2.953-1.693a.528.528,0,0,0-.469.027M141.895,277.6l-3.348,1.919c-.142.082-.163.2-.047.268l2.954,1.693a.528.528,0,0,0,.469-.027l3.348-1.919c.142-.082.163-.2.047-.269l-2.954-1.693a.529.529,0,0,0-.468.027m4.893-2.8-3.348,1.919c-.142.082-.163.2-.047.269l2.954,1.693a.529.529,0,0,0,.468-.027l3.348-1.919c.142-.081.163-.2.047-.269l-2.954-1.693a.526.526,0,0,0-.469.027m-6.394,18.184,3.348-1.92c.142-.081.163-.2.047-.268l-2.954-1.693a.527.527,0,0,0-.469.027l-3.348,1.919c-.142.082-.163.2-.047.269l2.954,1.693a.53.53,0,0,0,.469-.027M114.4,291.663l-2.954-1.693a.527.527,0,0,0-.468.027l-3.348,1.92c-.142.081-.163.2-.047.268l2.954,1.693a.528.528,0,0,0,.469-.027l3.348-1.919c.142-.082.163-.2.047-.268m6.448,1.629-2.954-1.693a.527.527,0,0,0-.468.026l-5.151,2.953c-.142.081-.163.2-.047.269l2.954,1.693a.526.526,0,0,0,.468-.027l5.151-2.952c.142-.082.163-.2.047-.269m-10.8-5.008-2.953-1.692a.527.527,0,0,0-.468.026l-4.121,2.362c-.142.081-.163.2-.047.268l2.954,1.693a.526.526,0,0,0,.468-.027l4.121-2.362c.142-.081.163-.2.046-.269m3.16-1.81a.527.527,0,0,0,.468-.027l3.348-1.92c.142-.081.163-.2.047-.268l-2.954-1.693a.528.528,0,0,0-.469.027l-3.348,1.919c-.142.082-.163.2-.047.269Zm13.569,8.742-2.953-1.693a.528.528,0,0,0-.469.027l-6.439,3.69c-.142.082-.163.2-.046.269l2.953,1.693a.53.53,0,0,0,.469-.027l6.439-3.691c.142-.082.163-.2.047-.269m2.327,3.991-2.954-1.693a.524.524,0,0,0-.468.027l-4.121,2.362c-.142.082-.163.2-.047.268l2.954,1.693a.527.527,0,0,0,.468-.027l4.121-2.362c.142-.081.163-.2.047-.269M149.6,265.619a.527.527,0,0,0,.468-.026l3.348-1.92c.142-.081.163-.2.047-.269l-2.953-1.693a.529.529,0,0,0-.469.026l-3.348,1.919c-.142.082-.163.2-.047.269Zm-9.787,5.61a.525.525,0,0,0,.468-.027l3.348-1.92c.142-.081.163-.2.046-.268l-2.953-1.693a.527.527,0,0,0-.468.026l-3.348,1.919c-.142.082-.163.2-.047.269Zm-21.7,12.44a.525.525,0,0,0,.468-.026l3.348-1.919c.142-.082.164-.2.047-.269l-2.953-1.693a.527.527,0,0,0-.469.027l-3.348,1.919c-.142.082-.163.2-.046.269Zm26.6-15.245a.525.525,0,0,0,.469-.026l3.348-1.92c.142-.081.163-.2.046-.268l-2.953-1.693a.528.528,0,0,0-.469.027l-3.348,1.919c-.142.082-.163.2-.047.269Zm-9.787,5.611a.529.529,0,0,0,.469-.027l3.348-1.919c.143-.081.163-.2.047-.269l-2.953-1.693a.527.527,0,0,0-.469.027l-3.348,1.919c-.142.082-.163.2-.047.268Zm-3.086,25.552a.528.528,0,0,0-.469.027l-5.151,2.953c-.142.081-.163.2-.047.268l2.954,1.693a.525.525,0,0,0,.468-.027l5.151-2.952c.142-.082.163-.2.046-.269Zm-3.937-21.527a.527.527,0,0,0,.468-.027l3.348-1.919c.142-.082.163-.2.047-.269l-2.954-1.693a.528.528,0,0,0-.469.027l-3.348,1.919c-.142.082-.163.2-.047.268Zm-4.894,2.8a.527.527,0,0,0,.468-.026l3.348-1.92c.142-.081.163-.2.047-.268l-2.954-1.693a.525.525,0,0,0-.468.027l-3.348,1.919c-.143.081-.163.2-.047.268Zm99.491-33.243a.527.527,0,0,0-.468.027l-8.242,4.724c-.142.081-.163.2-.047.269l2.954,1.693a.527.527,0,0,0,.469-.027l8.241-4.724c.142-.081.163-.2.047-.268Zm-10.817,6.2a.526.526,0,0,0-.469.027l-3.348,1.919c-.143.082-.163.2-.047.269l2.953,1.693a.53.53,0,0,0,.469-.027l3.348-1.919c.142-.081.163-.2.046-.268Zm-66.385,36.354,3.348-1.919c.142-.082.163-.2.047-.268l-2.954-1.693a.527.527,0,0,0-.468.027l-3.348,1.919c-.142.082-.163.2-.047.268l2.954,1.693a.527.527,0,0,0,.468-.027m56.6-30.744a.528.528,0,0,0-.469.027l-3.348,1.919c-.142.082-.163.2-.047.268l2.954,1.693a.527.527,0,0,0,.468-.027l3.348-1.919c.142-.081.163-.2.047-.268Zm25.5-14.615a.527.527,0,0,0-.468.026l-3.348,1.92c-.142.081-.163.2-.047.268l2.954,1.693a.526.526,0,0,0,.468-.027l3.348-1.919c.142-.082.163-.2.047-.269Zm7.847-1.112-7.6-4.355a.526.526,0,0,0-.468.027l-3.348,1.919c-.142.082-.163.2-.047.268l7.6,4.355a.529.529,0,0,0,.468-.026l3.348-1.92c.142-.082.163-.2.047-.268M183.6,269.913a.526.526,0,0,0-.468.027l-4.121,2.362c-.142.081-.163.2-.047.269l2.954,1.693a.525.525,0,0,0,.468-.027l4.121-2.362c.142-.081.164-.2.047-.268Zm12.363-7.087a.53.53,0,0,0-.469.027l-5.151,2.953c-.142.081-.163.2-.047.269l2.954,1.693a.527.527,0,0,0,.469-.027l5.151-2.952c.143-.082.163-.2.047-.269Zm-23.7,13.582a.528.528,0,0,0-.469.027l-27.558,15.8c-.142.081-.164.2-.047.268l2.954,1.693a.526.526,0,0,0,.468-.027l27.559-15.8c.142-.082.163-.2.046-.268Zm-29.1,16.682a.527.527,0,0,0-.468.027l-4.121,2.362c-.142.082-.163.2-.047.269l2.954,1.693a.525.525,0,0,0,.468-.027l4.121-2.362c.142-.081.163-.2.047-.268Zm34.77-19.93a.527.527,0,0,0-.468.027l-4.121,2.362c-.142.082-.163.2-.047.269l2.954,1.693a.527.527,0,0,0,.469-.027l4.121-2.362c.142-.081.163-.2.046-.268ZM137.5,296.338a.529.529,0,0,0-.469.027l-4.121,2.362c-.142.082-.163.2-.046.268l2.953,1.693a.527.527,0,0,0,.468-.027L140.4,298.3c.142-.081.163-.2.047-.268Zm51.769-29.672a.525.525,0,0,0-.469.026l-4.121,2.362c-.142.081-.163.2-.047.268l2.954,1.693a.526.526,0,0,0,.468-.027l4.121-2.362c.142-.082.163-.2.046-.269Zm17.514-10.039a.527.527,0,0,0-.468.027l-3.348,1.919c-.142.081-.163.2-.047.269l2.954,1.693a.525.525,0,0,0,.468-.027l3.348-1.919c.142-.082.163-.2.047-.268Zm10.625-7.787,3.348-1.919c.142-.081.163-.2.047-.269l-2.954-1.693a.525.525,0,0,0-.468.027l-3.348,1.919c-.142.081-.163.2-.047.268l2.954,1.693a.526.526,0,0,0,.468-.027m-20.107.876,3.348-1.919c.142-.081.163-.2.047-.269l-2.954-1.693a.525.525,0,0,0-.468.027l-3.348,1.919c-.142.082-.163.2-.047.269l2.954,1.692a.524.524,0,0,0,.468-.026m-12.86,18.021,9.788-5.61c.142-.082.163-.2.046-.269l-2.953-1.693a.528.528,0,0,0-.469.027l-9.787,5.61c-.142.081-.163.2-.047.268l2.954,1.693a.527.527,0,0,0,.468-.026m27.605-16.065a.527.527,0,0,0,.468-.027l3.348-1.919c.142-.082.163-.2.047-.269l-2.954-1.693a.527.527,0,0,0-.468.027l-3.348,1.92c-.142.081-.163.2-.047.268Zm-4.176-2.689,3.348-1.92c.142-.081.163-.2.047-.268l-2.954-1.693a.527.527,0,0,0-.468.027l-3.348,1.919c-.143.082-.163.2-.047.269l2.954,1.693a.527.527,0,0,0,.468-.027M179.543,270.54l3.348-1.92c.142-.081.163-.2.046-.268l-2.953-1.693a.528.528,0,0,0-.469.027l-3.348,1.919c-.142.081-.163.2-.046.268l2.953,1.693a.528.528,0,0,0,.469-.027m21.681-12.669a.526.526,0,0,0,.469-.027l3.348-1.919c.142-.082.163-.2.047-.269l-2.954-1.693a.527.527,0,0,0-.468.027l-3.348,1.919c-.142.082-.163.2-.046.268Zm-46.149,26.694,3.348-1.919c.142-.082.163-.2.046-.268l-2.954-1.693a.527.527,0,0,0-.468.027l-3.348,1.92c-.142.081-.163.2-.047.269l2.954,1.693a.527.527,0,0,0,.469-.027m4.893-2.8,3.348-1.919c.143-.081.163-.2.047-.269l-2.954-1.693a.526.526,0,0,0-.468.027l-3.348,1.919c-.142.081-.163.2-.047.268l2.954,1.693a.525.525,0,0,0,.468-.026m-9.787,5.609,3.348-1.919c.142-.081.163-.2.047-.268l-2.954-1.693a.527.527,0,0,0-.469.027l-3.348,1.919c-.142.081-.163.2-.047.268l2.953,1.693a.529.529,0,0,0,.469-.027m19.574-11.219,3.348-1.919c.143-.082.163-.2.047-.269L170.2,272.27a.528.528,0,0,0-.469.027l-3.348,1.919c-.142.082-.163.2-.047.268l2.954,1.693a.527.527,0,0,0,.468-.027m-4.893,2.8,3.348-1.919c.142-.081.163-.2.047-.268l-2.954-1.693a.528.528,0,0,0-.469.027l-3.348,1.919c-.142.082-.163.2-.046.269l2.954,1.693a.526.526,0,0,0,.468-.027m9.787-5.61L178,271.426c.142-.081.163-.2.047-.269l-2.954-1.693a.525.525,0,0,0-.468.027l-3.348,1.919c-.142.081-.163.2-.047.268l2.954,1.693a.527.527,0,0,0,.468-.027m27.041-38.828a.525.525,0,0,0,.468-.027l3.348-1.919c.142-.082.163-.2.047-.268l-.786-.451a.528.528,0,0,0-.469.027L200.95,233.8c-.142.081-.163.2-.046.269Zm-24.415,15.236a.526.526,0,0,0,.468-.027l3.348-1.919c.142-.082.163-.2.047-.269l-2.954-1.693a.525.525,0,0,0-.468.027l-3.348,1.919c-.142.082-.163.2-.047.269Zm9.787-5.61a.527.527,0,0,0,.468-.027l3.348-1.919c.142-.082.163-.2.047-.269l-2.954-1.693a.527.527,0,0,0-.468.027l-3.348,1.919c-.142.082-.163.2-.047.269ZM171.3,253.179a.526.526,0,0,0,.468-.027l3.348-1.919c.142-.081.163-.2.047-.269l-2.954-1.693a.526.526,0,0,0-.468.027l-3.348,1.919c-.142.082-.163.2-.047.269Zm10.869-6.23a.526.526,0,0,0,.469-.026l3.348-1.92c.142-.081.163-.2.046-.269l-2.954-1.693a.524.524,0,0,0-.468.027l-3.348,1.919c-.142.082-.164.2-.047.268Zm-20.656,11.84a.527.527,0,0,0,.468-.027l3.348-1.918c.142-.082.163-.2.047-.269l-2.954-1.693a.526.526,0,0,0-.468.027l-3.348,1.919c-.143.082-.163.2-.047.268Zm4.893-2.805a.526.526,0,0,0,.469-.027l3.348-1.919c.142-.081.163-.2.046-.268l-2.953-1.693a.528.528,0,0,0-.469.026l-3.348,1.92c-.142.081-.163.2-.047.268Zm25.5-15.856a.528.528,0,0,0,.469-.027l3.348-1.92c.142-.081.163-.2.047-.268l-.786-.451a.527.527,0,0,0-.468.027l-3.348,1.92c-.143.081-.163.2-.047.268Zm14.681-8.415a.528.528,0,0,0,.469-.026l3.348-1.92c.142-.081.163-.2.046-.269l-.786-.451a.527.527,0,0,0-.468.027l-3.348,1.919c-.142.082-.163.2-.047.269Zm6.2,3.557a.53.53,0,0,0,.469-.027l3.348-1.919c.142-.082.163-.2.047-.268l-2.954-1.693a.525.525,0,0,0-.468.027l-3.348,1.919c-.142.082-.163.2-.047.269Zm9.509,10.765,3.349-1.919c.142-.082.163-.2.047-.268l-2.954-1.693a.528.528,0,0,0-.469.027l-3.348,1.92c-.142.081-.163.2-.046.268l2.953,1.693a.525.525,0,0,0,.468-.027m-25.5-8.712a.525.525,0,0,0,.468-.027l3.348-1.919c.142-.081.163-.2.047-.268l-.786-.451a.527.527,0,0,0-.469.027l-3.348,1.919c-.142.082-.163.2-.046.269Zm-40.177,24.271a.525.525,0,0,0,.468-.027l3.348-1.919c.142-.082.163-.2.047-.268l-2.954-1.693a.525.525,0,0,0-.468.026l-3.348,1.919c-.142.081-.163.2-.047.269Z" transform="translate(-49.343 -111.217)" fill="#455a64"/>
    <path id="Trazado_202556" data-name="Trazado 202556" d="M235.985,323.23l.686.393,18.235,10.45,32.429-18.588.675-.382L269.089,304.26Z" transform="translate(-113.726 -147.766)" fill="#263238"/>
    <path id="Trazado_202557" data-name="Trazado 202557" d="M287.952,316.717,270.008,306.44l-32.115,18.416,17.933,10.276Z" transform="translate(-114.646 -148.824)" fill="#37474f"/>
    <path id="Trazado_202558" data-name="Trazado 202558" d="M285.738,41.945a3.005,3.005,0,0,0-1.248-2.76c-.78-.456-5.3-3.044-6.085-3.488A3.053,3.053,0,0,0,275.37,36l-84.579,48.48v27.79l6.061,3.473,84.58-48.48a9.439,9.439,0,0,0,4.307-7.406Z" transform="translate(-91.946 -17.201)" fill="#0e50e2"/>
    <path id="Trazado_202559" data-name="Trazado 202559" d="M287.068,42.756c2.379-1.363,4.307-.258,4.307,2.469V63.14a9.435,9.435,0,0,1-4.307,7.406l-84.579,48.48V91.236Z" transform="translate(-97.583 -20.481)" fill="#7fa2f0"/>
    <path id="Trazado_202560" data-name="Trazado 202560" d="M287.784,71.164a6.386,6.386,0,0,0,2.9-4.992V49.621c0-1.3-.931-1.838-2.069-1.186L205.776,95.954V118.2Z" transform="translate(-99.168 -23.388)" fill="#fafafa"/>
    <path id="Trazado_202561" data-name="Trazado 202561" d="M228.013,148.769a.875.875,0,0,1-.091.381.571.571,0,0,1-.216.263l-1.431.82a.165.165,0,0,1-.216-.016.366.366,0,0,1-.091-.277v-4.393a1.8,1.8,0,0,0-.238-1.061c-.16-.209-.409-.217-.75-.021a1.7,1.7,0,0,0-.744.877,3.59,3.59,0,0,0-.233,1.332v4.393a.88.88,0,0,1-.091.382.568.568,0,0,1-.216.263l-1.431.82a.164.164,0,0,1-.215-.015.365.365,0,0,1-.091-.277V140.85a.873.873,0,0,1,.091-.382.569.569,0,0,1,.215-.263l1.431-.82a.165.165,0,0,1,.216.015.368.368,0,0,1,.091.277v3.7a5.23,5.23,0,0,1,.6-1.048,3,3,0,0,1,.942-.879,2.315,2.315,0,0,1,1-.338,1.014,1.014,0,0,1,.778.275,2.005,2.005,0,0,1,.5.942,6.26,6.26,0,0,1,.182,1.667Z" transform="translate(-106.967 -67.678)" fill="#455a64"/>
    <path id="Trazado_202562" data-name="Trazado 202562" d="M238.261,139.164a.965.965,0,0,0,.113.551c.076.1.2.1.375,0l.908-.521a.167.167,0,0,1,.216.015.372.372,0,0,1,.091.279v1.753a.882.882,0,0,1-.091.382.575.575,0,0,1-.216.263l-1.079.618a2.154,2.154,0,0,1-.971.323,1.031,1.031,0,0,1-.744-.25,1.735,1.735,0,0,1-.477-.8,4.464,4.464,0,0,1-.17-1.335v-2.916l-.84.481a.164.164,0,0,1-.216-.015.37.37,0,0,1-.091-.278v-1.753a.879.879,0,0,1,.091-.382.577.577,0,0,1,.216-.263l.84-.481V132a.881.881,0,0,1,.091-.382.574.574,0,0,1,.216-.263l1.431-.82a.166.166,0,0,1,.216.015.371.371,0,0,1,.091.277v2.829l1.284-.735a.167.167,0,0,1,.216.014.374.374,0,0,1,.09.278v1.754a.885.885,0,0,1-.09.382.57.57,0,0,1-.216.262l-1.284.736Z" transform="translate(-113.285 -63.381)" fill="#455a64"/>
    <path id="Trazado_202563" data-name="Trazado 202563" d="M248.652,133.165a.967.967,0,0,0,.113.552c.076.1.2.1.375,0l.908-.521a.166.166,0,0,1,.216.014.373.373,0,0,1,.091.279v1.753a.875.875,0,0,1-.091.381.575.575,0,0,1-.216.263l-1.079.618a2.134,2.134,0,0,1-.971.322,1.033,1.033,0,0,1-.744-.25,1.733,1.733,0,0,1-.477-.8,4.476,4.476,0,0,1-.17-1.336v-2.916l-.84.481a.164.164,0,0,1-.216-.015.368.368,0,0,1-.091-.278v-1.753a.882.882,0,0,1,.091-.382.578.578,0,0,1,.216-.263l.84-.482V126a.883.883,0,0,1,.091-.382.574.574,0,0,1,.216-.262l1.431-.82a.167.167,0,0,1,.216.015.371.371,0,0,1,.091.277v2.83l1.284-.736a.166.166,0,0,1,.216.015.371.371,0,0,1,.09.278v1.753a.885.885,0,0,1-.09.382.581.581,0,0,1-.216.263l-1.284.735Z" transform="translate(-118.293 -60.467)" fill="#455a64"/>
    <path id="Trazado_202564" data-name="Trazado 202564" d="M260.339,132.425a1.752,1.752,0,0,1-.579.228,1.009,1.009,0,0,1-.432-.013.785.785,0,0,1-.307-.163,1.373,1.373,0,0,1-.2-.222v3.7a.881.881,0,0,1-.091.382.572.572,0,0,1-.216.263l-1.431.82a.166.166,0,0,1-.216-.016.367.367,0,0,1-.091-.277V125.736a.885.885,0,0,1,.091-.382.577.577,0,0,1,.216-.262l1.374-.788a.166.166,0,0,1,.216.015.371.371,0,0,1,.091.278v.4c.068-.154.142-.318.222-.491a3.093,3.093,0,0,1,.295-.508,3.364,3.364,0,0,1,.432-.491,3.308,3.308,0,0,1,.63-.457,2.229,2.229,0,0,1,.966-.319,1.065,1.065,0,0,1,.795.274,2.085,2.085,0,0,1,.551.925,5.672,5.672,0,0,1,.233,1.637q.012.254.011.7c0,.3,0,.531-.011.71a8.931,8.931,0,0,1-.233,1.9,7.463,7.463,0,0,1-.551,1.556,5.186,5.186,0,0,1-.795,1.194,3.963,3.963,0,0,1-.966.8m.511-4.494a7.1,7.1,0,0,0,0-.972,1.741,1.741,0,0,0-.262-.909q-.227-.32-.76-.015a1.535,1.535,0,0,0-.432.369,2.229,2.229,0,0,0-.3.494,3.169,3.169,0,0,0-.188.551,3.525,3.525,0,0,0-.091.555q-.023.273-.023.621t.023.594a1.965,1.965,0,0,0,.091.452.924.924,0,0,0,.188.334.445.445,0,0,0,.3.149.746.746,0,0,0,.432-.126,1.708,1.708,0,0,0,.76-.887,3.875,3.875,0,0,0,.262-1.21" transform="translate(-123.744 -59.604)" fill="#455a64"/>
    <path id="Trazado_202565" data-name="Trazado 202565" d="M272.707,119.71a.886.886,0,0,1-.091.382.573.573,0,0,1-.216.263l-1.487.853a.165.165,0,0,1-.216-.016.366.366,0,0,1-.091-.277V118.64a.881.881,0,0,1,.091-.382.563.563,0,0,1,.216-.262l1.487-.853a.165.165,0,0,1,.216.015.373.373,0,0,1,.091.278Zm0,6.076a.884.884,0,0,1-.091.381.567.567,0,0,1-.216.263l-1.487.853a.165.165,0,0,1-.216-.015.369.369,0,0,1-.091-.278v-2.274a.883.883,0,0,1,.091-.382.574.574,0,0,1,.216-.262l1.487-.853a.167.167,0,0,1,.216.015.373.373,0,0,1,.091.278Z" transform="translate(-130.411 -56.875)" fill="#455a64"/>
    <path id="Trazado_202566" data-name="Trazado 202566" d="M280.222,102.556a2.288,2.288,0,0,1,.169-.453.814.814,0,0,1,.33-.354l1.408-.807a.134.134,0,0,1,.176.012.3.3,0,0,1,.074.227.794.794,0,0,1-.023.169l-3.828,16.239a2.238,2.238,0,0,1-.159.438.825.825,0,0,1-.341.369l-1.386.794a.136.136,0,0,1-.176-.012.3.3,0,0,1-.074-.226.769.769,0,0,1,.023-.17Z" transform="translate(-133.199 -49.01)" fill="#455a64"/>
    <path id="Trazado_202567" data-name="Trazado 202567" d="M287.742,98.214a2.325,2.325,0,0,1,.17-.453.813.813,0,0,1,.329-.354l1.409-.808a.134.134,0,0,1,.176.012.3.3,0,0,1,.074.227.758.758,0,0,1-.023.169l-3.827,16.239a2.209,2.209,0,0,1-.159.438.827.827,0,0,1-.34.369l-1.386.794a.135.135,0,0,1-.176-.012.3.3,0,0,1-.074-.226.769.769,0,0,1,.023-.17Z" transform="translate(-136.824 -46.901)" fill="#455a64"/>
    <path id="Trazado_202568" data-name="Trazado 202568" d="M300.954,97.246c.113-.065.2-.068.261-.01a.457.457,0,0,1,.125.206l.84,3.459.841-4.422a1.577,1.577,0,0,1,.125-.35.639.639,0,0,1,.261-.289l1.408-.807a.148.148,0,0,1,.193.011.331.331,0,0,1,.079.249.959.959,0,0,1-.011.145l-1.806,9.074a1.63,1.63,0,0,1-.119.363.611.611,0,0,1-.256.287l-1.295.742c-.113.065-.2.067-.25,0a.7.7,0,0,1-.125-.224l-.806-3.183-.806,4.108a2.494,2.494,0,0,1-.125.366.583.583,0,0,1-.251.283l-1.295.742q-.169.1-.255.008a.5.5,0,0,1-.119-.227l-1.807-7a.771.771,0,0,1-.011-.132.791.791,0,0,1,.08-.341.505.505,0,0,1,.193-.232l1.409-.808c.114-.065.2-.068.262-.01a.454.454,0,0,1,.124.206l.84,3.459L299.5,98.5a1.608,1.608,0,0,1,.125-.35.642.642,0,0,1,.261-.289Z" transform="translate(-142.528 -46.139)" fill="#455a64"/>
    <path id="Trazado_202569" data-name="Trazado 202569" d="M319.94,86.285c.114-.065.2-.068.261-.011a.458.458,0,0,1,.125.207l.84,3.458.841-4.422a1.6,1.6,0,0,1,.125-.349.643.643,0,0,1,.261-.289l1.409-.807a.148.148,0,0,1,.193.011.333.333,0,0,1,.079.249,1.01,1.01,0,0,1-.01.145l-1.806,9.074a1.624,1.624,0,0,1-.12.363.606.606,0,0,1-.255.286l-1.3.742q-.17.1-.249,0a.688.688,0,0,1-.125-.223l-.806-3.183-.807,4.108a2.479,2.479,0,0,1-.125.367.579.579,0,0,1-.25.282l-1.295.742c-.113.065-.2.067-.255.007a.494.494,0,0,1-.119-.226l-1.807-7a.831.831,0,0,1-.011-.133.791.791,0,0,1,.08-.341.5.5,0,0,1,.193-.232l1.409-.808c.113-.065.2-.068.261-.011a.455.455,0,0,1,.125.207l.84,3.458.841-4.422a1.563,1.563,0,0,1,.125-.349.638.638,0,0,1,.261-.29Z" transform="translate(-151.679 -40.815)" fill="#455a64"/>
    <path id="Trazado_202570" data-name="Trazado 202570" d="M338.926,75.323c.113-.065.2-.068.261-.011a.464.464,0,0,1,.125.207l.84,3.459.841-4.423a1.545,1.545,0,0,1,.125-.349.636.636,0,0,1,.261-.289l1.408-.808a.149.149,0,0,1,.193.011.334.334,0,0,1,.079.25.929.929,0,0,1-.011.145l-1.806,9.074a1.633,1.633,0,0,1-.119.364.609.609,0,0,1-.256.285l-1.295.742c-.113.065-.2.066-.25,0a.7.7,0,0,1-.125-.223l-.806-3.183-.806,4.108a2.47,2.47,0,0,1-.125.367.586.586,0,0,1-.25.282l-1.295.742c-.114.065-.2.067-.256.007a.5.5,0,0,1-.119-.227l-1.807-7a.773.773,0,0,1-.011-.132.793.793,0,0,1,.08-.341.507.507,0,0,1,.193-.232l1.409-.807c.114-.065.2-.068.262-.011a.461.461,0,0,1,.124.207L336.63,81l.841-4.423a1.592,1.592,0,0,1,.125-.349.642.642,0,0,1,.261-.289Z" transform="translate(-160.828 -35.491)" fill="#455a64"/>
    <path id="Trazado_202571" data-name="Trazado 202571" d="M354.635,84.222a.879.879,0,0,1-.091.382.571.571,0,0,1-.216.263l-1.488.853a.166.166,0,0,1-.216-.015.37.37,0,0,1-.091-.278V83.153a.886.886,0,0,1,.091-.382.574.574,0,0,1,.216-.262l1.488-.853a.165.165,0,0,1,.216.015.37.37,0,0,1,.091.278Z" transform="translate(-169.893 -39.641)" fill="#455a64"/>
    <path id="Trazado_202572" data-name="Trazado 202572" d="M148.653,114.381v0l-.041-.024,0,0-10.365-6.109-.009-.006-.057-.034v0c-4.565-2.732-10.656-2.3-17.208,1.945-13.162,8.532-23.192,29.227-22.4,46.222.394,8.472,3.4,14.423,7.95,17.208v0l.04.024,0,0,10.367,6.111,0,0,.048.029v0c4.566,2.74,10.663,2.311,17.22-1.939,13.162-8.532,23.192-29.227,22.4-46.222-.394-8.471-3.4-14.423-7.95-17.207" transform="translate(-47.481 -51.715)" fill="#37474f"/>
    <path id="Trazado_202573" data-name="Trazado 202573" d="M116.6,204.246l-10.031-5.9h-.007l-.044-.031c-4.545-2.79-7.552-8.742-7.945-17.2a54.914,54.914,0,0,1,4.716-23.526l.066-.168,10.3,6.276a54.809,54.809,0,0,0-4.716,23.526c.385,8.29,3.275,14.165,7.66,17.025" transform="translate(-47.481 -76.451)" fill="#263238"/>
    <path id="Trazado_202574" data-name="Trazado 202574" d="M143.849,183.581c13.162-8.532,23.192-29.227,22.4-46.223s-12.1-23.856-25.262-15.324-23.192,29.226-22.4,46.222,12.1,23.856,25.263,15.324" transform="translate(-57.128 -57.485)" fill="#455a64"/>
    <path id="Trazado_202575" data-name="Trazado 202575" d="M142.417,187a9.778,9.778,0,0,1-4.906-1.273c-4.146-2.368-6.525-7.8-6.525-14.894,0-13.058,8-28.3,17.824-33.974,4.469-2.581,8.836-2.913,12.3-.938,4.146,2.367,6.524,7.8,6.524,14.894,0,13.057-8,28.3-17.823,33.974A14.918,14.918,0,0,1,142.417,187M156.2,136.62a12.953,12.953,0,0,0-6.389,1.939c-9.285,5.362-16.838,19.84-16.838,32.274,0,6.374,2.016,11.181,5.53,13.188,2.819,1.609,6.481,1.28,10.311-.933,9.285-5.363,16.838-19.84,16.838-32.274,0-6.375-2.015-11.181-5.531-13.189a7.805,7.805,0,0,0-3.921-1.006" transform="translate(-63.125 -65.392)" fill="#f0f0f0"/>
    <path id="Trazado_202576" data-name="Trazado 202576" d="M147.54,156.7a9.45,9.45,0,0,1-5.918-2.021l.917-1.161c3.028,2.356,7.12,2.253,11.521-.289,4.56-2.634,8.845-7.512,12.065-13.736l1.323.674c-3.349,6.472-7.838,11.563-12.64,14.337a14.686,14.686,0,0,1-7.267,2.2" transform="translate(-68.251 -67.748)" fill="#f0f0f0"/>
    <path id="Trazado_202577" data-name="Trazado 202577" d="M142.554,215.334l-1.323-.674c3.348-6.471,7.837-11.562,12.64-14.337,4.964-2.866,9.645-2.927,13.185-.174l-.917,1.161c-3.028-2.355-7.12-2.252-11.52.29-4.561,2.633-8.846,7.511-12.065,13.735" transform="translate(-68.062 -96.222)" fill="#f0f0f0"/>
    <path id="Trazado_202578" data-name="Trazado 202578" d="M155.513,186.9a4.007,4.007,0,0,1-2.007-.551c-3.493-1.995-5.663-9.182-5.663-18.756,0-13.2,4.047-25.877,9.215-28.861a4.123,4.123,0,0,1,4.3-.112c3.492,1.995,5.662,9.182,5.662,18.757,0,13.2-4.048,25.877-9.215,28.861a4.572,4.572,0,0,1-2.293.663m3.834-47.356a3.079,3.079,0,0,0-1.541.463c-4.594,2.654-8.476,15.286-8.476,27.585,0,10.133,2.47,16.079,4.917,17.477a2.639,2.639,0,0,0,2.812-.108c4.594-2.653,8.475-15.286,8.475-27.585,0-10.134-2.469-16.08-4.917-17.477a2.528,2.528,0,0,0-1.27-.355" transform="translate(-71.249 -67.054)" fill="#f0f0f0"/>
    <rect id="Rectángulo_52019" data-name="Rectángulo 52019" width="1.486" height="46.23" transform="translate(85.439 72.316)" fill="#f0f0f0"/>
    <path id="Trazado_202579" data-name="Trazado 202579" d="M0,0,40.026.126l0,1.478L0,1.478Z" transform="matrix(0.864, -0.503, 0.503, 0.864, 68.479, 104.804)" fill="#f0f0f0"/>
    <path id="Trazado_202580" data-name="Trazado 202580" d="M378.919,114a1.591,1.591,0,0,0-.619-.716h0l-1.544-.886v0a1.991,1.991,0,0,0-1.927.261l-.964-.552h0c-1.17-.7-2.8.765-3.159,1.117l-.417-.239h0a2.121,2.121,0,0,0-1.962.211v-5.573a1.394,1.394,0,0,0-.554-1.255h0l-.017-.009-.026-.015-1.515-.87,0,0-.01-.006h0a1.408,1.408,0,0,0-1.388.144,4.342,4.342,0,0,0-1.982,3.408v17.072c-.079-.038-.157-.075-.236-.109a5.682,5.682,0,0,0-4.032-1.289,4.284,4.284,0,0,0-2.579,1.769c-.656,1.147.426,1.867,1.819,3.449s2.6,3.456,3.857,4.621a6.805,6.805,0,0,0,2.17,1.468v2.233l1.53.877,11.646-6.676V130.2s1.446-5.721,1.907-8.111.888-6.262,0-8.095" transform="translate(-171.464 -51.16)" fill="#27debf"/>
    <g id="Grupo_160973" data-name="Grupo 160973" transform="translate(184.329 54.183)" opacity="0.8">
      <g id="Grupo_160972" data-name="Grupo 160972">
        <g id="Grupo_160971" data-name="Grupo 160971" clip-path="url(#clip-path)">
          <path id="Trazado_202581" data-name="Trazado 202581" d="M378.919,114a1.591,1.591,0,0,0-.619-.716h0l-1.544-.886v0a1.991,1.991,0,0,0-1.927.261l-.964-.552h0c-1.17-.7-2.8.765-3.159,1.117l-.417-.239h0a2.121,2.121,0,0,0-1.962.211v-5.573a1.394,1.394,0,0,0-.554-1.255h0l-.017-.009-.026-.015-1.515-.87,0,0-.01-.006h0a1.408,1.408,0,0,0-1.388.144,4.342,4.342,0,0,0-1.982,3.408v17.072c-.079-.038-.157-.075-.236-.109a5.682,5.682,0,0,0-4.032-1.289,4.284,4.284,0,0,0-2.579,1.769c-.656,1.147.426,1.867,1.819,3.449s2.6,3.456,3.857,4.621a6.805,6.805,0,0,0,2.17,1.468v2.233l1.53.877,11.646-6.676V130.2s1.446-5.721,1.907-8.111.888-6.262,0-8.095" transform="translate(-355.792 -105.343)" fill="#0e50e2"/>
        </g>
      </g>
    </g>
    <g id="Grupo_160976" data-name="Grupo 160976" transform="translate(184.329 57.859)" opacity="0.2">
      <g id="Grupo_160975" data-name="Grupo 160975">
        <g id="Grupo_160974" data-name="Grupo 160974" clip-path="url(#clip-path-2)">
          <path id="Trazado_202582" data-name="Trazado 202582" d="M368.333,116.689v1.891l0,0a8.307,8.307,0,0,1,1.5-1.016Zm7.035-.822a3.371,3.371,0,0,0-.533.265l.494.285a1.753,1.753,0,0,1,.732.8,3.587,3.587,0,0,1,.881-.49Zm-3.624.018a6.505,6.505,0,0,0-1.034.811l1.009.582a.417.417,0,0,1,.057.031,1.133,1.133,0,0,1,.391.339l0,0a6.567,6.567,0,0,1,1.073-.864Zm-8.907-3.394v17.073a9.868,9.868,0,0,1,1.531.938V113.369Zm5.49,4.194.007,0v-.017ZM363.2,138.879c-1.258-1.164-2.476-3.051-3.855-4.621-1.308-1.485-2.345-2.212-1.918-3.245l-1.532-.878c-.426,1.033.608,1.76,1.919,3.249,1.382,1.566,2.6,3.453,3.855,4.621a6.861,6.861,0,0,0,2.171,1.467V141.7l1.531.878V140.35a6.8,6.8,0,0,1-2.171-1.471" transform="translate(-355.793 -112.491)" fill="#27debf"/>
        </g>
      </g>
    </g>
    <g id="Grupo_160979" data-name="Grupo 160979" transform="translate(184.329 57.859)" opacity="0.1">
      <g id="Grupo_160978" data-name="Grupo 160978">
        <g id="Grupo_160977" data-name="Grupo 160977" clip-path="url(#clip-path-2)">
          <path id="Trazado_202583" data-name="Trazado 202583" d="M368.333,116.689v1.891l0,0a8.307,8.307,0,0,1,1.5-1.016Zm7.035-.822a3.371,3.371,0,0,0-.533.265l.494.285a1.753,1.753,0,0,1,.732.8,3.587,3.587,0,0,1,.881-.49Zm-3.624.018a6.505,6.505,0,0,0-1.034.811l1.009.582a.417.417,0,0,1,.057.031,1.133,1.133,0,0,1,.391.339l0,0a6.567,6.567,0,0,1,1.073-.864Zm-8.907-3.394v17.073a9.868,9.868,0,0,1,1.531.938V113.369Zm5.49,4.194.007,0v-.017ZM363.2,138.879c-1.258-1.164-2.476-3.051-3.855-4.621-1.308-1.485-2.345-2.212-1.918-3.245l-1.532-.878c-.426,1.033.608,1.76,1.919,3.249,1.382,1.566,2.6,3.453,3.855,4.621a6.861,6.861,0,0,0,2.171,1.467V141.7l1.531.878V140.35a6.8,6.8,0,0,1-2.171-1.471" transform="translate(-355.793 -112.491)"/>
        </g>
      </g>
    </g>
    <g id="Grupo_160982" data-name="Grupo 160982" transform="translate(196.861 62.093)" opacity="0.1">
      <g id="Grupo_160981" data-name="Grupo 160981">
        <g id="Grupo_160980" data-name="Grupo 160980" clip-path="url(#clip-path-4)">
          <path id="Trazado_202585" data-name="Trazado 202585" d="M379.989,126.583s.249-3.414,1.512-4.226l-.045.013a8.275,8.275,0,0,0-1.467,1v-.064a.078.078,0,0,0,0,.064Z" transform="translate(-379.983 -121.516)"/>
          <path id="Trazado_202586" data-name="Trazado 202586" d="M387.4,121.7v3.124s.349-3.212,1.074-3.988a6.476,6.476,0,0,0-1.074.864" transform="translate(-383.556 -120.777)"/>
          <path id="Trazado_202587" data-name="Trazado 202587" d="M394.915,121.211h0v3.135s.192-3.158.877-3.624a3.534,3.534,0,0,0-.877.489" transform="translate(-387.179 -120.722)"/>
        </g>
      </g>
    </g>
    <g id="Grupo_160985" data-name="Grupo 160985" transform="translate(157.74 150.536)" opacity="0.15">
      <g id="Grupo_160984" data-name="Grupo 160984">
        <g id="Grupo_160983" data-name="Grupo 160983" clip-path="url(#clip-path-5)">
          <path id="Trazado_202588" data-name="Trazado 202588" d="M314.778,294.428c-8.948,4.426-13.01,9.078-8.377,12.336s17.237,7.671,17.237,7.671l1.653,5.515,18.312-10.5v-6.244s-11.3-7.733-15.71-9.223-7.87-2.154-13.114.44" transform="translate(-304.471 -292.676)"/>
        </g>
      </g>
    </g>
    <path id="Trazado_202589" data-name="Trazado 202589" d="M363.785,349.334s-2.765,6.73-2.906,9.384c-.147,2.766-.82,3.682-.348,6.691.1.655.449,1.969.536,2.5a.785.785,0,0,1-.715.981c-1.209.249-3.217-2.006-4.173-4.459a72.327,72.327,0,0,1-2.394-8.651,3.758,3.758,0,0,1,.383-1.936,5.871,5.871,0,0,1,.555-1c.4-1.2.592-3.493.93-5.077Z" transform="translate(-170.487 -168.894)" fill="#ffa8a7"/>
    <path id="Trazado_202590" data-name="Trazado 202590" d="M348.934,368.252a2.849,2.849,0,0,0-.324.907c-.029.552,1.226,2.37,1.718,3.032a4.407,4.407,0,0,1,.907,3.144,7.609,7.609,0,0,0,1.862,4.923,12.223,12.223,0,0,0,6.077,3.949c2.935.9,3.97-.563,3.97-.563s.91-1.406.363-1.982-14.574-13.409-14.574-13.409" transform="translate(-168.002 -178.844)" fill="#263238"/>
    <path id="Trazado_202591" data-name="Trazado 202591" d="M352.539,357.634c-.089,0-.247-.028-.477.247-.087.1-.622,1.414-1.067,2.1-.475.737-1.61,1.994-1.759,3.111.679,2.16,2.72,3.663,3.027,5.7s.341,4.407,3.5,6.9,6.4,2.754,7.57,2.093,1.06-1.9-.566-4.264c-1.726-2.508-2.889-7.944-2.889-7.946a17.9,17.9,0,0,1-.305-2.312,15.093,15.093,0,0,1,.218-2.287,1.687,1.687,0,0,0-.148-1.036,1.772,1.772,0,0,0-.868-.6,7.721,7.721,0,0,0-1.622-.545,2.6,2.6,0,0,0-1.671.2,12.254,12.254,0,0,1-1.044.662,1.5,1.5,0,0,1-1.55-.275,1.266,1.266,0,0,1-.42-1.414,3.35,3.35,0,0,1,.073-.344" transform="translate(-168.304 -173.686)" fill="#455a64"/>
    <path id="Trazado_202592" data-name="Trazado 202592" d="M358.269,386.549a5.031,5.031,0,0,1,4.575-2.457c3.352.013,4.513,1.706,5.022,2.7.607,1.186,1.24,3.335-.144,3.952-1.495.666-3.225.46-5.947-.894a7.229,7.229,0,0,1-3.506-3.3" transform="translate(-172.657 -186.537)" fill="#fafafa"/>
    <path id="Trazado_202593" data-name="Trazado 202593" d="M359.262,368.452a.346.346,0,0,0,.306,0c.518-.262,3.258-.831,4.853.639.207-.165.165-.465-.1-.89a6.19,6.19,0,0,0-5.085-.335.315.315,0,0,0-.13.442.349.349,0,0,0,.156.145" transform="translate(-173.039 -178.464)" fill="#fafafa"/>
    <path id="Trazado_202594" data-name="Trazado 202594" d="M365.218,372.97a1.023,1.023,0,0,0-.194-.915,6.312,6.312,0,0,0-4.851-.193.316.316,0,0,0-.13.442.353.353,0,0,0,.157.145.347.347,0,0,0,.306,0c.5-.255,3.1-.791,4.712.522" transform="translate(-173.492 -180.405)" fill="#fafafa"/>
    <path id="Trazado_202595" data-name="Trazado 202595" d="M367.49,381.351a1.885,1.885,0,0,0-.429-1.2,6.24,6.24,0,0,0-5.011-.287.315.315,0,0,0-.13.442.355.355,0,0,0,.156.145.348.348,0,0,0,.306,0c.547-.277,3.568-.893,5.107.906" transform="translate(-174.396 -184.289)" fill="#fafafa"/>
    <path id="Trazado_202596" data-name="Trazado 202596" d="M361.139,376.448a.349.349,0,0,0,.306,0c.512-.259,3.2-.814,4.8.593a1.16,1.16,0,0,0-.28-.985,6.306,6.306,0,0,0-4.851-.193.315.315,0,0,0-.13.442.35.35,0,0,0,.156.144" transform="translate(-173.944 -182.347)" fill="#fafafa"/>
    <path id="Trazado_202597" data-name="Trazado 202597" d="M372.45,366.883s1.371,8.208,2.9,11.393a26.254,26.254,0,0,0,4.407,7.132c.457.525,1.5,1.5,1.872,1.924a.817.817,0,0,1-.087,1.264c-.934.887-4.893,1.1-7.111-.554s-4.239-5.168-5.561-6.5c-.5-.5-.965-1.01-1.41-1.551-.429-.523-.311-1.019-.35-1.6-.018-.283.023-1.055.023-1.055-.3-1.382-1.125-3.551-1.561-4.9Z" transform="translate(-176.174 -178.179)" fill="#ffa8a7"/>
    <path id="Trazado_202598" data-name="Trazado 202598" d="M367.066,399.263a2.966,2.966,0,0,0,.1,1c.221.535,2.227,1.7,2.99,2.107a4.646,4.646,0,0,1,2.272,2.573,8.034,8.034,0,0,0,3.978,3.833,12.877,12.877,0,0,0,7.528,1.041c3.18-.453,3.5-2.294,3.5-2.294s.229-1.734-.548-2.037-19.824-6.226-19.824-6.226" transform="translate(-176.894 -193.904)" fill="#263238"/>
    <path id="Trazado_202599" data-name="Trazado 202599" d="M367.621,385.287c-.087.037-.247.083-.341.445-.035.137.048,1.615-.063,2.463-.119.908-.626,2.6-.265,3.724,1.615,1.743,4.223,2.26,5.43,4.054s2.306,4.018,6.416,4.98,7.3-.234,8.105-1.376.147-2.269-2.455-3.785c-2.762-1.608-6.307-6.235-6.309-6.237a18.919,18.919,0,0,1-1.329-2.052,15.876,15.876,0,0,1-.823-2.261,1.772,1.772,0,0,0-.606-.916,1.865,1.865,0,0,0-1.09-.179,8.092,8.092,0,0,0-1.78.2,2.706,2.706,0,0,0-1.491.931,12.684,12.684,0,0,1-.691,1.089,1.572,1.572,0,0,1-1.59.427,1.335,1.335,0,0,1-1.034-1.153,3.394,3.394,0,0,1-.085-.358" transform="translate(-176.78 -186.56)" fill="#455a64"/>
    <path id="Trazado_202600" data-name="Trazado 202600" d="M384.829,409.935a5.222,5.222,0,0,1,3.224-4.353c3.178-1.475,5.038-.387,5.968.33,1.108.853,2.674,2.606,1.642,3.8-1.114,1.293-2.844,1.866-6.03,1.791a7.625,7.625,0,0,1-4.8-1.571" transform="translate(-185.457 -196.617)" fill="#fafafa"/>
    <path id="Trazado_202601" data-name="Trazado 202601" d="M376.9,393.393a.363.363,0,0,0,.289-.137c.372-.478,2.708-2.231,4.88-1.548.121-.247-.054-.514-.495-.8a6.455,6.455,0,0,0-4.963,1.938.33.33,0,0,0,.076.476.375.375,0,0,0,.214.067" transform="translate(-181.465 -189.832)" fill="#fafafa"/>
    <path id="Trazado_202602" data-name="Trazado 202602" d="M384.56,395.021a1.079,1.079,0,0,0-.594-.78,6.581,6.581,0,0,0-4.677,1.969.33.33,0,0,0,.076.476.374.374,0,0,0,.213.067.363.363,0,0,0,.289-.137c.362-.464,2.58-2.124,4.694-1.6" transform="translate(-182.753 -191.462)" fill="#fafafa"/>
    <path id="Trazado_202603" data-name="Trazado 202603" d="M390.455,401.94a1.989,1.989,0,0,0-.947-.95,6.509,6.509,0,0,0-4.871,1.95.33.33,0,0,0,.076.476.37.37,0,0,0,.213.068.365.365,0,0,0,.289-.137c.393-.5,2.974-2.427,5.24-1.407" transform="translate(-185.331 -194.732)" fill="#fafafa"/>
    <path id="Trazado_202604" data-name="Trazado 202604" d="M382.252,400.118a.362.362,0,0,0,.289-.137c.368-.473,2.658-2.187,4.808-1.567a1.224,1.224,0,0,0-.708-.808,6.575,6.575,0,0,0-4.677,1.968.329.329,0,0,0,.076.476.369.369,0,0,0,.213.067" transform="translate(-184.042 -193.096)" fill="#fafafa"/>
    <path id="Trazado_202605" data-name="Trazado 202605" d="M340.765,276c3.39,2.467,15.2,9.233,19.989,13.638,1.385,1.272,1.84,2.948,1.5,6.6-.462,4.955-4.384,21.842-4.384,21.842-.54.954-1.491-.855-1.491-.855l-18.707-23.579Z" transform="translate(-162.731 -134.042)" fill="#4f7fea"/>
    <g id="Grupo_160988" data-name="Grupo 160988" transform="translate(176.016 146.147)" opacity="0.3">
      <g id="Grupo_160987" data-name="Grupo 160987">
        <g id="Grupo_160986" data-name="Grupo 160986" clip-path="url(#clip-path-6)">
          <path id="Trazado_202606" data-name="Trazado 202606" d="M358.058,316.777c-4.329-3.591-18.311-25.492-18.311-25.492l.008-.007c1.9-1.6,2.886-7.135,2.886-7.135.755,2.137-.042,5.358-.629,6.536,1.1.946,7.322,6.026,11.644,9.421a6.135,6.135,0,0,1,2.562,3.842,116.785,116.785,0,0,1,1.84,12.835" transform="translate(-339.747 -284.143)"/>
        </g>
      </g>
    </g>
    <path id="Trazado_202607" data-name="Trazado 202607" d="M321.242,276h0L297.161,281.3c1.176,4.388,1.511,6.655,2.739,8.965s2.6,4.791,8.859,7.853c6.03,2.948,13.4,5.983,14.87,6.679,1.11.525,1.64,2.729,2.142,5.587a33.782,33.782,0,0,0,3.561,11.635c2.925,6.161,3.522,7.492,3.522,7.492s4.525.468,7.529-2.156c0,0-4.1-21.123-4.971-24.925-.489-2.124-.5-3.243-3.154-5.578-2.278-2-12.448-9.643-12.448-9.643s4.039-5.386,1.433-11.2" transform="translate(-143.208 -134.042)" fill="#4f7fea"/>
    <path id="Trazado_202608" data-name="Trazado 202608" d="M368.251,198.345a2.319,2.319,0,0,0-1.193.238,7.5,7.5,0,0,0-1.221.79q-.9.657-1.842,1.248a5.13,5.13,0,0,1-1.816.852c-.223.036-.7.044-.455-.292a9.529,9.529,0,0,0,.91-1.341,1.929,1.929,0,0,0,.134-1.565.663.663,0,0,0-.31-.364c-.211-.1-.318.015-.439.153a4.476,4.476,0,0,1-.425.395c-.3.263-.6.528-.9.8-1.732,1.563-3.839,2.916-4.58,5.174a13.813,13.813,0,0,0-.614,4.293c-.016,2.479-.163,11.1-.163,11.1s-6.9-5.762-9.894-8.245c-1.443-1.2-3.46-2.651-5.682-2.86-1.572-.148-2.49-.139-2.49-.139l4.707,11.327s8.9,6.573,13.167,8.836c3.851,2.042,5.723.571,6.188-.5.772-1.777,1.564-2.609.478-12.525-.078-.767-.174-2.963-.261-3.729-.112-1.6.07-3.227.7-3.575a18.969,18.969,0,0,0,3.265-2.2,9.817,9.817,0,0,0,1.726-1.926,3.009,3.009,0,0,0,.591-1.106c.038-.373-.126-.768-.012-1.136.078-.251.248-.456.312-.725a4.221,4.221,0,0,1,.433-1.647c.193-.26.513-.495.469-.815a.67.67,0,0,0-.554-.479,1.658,1.658,0,0,0-.224-.038" transform="translate(-162.538 -96.099)" fill="#ffa8a7"/>
    <path id="Trazado_202609" data-name="Trazado 202609" d="M381.806,207.154a7.159,7.159,0,0,1-1.8,3.568,4.219,4.219,0,0,0,1.529-1.539,2.358,2.358,0,0,0,.27-2.029" transform="translate(-183.133 -100.605)" fill="#f28f8f"/>
    <path id="Trazado_202610" data-name="Trazado 202610" d="M336.355,218.243c2.4.1,4.274.157,6.322,1.331s11.194,8.775,11.194,8.775.09-3.869.324-5.908c.162-1.413.4-1.857.843-1.787a3.936,3.936,0,0,0,3.04,1.375c2.247.167,3-.759,3-.759s.655-.153.891.759a90.3,90.3,0,0,1,.25,13.645c-.41,2.848-1.7,4.172-3.419,4.573s-5.718-2-10.514-5.2-10.006-6.188-10.006-6.188Z" transform="translate(-162.096 -105.991)" fill="#4f7fea"/>
    <g id="Grupo_160991" data-name="Grupo 160991" transform="translate(190.655 121.461)" opacity="0.1">
      <g id="Grupo_160990" data-name="Grupo 160990">
        <g id="Grupo_160989" data-name="Grupo 160989" clip-path="url(#clip-path-7)">
          <path id="Trazado_202611" data-name="Trazado 202611" d="M369.124,237.043a18.656,18.656,0,0,0,.2,5.549s-1.754-3.365-1.213-6.446Z" transform="translate(-368.004 -236.147)"/>
        </g>
      </g>
    </g>
    <path id="Trazado_202612" data-name="Trazado 202612" d="M296.379,220.137c-.4,2.084-4.383,21.885.152,36.651,8.167.957,22.511-2.766,24.661-8.132,0,0-1.449-5.092-2.078-7.582.133-4.085,0-11.881-.084-14.294-.164-4.78-.916-8.478-3.3-8.827,0,0-4.8-.188-7.7-.07-2.508.1-4.392.129-4.392.129Z" transform="translate(-141.868 -105.797)" fill="#fafafa"/>
    <path id="Trazado_202613" data-name="Trazado 202613" d="M308.376,256.012c-.527-1.162-10.222-7.1-10.222-7.1s.148-2.752.725-7.817.748-11.134-1.09-14.185l-1.854.072c-1.048,6.143-3.179,21.918.6,34.212a39.5,39.5,0,0,0,15.545-2c-.937-.624-3.281-2.251-3.7-3.177" transform="translate(-141.868 -110.198)" fill="#f0f0f0"/>
    <path id="Trazado_202614" data-name="Trazado 202614" d="M307.045,190.322c.016-1.024-1.962-4.085-2.857-6.506-1.5-4.048-1.628-7.682,2.067-9.26a9.8,9.8,0,0,1,8.135-4.152c5.825-.2,10.3,4.685,8.367,11.211Z" transform="translate(-146.12 -82.755)" fill="#455a64"/>
    <path id="Trazado_202615" data-name="Trazado 202615" d="M308.291,189.686c-.761,0-1.037-1.084-1.56-1.666a2.262,2.262,0,0,0-3.48.43c-1.076,1.547-.03,3.776,1.144,4.638a1.851,1.851,0,0,0,2.5.038l-.134,8.172s.262,1.812,3.625,2.864c3.884,1.215,7.045-.815,4.732-3.358l.086-2.154a11.254,11.254,0,0,0,3.755.208c1.3-.2,2.333-1.164,3-3.147,1.3-3.871.939-9.032-.4-13.745-1.281,1.006-7.211,2.893-12.551,1.023.189,3.255.032,6.7-.711,6.7" transform="translate(-145.926 -88.373)" fill="#ffa8a7"/>
    <path id="Trazado_202616" data-name="Trazado 202616" d="M308.427,201.428a.482.482,0,1,1-.482-.478.48.48,0,0,1,.482.478" transform="translate(-148.173 -97.592)" fill="#263238"/>
    <path id="Trazado_202617" data-name="Trazado 202617" d="M320.686,210.55a21.743,21.743,0,0,1-4.519-1.829,6.191,6.191,0,0,1-1.988-2.251,8.231,8.231,0,0,0,1.369,2.722c1.547,1.745,5.1,2.552,5.1,2.552Z" transform="translate(-151.409 -100.273)" fill="#f28f8f"/>
    <path id="Trazado_202618" data-name="Trazado 202618" d="M324.735,196.115a.807.807,0,1,1-.822-.819.817.817,0,0,1,.822.819" transform="translate(-155.719 -94.846)" fill="#263238"/>
    <path id="Trazado_202619" data-name="Trazado 202619" d="M322.814,191.056l-1.744.912a1.023,1.023,0,0,1,.428-1.356.965.965,0,0,1,1.315.444" transform="translate(-154.679 -92.519)" fill="#263238"/>
    <path id="Trazado_202620" data-name="Trazado 202620" d="M325.667,205.074l2.774.878a1.53,1.53,0,0,1-1.883.957,1.408,1.408,0,0,1-.892-1.835" transform="translate(-156.904 -99.595)" fill="#f28f8f"/>
    <path id="Trazado_202621" data-name="Trazado 202621" d="M337.163,190.318l-1.916-.521a.954.954,0,0,1,1.186-.708,1.035,1.035,0,0,1,.73,1.229" transform="translate(-161.562 -91.815)" fill="#263238"/>
    <path id="Trazado_202622" data-name="Trazado 202622" d="M336.487,194.887a.807.807,0,1,1-.823-.819.817.817,0,0,1,.823.819" transform="translate(-161.383 -94.25)" fill="#263238"/>
    <path id="Trazado_202623" data-name="Trazado 202623" d="M324.956,175.543a4.913,4.913,0,0,0,2.312-5.295c-.7.7-2.657.821-4.371.01A13.5,13.5,0,0,0,314.111,169c-3.164.608-5.018,3-5.018,4.754a6.59,6.59,0,0,0,2.941,2.815,11.783,11.783,0,0,0,7.637,2.182,7.568,7.568,0,0,0,4.5-1.615,4.9,4.9,0,0,1-2.429-.366,8.591,8.591,0,0,0,3.217-1.224" transform="translate(-148.958 -81.95)" fill="#37474f"/>
    <path id="Trazado_202624" data-name="Trazado 202624" d="M330.653,197.951l2.471-1.12-3.157-4.322Z" transform="translate(-159.018 -93.493)" fill="#f28f8f"/>
    <g id="Grupo_160994" data-name="Grupo 160994" transform="translate(164.136 146.549)" opacity="0.15">
      <g id="Grupo_160993" data-name="Grupo 160993">
        <g id="Grupo_160992" data-name="Grupo 160992" clip-path="url(#clip-path-8)">
          <path id="Trazado_202625" data-name="Trazado 202625" d="M351.454,294.848a4.661,4.661,0,0,0-.751-.875c-2.879-2.646-8.288-6.143-12.884-9.049l-20.907,11.985a.19.19,0,0,0,0,.331l15.184,8.7Z" transform="translate(-316.816 -284.924)"/>
        </g>
      </g>
    </g>
    <path id="Trazado_202626" data-name="Trazado 202626" d="M358.389,292.37v.336a1.38,1.38,0,0,1-.694,1.195l-24.309,13.933a1.381,1.381,0,0,1-.692.183,1.4,1.4,0,0,1-.7-.184l-13.251-7.57a1.383,1.383,0,0,1-.693-1.195V298.6h0v0a.173.173,0,0,0,.088.152l14.552,8.342Z" transform="translate(-153.275 -141.991)" fill="#37474f"/>
    <path id="Trazado_202627" data-name="Trazado 202627" d="M346.31,307.1v.918a1.4,1.4,0,0,0,.694-.184L371.313,293.9a1.379,1.379,0,0,0,.7-1.2v-.336Z" transform="translate(-166.894 -141.99)" fill="#263238"/>
    <path id="Trazado_202628" data-name="Trazado 202628" d="M358.39,284.464,343.976,276.2a.836.836,0,0,0-.828,0l-25.006,14.335a.182.182,0,0,0,0,.317l14.549,8.341Z" transform="translate(-153.275 -134.086)" fill="#455a64"/>
    <path id="Trazado_202629" data-name="Trazado 202629" d="M338.822,302.14l-7.774-4.452,22.732-13.029,7.814,4.428Z" transform="translate(-159.539 -138.246)" fill="#37474f"/>
    <path id="Trazado_202630" data-name="Trazado 202630" d="M361.6,289.086l-.3.17L353.781,285l-22.433,12.861-.3-.17,22.73-13.031Z" transform="translate(-159.54 -138.246)" fill="#263238"/>
    <path id="Trazado_202631" data-name="Trazado 202631" d="M338.679,290.828l.143.082,3.811,2.183,6.776-3.884.141-.08-3.953-2.266Z" transform="translate(-163.216 -139.317)" fill="#263238"/>
    <path id="Trazado_202632" data-name="Trazado 202632" d="M338.956,291.063l3.81,2.184,6.776-3.884-3.813-2.184Z" transform="translate(-163.35 -139.47)" fill="#37474f"/>
    <path id="Trazado_202633" data-name="Trazado 202633" d="M334.062,293.709a12.885,12.885,0,0,0-4-3,7.427,7.427,0,0,0-.934-.289,10.576,10.576,0,0,0,1.366-.271,2.416,2.416,0,0,0,1.153-.759c.116-.148.2-.384.051-.5a.319.319,0,0,0-.189-.069c-1-.03-1.781-.184-2.686-.248a3.815,3.815,0,0,0-1.22.022c-.37.1-.741.207-1.1.332a8.86,8.86,0,0,1-5.5.537l-4.207-2.229s-.9-.223-2.224,2-.551,3.451-.551,3.451l4.726,1.62h0l.069.026a15.606,15.606,0,0,0,2.23.975c1.473.449,3.358-.082,4.637-.15a13.645,13.645,0,0,1,4.636,1c1.186.478,2.612-1.337,3.207-1.118s1.626-.26.536-1.333" transform="translate(-151.225 -139.494)" fill="#ffa8a7"/>
    <path id="Trazado_202634" data-name="Trazado 202634" d="M340.639,291.882a4.5,4.5,0,0,0-1.812.291,9.941,9.941,0,0,1,2.363.408,10.676,10.676,0,0,0,1.366-.271,2.517,2.517,0,0,0,1.047-.635c-.716.482-2.1.294-2.964.207" transform="translate(-163.288 -141.654)" fill="#f28f8f"/>
    <path id="Trazado_202635" data-name="Trazado 202635" d="M289.015,222.3c1.2.47,2.755,5.425,1.8,10.193L288.582,247.4s2.73,1.6,6.561,3.96c2.655,1.633,4.931,3.129,4.932,4.339-1.739.62-3.3,3.8-2.775,5.455-1.187,1.4-12.149-4.636-15.982-7.238-1.777-1.206-2.673-1.682-1.989-7.129.756-6.029,1.275-12.726,2.458-17.2,1.235-4.665,2.609-6.476,7.228-7.292" transform="translate(-134.504 -107.963)" fill="#4f7fea"/>
    <path id="Trazado_202636" data-name="Trazado 202636" d="M347.066,290.961a1.655,1.655,0,0,0,1.419-.109l24.2-13.872a1.635,1.635,0,0,0,.8-1.142l2.649-15.687a1.671,1.671,0,0,0,.022-.268,1.629,1.629,0,0,0-.487-1.162l-25.151,14.419a1.211,1.211,0,0,0-.591.845Z" transform="translate(-167.258 -125.649)" fill="#37474f"/>
    <path id="Trazado_202637" data-name="Trazado 202637" d="M346.31,290.519l.166.094a2.028,2.028,0,0,0,.226.109l2.864-16.977a1.212,1.212,0,0,1,.591-.846l25.151-14.419a1.678,1.678,0,0,0-.336-.254l-25.2,14.445a1.213,1.213,0,0,0-.591.845Z" transform="translate(-166.894 -125.409)" fill="#455a64"/>
    <path id="Trazado_202638" data-name="Trazado 202638" d="M349.8,287.164l-.39-.224a1.2,1.2,0,0,0-.231.522l-2.869,17,.165.094a2.032,2.032,0,0,0,.226.109l2.864-16.977a1.2,1.2,0,0,1,.234-.526" transform="translate(-166.894 -139.354)" fill="#263238"/>
    <path id="Trazado_202639" data-name="Trazado 202639" d="M373.354,289.972a5.315,5.315,0,0,1,2.44-3.116c1.17-.67,1.974-.363,1.8.688a5.312,5.312,0,0,1-2.44,3.116c-1.169.67-1.974.363-1.8-.688" transform="translate(-179.915 -139.141)" fill="#fff"/>
  </g>
</svg>
