<svg xmlns="http://www.w3.org/2000/svg" xmlns:xlink="http://www.w3.org/1999/xlink" width="226.415" height="219.582" viewBox="0 0 226.415 219.582">
  <defs>
    <clipPath id="clip-path">
      <rect id="Rectángulo_33783" data-name="Rectángulo 33783" width="208.195" height="201.911" fill="#a6bae6"/>
    </clipPath>
    <clipPath id="clip-path-2">
      <rect id="Rectángulo_33779" data-name="Rectángulo 33779" width="7.958" height="3.335" fill="none"/>
    </clipPath>
    <clipPath id="clip-path-3">
      <rect id="Rectángulo_33780" data-name="Rectángulo 33780" width="2.85" height="1.784" fill="none"/>
    </clipPath>
    <clipPath id="clip-path-4">
      <rect id="Rectángulo_33781" data-name="Rectángulo 33781" width="6.373" height="2.421" fill="none"/>
    </clipPath>
    <clipPath id="clip-path-5">
      <rect id="Rectángulo_33782" data-name="Rectángulo 33782" width="24.623" height="39.602" fill="none"/>
    </clipPath>
    <clipPath id="clip-path-6">
      <path id="Trazado_124669" data-name="Trazado 124669" d="M90.65,177.643a24.228,24.228,0,0,1,12.114,20.981v29.167a24.232,24.232,0,0,0,12.114,20.981,8.011,8.011,0,0,0,4.021,1.093,8.142,8.142,0,0,0,4.866-1.635,7.955,7.955,0,0,0,3.226-6.452L127,213.661a7.973,7.973,0,0,1,3.822-6.86,6.545,6.545,0,0,1,.567-.328L137.4,203l9.785-5.65s0-8.028,0-11.661v-12.7A24.248,24.248,0,0,0,135.07,152Z" transform="translate(-90.65 -151.996)" fill="none"/>
    </clipPath>
    <clipPath id="clip-path-7">
      <rect id="Rectángulo_33784" data-name="Rectángulo 33784" width="15.525" height="9.262" fill="none"/>
    </clipPath>
    <clipPath id="clip-path-8">
      <rect id="Rectángulo_33785" data-name="Rectángulo 33785" width="15.525" height="9.261" fill="none"/>
    </clipPath>
    <clipPath id="clip-path-10">
      <rect id="Rectángulo_33787" data-name="Rectángulo 33787" width="15.524" height="9.261" fill="none"/>
    </clipPath>
    <clipPath id="clip-path-14">
      <rect id="Rectángulo_33791" data-name="Rectángulo 33791" width="36.457" height="21.259" fill="none"/>
    </clipPath>
    <clipPath id="clip-path-15">
      <rect id="Rectángulo_33792" data-name="Rectángulo 33792" width="36.457" height="21.26" fill="none"/>
    </clipPath>
    <clipPath id="clip-path-18">
      <rect id="Rectángulo_33795" data-name="Rectángulo 33795" width="19.535" height="11.49" fill="none"/>
    </clipPath>
    <clipPath id="clip-path-19">
      <rect id="Rectángulo_33796" data-name="Rectángulo 33796" width="6.244" height="14.801" fill="none"/>
    </clipPath>
    <clipPath id="clip-path-20">
      <rect id="Rectángulo_33797" data-name="Rectángulo 33797" width="34.074" height="27.628" fill="none"/>
    </clipPath>
    <clipPath id="clip-path-21">
      <rect id="Rectángulo_33798" data-name="Rectángulo 33798" width="34.069" height="30.991" fill="#6e95ea"/>
    </clipPath>
    <clipPath id="clip-path-22">
      <rect id="Rectángulo_33799" data-name="Rectángulo 33799" width="36.359" height="20.969" fill="none"/>
    </clipPath>
    <clipPath id="clip-path-23">
      <rect id="Rectángulo_33800" data-name="Rectángulo 33800" width="1.217" height="1.459" fill="none"/>
    </clipPath>
    <clipPath id="clip-path-25">
      <rect id="Rectángulo_33802" data-name="Rectángulo 33802" width="1.218" height="1.459" fill="none"/>
    </clipPath>
    <clipPath id="clip-path-26">
      <rect id="Rectángulo_33803" data-name="Rectángulo 33803" width="1.806" height="20.366" fill="none"/>
    </clipPath>
    <clipPath id="clip-path-27">
      <rect id="Rectángulo_33804" data-name="Rectángulo 33804" width="38.591" height="22.492" fill="none"/>
    </clipPath>
    <clipPath id="clip-path-28">
      <rect id="Rectángulo_33805" data-name="Rectángulo 33805" width="38.597" height="22.496" fill="none"/>
    </clipPath>
    <clipPath id="clip-path-29">
      <rect id="Rectángulo_33806" data-name="Rectángulo 33806" width="38.602" height="22.498" fill="none"/>
    </clipPath>
    <clipPath id="clip-path-30">
      <rect id="Rectángulo_33807" data-name="Rectángulo 33807" width="38.607" height="22.501" fill="none"/>
    </clipPath>
    <clipPath id="clip-path-31">
      <rect id="Rectángulo_33851" data-name="Rectángulo 33851" width="226.415" height="219.582" fill="none"/>
    </clipPath>
    <clipPath id="clip-path-32">
      <rect id="Rectángulo_33808" data-name="Rectángulo 33808" width="36.629" height="21.354" fill="none"/>
    </clipPath>
    <clipPath id="clip-path-33">
      <rect id="Rectángulo_33809" data-name="Rectángulo 33809" width="36.684" height="21.385" fill="none"/>
    </clipPath>
    <clipPath id="clip-path-34">
      <rect id="Rectángulo_33810" data-name="Rectángulo 33810" width="4.982" height="17.185" fill="none"/>
    </clipPath>
    <clipPath id="clip-path-35">
      <rect id="Rectángulo_33814" data-name="Rectángulo 33814" width="34.367" height="20.942" fill="none"/>
    </clipPath>
    <clipPath id="clip-path-36">
      <rect id="Rectángulo_33816" data-name="Rectángulo 33816" width="6.278" height="3.643" fill="#477bec"/>
    </clipPath>
    <clipPath id="clip-path-37">
      <rect id="Rectángulo_33824" data-name="Rectángulo 33824" width="3.867" height="2.53" fill="none"/>
    </clipPath>
    <clipPath id="clip-path-38">
      <rect id="Rectángulo_33825" data-name="Rectángulo 33825" width="3.867" height="2.529" fill="none"/>
    </clipPath>
    <clipPath id="clip-path-41">
      <rect id="Rectángulo_33828" data-name="Rectángulo 33828" width="15.512" height="9.25" fill="none"/>
    </clipPath>
    <clipPath id="clip-path-47">
      <rect id="Rectángulo_33834" data-name="Rectángulo 33834" width="15.51" height="9.249" fill="none"/>
    </clipPath>
    <clipPath id="clip-path-48">
      <rect id="Rectángulo_33835" data-name="Rectángulo 33835" width="15.51" height="9.248" fill="none"/>
    </clipPath>
    <clipPath id="clip-path-49">
      <rect id="Rectángulo_33836" data-name="Rectángulo 33836" width="15.511" height="9.248" fill="none"/>
    </clipPath>
    <clipPath id="clip-path-50">
      <rect id="Rectángulo_33837" data-name="Rectángulo 33837" width="15.511" height="9.249" fill="none"/>
    </clipPath>
    <clipPath id="clip-path-53">
      <rect id="Rectángulo_33840" data-name="Rectángulo 33840" width="7.381" height="4.261" fill="none"/>
    </clipPath>
    <clipPath id="clip-path-54">
      <rect id="Rectángulo_33842" data-name="Rectángulo 33842" width="6.034" height="1.686" fill="#6e95ea"/>
    </clipPath>
    <clipPath id="clip-path-55">
      <rect id="Rectángulo_33843" data-name="Rectángulo 33843" width="7.135" height="5.794" fill="none"/>
    </clipPath>
    <clipPath id="clip-path-57">
      <rect id="Rectángulo_33846" data-name="Rectángulo 33846" width="11.643" height="3.029" fill="#6e95ea"/>
    </clipPath>
    <clipPath id="clip-path-59">
      <rect id="Rectángulo_33848" data-name="Rectángulo 33848" width="36.663" height="21.454" fill="none"/>
    </clipPath>
    <clipPath id="clip-path-61">
      <rect id="Rectángulo_33850" data-name="Rectángulo 33850" width="36.664" height="21.454" fill="none"/>
    </clipPath>
  </defs>
  <g id="Grupo_57128" data-name="Grupo 57128" transform="translate(-209 -1031)">
    <g id="Grupo_56998" data-name="Grupo 56998" transform="translate(218.11 1047.131)">
      <g id="Grupo_56315" data-name="Grupo 56315">
        <g id="Grupo_56314" data-name="Grupo 56314" clip-path="url(#clip-path)">
          <path id="Trazado_124572" data-name="Trazado 124572" d="M177.706,205.8c40.652,23.47,40.652,61.524,0,85s-106.563,23.471-147.216,0-40.652-61.525,0-85,106.563-23.471,147.216,0" transform="translate(0 -106.484)" fill="#f0f0f0"/>
          <path id="Trazado_124573" data-name="Trazado 124573" d="M344.957,302.287c-7.391,4.267-7.391,11.186,0,15.453s19.374,4.267,26.766,0,7.391-11.186,0-15.453-19.375-4.267-26.766,0" transform="translate(-192.047 -169.229)" fill="#e0e0e0"/>
          <path id="Trazado_124574" data-name="Trazado 124574" d="M104.757,312.885l84.656,48.878,38.8-22.4L143.54,290.474Z" transform="translate(-59.274 -164.356)" fill="#e0e0e0"/>
          <path id="Trazado_124575" data-name="Trazado 124575" d="M46.756,303.048l-17.52-10.116a.573.573,0,0,1,0-1.085l61.612-35.572a2.078,2.078,0,0,1,1.88,0l17.52,10.116a.573.573,0,0,1,0,1.085L48.636,303.048a2.078,2.078,0,0,1-1.88,0" transform="translate(-16.322 -144.878)" fill="#e0e0e0"/>
          <path id="Trazado_124576" data-name="Trazado 124576" d="M127.43,8.612l-52,30.019a4.194,4.194,0,0,0-1.889,3.277V159.183c0,1.2.848,1.7,1.889,1.091l52-30.019a4.194,4.194,0,0,0,1.889-3.277V9.7c0-1.2-.848-1.7-1.889-1.091M126.6,116.171a2.617,2.617,0,0,1-1.621,2.2l-47.282,27.3c-.893.516-1.621.1-1.621-.937V52.871a3.6,3.6,0,0,1,1.621-2.811l47.282-27.293c.9-.521,1.621-.1,1.621.932Z" transform="translate(-41.61 -4.726)" fill="#37474f"/>
          <path id="Trazado_124577" data-name="Trazado 124577" d="M67.432,197.215a4.229,4.229,0,0,1-3.549-.117l-2.163-1.25a4.169,4.169,0,0,1-1.9-3.277V75.3a3.576,3.576,0,0,1,.328-1.414,4.545,4.545,0,0,1,.225-.454s0,0,0,0l5.951,3.437h0a5.212,5.212,0,0,0-.328.693,3.443,3.443,0,0,0-.23,1.171V196.007c0,1.11.721,1.615,1.653,1.208" transform="translate(-33.85 -41.549)" fill="#263238"/>
          <path id="Trazado_124578" data-name="Trazado 124578" d="M134.92,299.418c1.649-.952,2.985-.18,2.985,1.724a6.6,6.6,0,0,1-2.985,5.171c-1.649.952-2.985.18-2.985-1.724a6.6,6.6,0,0,1,2.985-5.171" transform="translate(-74.651 -169.186)" fill="#27debf"/>
          <path id="Trazado_124579" data-name="Trazado 124579" d="M136.123,49.119c.7-.4,1.268-.076,1.268.732a2.8,2.8,0,0,1-1.268,2.2c-.7.4-1.268.076-1.268-.732a2.8,2.8,0,0,1,1.268-2.2" transform="translate(-76.304 -27.695)"/>
          <path id="Trazado_124580" data-name="Trazado 124580" d="M125.125,59.541l9.788-5.651c.584-.337,1.057-.1,1.057.535a2.265,2.265,0,0,1-1.057,1.756l-9.789,5.651c-.584.337-1.057.1-1.057-.535a2.269,2.269,0,0,1,1.058-1.756" transform="translate(-70.2 -30.405)"/>
          <path id="Trazado_124581" data-name="Trazado 124581" d="M129.9,134.441a2.617,2.617,0,0,1-1.621,2.2L81,163.942c-.893.515-1.621.1-1.621-.937V71.14A3.6,3.6,0,0,1,81,68.329l47.282-27.293c.9-.521,1.621-.1,1.621.932Z" transform="translate(-44.911 -23.093)" fill="#a6bae6"/>
          <path id="Trazado_124582" data-name="Trazado 124582" d="M129.9,134.441a2.617,2.617,0,0,1-1.621,2.2L81,163.942c-.893.515-1.621.1-1.621-.937V71.14A3.6,3.6,0,0,1,81,68.329l47.282-27.293c.9-.521,1.621-.1,1.621.932Z" transform="translate(-44.911 -23.093)" fill="none" stroke="#fff" stroke-miterlimit="10" stroke-width="1"/>
          <path id="Trazado_124583" data-name="Trazado 124583" d="M122.267,4.676c-.136-.983-.922-1.339-1.868-.791L68.393,33.905a3.853,3.853,0,0,0-1.334,1.414l-5.95-3.437a3.839,3.839,0,0,1,1.339-1.4l52-30.025a4.176,4.176,0,0,1,3.783,0L120.4,1.7a4.24,4.24,0,0,1,1.868,2.978" transform="translate(-34.576 0)" fill="#455a64"/>
          <path id="Trazado_124584" data-name="Trazado 124584" d="M107.355,138.635a3.188,3.188,0,0,1,1.484-.485,1.745,1.745,0,0,1,1.16.373,2.535,2.535,0,0,1,.765,1.163,6.137,6.137,0,0,1,.312,1.859q.012.374.012.691v1.206q0,.308-.012.677a10.444,10.444,0,0,1-.306,2.225,9.776,9.776,0,0,1-.747,2.027,8.084,8.084,0,0,1-1.137,1.7,5.822,5.822,0,0,1-1.472,1.221l-3.179,1.836a.171.171,0,0,1-.224-.016.388.388,0,0,1-.094-.29V141.11a.93.93,0,0,1,.094-.4.593.593,0,0,1,.224-.274Zm1.542,4.1q-.07-2.044-1.6-1.16l-1.2.693v6.888l1.26-.727a3.26,3.26,0,0,0,1.542-2.975q.012-.388.012-.723v-1.3q0-.327-.012-.7" transform="translate(-58.798 -78.168)" fill="#fff"/>
          <path id="Trazado_124585" data-name="Trazado 124585" d="M126.487,126.919q.235-.135.359-.008a.7.7,0,0,1,.171.3l2.566,9.938a.888.888,0,0,1,.047.245.756.756,0,0,1-.076.325.481.481,0,0,1-.182.223l-1.484.857q-.236.136-.336.04a.409.409,0,0,1-.123-.228l-.33-1.314-3.132,1.808-.33,1.695a1.344,1.344,0,0,1-.124.371.794.794,0,0,1-.336.348l-1.483.856a.139.139,0,0,1-.183-.012.316.316,0,0,1-.076-.237,1.566,1.566,0,0,1,.047-.3l2.567-12.9a2.377,2.377,0,0,1,.171-.5.874.874,0,0,1,.359-.407Zm-1.908,9.023,1.908-1.1-.954-3.8Z" transform="translate(-68.711 -71.774)" fill="#fff"/>
          <path id="Trazado_124586" data-name="Trazado 124586" d="M145.894,114.565a.172.172,0,0,1,.224.016.391.391,0,0,1,.094.29v1.922a.936.936,0,0,1-.094.4.607.607,0,0,1-.224.274l-2.072,1.2v9.3a.93.93,0,0,1-.095.4.6.6,0,0,1-.224.274l-1.543.891a.17.17,0,0,1-.224-.016.386.386,0,0,1-.094-.29v-9.3l-2.073,1.2a.172.172,0,0,1-.224-.016.385.385,0,0,1-.094-.29v-1.922a.919.919,0,0,1,.094-.4.6.6,0,0,1,.224-.274Z" transform="translate(-78.792 -64.804)" fill="#fff"/>
          <path id="Trazado_124587" data-name="Trazado 124587" d="M159.274,107.989q.235-.135.359-.008a.7.7,0,0,1,.171.3l2.566,9.938a.891.891,0,0,1,.047.245.75.75,0,0,1-.076.325.481.481,0,0,1-.182.223l-1.484.857q-.236.136-.336.04a.411.411,0,0,1-.124-.228l-.33-1.314-3.132,1.808-.33,1.695a1.346,1.346,0,0,1-.124.371.794.794,0,0,1-.336.348l-1.484.856a.139.139,0,0,1-.182-.012.316.316,0,0,1-.076-.237,1.569,1.569,0,0,1,.047-.3l2.567-12.9a2.377,2.377,0,0,1,.171-.5.873.873,0,0,1,.359-.407Zm-1.908,9.023,1.908-1.1-.954-3.8Z" transform="translate(-87.262 -61.063)" fill="#fff"/>
          <path id="Trazado_124588" data-name="Trazado 124588" d="M359.744,111.738c-2.758.129-3.7.655-5.146,2.355-1.409,1.66-8.211,14.265-8.211,14.265s1.276,3.578,4.069,3.273l5.222-8.42Z" transform="translate(-195.992 -63.224)" fill="#ffa8a7"/>
          <path id="Trazado_124589" data-name="Trazado 124589" d="M365.124,111.665a8.659,8.659,0,0,0-3.393.253c-1.413.511-2.118,1.534-3.092,3.019-.753,1.149-3.39,5.922-3.39,5.922s1.284,3.572,4.937,3.572Z" transform="translate(-201.007 -63.145)" fill="#a6bae6"/>
          <path id="Trazado_124590" data-name="Trazado 124590" d="M391.136,317.409v-.6c-.236.7-1.329,3.718-2.988,5.231-1.318,1.2-3.116,2.591-3.573,3.931-.476,1.394,2.5,1.863,3.733,1.645a7.6,7.6,0,0,0,4.29-2.3c.709-.871,1.159-1.9,1.666-2.587s1.672-1.449,1.946-2.241a5.055,5.055,0,0,0-.239-2.194c-.194-.739-.4-1.551-.656-1.482,0,.09,0,.455,0,.455a3.307,3.307,0,0,1-2.09.706c-.611.024-2.095-.1-2.089-.564" transform="translate(-217.572 -179.256)" fill="#263238"/>
          <path id="Trazado_124591" data-name="Trazado 124591" d="M389.532,318.642c.409-.365.82-.721,1.194-1.062a12.129,12.129,0,0,0,2.548-4.072,5.73,5.73,0,0,0,.438-2.2v-2.382h4.179V312.8h0v.1l-.021.011c-.2.868-2.119,3.178-3.208,4.684a6.066,6.066,0,0,1-3.776,2.516c-1.571.21-2.375-.286-1.353-1.478" transform="translate(-220.147 -174.798)" fill="#ffa8a7"/>
          <path id="Trazado_124592" data-name="Trazado 124592" d="M357.163,307.921v-.6c-.236.7-1.329,3.718-2.987,5.231-1.318,1.2-3.116,2.591-3.573,3.931-.476,1.394,2.5,1.863,3.733,1.645a7.6,7.6,0,0,0,4.29-2.3c.709-.871,1.16-1.9,1.666-2.587s1.672-1.449,1.946-2.241a5.052,5.052,0,0,0-.239-2.193c-.194-.739-.4-1.551-.656-1.482,0,.09,0,.455,0,.455a3.3,3.3,0,0,1-2.089.706c-.611.023-2.095-.1-2.09-.564" transform="translate(-198.349 -173.887)" fill="#263238"/>
          <path id="Trazado_124593" data-name="Trazado 124593" d="M355.558,309.153c.409-.365.82-.721,1.193-1.062a12.122,12.122,0,0,0,2.549-4.072,5.729,5.729,0,0,0,.439-2.2v-2.382h4.179v3.877h0v.1l-.021.011c-.2.868-2.119,3.178-3.209,4.684a6.064,6.064,0,0,1-3.776,2.516c-1.571.21-2.375-.286-1.353-1.478" transform="translate(-200.924 -169.428)" fill="#ffa8a7"/>
          <path id="Trazado_124594" data-name="Trazado 124594" d="M381.59,167.264c3.24,7.076-.117,32-.117,32,.1,1.148,1.41,3.408,1.9,8.461.578,5.972-.907,20.965-.907,20.965a4.522,4.522,0,0,1-4.223.168s-3.983-22.582-4.731-28.519c-.654-5.182-1.908-16.574-1.908-16.574l-2.016,16.547a30.785,30.785,0,0,1,1.129,5.114c.338,3.493-3.045,19.752-3.045,19.752a9.287,9.287,0,0,1-4.179.125s-1.2-21.577-1.512-25.784c-.53-7.065-.2-29.11,1.093-33.292Z" transform="translate(-204.678 -94.055)" fill="#455a64"/>
          <path id="Trazado_124595" data-name="Trazado 124595" d="M374.661,194.385l-1.052-6.572s-4.449-.922-6.468-2.819a11.511,11.511,0,0,0,5.262,3.5l1.181,5.06-.8,16.278Z" transform="translate(-207.736 -104.673)" fill="#37474f"/>
          <path id="Trazado_124596" data-name="Trazado 124596" d="M376.951,111.85h0c1.232.085,1.643.055,2.537.146,1.786.184,2.216,2.8,2.947,4.339a7.109,7.109,0,0,1,.2,5.353l-2.894,8.373s1.355,3.276,2.929,6.371c-7.263,4.054-16.333,1.923-18.517-1.035-.093-.628.469-5.533.815-8.738-1.279-3.209-1.617-5.243-1.077-7.365,1-3.938,4.591-7.56,5.619-7.556Z" transform="translate(-205.754 -63.224)" fill="#a6bae6"/>
          <path id="Trazado_124597" data-name="Trazado 124597" d="M383.03,69.02l-1.5-.131a1.16,1.16,0,0,0,.447-.449,1.284,1.284,0,0,0-.482-1.708l-.97,1.76a8.759,8.759,0,0,0-8.038-4.347l-.775.041a8.766,8.766,0,0,0-8.288,9.22c.266,4.995.56,10.582.56,10.582l9.02-.48a9.277,9.277,0,0,0,8.77-9.757l-.067-1.318a8.745,8.745,0,0,0-.478-2.409,1.171,1.171,0,0,0,.437.128,1.284,1.284,0,0,0,1.366-1.132" transform="translate(-205.623 -36.288)" fill="#455a64"/>
          <path id="Trazado_124598" data-name="Trazado 124598" d="M367.125,81.542a17.62,17.62,0,0,0,.074,2.873c.344,4.494,1.861,5.528,2.611,5.81a7.753,7.753,0,0,0,3.512-.29v2.658s-1.636,2.348-1.451,3.581,2.822,1.385,4.534.081a7.955,7.955,0,0,0,2.406-3.523V86.518a1.727,1.727,0,0,0,2.456.1,3.237,3.237,0,0,0,.458-4.431c-.929-.848-2.849-.488-3.138.767,0,0-3.167-.265-3.569-5.481-2.943,3.837-7.705,1.069-7.892,4.068" transform="translate(-207.709 -43.836)" fill="#ffa8a7"/>
          <path id="Trazado_124599" data-name="Trazado 124599" d="M391.422,87.089l.118,2.227a1.517,1.517,0,0,1-1.6-1.435l-.132-2.485Z" transform="translate(-220.563 -48.319)" fill="#455a64"/>
          <path id="Trazado_124600" data-name="Trazado 124600" d="M380.135,89.149a.567.567,0,1,0,.565-.592.576.576,0,0,0-.565.592" transform="translate(-215.088 -50.107)" fill="#263238"/>
          <path id="Trazado_124601" data-name="Trazado 124601" d="M378.073,99.1l-1.515.574a.8.8,0,0,0,1.032.5.85.85,0,0,0,.483-1.074" transform="translate(-213.064 -56.076)" fill="#f28f8f"/>
          <path id="Trazado_124602" data-name="Trazado 124602" d="M381.562,83.441l1.328.429a.67.67,0,0,0-.423-.875.733.733,0,0,0-.9.447" transform="translate(-215.895 -46.94)" fill="#455a64"/>
          <path id="Trazado_124603" data-name="Trazado 124603" d="M368.932,89.713a.567.567,0,1,0,.565-.592.576.576,0,0,0-.565.592" transform="translate(-208.749 -50.426)" fill="#263238"/>
          <path id="Trazado_124604" data-name="Trazado 124604" d="M374.29,89.379l.092,3.411-1.823-.46Z" transform="translate(-210.801 -50.572)" fill="#f28f8f"/>
          <path id="Trazado_124605" data-name="Trazado 124605" d="M381.44,102.936c1.437-.267,4.369-1.281,4.77-2.482a3.051,3.051,0,0,1-.964,1.557,15.8,15.8,0,0,1-3.807,1.826Z" transform="translate(-215.826 -56.839)" fill="#f28f8f"/>
          <path id="Trazado_124606" data-name="Trazado 124606" d="M379.665,143.8c2.386-.565,2.839-1.464,2.209-3.833a1.85,1.85,0,0,0-.074-.228c-.467-1.123-2.331-.455-2.331-.455s.763-.951,1.619-2.162a10.23,10.23,0,0,0,1.354-4.623l.344-4.222a2.667,2.667,0,0,0,1.132-3.143l2.866-1.761.539.375a7.283,7.283,0,0,1-.119,4.523l-2.895,8.373a47.333,47.333,0,0,1,2.929,6.371,18.776,18.776,0,0,1-15.52,1.028,21.167,21.167,0,0,0,7.948-.243" transform="translate(-210.325 -69.807)" fill="#a6bae6"/>
          <path id="Trazado_124607" data-name="Trazado 124607" d="M378.092,86.762l-3.281.175a1.834,1.834,0,0,0-1.867-1.358l-.282.015a1.833,1.833,0,0,0-1.629,1.223,1.577,1.577,0,0,0-1.092-.408,1.349,1.349,0,0,0-.929.332,1.825,1.825,0,0,0-1.644-.865l-.283.015a1.832,1.832,0,0,0,.195,3.658l.282-.015a1.833,1.833,0,0,0,1.732-1.926,1.81,1.81,0,0,0-.134-.575,1.011,1.011,0,0,1,.781-.315,1.207,1.207,0,0,1,.992.441l.015-.01a1.833,1.833,0,0,0,1.908,2.1l.283-.015a1.833,1.833,0,0,0,1.732-1.926c0-.023-.008-.044-.01-.067l2.935-.156a1.567,1.567,0,0,1,.3-.325m-10.546,2.463-.283.015A1.523,1.523,0,0,1,367.1,86.2l.283-.015a1.523,1.523,0,1,1,.162,3.041m5.577-.3-.283.015a1.523,1.523,0,0,1-.162-3.041l.283-.015a1.523,1.523,0,1,1,.162,3.041" transform="translate(-206.723 -48.421)" fill="#263238"/>
          <path id="Trazado_124608" data-name="Trazado 124608" d="M332.533,143.882l14.669,3.864,4.037,16.6-13.946-4.05Z" transform="translate(-188.154 -81.411)" fill="#6e9bfe"/>
          <g id="Grupo_56304" data-name="Grupo 56304" transform="translate(154.263 76.179)" opacity="0.2">
            <g id="Grupo_56303" data-name="Grupo 56303">
              <g id="Grupo_56302" data-name="Grupo 56302" clip-path="url(#clip-path-2)">
                <path id="Trazado_124610" data-name="Trazado 124610" d="M355.3,175.454c.093.9.722,1.937,2.556,2.813s5.4.386,5.4.386l-.5-2.042Z" transform="translate(-355.298 -175.454)"/>
              </g>
            </g>
          </g>
          <g id="Grupo_56307" data-name="Grupo 56307" transform="translate(148.158 74.224)" opacity="0.2">
            <g id="Grupo_56306" data-name="Grupo 56306">
              <g id="Grupo_56305" data-name="Grupo 56305" clip-path="url(#clip-path-3)">
                <path id="Trazado_124611" data-name="Trazado 124611" d="M344.086,170.951a2.977,2.977,0,0,1-2.7,1.784l-.149-.512Z" transform="translate(-341.236 -170.951)"/>
              </g>
            </g>
          </g>
          <g id="Grupo_56310" data-name="Grupo 56310" transform="translate(148.674 64.306)" opacity="0.1">
            <g id="Grupo_56309" data-name="Grupo 56309">
              <g id="Grupo_56308" data-name="Grupo 56308" clip-path="url(#clip-path-4)">
                <path id="Trazado_124612" data-name="Trazado 124612" d="M342.548,148.91l-.121-.56c-.066-.309.794-.322,1.923-.03l2.161.561c1.128.293,2.1.781,2.164,1.09l.121.559Z" transform="translate(-342.424 -148.11)"/>
              </g>
            </g>
          </g>
          <path id="Trazado_124613" data-name="Trazado 124613" d="M340.111,144.128c-.043-.193.306-.244.779-.113l.856.237s-.255-1.21,1.644-.787a2.976,2.976,0,0,1,2.314,1.8l.914.26c.5.143.962.416,1.022.608l.108.348-7.557-1.99s-.038-.165-.08-.359" transform="translate(-192.44 -81.124)" fill="#37474f"/>
          <path id="Trazado_124614" data-name="Trazado 124614" d="M342.226,146.182c.692.167.98.259,1.084.735.118.544.166.943.166.943l3.344.884s-.162-.689-.214-.957.063-.43.594-.29l.045-.213-5.241-1.334Z" transform="translate(-193.514 -82.581)" fill="#37474f"/>
          <path id="Trazado_124615" data-name="Trazado 124615" d="M342.085,149.031l-.121-.559c-.067-.309.794-.322,1.923-.03l2.161.561c1.128.292,2.1.781,2.164,1.089l.121.56Z" transform="translate(-193.488 -83.872)" fill="#37474f"/>
          <path id="Trazado_124616" data-name="Trazado 124616" d="M334.674,155.727s.548,1.876.673,2.324,1.769,1.251,2.847,1.547,2.258.647,1.748,2.155c-.47,1.39-2.244,1.707-3.148,1.668a3.339,3.339,0,0,1-2.627-2.295c-.621-1.775-.287-3.671-.534-4.709s.5-1.31,1.041-.691" transform="translate(-188.749 -87.928)" fill="#ffa8a7"/>
          <path id="Trazado_124617" data-name="Trazado 124617" d="M374.02,112.262c1.9.121,3.869,1.151,4.167,3.435s2.148,14.311,1.422,15.664c-1.678,3.131-12.751,9.084-13.851,9.594a12.4,12.4,0,0,1-5.109,1.37c-1.726.019-4.024-.037-5.185-1.6-1.031-1.385-1.613-3.941.716-3.5a25.265,25.265,0,0,0,5.337.234l-.271-1.115a5.322,5.322,0,0,1,1.777.29c1.162.346,2.218-.653,4.269-1.92a71.05,71.05,0,0,0,6.673-5.091l-1.642-10.041s-.054-4.34,1.7-7.32" transform="translate(-200.618 -63.52)" fill="#ffa8a7"/>
          <path id="Trazado_124618" data-name="Trazado 124618" d="M396.045,112.178a4.049,4.049,0,0,1,2.136.191c1.118.426,2.11.993,2.574,3.244s1.382,10.482,1.382,10.482a8.437,8.437,0,0,1-6.4.924l-1.425-7.469s-1.11-5.228,1.735-7.373" transform="translate(-222.988 -63.436)" fill="#a6bae6"/>
          <path id="Trazado_124619" data-name="Trazado 124619" d="M86.372,168.918l46.416-26.8v6.432l-46.416,26.8Z" transform="translate(-48.871 -80.414)" fill="#455a64"/>
          <path id="Trazado_124620" data-name="Trazado 124620" d="M90.65,174.182v2.143l42.7-24.654v-2.144Z" transform="translate(-51.292 -84.605)" fill="#263238"/>
          <path id="Trazado_124621" data-name="Trazado 124621" d="M83.953,167.521,82.1,166.449l46.417-26.8,1.856,1.072Z" transform="translate(-46.452 -79.017)" fill="#37474f"/>
          <path id="Trazado_124622" data-name="Trazado 124622" d="M82.1,201.372l1.857,1.072v6.432L82.1,207.8Z" transform="translate(-46.452 -113.94)" fill="#263238"/>
          <path id="Trazado_124623" data-name="Trazado 124623" d="M341.028,395.079l-40.85,23.569V417.6l40.846-23.569Z" transform="translate(-169.846 -222.951)" fill="#37474f"/>
          <path id="Trazado_124624" data-name="Trazado 124624" d="M142.635,193.7l-9,5.195-5.531,3.19a6,6,0,0,0-.521.3,7.331,7.331,0,0,0-3.515,6.308l0,25.855a7.317,7.317,0,0,1-2.966,5.933,7.49,7.49,0,0,1-4.475,1.5,7.366,7.366,0,0,1-3.7-1.006,22.281,22.281,0,0,1-11.138-19.293v-26.82A22.278,22.278,0,0,0,90.65,175.579L131.5,152a22.3,22.3,0,0,1,11.144,19.3v11.683c0,3.341,0,10.723,0,10.723" transform="translate(-51.292 -86.002)" fill="#f5f5f5"/>
          <path id="Trazado_124625" data-name="Trazado 124625" d="M157.489,297.448a22.269,22.269,0,0,1-11.139-19.288l0-25.872a22.222,22.222,0,0,0-1.751-8.652,22.823,22.823,0,0,0-1.234-2.486,22.272,22.272,0,0,0-8.154-8.15h0a7.425,7.425,0,0,0-11.135,6.436l0,2.635-.006-2.64,0,25.856v-.01a7.432,7.432,0,0,1-11.14,6.441,22.28,22.28,0,0,1-11.138-19.293V225.6a22.279,22.279,0,0,0-11.139-19.293v1.069A21.415,21.415,0,0,1,100.874,225.6v26.82a23.256,23.256,0,0,0,11.6,20.084,8.254,8.254,0,0,0,8.341,0c.16-.092.316-.188.471-.293l.013-.009a8.247,8.247,0,0,0,3.684-6.92l0-25.856a6.511,6.511,0,0,1,9.767-5.64,21.407,21.407,0,0,1,10.682,18.5v6l0,19.869a23.262,23.262,0,0,0,11.6,20.084l24.59,14.189v-1.047Z" transform="translate(-51.291 -116.735)" fill="#455a64"/>
          <path id="Trazado_124626" data-name="Trazado 124626" d="M271.282,290.564l-40.846,23.569L206.3,300.2a22.268,22.268,0,0,1-11.138-19.288l0-25.871a22.221,22.221,0,0,0-1.751-8.652,22.917,22.917,0,0,0-1.234-2.487,22.275,22.275,0,0,0-8.154-8.15,7.341,7.341,0,0,0-7.1-.178l5.531-3.19,11.127-6.425L217.4,212.206l.059-.037a7.347,7.347,0,0,1,7.414,0,22.276,22.276,0,0,1,11.139,19.293l0,25.867a22.282,22.282,0,0,0,11.139,19.293Z" transform="translate(-100.105 -119.483)" fill="#fafafa"/>
          <path id="Trazado_124627" data-name="Trazado 124627" d="M184.741,286.946a21.407,21.407,0,0,0-10.682-18.5,6.511,6.511,0,0,0-9.768,5.64l0,25.855a8.248,8.248,0,0,1-3.684,6.92l-.014.009c-.155.105-.311.2-.471.293l24.623-14.217Z" transform="translate(-90.598 -151.393)" fill="#e0e0e0"/>
          <g id="Grupo_56313" data-name="Grupo 56313" transform="translate(69.521 116.171)" opacity="0.15">
            <g id="Grupo_56312" data-name="Grupo 56312">
              <g id="Grupo_56311" data-name="Grupo 56311" clip-path="url(#clip-path-5)">
                <path id="Trazado_124628" data-name="Trazado 124628" d="M184.741,286.946a21.407,21.407,0,0,0-10.682-18.5,6.511,6.511,0,0,0-9.768,5.64l0,25.855a8.248,8.248,0,0,1-3.684,6.92l-.014.009c-.155.105-.311.2-.471.293l24.623-14.217Z" transform="translate(-160.119 -267.564)"/>
              </g>
            </g>
          </g>
        </g>
      </g>
    </g>
    <g id="Grupo_56389" data-name="Grupo 56389" transform="translate(251.803 1102.769)">
      <g id="Grupo_56388" data-name="Grupo 56388" clip-path="url(#clip-path-6)">
        <path id="Trazado_124629" data-name="Trazado 124629" d="M106.675,182.672a3.459,3.459,0,0,0,3.772.284l31.7-18.3c1.189-.686,1.47-1.97.54-2.772a3.671,3.671,0,0,0-3.9-.129l-31.713,18.31c-1.189.686-1.329,1.809-.394,2.608" transform="translate(-98.785 -156.886)" fill="#6e95ea"/>
        <g id="Grupo_56318" data-name="Grupo 56318" transform="translate(33.093 9.603)" opacity="0.4">
          <g id="Grupo_56317" data-name="Grupo 56317">
            <g id="Grupo_56316" data-name="Grupo 56316" clip-path="url(#clip-path-7)">
              <path id="Trazado_124630" data-name="Trazado 124630" d="M161.089,181.6a.352.352,0,0,1-.177-.657l14.82-8.557a.352.352,0,1,1,.352.61l-14.82,8.557a.35.35,0,0,1-.176.048" transform="translate(-160.736 -172.333)"/>
            </g>
          </g>
        </g>
        <g id="Grupo_56321" data-name="Grupo 56321" transform="translate(34.237 11.511)" opacity="0.4">
          <g id="Grupo_56320" data-name="Grupo 56320">
            <g id="Grupo_56319" data-name="Grupo 56319" clip-path="url(#clip-path-8)">
              <path id="Trazado_124631" data-name="Trazado 124631" d="M163.511,185.636a.352.352,0,0,1-.177-.657l14.82-8.556a.352.352,0,1,1,.352.61l-14.82,8.556a.35.35,0,0,1-.176.048" transform="translate(-163.158 -176.375)"/>
            </g>
          </g>
        </g>
        <g id="Grupo_56324" data-name="Grupo 56324" transform="translate(35.198 13.499)" opacity="0.4">
          <g id="Grupo_56323" data-name="Grupo 56323">
            <g id="Grupo_56322" data-name="Grupo 56322" clip-path="url(#clip-path-8)">
              <path id="Trazado_124632" data-name="Trazado 124632" d="M165.546,189.845a.352.352,0,0,1-.177-.657l14.82-8.557a.352.352,0,1,1,.352.61l-14.82,8.557a.35.35,0,0,1-.176.048" transform="translate(-165.193 -180.584)"/>
            </g>
          </g>
        </g>
        <g id="Grupo_56327" data-name="Grupo 56327" transform="translate(35.97 15.565)" opacity="0.4">
          <g id="Grupo_56326" data-name="Grupo 56326">
            <g id="Grupo_56325" data-name="Grupo 56325" clip-path="url(#clip-path-10)">
              <path id="Trazado_124633" data-name="Trazado 124633" d="M167.181,194.222a.352.352,0,0,1-.177-.657l14.82-8.556a.352.352,0,1,1,.352.61l-14.82,8.556a.349.349,0,0,1-.176.048" transform="translate(-166.828 -184.961)"/>
            </g>
          </g>
        </g>
        <g id="Grupo_56330" data-name="Grupo 56330" transform="translate(36.533 17.591)" opacity="0.4">
          <g id="Grupo_56329" data-name="Grupo 56329">
            <g id="Grupo_56328" data-name="Grupo 56328" clip-path="url(#clip-path-8)">
              <path id="Trazado_124634" data-name="Trazado 124634" d="M168.375,198.513a.352.352,0,0,1-.177-.657l14.82-8.556a.352.352,0,0,1,.353.61l-14.82,8.556a.348.348,0,0,1-.175.048" transform="translate(-168.022 -189.251)"/>
            </g>
          </g>
        </g>
        <g id="Grupo_56333" data-name="Grupo 56333" transform="translate(36.914 19.768)" opacity="0.4">
          <g id="Grupo_56332" data-name="Grupo 56332">
            <g id="Grupo_56331" data-name="Grupo 56331" clip-path="url(#clip-path-8)">
              <path id="Trazado_124635" data-name="Trazado 124635" d="M169.183,203.122a.352.352,0,0,1-.177-.657l14.82-8.557a.352.352,0,1,1,.352.61l-14.82,8.557a.35.35,0,0,1-.176.048" transform="translate(-168.829 -193.861)"/>
            </g>
          </g>
        </g>
        <g id="Grupo_56336" data-name="Grupo 56336" transform="translate(37.122 22.091)" opacity="0.4">
          <g id="Grupo_56335" data-name="Grupo 56335">
            <g id="Grupo_56334" data-name="Grupo 56334" clip-path="url(#clip-path-8)">
              <path id="Trazado_124636" data-name="Trazado 124636" d="M169.621,208.044a.352.352,0,0,1-.177-.657l14.821-8.556a.352.352,0,1,1,.352.61L169.8,208a.347.347,0,0,1-.175.048" transform="translate(-169.268 -198.782)"/>
            </g>
          </g>
        </g>
        <g id="Grupo_56339" data-name="Grupo 56339" transform="translate(16.096 26.66)" opacity="0.4">
          <g id="Grupo_56338" data-name="Grupo 56338">
            <g id="Grupo_56337" data-name="Grupo 56337" clip-path="url(#clip-path-14)">
              <path id="Trazado_124637" data-name="Trazado 124637" d="M124.987,229.717a.249.249,0,0,1-.124-.464l35.96-20.762a.248.248,0,1,1,.248.43l-35.96,20.762a.248.248,0,0,1-.124.034" transform="translate(-124.738 -208.457)"/>
            </g>
          </g>
        </g>
        <g id="Grupo_56342" data-name="Grupo 56342" transform="translate(16.096 28.879)" opacity="0.4">
          <g id="Grupo_56341" data-name="Grupo 56341">
            <g id="Grupo_56340" data-name="Grupo 56340" clip-path="url(#clip-path-15)">
              <path id="Trazado_124638" data-name="Trazado 124638" d="M124.987,234.417a.249.249,0,0,1-.124-.464l35.96-20.763a.248.248,0,0,1,.248.43l-35.96,20.763a.248.248,0,0,1-.124.034" transform="translate(-124.738 -213.157)"/>
            </g>
          </g>
        </g>
        <g id="Grupo_56345" data-name="Grupo 56345" transform="translate(16.096 31.099)" opacity="0.4">
          <g id="Grupo_56344" data-name="Grupo 56344">
            <g id="Grupo_56343" data-name="Grupo 56343" clip-path="url(#clip-path-14)">
              <path id="Trazado_124639" data-name="Trazado 124639" d="M124.987,239.118a.249.249,0,0,1-.124-.464l35.96-20.762a.248.248,0,1,1,.248.43l-35.96,20.762a.247.247,0,0,1-.124.034" transform="translate(-124.738 -217.858)"/>
            </g>
          </g>
        </g>
        <g id="Grupo_56348" data-name="Grupo 56348" transform="translate(16.096 33.319)" opacity="0.4">
          <g id="Grupo_56347" data-name="Grupo 56347">
            <g id="Grupo_56346" data-name="Grupo 56346" clip-path="url(#clip-path-14)">
              <path id="Trazado_124640" data-name="Trazado 124640" d="M124.987,243.819a.249.249,0,0,1-.124-.464l35.96-20.762a.248.248,0,0,1,.248.43l-35.96,20.762a.248.248,0,0,1-.124.034" transform="translate(-124.738 -222.56)"/>
            </g>
          </g>
        </g>
        <g id="Grupo_56351" data-name="Grupo 56351" transform="translate(16.096 33.202)" opacity="0.4">
          <g id="Grupo_56350" data-name="Grupo 56350">
            <g id="Grupo_56349" data-name="Grupo 56349" clip-path="url(#clip-path-18)">
              <path id="Trazado_124641" data-name="Trazado 124641" d="M124.987,233.8a.249.249,0,0,1-.124-.464L143.9,222.346a.248.248,0,0,1,.248.43l-19.038,10.992a.248.248,0,0,1-.124.034" transform="translate(-124.738 -222.313)"/>
            </g>
          </g>
        </g>
        <path id="Trazado_124642" data-name="Trazado 124642" d="M124.051,217.924a23.7,23.7,0,0,1,2.588,9.423.359.359,0,0,0,.583.309l1.059-.611a1.085,1.085,0,0,0,.5-.931,25.256,25.256,0,0,0-.891-5.068,27.386,27.386,0,0,0-1.7-4.353.6.6,0,0,0-.837-.234l-1.041.6a.663.663,0,0,0-.255.864" transform="translate(-108.243 -185.977)" fill="#6e95ea"/>
        <path id="Trazado_124643" data-name="Trazado 124643" d="M130.668,208.687a25,25,0,0,1,2.548,5.431,23.444,23.444,0,0,1,1.137,5.943.355.355,0,0,0,.577.31l1.059-.611a1.093,1.093,0,0,0,.5-.932,25.4,25.4,0,0,0-1.157-5.932,24.4,24.4,0,0,0-2.53-5.4.672.672,0,0,0-.882-.218l-1.053.586a.566.566,0,0,0-.2.818" transform="translate(-111.721 -181.134)" fill="#6e95ea"/>
        <path id="Trazado_124644" data-name="Trazado 124644" d="M146.891,214.661l-1.04.6a.807.807,0,0,0-.346.9,24.244,24.244,0,0,1,.945,5.353.355.355,0,0,0,.577.309l1.058-.611a1.092,1.092,0,0,0,.5-.932,25.277,25.277,0,0,0-.975-5.338.472.472,0,0,0-.721-.284" transform="translate(-119.587 -185.032)" fill="#6e95ea"/>
        <path id="Trazado_124645" data-name="Trazado 124645" d="M155.006,205.418a.532.532,0,0,0-.777-.267l-1.048.6a.727.727,0,0,0-.3.882q.285.713.548,1.481a23.46,23.46,0,0,1,1.137,5.943.355.355,0,0,0,.577.31l1.058-.611a1.092,1.092,0,0,0,.5-.931,25.392,25.392,0,0,0-1.157-5.932q-.25-.754-.536-1.47" transform="translate(-123.47 -180.011)" fill="#6e95ea"/>
        <g id="Grupo_56354" data-name="Grupo 56354" transform="translate(10.855 28.805)" opacity="0.4">
          <g id="Grupo_56353" data-name="Grupo 56353">
            <g id="Grupo_56352" data-name="Grupo 56352" clip-path="url(#clip-path-19)">
              <path id="Trazado_124646" data-name="Trazado 124646" d="M119.859,224.623a.175.175,0,0,0-.24-.065l-.443.256c-.1-.611-.211-1.216-.35-1.811l.6-.346a.176.176,0,1,0-.176-.3l-.513.3c-.15-.6-.316-1.192-.508-1.773l.57-.329a.176.176,0,0,0-.176-.3l-.513.3c-.2-.566-.408-1.126-.645-1.673l-.02-.045.565-.326a.176.176,0,0,0-.176-.305l-.533.308q-.37-.83-.817-1.65l.564-.326a.176.176,0,0,0-.176-.305l-.558.322q-.448-.791-.969-1.569l.634-.366a.176.176,0,0,0-.176-.305l-.656.379q-.56-.815-1.194-1.611a.176.176,0,0,0-.275.22q.619.774,1.163,1.567l-.6.349a.176.176,0,0,0,.088.329.174.174,0,0,0,.088-.024l.627-.361q.52.777.97,1.568l-.7.406a.176.176,0,0,0,.088.329.173.173,0,0,0,.088-.024l.7-.4q.448.82.815,1.651l-.727.419a.176.176,0,1,0,.176.3l.695-.4,0,.006c.243.561.459,1.134.658,1.714l-.743.429a.176.176,0,0,0,.088.329.172.172,0,0,0,.088-.024l.687-.4c.19.583.354,1.177.5,1.777l-.737.425a.176.176,0,0,0,.088.329.172.172,0,0,0,.088-.024l.651-.375c.136.6.247,1.2.341,1.816l-.8.46a.176.176,0,1,0,.176.3l.681-.393q.154,1.115.214,2.26a.176.176,0,0,0,.176.167h.009a.176.176,0,0,0,.167-.185c-.043-.822-.125-1.632-.239-2.43l.559-.322a.176.176,0,0,0,.065-.24" transform="translate(-113.639 -213)"/>
            </g>
          </g>
        </g>
        <g id="Grupo_56357" data-name="Grupo 56357" transform="translate(18.456 47.713)" opacity="0.15">
          <g id="Grupo_56356" data-name="Grupo 56356">
            <g id="Grupo_56355" data-name="Grupo 56355" clip-path="url(#clip-path-20)">
              <path id="Trazado_124647" data-name="Trazado 124647" d="M130.437,280.547a28.629,28.629,0,0,1-.16-4c.144-.512,2.289-7.873,6.235-10.167a2.7,2.7,0,0,1,.778-.325,1.483,1.483,0,0,1,.323-.038c1.046,0,1.515,1.455,1.969,2.863a14.209,14.209,0,0,0,.623,1.692,1.9,1.9,0,0,0,1.6,1.318,2.2,2.2,0,0,0,1.081-.334c1.9-1.08,2.442-4.007,3.02-7.106a35.056,35.056,0,0,1,.931-4.1,5.8,5.8,0,0,1,2.349-3.523,1.822,1.822,0,0,1,.878-.287c1.1,0,1.515,1.959,1.918,3.852a15.715,15.715,0,0,0,.8,2.9c.4.913.928,1.357,1.61,1.357a2.3,2.3,0,0,0,1.137-.357c2.328-1.343,3.032-3.622,3.713-5.824.579-1.87,1.125-3.637,2.66-4.53a2.3,2.3,0,0,1,1.142-.359,1.447,1.447,0,0,1,.5.089,9.816,9.816,0,0,1,.074,1.054l.026,4.46c.042.852.1,1.523.177,2.1Z" transform="translate(-130.015 -253.323)" fill="#27debf"/>
              <path id="Trazado_124648" data-name="Trazado 124648" d="M163.811,261.126c-.1-.666-.159-1.422-.2-2.232l-.025-4.459a10.2,10.2,0,0,0-.094-1.228,1.692,1.692,0,0,0-.731-.164,2.527,2.527,0,0,0-1.267.392c-3.425,1.994-2.117,7.9-6.373,10.354a2.062,2.062,0,0,1-1.012.324c-.635,0-1.063-.479-1.384-1.209-1-2.259-.974-6.9-2.944-6.9a2.04,2.04,0,0,0-1,.32,6.137,6.137,0,0,0-2.461,3.663c-1.268,3.977-1.193,9.564-3.837,11.07a1.975,1.975,0,0,1-.959.3c-.629,0-1.044-.485-1.372-1.176-.819-1.716-1.106-4.7-2.816-4.7a1.71,1.71,0,0,0-.375.044,2.928,2.928,0,0,0-.85.353c-4.205,2.446-6.357,10.344-6.357,10.344a28.714,28.714,0,0,0,.2,4.445l.487-.281a5.35,5.35,0,0,1-.077-.53,28.342,28.342,0,0,1-.12-3.558c.2-.7,2.308-7.778,6.114-9.992a2.457,2.457,0,0,1,.708-.3,1.214,1.214,0,0,1,.266-.032c.865,0,1.306,1.368,1.732,2.69a14.411,14.411,0,0,0,.635,1.723c.172.361.694,1.46,1.822,1.46a2.44,2.44,0,0,0,1.2-.367c2-1.137,2.553-4.119,3.141-7.276a34.889,34.889,0,0,1,.924-4.075,5.578,5.578,0,0,1,2.235-3.383,1.59,1.59,0,0,1,.755-.254c.9,0,1.311,1.942,1.675,3.655a15.968,15.968,0,0,0,.814,2.949c.439,1,1.058,1.506,1.839,1.506a2.528,2.528,0,0,0,1.261-.391c2.412-1.392,3.164-3.822,3.827-5.966.563-1.822,1.1-3.544,2.547-4.389a2.062,2.062,0,0,1,1.017-.324,1.194,1.194,0,0,1,.274.031c.053.5.054.86.054.866l.025,4.48c.037.769.088,1.4.157,1.944a3.472,3.472,0,0,0,.1.518Z" transform="translate(-129.737 -253.044)"/>
            </g>
          </g>
        </g>
        <g id="Grupo_56360" data-name="Grupo 56360" transform="translate(18.458 44.35)" opacity="0.4">
          <g id="Grupo_56359" data-name="Grupo 56359">
            <g id="Grupo_56358" data-name="Grupo 56358" clip-path="url(#clip-path-21)">
              <path id="Trazado_124649" data-name="Trazado 124649" d="M129.756,270.219v2.25a28.429,28.429,0,0,0,.2,4.445l33.852-19.545c-.1-.664-.159-1.422-.2-2.234l-.025-4.456s0-6.659-4.231-4.217c-4.446,2.567-3.189,10.72-6.346,12.542-3.185,1.839-2.115-5.438-6.346-3s-2.115,7.88-6.346,10.323-2.115-9.877-6.346-7.434-4.23,8.509-4.218,11.321" transform="translate(-129.742 -245.923)" fill="#6e95ea"/>
            </g>
          </g>
        </g>
        <g id="Grupo_56363" data-name="Grupo 56363" transform="translate(16.746 57.807)" opacity="0.4">
          <g id="Grupo_56362" data-name="Grupo 56362">
            <g id="Grupo_56361" data-name="Grupo 56361" clip-path="url(#clip-path-22)">
              <path id="Trazado_124650" data-name="Trazado 124650" d="M126.292,295.392a.176.176,0,0,1-.087-.329l36.007-20.617a.176.176,0,0,1,.175.306l-36.007,20.618a.183.183,0,0,1-.087.023" transform="translate(-126.116 -274.422)"/>
            </g>
          </g>
        </g>
        <path id="Trazado_124651" data-name="Trazado 124651" d="M138.506,275.126a.176.176,0,0,1-.176-.176V274.6a.176.176,0,0,1,.352,0v.353a.176.176,0,0,1-.176.176" transform="translate(-115.817 -216.615)" fill="#fff"/>
        <path id="Trazado_124652" data-name="Trazado 124652" d="M138.6,289.822a.176.176,0,0,1-.175-.16c-.021-.225-.038-.452-.052-.679a.176.176,0,0,1,.164-.187.163.163,0,0,1,.187.164q.021.337.051.67a.175.175,0,0,1-.159.191H138.6m-.083-1.351a.176.176,0,0,1-.176-.174c0-.195-.005-.422-.008-.678a.177.177,0,0,1,.175-.178.162.162,0,0,1,.178.175c0,.255,0,.482.007.677a.176.176,0,0,1-.174.178Zm-.012-1.354a.177.177,0,0,1-.176-.175l0-.678a.177.177,0,0,1,.176-.177h0a.176.176,0,0,1,.176.176l0,.677a.177.177,0,0,1-.176.177Zm-.006-1.355a.176.176,0,0,1-.176-.176v-.677a.176.176,0,0,1,.176-.177h0a.176.176,0,0,1,.176.176v.677a.176.176,0,0,1-.176.177Zm0-1.355a.176.176,0,0,1-.176-.176v-.677a.176.176,0,1,1,.352,0v.677a.176.176,0,0,1-.176.176m0-1.355a.176.176,0,0,1-.176-.176V282.2a.176.176,0,1,1,.352,0v.677a.177.177,0,0,1-.176.176m0-1.354a.176.176,0,0,1-.176-.176v-.678a.176.176,0,1,1,.352,0v.678a.177.177,0,0,1-.176.176m0-1.355h0a.176.176,0,0,1-.176-.177v-.677a.176.176,0,1,1,.352,0v.678a.176.176,0,0,1-.176.176m0-1.354h0a.176.176,0,0,1-.176-.177v-.677a.176.176,0,0,1,.352,0v.678a.176.176,0,0,1-.176.176m0-1.354a.176.176,0,0,1-.176-.176v-.675a.177.177,0,0,1,.176-.177h0a.175.175,0,0,1,.176.175v.677a.176.176,0,0,1-.176.176" transform="translate(-115.813 -217.768)" fill="#fff"/>
        <path id="Trazado_124653" data-name="Trazado 124653" d="M138.915,305.973a.177.177,0,0,1-.175-.153c-.016-.117-.031-.234-.044-.352a.176.176,0,0,1,.35-.041c.013.116.028.231.044.346a.177.177,0,0,1-.152.2h-.023" transform="translate(-116.009 -232.898)" fill="#fff"/>
        <path id="Trazado_124654" data-name="Trazado 124654" d="M192.274,247.395a.176.176,0,0,1-.176-.176v-.354a.176.176,0,0,1,.176-.175h0a.176.176,0,0,1,.176.177v.352a.176.176,0,0,1-.176.176" transform="translate(-144.197 -201.978)" fill="#fff"/>
        <path id="Trazado_124655" data-name="Trazado 124655" d="M192.372,262.089a.176.176,0,0,1-.175-.16c-.021-.225-.038-.452-.052-.679a.175.175,0,0,1,.164-.187.17.17,0,0,1,.187.164q.021.337.051.67a.175.175,0,0,1-.159.191h-.016m-.083-1.35a.176.176,0,0,1-.176-.174c0-.195-.005-.422-.007-.678a.176.176,0,0,1,.175-.178h0a.176.176,0,0,1,.176.175c0,.255,0,.482.007.677a.176.176,0,0,1-.174.178Zm-.012-1.355a.177.177,0,0,1-.177-.175l0-.678a.177.177,0,0,1,.176-.177h0a.176.176,0,0,1,.176.176l0,.678a.177.177,0,0,1-.175.177Zm-.006-1.355a.176.176,0,0,1-.176-.176v-.677a.176.176,0,0,1,.176-.177h0a.176.176,0,0,1,.176.176v.677a.177.177,0,0,1-.176.177Zm0-1.355a.176.176,0,0,1-.176-.176v-.677a.176.176,0,1,1,.352,0v.677a.176.176,0,0,1-.176.176m0-1.355a.176.176,0,0,1-.176-.176v-.677a.176.176,0,0,1,.352,0v.677a.176.176,0,0,1-.176.176m0-1.354a.176.176,0,0,1-.176-.176v-.678a.176.176,0,0,1,.352,0v.678a.177.177,0,0,1-.176.176m0-1.355h0a.177.177,0,0,1-.176-.177v-.677a.176.176,0,0,1,.352,0v.678a.177.177,0,0,1-.176.176m0-1.355h0a.176.176,0,0,1-.176-.177V250.4a.176.176,0,1,1,.352,0v.678a.176.176,0,0,1-.176.176m0-1.354h0a.176.176,0,0,1-.176-.177v-.677a.176.176,0,0,1,.352,0v.678a.176.176,0,0,1-.176.176" transform="translate(-144.193 -203.129)" fill="#fff"/>
        <path id="Trazado_124656" data-name="Trazado 124656" d="M192.682,278.242a.177.177,0,0,1-.175-.153c-.016-.116-.031-.234-.045-.351a.176.176,0,0,1,.153-.2.171.171,0,0,1,.2.153q.021.174.045.347a.177.177,0,0,1-.152.2h-.023" transform="translate(-144.388 -218.261)" fill="#fff"/>
        <path id="Trazado_124657" data-name="Trazado 124657" d="M165.387,268.908a.176.176,0,0,1-.176-.176v-.353a.176.176,0,0,1,.352,0v.353a.176.176,0,0,1-.176.176" transform="translate(-130.005 -213.333)" fill="#fff"/>
        <path id="Trazado_124658" data-name="Trazado 124658" d="M165.487,279.285a.176.176,0,0,1-.175-.16c-.021-.221-.038-.441-.052-.664a.176.176,0,0,1,.164-.187.166.166,0,0,1,.187.164q.021.329.051.654a.176.176,0,0,1-.159.192h-.017m-.084-1.319a.177.177,0,0,1-.176-.174l-.008-.661a.176.176,0,0,1,.174-.178h0a.176.176,0,0,1,.176.174l.008.661a.177.177,0,0,1-.174.178Zm-.013-1.32a.177.177,0,0,1-.176-.175l0-.661a.176.176,0,0,1,.175-.177h0a.176.176,0,0,1,.176.175l0,.661a.177.177,0,0,1-.176.177Zm-.005-1.322a.176.176,0,0,1-.176-.176v-.661a.177.177,0,0,1,.176-.177h0a.177.177,0,0,1,.176.176v.661a.176.176,0,0,1-.176.177Zm0-1.321a.177.177,0,0,1-.176-.177v-.661a.176.176,0,0,1,.352,0v.661a.177.177,0,0,1-.176.177m0-1.322h0a.176.176,0,0,1-.176-.177v-.66a.176.176,0,1,1,.352,0v.661a.176.176,0,0,1-.176.176m0-1.321h0a.176.176,0,0,1-.176-.177v-.66a.176.176,0,1,1,.352,0v.661a.176.176,0,0,1-.176.176" transform="translate(-130.003 -214.464)" fill="#fff"/>
        <path id="Trazado_124659" data-name="Trazado 124659" d="M165.793,290.621a.177.177,0,0,1-.175-.153c-.016-.116-.031-.234-.045-.352a.176.176,0,0,1,.349-.042q.021.174.045.347a.177.177,0,0,1-.152.2h-.023" transform="translate(-130.196 -224.795)" fill="#fff"/>
        <g id="Grupo_56366" data-name="Grupo 56366" transform="translate(22.078 56.537)" opacity="0.4">
          <g id="Grupo_56365" data-name="Grupo 56365">
            <g id="Grupo_56364" data-name="Grupo 56364" clip-path="url(#clip-path-23)">
              <path id="Trazado_124660" data-name="Trazado 124660" d="M138.016,271.824c.336-.194.609-.066.609.288a1.287,1.287,0,0,1-.609.99c-.336.194-.609.066-.609-.288a1.287,1.287,0,0,1,.609-.99" transform="translate(-137.407 -271.733)"/>
            </g>
          </g>
        </g>
        <g id="Grupo_56369" data-name="Grupo 56369" transform="translate(34.773 53.6)" opacity="0.4">
          <g id="Grupo_56368" data-name="Grupo 56368">
            <g id="Grupo_56367" data-name="Grupo 56367" clip-path="url(#clip-path-23)">
              <path id="Trazado_124661" data-name="Trazado 124661" d="M164.9,265.6c.336-.194.609-.066.609.288a1.287,1.287,0,0,1-.609.99c-.336.194-.609.065-.609-.287a1.287,1.287,0,0,1,.609-.99" transform="translate(-164.294 -265.512)"/>
            </g>
          </g>
        </g>
        <g id="Grupo_56372" data-name="Grupo 56372" transform="translate(47.465 44.16)" opacity="0.4">
          <g id="Grupo_56371" data-name="Grupo 56371">
            <g id="Grupo_56370" data-name="Grupo 56370" clip-path="url(#clip-path-25)">
              <path id="Trazado_124662" data-name="Trazado 124662" d="M191.782,245.61c.336-.194.609-.066.609.287a1.287,1.287,0,0,1-.609.991c-.336.194-.609.065-.609-.288a1.287,1.287,0,0,1,.609-.99" transform="translate(-191.173 -245.519)"/>
            </g>
          </g>
        </g>
        <g id="Grupo_56375" data-name="Grupo 56375" transform="translate(15.439 56.373)" opacity="0.4">
          <g id="Grupo_56374" data-name="Grupo 56374">
            <g id="Grupo_56373" data-name="Grupo 56373" clip-path="url(#clip-path-26)">
              <path id="Trazado_124663" data-name="Trazado 124663" d="M125.064,275.739a.176.176,0,1,0-.176-.305l-.46.266v-1.818l.636-.368a.176.176,0,1,0-.176-.3l-.461.266v-1.914a.176.176,0,1,0-.352,0v2.118l-.638.368a.176.176,0,0,0,.088.329.173.173,0,0,0,.088-.024l.462-.267V275.9l-.638.368a.176.176,0,0,0,.088.329.173.173,0,0,0,.088-.024l.463-.267v1.818l-.639.369a.176.176,0,0,0,.088.329.173.173,0,0,0,.088-.024l.463-.267v1.817l-.639.369a.176.176,0,0,0,.088.329.173.173,0,0,0,.088-.024l.464-.268v1.818l-.64.369a.176.176,0,1,0,.176.3l.464-.268V284.8l-.64.37a.176.176,0,0,0,.088.329.173.173,0,0,0,.088-.024l.465-.268v1.818l-.641.37a.176.176,0,0,0,.088.329.174.174,0,0,0,.088-.024l.462-.267c-.011.6-.005,1.207.021,1.806l-.659.38a.176.176,0,1,0,.176.3l.5-.291c.038.661.094,1.319.177,1.966a.177.177,0,0,0,.175.154h.023a.177.177,0,0,0,.153-.2c-.089-.7-.15-1.4-.187-2.118l.606-.35a.176.176,0,1,0-.176-.3l-.445.257c-.022-.6-.028-1.2-.013-1.81l.635-.366a.176.176,0,0,0-.176-.305l-.458.264V285l.634-.366a.176.176,0,1,0-.176-.305l-.458.265v-1.818l.635-.366a.176.176,0,1,0-.176-.3l-.459.265v-1.818l.635-.366a.176.176,0,1,0-.176-.305l-.459.265v-1.817l.636-.367a.176.176,0,1,0-.176-.3l-.46.265v-1.818Z" transform="translate(-123.346 -271.385)"/>
            </g>
          </g>
        </g>
        <path id="Trazado_124664" data-name="Trazado 124664" d="M177.88,299.713,144.06,319.24a3.29,3.29,0,0,1-3.764-.272,1.833,1.833,0,0,1,.686-2.9l33.81-19.521a3.087,3.087,0,0,1,3.624.41,1.666,1.666,0,0,1-.536,2.754" transform="translate(-116.606 -228.081)" fill="#6e95ea"/>
        <g id="Grupo_56378" data-name="Grupo 56378" transform="translate(17.3 58.639)" opacity="0.4">
          <g id="Grupo_56377" data-name="Grupo 56377">
            <g id="Grupo_56376" data-name="Grupo 56376" clip-path="url(#clip-path-27)">
              <path id="Trazado_124665" data-name="Trazado 124665" d="M127.536,298.677a.249.249,0,0,1-.124-.464l38.094-21.994a.248.248,0,0,1,.248.43L127.66,298.643a.248.248,0,0,1-.124.034" transform="translate(-127.288 -276.185)"/>
            </g>
          </g>
        </g>
        <g id="Grupo_56381" data-name="Grupo 56381" transform="translate(18.078 60.695)" opacity="0.4">
          <g id="Grupo_56380" data-name="Grupo 56380">
            <g id="Grupo_56379" data-name="Grupo 56379" clip-path="url(#clip-path-28)">
              <path id="Trazado_124666" data-name="Trazado 124666" d="M129.185,303.035a.248.248,0,0,1-.124-.464l38.1-22a.248.248,0,0,1,.249.43l-38.1,22a.247.247,0,0,1-.124.034" transform="translate(-128.937 -280.539)"/>
            </g>
          </g>
        </g>
        <g id="Grupo_56384" data-name="Grupo 56384" transform="translate(19.039 62.667)" opacity="0.4">
          <g id="Grupo_56383" data-name="Grupo 56383">
            <g id="Grupo_56382" data-name="Grupo 56382" clip-path="url(#clip-path-29)">
              <path id="Trazado_124667" data-name="Trazado 124667" d="M131.221,307.214a.249.249,0,0,1-.124-.464l38.1-22a.248.248,0,0,1,.248.43l-38.1,22a.247.247,0,0,1-.124.034" transform="translate(-130.972 -284.716)"/>
            </g>
          </g>
        </g>
        <g id="Grupo_56387" data-name="Grupo 56387" transform="translate(20.174 64.544)" opacity="0.4">
          <g id="Grupo_56386" data-name="Grupo 56386">
            <g id="Grupo_56385" data-name="Grupo 56385" clip-path="url(#clip-path-30)">
              <path id="Trazado_124668" data-name="Trazado 124668" d="M133.624,311.19a.248.248,0,0,1-.124-.464l38.11-22a.248.248,0,0,1,.248.43l-38.11,22a.247.247,0,0,1-.124.034" transform="translate(-133.376 -288.69)"/>
            </g>
          </g>
        </g>
      </g>
    </g>
    <g id="Grupo_56520" data-name="Grupo 56520" transform="translate(209 1031)">
      <g id="Grupo_56519" data-name="Grupo 56519" clip-path="url(#clip-path-31)">
        <path id="Trazado_124670" data-name="Trazado 124670" d="M203.222,238.017l31.347-18.1a5.618,5.618,0,0,1,4.148-.664c1.066.431.862,1.544-.327,2.231l-31.712,18.306a4.362,4.362,0,0,1-3.827.247c-.947-.511-.818-1.338.371-2.024" transform="translate(-106.738 -115.636)" fill="#6e95ea"/>
        <g id="Grupo_56392" data-name="Grupo 56392" transform="translate(99.87 106.002)" opacity="0.4">
          <g id="Grupo_56391" data-name="Grupo 56391">
            <g id="Grupo_56390" data-name="Grupo 56390" clip-path="url(#clip-path-32)">
              <path id="Trazado_124671" data-name="Trazado 124671" d="M211.758,245.85a.248.248,0,0,1-.124-.464l36.131-20.857a.248.248,0,0,1,.249.43l-36.132,20.857a.248.248,0,0,1-.124.034" transform="translate(-211.509 -224.496)"/>
            </g>
          </g>
        </g>
        <g id="Grupo_56395" data-name="Grupo 56395" transform="translate(101.367 107.586)" opacity="0.4">
          <g id="Grupo_56394" data-name="Grupo 56394">
            <g id="Grupo_56393" data-name="Grupo 56393" clip-path="url(#clip-path-33)">
              <path id="Trazado_124672" data-name="Trazado 124672" d="M214.927,249.236a.249.249,0,0,1-.124-.464l36.187-20.888a.248.248,0,0,1,.248.43L215.052,249.2a.248.248,0,0,1-.124.034" transform="translate(-214.679 -227.851)"/>
            </g>
          </g>
        </g>
        <g id="Grupo_56398" data-name="Grupo 56398" transform="translate(102.811 130.259)" opacity="0.4">
          <g id="Grupo_56397" data-name="Grupo 56397">
            <g id="Grupo_56396" data-name="Grupo 56396" clip-path="url(#clip-path-34)">
              <path id="Trazado_124673" data-name="Trazado 124673" d="M222.533,293.054h0a.176.176,0,0,1-.176-.177l.007-1.917c.006-1.443.006-1.443-.036-2.419l-.007-.161a23.384,23.384,0,0,0-1.288-6.534,18.228,18.228,0,0,0-3.257-5.691.176.176,0,1,1,.274-.221,18.555,18.555,0,0,1,3.316,5.8,23.739,23.739,0,0,1,1.307,6.63l.008.164c.042.984.042.984.036,2.436l-.007,1.917a.176.176,0,0,1-.176.176" transform="translate(-217.737 -275.868)"/>
            </g>
          </g>
        </g>
        <path id="Trazado_124674" data-name="Trazado 124674" d="M226.427,269.475q-.241-.423-.519-.833a.56.56,0,0,1,.179-.818l13.807-7.97a.659.659,0,0,1,.88.208c.166.272.323.558.477.857a.667.667,0,0,1-.262.867l-13.73,7.926a.6.6,0,0,1-.831-.237" transform="translate(-119.183 -137.11)" fill="#6e95ea"/>
        <path id="Trazado_124675" data-name="Trazado 124675" d="M229.934,264.831q.155.476.284.942a.45.45,0,0,0,.695.29l32.756-18.908a.855.855,0,0,0,.381-.912q-.135-.492-.28-.945a.486.486,0,0,0-.736-.278l-32.763,18.911a.793.793,0,0,0-.339.9" transform="translate(-121.346 -129.286)" fill="#a6bae6"/>
        <path id="Trazado_124677" data-name="Trazado 124677" d="M231.986,280.863c.043.348.078.688.1,1.018a.356.356,0,0,0,.578.309l22.191-12.809a1.08,1.08,0,0,0,.5-.931q-.042-.51-.1-1.014a.387.387,0,0,0-.623-.3l-22.184,12.805a1.012,1.012,0,0,0-.458.927" transform="translate(-122.444 -140.959)" fill="#6e95ea"/>
        <path id="Trazado_124679" data-name="Trazado 124679" d="M232.374,298.623v1c0,.343.241.483.538.311l9.5-5.484a1.189,1.189,0,0,0,.538-.932v-1c0-.343-.241-.482-.538-.311l-9.5,5.484a1.19,1.19,0,0,0-.538.932" transform="translate(-122.652 -154.195)" fill="#acccec"/>
        <g id="Grupo_56410" data-name="Grupo 56410" transform="translate(109.375 128.654)" opacity="0.4">
          <g id="Grupo_56409" data-name="Grupo 56409">
            <g id="Grupo_56408" data-name="Grupo 56408" clip-path="url(#clip-path-35)">
              <path id="Trazado_124681" data-name="Trazado 124681" d="M265.831,272.47a.176.176,0,0,0-.176.176v.855l-2.532,1.461v-.639a.176.176,0,1,0-.352,0v.843l-2.532,1.461V276a.176.176,0,0,0-.353,0v.831l-2.532,1.461v-.616a.176.176,0,1,0-.352,0v.82l-2.532,1.462v-.6a.176.176,0,1,0-.353,0v.808l-2.532,1.461v-.594a.176.176,0,0,0-.353,0v.8l-2.532,1.461V282.7a.176.176,0,1,0-.352,0v.786l-2.532,1.461v-.571a.176.176,0,0,0-.353,0v.775l-2.532,1.461v-.56a.176.176,0,0,0-.352,0v.763l-2.532,1.462v-.548a.176.176,0,0,0-.352,0v.751l-2.532,1.462v-.537a.176.176,0,1,0-.352,0v.74l-2.532,1.462v-.525a.176.176,0,1,0-.352,0v.729l-2.2,1.268a.176.176,0,1,0,.176.3l2.022-1.167v.715a.176.176,0,0,0,.352,0v-.919l2.532-1.461v.7a.176.176,0,0,0,.352,0v-.908l2.532-1.461v.693a.176.176,0,1,0,.352,0v-.9l2.532-1.461v.681a.176.176,0,1,0,.352,0v-.885l2.532-1.461v.67a.176.176,0,0,0,.353,0v-.873l2.532-1.461v.658a.176.176,0,1,0,.352,0v-.862l2.532-1.461v.647a.176.176,0,1,0,.353,0v-.85l2.532-1.461v.636a.176.176,0,0,0,.353,0v-.839L257,278.9v.624a.176.176,0,0,0,.352,0V278.7l2.532-1.461v.613a.176.176,0,0,0,.353,0v-.816l2.532-1.461v.6a.176.176,0,1,0,.352,0v-.805l2.532-1.461v.59a.176.176,0,1,0,.352,0v-1.85a.176.176,0,0,0-.176-.176" transform="translate(-231.64 -272.47)"/>
            </g>
          </g>
        </g>
        <path id="Trazado_124682" data-name="Trazado 124682" d="M236.1,321.661a6.22,6.22,0,0,0-1.844.746c-3.5,2.058-6.342,7.208-6.342,11.5,0,.114,0,.224,0,.333l6.333-2.9Z" transform="translate(-120.298 -169.78)" fill="#6e95ea"/>
        <path id="Trazado_124683" data-name="Trazado 124683" d="M243.184,321.556l-1.849,9.683,6.278-3.644a10.362,10.362,0,0,0,.069-1.173c0-3.534-1.894-5.413-4.5-4.866" transform="translate(-127.382 -169.675)" fill="#acccec"/>
        <path id="Trazado_124684" data-name="Trazado 124684" d="M246.817,337.717a13.506,13.506,0,0,0,.8-3.266l-6.278,3.643Z" transform="translate(-127.382 -176.531)" fill="#27debf"/>
        <path id="Trazado_124685" data-name="Trazado 124685" d="M227.923,344.644c.144,4.061,2.928,5.756,6.338,3.788a13.826,13.826,0,0,0,5.478-7.063l-5.482.378Z" transform="translate(-120.303 -180.181)" fill="#a6bae6"/>
        <g id="Grupo_56416" data-name="Grupo 56416" transform="translate(113.953 157.92)" opacity="0.15">
          <g id="Grupo_56415" data-name="Grupo 56415">
            <g id="Grupo_56414" data-name="Grupo 56414" clip-path="url(#clip-path-36)">
              <path id="Trazado_124687" data-name="Trazado 124687" d="M246.817,337.717a13.506,13.506,0,0,0,.8-3.266l-6.278,3.643Z" transform="translate(-241.335 -334.451)" fill="#477bec"/>
            </g>
          </g>
        </g>
        <path id="Trazado_124689" data-name="Trazado 124689" d="M236.1,321.661a6.22,6.22,0,0,0-1.844.746c-3.5,2.058-6.342,7.208-6.342,11.5,0,.114,0,.224,0,.333l6.333-2.9Z" transform="translate(-120.298 -169.78)" fill="none" stroke="#fff" stroke-linecap="round" stroke-linejoin="round" stroke-width="1.053"/>
        <path id="Trazado_124690" data-name="Trazado 124690" d="M243.184,321.556l-1.849,9.683,6.278-3.644a10.362,10.362,0,0,0,.069-1.173C247.682,322.888,245.789,321.01,243.184,321.556Z" transform="translate(-127.382 -169.675)" fill="none" stroke="#fff" stroke-linecap="round" stroke-linejoin="round" stroke-width="1.053"/>
        <path id="Trazado_124691" data-name="Trazado 124691" d="M246.817,337.717a13.506,13.506,0,0,0,.8-3.266l-6.278,3.643Z" transform="translate(-127.382 -176.531)" fill="#326def" stroke="#fff" stroke-linecap="round" stroke-linejoin="round" stroke-width="1.053"/>
        <path id="Trazado_124692" data-name="Trazado 124692" d="M227.923,344.644c.144,4.061,2.928,5.756,6.338,3.788a13.826,13.826,0,0,0,5.478-7.063l-5.482.378Z" transform="translate(-120.303 -180.181)" fill="none" stroke="#fff" stroke-linecap="round" stroke-linejoin="round" stroke-width="1.053"/>
        <path id="Trazado_124693" data-name="Trazado 124693" d="M280.654,299.964a14.991,14.991,0,0,0-3.475,9.007,6.474,6.474,0,0,0,.8,3.36l5.542-7.029Z" transform="translate(-146.301 -158.328)" fill="#6e95ea"/>
        <path id="Trazado_124694" data-name="Trazado 124694" d="M290.269,292.917a5.291,5.291,0,0,0-2.863.815,10.8,10.8,0,0,0-2.868,2.51l2.868,5.339Z" transform="translate(-150.185 -154.606)" fill="#acccec"/>
        <path id="Trazado_124695" data-name="Trazado 124695" d="M296.368,294.949a3.313,3.313,0,0,0-2.893-2.028l-2.863,8.664Z" transform="translate(-153.391 -154.61)" fill="#326def"/>
        <path id="Trazado_124696" data-name="Trazado 124696" d="M290.173,297.216l-5.756,6.636-5.542,7.028c1.088,1.77,3.161,2.2,5.542.82,3.5-2.023,6.348-7.178,6.348-11.517a6.852,6.852,0,0,0-.592-2.968" transform="translate(-147.196 -156.877)" fill="#a6bae6"/>
        <path id="Trazado_124700" data-name="Trazado 124700" d="M280.654,299.964a14.991,14.991,0,0,0-3.475,9.007,6.474,6.474,0,0,0,.8,3.36l5.542-7.029Z" transform="translate(-146.301 -158.328)" fill="none" stroke="#fff" stroke-linecap="round" stroke-linejoin="round" stroke-width="1.053"/>
        <path id="Trazado_124701" data-name="Trazado 124701" d="M290.269,292.917a5.291,5.291,0,0,0-2.863.815,10.8,10.8,0,0,0-2.868,2.51l2.868,5.339Z" transform="translate(-150.185 -154.606)" fill="none" stroke="#fff" stroke-linecap="round" stroke-linejoin="round" stroke-width="1.053"/>
        <path id="Trazado_124702" data-name="Trazado 124702" d="M296.368,294.949a3.313,3.313,0,0,0-2.893-2.028l-2.863,8.664Z" transform="translate(-153.391 -154.61)" fill="none" stroke="#fff" stroke-linecap="round" stroke-linejoin="round" stroke-width="1.053"/>
        <path id="Trazado_124703" data-name="Trazado 124703" d="M290.173,297.216l-5.756,6.636-5.542,7.028c1.088,1.77,3.161,2.2,5.542.82,3.5-2.023,6.348-7.178,6.348-11.517A6.852,6.852,0,0,0,290.173,297.216Z" transform="translate(-147.196 -156.877)" fill="none" stroke="#fff" stroke-linecap="round" stroke-linejoin="round" stroke-width="1.053"/>
        <path id="Trazado_124704" data-name="Trazado 124704" d="M259.8,311.378l1.039-.6c.3-.171.538-.033.538.311v1a1.189,1.189,0,0,1-.538.932l-1.039.6c-.3.172-.538.033-.538-.311v-1a1.188,1.188,0,0,1,.538-.932" transform="translate(-136.842 -163.997)" fill="#6e95ea"/>
        <path id="Trazado_124705" data-name="Trazado 124705" d="M259.8,320.861l1.039-.6c.3-.171.538-.033.538.311v1a1.189,1.189,0,0,1-.538.932l-1.039.6c-.3.172-.538.033-.538-.311v-1a1.188,1.188,0,0,1,.538-.932" transform="translate(-136.842 -169.002)" fill="#326def"/>
        <path id="Trazado_124707" data-name="Trazado 124707" d="M259.8,330.344l1.039-.6c.3-.171.538-.033.538.311v1a1.189,1.189,0,0,1-.538.932l-1.039.6c-.3.172-.538.033-.538-.311v-1a1.189,1.189,0,0,1,.538-.932" transform="translate(-136.842 -174.007)" fill="#6e95ea"/>
        <path id="Trazado_124709" data-name="Trazado 124709" d="M259.8,339.828l1.039-.6c.3-.171.538-.033.538.311v1a1.189,1.189,0,0,1-.538.932l-1.039.6c-.3.171-.538.033-.538-.311v-1a1.188,1.188,0,0,1,.538-.932" transform="translate(-136.842 -179.013)" fill="#326def"/>
        <g id="Grupo_56440" data-name="Grupo 56440" transform="translate(125.246 144.748)" opacity="0.4">
          <g id="Grupo_56439" data-name="Grupo 56439">
            <g id="Grupo_56438" data-name="Grupo 56438" clip-path="url(#clip-path-37)">
              <path id="Trazado_124711" data-name="Trazado 124711" d="M265.6,309.084a.352.352,0,0,1-.177-.657l3.162-1.826a.352.352,0,0,1,.353.61l-3.162,1.825a.35.35,0,0,1-.176.048" transform="translate(-265.251 -306.554)"/>
            </g>
          </g>
        </g>
        <g id="Grupo_56443" data-name="Grupo 56443" transform="translate(125.197 149.271)" opacity="0.4">
          <g id="Grupo_56442" data-name="Grupo 56442">
            <g id="Grupo_56441" data-name="Grupo 56441" clip-path="url(#clip-path-38)">
              <path id="Trazado_124712" data-name="Trazado 124712" d="M265.5,318.662a.352.352,0,0,1-.177-.657l3.162-1.825a.352.352,0,0,1,.352.61l-3.162,1.825a.35.35,0,0,1-.176.048" transform="translate(-265.148 -316.133)"/>
            </g>
          </g>
        </g>
        <g id="Grupo_56446" data-name="Grupo 56446" transform="translate(125.148 153.794)" opacity="0.4">
          <g id="Grupo_56445" data-name="Grupo 56445">
            <g id="Grupo_56444" data-name="Grupo 56444" clip-path="url(#clip-path-38)">
              <path id="Trazado_124713" data-name="Trazado 124713" d="M265.4,328.241a.352.352,0,0,1-.177-.657l3.162-1.825a.352.352,0,1,1,.353.61l-3.162,1.825a.35.35,0,0,1-.176.048" transform="translate(-265.045 -325.711)"/>
            </g>
          </g>
        </g>
        <g id="Grupo_56449" data-name="Grupo 56449" transform="translate(125.099 158.317)" opacity="0.4">
          <g id="Grupo_56448" data-name="Grupo 56448">
            <g id="Grupo_56447" data-name="Grupo 56447" clip-path="url(#clip-path-38)">
              <path id="Trazado_124714" data-name="Trazado 124714" d="M265.295,337.819a.352.352,0,0,1-.177-.658l3.162-1.824a.352.352,0,0,1,.352.611l-3.162,1.824a.356.356,0,0,1-.176.047" transform="translate(-264.941 -335.29)"/>
            </g>
          </g>
        </g>
        <g id="Grupo_56452" data-name="Grupo 56452" transform="translate(107.657 167.507)" opacity="0.4">
          <g id="Grupo_56451" data-name="Grupo 56451">
            <g id="Grupo_56450" data-name="Grupo 56450" clip-path="url(#clip-path-41)">
              <path id="Trazado_124715" data-name="Trazado 124715" d="M228.354,364a.353.353,0,0,1-.177-.658l14.807-8.545a.352.352,0,1,1,.353.61l-14.807,8.546a.356.356,0,0,1-.176.047" transform="translate(-228.001 -354.753)"/>
            </g>
          </g>
        </g>
        <g id="Grupo_56455" data-name="Grupo 56455" transform="translate(108.134 169.698)" opacity="0.4">
          <g id="Grupo_56454" data-name="Grupo 56454">
            <g id="Grupo_56453" data-name="Grupo 56453" clip-path="url(#clip-path-41)">
              <path id="Trazado_124716" data-name="Trazado 124716" d="M229.364,368.646a.352.352,0,0,1-.177-.658l14.807-8.546a.353.353,0,0,1,.353.611L229.539,368.6a.356.356,0,0,1-.176.047" transform="translate(-229.011 -359.395)"/>
            </g>
          </g>
        </g>
        <g id="Grupo_56458" data-name="Grupo 56458" transform="translate(108.816 171.819)" opacity="0.4">
          <g id="Grupo_56457" data-name="Grupo 56457">
            <g id="Grupo_56456" data-name="Grupo 56456" clip-path="url(#clip-path-41)">
              <path id="Trazado_124717" data-name="Trazado 124717" d="M230.809,373.136a.352.352,0,0,1-.177-.658l14.807-8.546a.352.352,0,1,1,.353.61l-14.807,8.546a.356.356,0,0,1-.176.047" transform="translate(-230.456 -363.886)"/>
            </g>
          </g>
        </g>
        <g id="Grupo_56461" data-name="Grupo 56461" transform="translate(130.898 154.093)" opacity="0.4">
          <g id="Grupo_56460" data-name="Grupo 56460">
            <g id="Grupo_56459" data-name="Grupo 56459" clip-path="url(#clip-path-41)">
              <path id="Trazado_124718" data-name="Trazado 124718" d="M277.576,335.6a.352.352,0,0,1-.177-.658l14.807-8.546a.353.353,0,0,1,.353.611l-14.807,8.545a.351.351,0,0,1-.176.048" transform="translate(-277.222 -326.346)"/>
            </g>
          </g>
        </g>
        <g id="Grupo_56464" data-name="Grupo 56464" transform="translate(131.375 156.285)" opacity="0.4">
          <g id="Grupo_56463" data-name="Grupo 56463">
            <g id="Grupo_56462" data-name="Grupo 56462" clip-path="url(#clip-path-41)">
              <path id="Trazado_124719" data-name="Trazado 124719" d="M278.585,340.239a.352.352,0,0,1-.177-.658l14.807-8.545a.353.353,0,0,1,.353.611l-14.807,8.546a.356.356,0,0,1-.176.047" transform="translate(-278.232 -330.988)"/>
            </g>
          </g>
        </g>
        <g id="Grupo_56467" data-name="Grupo 56467" transform="translate(132.057 158.406)" opacity="0.4">
          <g id="Grupo_56466" data-name="Grupo 56466">
            <g id="Grupo_56465" data-name="Grupo 56465" clip-path="url(#clip-path-41)">
              <path id="Trazado_124720" data-name="Trazado 124720" d="M280.03,344.729a.352.352,0,0,1-.177-.658l14.807-8.546a.352.352,0,0,1,.353.61l-14.807,8.546a.354.354,0,0,1-.176.047" transform="translate(-279.677 -335.479)"/>
            </g>
          </g>
        </g>
        <path id="Trazado_124721" data-name="Trazado 124721" d="M238.381,366.374l33.757-19.482a2.6,2.6,0,0,1,3.382.606,1.983,1.983,0,0,1-.76,2.97l-33.769,19.488a2.794,2.794,0,0,1-3.546-.485,2.176,2.176,0,0,1,.936-3.1" transform="translate(-125.148 -182.902)" fill="#6e95ea"/>
        <g id="Grupo_56470" data-name="Grupo 56470" transform="translate(118.45 183.77)" opacity="0.4">
          <g id="Grupo_56469" data-name="Grupo 56469">
            <g id="Grupo_56468" data-name="Grupo 56468" clip-path="url(#clip-path-47)">
              <path id="Trazado_124722" data-name="Trazado 124722" d="M251.213,398.445a.352.352,0,0,1-.177-.658l14.805-8.545a.353.353,0,0,1,.353.611L251.388,398.4a.356.356,0,0,1-.176.047" transform="translate(-250.859 -389.197)"/>
            </g>
          </g>
        </g>
        <g id="Grupo_56473" data-name="Grupo 56473" transform="translate(116.598 182.464)" opacity="0.4">
          <g id="Grupo_56472" data-name="Grupo 56472">
            <g id="Grupo_56471" data-name="Grupo 56471" clip-path="url(#clip-path-48)">
              <path id="Trazado_124723" data-name="Trazado 124723" d="M247.289,395.678a.352.352,0,0,1-.177-.658l14.805-8.544a.353.353,0,0,1,.353.611l-14.806,8.544a.352.352,0,0,1-.175.047" transform="translate(-246.936 -386.43)"/>
            </g>
          </g>
        </g>
        <g id="Grupo_56476" data-name="Grupo 56476" transform="translate(120.397 184.922)" opacity="0.4">
          <g id="Grupo_56475" data-name="Grupo 56475">
            <g id="Grupo_56474" data-name="Grupo 56474" clip-path="url(#clip-path-49)">
              <path id="Trazado_124724" data-name="Trazado 124724" d="M255.335,400.885a.352.352,0,0,1-.177-.658l14.806-8.544a.353.353,0,0,1,.353.611l-14.806,8.544a.356.356,0,0,1-.176.047" transform="translate(-254.983 -391.636)"/>
            </g>
          </g>
        </g>
        <g id="Grupo_56479" data-name="Grupo 56479" transform="translate(139.589 171.571)" opacity="0.4">
          <g id="Grupo_56478" data-name="Grupo 56478">
            <g id="Grupo_56477" data-name="Grupo 56477" clip-path="url(#clip-path-50)">
              <path id="Trazado_124725" data-name="Trazado 124725" d="M295.981,372.61a.352.352,0,0,1-.177-.658l14.806-8.544a.353.353,0,0,1,.353.611l-14.806,8.544a.355.355,0,0,1-.176.047" transform="translate(-295.628 -363.361)"/>
            </g>
          </g>
        </g>
        <g id="Grupo_56482" data-name="Grupo 56482" transform="translate(137.737 170.265)" opacity="0.4">
          <g id="Grupo_56481" data-name="Grupo 56481">
            <g id="Grupo_56480" data-name="Grupo 56480" clip-path="url(#clip-path-49)">
              <path id="Trazado_124726" data-name="Trazado 124726" d="M292.059,369.842a.352.352,0,0,1-.177-.658l14.805-8.544a.353.353,0,0,1,.353.611l-14.806,8.544a.355.355,0,0,1-.176.047" transform="translate(-291.705 -360.594)"/>
            </g>
          </g>
        </g>
        <g id="Grupo_56485" data-name="Grupo 56485" transform="translate(141.536 172.723)" opacity="0.4">
          <g id="Grupo_56484" data-name="Grupo 56484">
            <g id="Grupo_56483" data-name="Grupo 56483" clip-path="url(#clip-path-50)">
              <path id="Trazado_124727" data-name="Trazado 124727" d="M300.105,375.049a.352.352,0,0,1-.177-.658l14.806-8.544a.353.353,0,0,1,.352.611L300.28,375a.353.353,0,0,1-.175.047" transform="translate(-299.752 -365.8)"/>
            </g>
          </g>
        </g>
        <path id="Trazado_124728" data-name="Trazado 124728" d="M284.251,406.485c-3.215-1.857-8.662-1.722-12.166.3s-3.74,5.167-.525,7.024,8.662,1.722,12.166-.3,3.74-5.167.525-7.023m-2.188,6.063a9.625,9.625,0,0,1-8.69.214c-2.3-1.326-2.128-3.572.375-5.016a9.625,9.625,0,0,1,8.69-.215c2.3,1.326,2.128,3.573-.375,5.017" transform="translate(-142.14 -213.861)" fill="#326def"/>
        <path id="Trazado_124729" data-name="Trazado 124729" d="M280.912,411.882a5.774,5.774,0,0,1,5.214-.129c1.377.8,1.277,2.144-.225,3.01a5.774,5.774,0,0,1-5.214.129c-1.378-.8-1.277-2.143.225-3.01" transform="translate(-147.641 -217.036)" fill="#27debf"/>
        <g id="Grupo_56488" data-name="Grupo 56488" transform="translate(132.076 194.156)" opacity="0.5">
          <g id="Grupo_56487" data-name="Grupo 56487">
            <g id="Grupo_56486" data-name="Grupo 56486" clip-path="url(#clip-path-53)">
              <path id="Trazado_124730" data-name="Trazado 124730" d="M280.912,411.882a5.774,5.774,0,0,1,5.214-.129c1.377.8,1.277,2.144-.225,3.01a5.774,5.774,0,0,1-5.214.129c-1.378-.8-1.277-2.143.225-3.01" transform="translate(-279.716 -411.192)"/>
            </g>
          </g>
        </g>
        <path id="Trazado_124732" data-name="Trazado 124732" d="M282.074,405.559l.735,1.313a10.458,10.458,0,0,1,4.308-.081l.991-1.343a14.635,14.635,0,0,0-6.034.111" transform="translate(-148.885 -213.866)" fill="#27debf"/>
        <g id="Grupo_56494" data-name="Grupo 56494" transform="translate(133.189 191.319)" opacity="0.7">
          <g id="Grupo_56493" data-name="Grupo 56493">
            <g id="Grupo_56492" data-name="Grupo 56492" clip-path="url(#clip-path-54)">
              <path id="Trazado_124733" data-name="Trazado 124733" d="M282.074,405.559l.735,1.313a10.458,10.458,0,0,1,4.308-.081l.991-1.343a14.635,14.635,0,0,0-6.034.111" transform="translate(-282.074 -405.185)" fill="#6e95ea"/>
            </g>
          </g>
        </g>
        <g id="Grupo_56497" data-name="Grupo 56497" transform="translate(135.854 185.249)" opacity="0.4">
          <g id="Grupo_56496" data-name="Grupo 56496">
            <g id="Grupo_56495" data-name="Grupo 56495" clip-path="url(#clip-path-55)">
              <path id="Trazado_124734" data-name="Trazado 124734" d="M288.071,398.123h-.021a.352.352,0,0,1-.33-.373l.1-1.617,6.509-3.757a.353.353,0,1,1,.353.61l-6.182,3.567-.073,1.238a.351.351,0,0,1-.351.331" transform="translate(-287.718 -392.329)"/>
            </g>
          </g>
        </g>
        <path id="Trazado_124735" data-name="Trazado 124735" d="M324.558,383.236c-3.215-1.857-8.662-1.722-12.167.3s-3.739,5.167-.525,7.024,8.662,1.722,12.166-.3,3.74-5.167.525-7.023M322.37,389.3a9.625,9.625,0,0,1-8.69.214c-2.3-1.326-2.128-3.572.375-5.017a9.626,9.626,0,0,1,8.69-.214c2.3,1.326,2.128,3.573-.375,5.017" transform="translate(-163.414 -201.589)" fill="#326def"/>
        <path id="Trazado_124736" data-name="Trazado 124736" d="M321.218,388.631a5.774,5.774,0,0,1,5.214-.129c1.378.8,1.277,2.144-.225,3.01a5.773,5.773,0,0,1-5.214.129c-1.378-.8-1.277-2.143.225-3.01" transform="translate(-168.915 -204.764)" fill="#27debf"/>
        <g id="Grupo_56500" data-name="Grupo 56500" transform="translate(151.107 183.178)" opacity="0.5">
          <g id="Grupo_56499" data-name="Grupo 56499">
            <g id="Grupo_56498" data-name="Grupo 56498" clip-path="url(#clip-path-53)">
              <path id="Trazado_124737" data-name="Trazado 124737" d="M321.218,388.631a5.774,5.774,0,0,1,5.214-.129c1.378.8,1.277,2.144-.225,3.01a5.773,5.773,0,0,1-5.214.129c-1.378-.8-1.277-2.143.225-3.01" transform="translate(-320.022 -387.941)"/>
            </g>
          </g>
        </g>
        <path id="Trazado_124739" data-name="Trazado 124739" d="M329.643,383.238c-2.716-1.569-7.023-1.71-10.408-.5l1.161,1.188a9.564,9.564,0,0,1,7.433.357,4.067,4.067,0,0,1,.882.677l2.167-.774a5.7,5.7,0,0,0-1.235-.949" transform="translate(-168.499 -201.593)" fill="#27debf"/>
        <g id="Grupo_56506" data-name="Grupo 56506" transform="translate(150.735 180.34)" opacity="0.7">
          <g id="Grupo_56505" data-name="Grupo 56505">
            <g id="Grupo_56504" data-name="Grupo 56504" clip-path="url(#clip-path-57)">
              <path id="Trazado_124740" data-name="Trazado 124740" d="M329.643,383.238c-2.716-1.569-7.023-1.71-10.408-.5l1.161,1.188a9.564,9.564,0,0,1,7.433.357,4.067,4.067,0,0,1,.882.677l2.167-.774a5.7,5.7,0,0,0-1.235-.949" transform="translate(-319.234 -381.933)" fill="#6e95ea"/>
            </g>
          </g>
        </g>
        <g id="Grupo_56509" data-name="Grupo 56509" transform="translate(154.94 174.236)" opacity="0.4">
          <g id="Grupo_56508" data-name="Grupo 56508">
            <g id="Grupo_56507" data-name="Grupo 56507" clip-path="url(#clip-path-55)">
              <path id="Trazado_124741" data-name="Trazado 124741" d="M328.491,374.8h-.021a.352.352,0,0,1-.331-.373l.1-1.617,6.509-3.757a.353.353,0,1,1,.353.61l-6.181,3.566-.074,1.239a.352.352,0,0,1-.351.331" transform="translate(-328.138 -369.004)"/>
            </g>
          </g>
        </g>
        <g id="Grupo_56512" data-name="Grupo 56512" transform="translate(137.859 182.801)" opacity="0.4">
          <g id="Grupo_56511" data-name="Grupo 56511">
            <g id="Grupo_56510" data-name="Grupo 56510" clip-path="url(#clip-path-59)">
              <path id="Trazado_124742" data-name="Trazado 124742" d="M292.318,408.6a.352.352,0,0,1-.177-.658l35.958-20.75a.353.353,0,0,1,.353.611l-35.959,20.75a.355.355,0,0,1-.176.047" transform="translate(-291.965 -387.145)"/>
            </g>
          </g>
        </g>
        <g id="Grupo_56515" data-name="Grupo 56515" transform="translate(139.804 183.919)" opacity="0.4">
          <g id="Grupo_56514" data-name="Grupo 56514">
            <g id="Grupo_56513" data-name="Grupo 56513" clip-path="url(#clip-path-59)">
              <path id="Trazado_124743" data-name="Trazado 124743" d="M296.435,410.967a.352.352,0,0,1-.177-.658l35.959-20.75a.352.352,0,0,1,.352.611l-35.959,20.75a.357.357,0,0,1-.176.047" transform="translate(-296.083 -389.513)"/>
            </g>
          </g>
        </g>
        <g id="Grupo_56518" data-name="Grupo 56518" transform="translate(141.745 185.04)" opacity="0.4">
          <g id="Grupo_56517" data-name="Grupo 56517">
            <g id="Grupo_56516" data-name="Grupo 56516" clip-path="url(#clip-path-61)">
              <path id="Trazado_124744" data-name="Trazado 124744" d="M300.546,413.339a.352.352,0,0,1-.177-.658l35.958-20.75a.353.353,0,0,1,.353.611l-35.959,20.75a.356.356,0,0,1-.176.047" transform="translate(-300.193 -391.885)"/>
            </g>
          </g>
        </g>
      </g>
    </g>
    <rect id="Rectángulo_33852" data-name="Rectángulo 33852" width="226.415" height="219.582" transform="translate(209 1031)" fill="none"/>
  </g>
</svg>
