<svg xmlns="http://www.w3.org/2000/svg" width="253.597" height="173.766" viewBox="0 0 253.597 173.766">
  <g id="Grupo_164841" data-name="Grupo 164841" transform="translate(-3614.922 -1082.336)">
    <rect id="Rectángulo_52740" data-name="Rectángulo 52740" width="23.062" height="93.918" transform="translate(3737.68 1153.786)" fill="#d6e0ff"/>
    <g id="Grupo_164841-2" data-name="Grupo 164841" transform="translate(3724.052 1128.551)">
      <rect id="Rectángulo_52741" data-name="Rectángulo 52741" width="25.502" height="106.791" transform="translate(0 12.362)" fill="#c9d7ff"/>
      <rect id="Rectángulo_52742" data-name="Rectángulo 52742" width="19.315" height="6.388" transform="translate(3.094 6.348)" fill="#c9d7ff"/>
      <rect id="Rectángulo_52743" data-name="Rectángulo 52743" width="11.535" height="6.388" transform="translate(6.984 0)" fill="#c9d7ff"/>
    </g>
    <rect id="Rectángulo_52744" data-name="Rectángulo 52744" width="39.566" height="109.026" transform="translate(3685.3 1138.678)" fill="#d6e0ff"/>
    <g id="Grupo_164856" data-name="Grupo 164856" transform="translate(3779.892 1116.003)">
      <rect id="Rectángulo_52745" data-name="Rectángulo 52745" width="30.534" height="111.639" transform="translate(9.78 14.54)" fill="#d6e0ff"/>
      <rect id="Rectángulo_52746" data-name="Rectángulo 52746" width="30.534" height="86.235" transform="translate(51.208 46.624)" fill="#d6e0ff"/>
      <rect id="Rectángulo_52747" data-name="Rectángulo 52747" width="27.46" height="102.097" transform="translate(0 30.762)" fill="#c9d7ff"/>
      <rect id="Rectángulo_52748" data-name="Rectángulo 52748" width="38.419" height="125.951" transform="translate(26.628 6.908)" fill="#c9d7ff"/>
      <g id="Grupo_164847" data-name="Grupo 164847" transform="translate(3.817 38.396)">
        <g id="Grupo_164842" data-name="Grupo 164842">
          <rect id="Rectángulo_52749" data-name="Rectángulo 52749" width="5.725" height="8.588" fill="#bfd0ff"/>
          <rect id="Rectángulo_52750" data-name="Rectángulo 52750" width="5.725" height="8.588" transform="translate(8.747)" fill="#bfd0ff"/>
          <rect id="Rectángulo_52751" data-name="Rectángulo 52751" width="5.725" height="8.588" transform="translate(17.493)" fill="#bfd0ff"/>
        </g>
        <g id="Grupo_164843" data-name="Grupo 164843" transform="translate(0 12.881)">
          <rect id="Rectángulo_52752" data-name="Rectángulo 52752" width="5.725" height="8.588" fill="#bfd0ff"/>
          <rect id="Rectángulo_52753" data-name="Rectángulo 52753" width="5.725" height="8.588" transform="translate(8.747)" fill="#bfd0ff"/>
          <rect id="Rectángulo_52754" data-name="Rectángulo 52754" width="5.725" height="8.588" transform="translate(17.493)" fill="#bfd0ff"/>
        </g>
        <g id="Grupo_164844" data-name="Grupo 164844" transform="translate(0 25.763)">
          <rect id="Rectángulo_52755" data-name="Rectángulo 52755" width="5.725" height="8.588" fill="#bfd0ff"/>
          <rect id="Rectángulo_52756" data-name="Rectángulo 52756" width="5.725" height="8.588" transform="translate(8.747)" fill="#bfd0ff"/>
          <rect id="Rectángulo_52757" data-name="Rectángulo 52757" width="5.725" height="8.588" transform="translate(17.493)" fill="#bfd0ff"/>
        </g>
        <g id="Grupo_164845" data-name="Grupo 164845" transform="translate(0 38.644)">
          <rect id="Rectángulo_52758" data-name="Rectángulo 52758" width="5.725" height="8.588" fill="#bfd0ff"/>
          <rect id="Rectángulo_52759" data-name="Rectángulo 52759" width="5.725" height="8.588" transform="translate(8.747)" fill="#bfd0ff"/>
          <rect id="Rectángulo_52760" data-name="Rectángulo 52760" width="5.725" height="8.588" transform="translate(17.493)" fill="#bfd0ff"/>
        </g>
        <g id="Grupo_164846" data-name="Grupo 164846" transform="translate(0 51.526)">
          <rect id="Rectángulo_52761" data-name="Rectángulo 52761" width="5.725" height="8.588" fill="#bfd0ff"/>
          <rect id="Rectángulo_52762" data-name="Rectángulo 52762" width="5.725" height="8.588" transform="translate(8.747)" fill="#bfd0ff"/>
          <rect id="Rectángulo_52763" data-name="Rectángulo 52763" width="5.725" height="8.588" transform="translate(17.493)" fill="#bfd0ff"/>
        </g>
      </g>
      <g id="Grupo_164855" data-name="Grupo 164855" transform="translate(32.82 11.448)">
        <g id="Grupo_164848" data-name="Grupo 164848" transform="translate(0 26.948)">
          <rect id="Rectángulo_52764" data-name="Rectángulo 52764" width="5.725" height="8.588" fill="#bfd0ff"/>
          <rect id="Rectángulo_52765" data-name="Rectángulo 52765" width="5.725" height="8.588" transform="translate(10.155)" fill="#bfd0ff"/>
          <rect id="Rectángulo_52766" data-name="Rectángulo 52766" width="5.725" height="8.588" transform="translate(20.136)" fill="#bfd0ff"/>
        </g>
        <g id="Grupo_164849" data-name="Grupo 164849" transform="translate(0 13.109)">
          <rect id="Rectángulo_52767" data-name="Rectángulo 52767" width="5.725" height="8.588" fill="#bfd0ff"/>
          <rect id="Rectángulo_52768" data-name="Rectángulo 52768" width="5.725" height="8.588" transform="translate(10.155)" fill="#bfd0ff"/>
          <rect id="Rectángulo_52769" data-name="Rectángulo 52769" width="5.725" height="8.588" transform="translate(20.136)" fill="#bfd0ff"/>
        </g>
        <g id="Grupo_164850" data-name="Grupo 164850">
          <rect id="Rectángulo_52770" data-name="Rectángulo 52770" width="5.725" height="8.588" fill="#bfd0ff"/>
          <rect id="Rectángulo_52771" data-name="Rectángulo 52771" width="5.725" height="8.588" transform="translate(10.155)" fill="#bfd0ff"/>
          <rect id="Rectángulo_52772" data-name="Rectángulo 52772" width="5.725" height="8.588" transform="translate(20.136)" fill="#bfd0ff"/>
        </g>
        <g id="Grupo_164851" data-name="Grupo 164851" transform="translate(0 39.829)">
          <rect id="Rectángulo_52773" data-name="Rectángulo 52773" width="5.725" height="8.588" fill="#bfd0ff"/>
          <rect id="Rectángulo_52774" data-name="Rectángulo 52774" width="5.725" height="8.588" transform="translate(10.155)" fill="#bfd0ff"/>
          <rect id="Rectángulo_52775" data-name="Rectángulo 52775" width="5.725" height="8.588" transform="translate(20.136)" fill="#bfd0ff"/>
        </g>
        <g id="Grupo_164852" data-name="Grupo 164852" transform="translate(0 52.71)">
          <rect id="Rectángulo_52776" data-name="Rectángulo 52776" width="5.725" height="8.588" fill="#bfd0ff"/>
          <rect id="Rectángulo_52777" data-name="Rectángulo 52777" width="5.725" height="8.588" transform="translate(10.155)" fill="#bfd0ff"/>
          <rect id="Rectángulo_52778" data-name="Rectángulo 52778" width="5.725" height="8.588" transform="translate(20.136)" fill="#bfd0ff"/>
        </g>
        <g id="Grupo_164853" data-name="Grupo 164853" transform="translate(0 65.592)">
          <rect id="Rectángulo_52779" data-name="Rectángulo 52779" width="5.725" height="8.588" fill="#bfd0ff"/>
          <rect id="Rectángulo_52780" data-name="Rectángulo 52780" width="5.725" height="8.588" transform="translate(10.155)" fill="#bfd0ff"/>
          <rect id="Rectángulo_52781" data-name="Rectángulo 52781" width="5.725" height="8.588" transform="translate(20.136)" fill="#bfd0ff"/>
        </g>
        <g id="Grupo_164854" data-name="Grupo 164854" transform="translate(0 78.473)">
          <rect id="Rectángulo_52782" data-name="Rectángulo 52782" width="5.725" height="8.588" fill="#bfd0ff"/>
          <rect id="Rectángulo_52783" data-name="Rectángulo 52783" width="5.725" height="8.588" transform="translate(10.155)" fill="#bfd0ff"/>
          <rect id="Rectángulo_52784" data-name="Rectángulo 52784" width="5.725" height="8.588" transform="translate(20.136)" fill="#bfd0ff"/>
        </g>
      </g>
      <rect id="Rectángulo_52785" data-name="Rectángulo 52785" width="6.757" height="6.378" transform="translate(74.984 40.246)" fill="#d6e0ff"/>
      <rect id="Rectángulo_52786" data-name="Rectángulo 52786" width="26.035" height="6.908" transform="translate(32.82 0)" fill="#c9d7ff"/>
    </g>
    <path id="Rectángulo_52787" data-name="Rectángulo 52787" d="M1.431,0H246.36a1.431,1.431,0,0,1,1.431,1.431v0a1.431,1.431,0,0,1-1.431,1.431H1.431A1.431,1.431,0,0,1,0,1.431v0A1.431,1.431,0,0,1,1.431,0Z" transform="translate(3614.922 1247.704)" fill="#95a6db"/>
    <path id="Trazado_208509" data-name="Trazado 208509" d="M5270.337,1355.08a11.409,11.409,0,0,1,17.073-9.374h0a5.74,5.74,0,0,1,11.315-.9h0a9.655,9.655,0,0,1,11.262,5.9,7.2,7.2,0,0,1,8.208,2.131,1.377,1.377,0,0,1-1.074,2.24Z" transform="translate(-1521.126 -234.383)" fill="#e3eaff"/>
    <path id="Trazado_208510" data-name="Trazado 208510" d="M4784.184,1280.016c0,.063,0,.124,0,.186h-21.52a5.049,5.049,0,0,1,6.35-3.4,7.927,7.927,0,0,1,15.171,3.219Z" transform="translate(-1059.985 -172.36)" fill="#e3eaff"/>
    <path id="Trazado_208511" data-name="Trazado 208511" d="M4246.067,1094.739c0,.082,0,.165-.005.246h-37.133c0-.081,0-.164,0-.246a6.572,6.572,0,0,1,8.533-6.269,10.331,10.331,0,0,1,19.056.417,6.57,6.57,0,0,1,9.554,5.852Z" transform="translate(-557.004)" fill="#e3eaff"/>
    <path id="Trazado_208512" data-name="Trazado 208512" d="M5746.3,1163.739c0,.082,0,.165-.005.246h-37.133c0-.081,0-.164,0-.246a6.572,6.572,0,0,1,8.533-6.269,10.331,10.331,0,0,1,19.055.417,6.571,6.571,0,0,1,9.555,5.852Z" transform="translate(-1919.723 -62.675)" fill="#e3eaff"/>
    <g id="Grupo_164859" data-name="Grupo 164859" transform="translate(3643.638 1158.207)">
      <path id="Trazado_208513" data-name="Trazado 208513" d="M4344.062,1969.778a16.083,16.083,0,0,0-.318-4.6,14.906,14.906,0,0,0-5.219-8.571c-7.229-6.114-30.759-14.018-50.752-13.76-2.914-1.689-29.991-22.5-41.964-29.228-11.332-6.292-74.675-2.484-80.5-1.727-15.992,2.01-45.4,28.321-45.927,36.157-.027.38-.058,28.258.408,30.093s24.819,5.942,24.819,5.942,189.491,5.186,192.171,4.748a9.027,9.027,0,0,0,6.5-3.322C4344.615,1983.239,4344.062,1969.778,4344.062,1969.778Zm-175.37-25.307s-11.42-2.591-11.439-7.092,21.475-21.927,33.813-21.217c0,0,2.288,18.131,7.839,28.4C4192.021,1944.678,4168.691,1944.471,4168.691,1944.471Zm34.931,0c-6.013-8.914-9.074-28.8-9.074-28.8s33.041.236,39.415.75,46.613,30.118,46.613,30.118S4210.257,1944.68,4203.622,1944.471Z" transform="translate(-4119.294 -1910.057)" fill="#e62552"/>
      <path id="Trazado_208514" data-name="Trazado 208514" d="M4343.31,2598.055s.553,10.011-.787,12.282a9.031,9.031,0,0,1-6.5,3.321c-2.681.437-208.28.408-211.921,0s-5.069-5.389-5.156-9.351c0-.844-.32,1.321-.378-6.252Z" transform="translate(-4118.571 -2534.992)" fill="#c4204a"/>
      <path id="Trazado_208515" data-name="Trazado 208515" d="M5825.52,2433.292a23.77,23.77,0,1,1,46.289,7.661l-40.172,1.894-5.505-4.224A28.364,28.364,0,0,1,5825.52,2433.292Z" transform="translate(-5669.058 -2363.782)" fill="#c4204a"/>
      <g id="Grupo_164857" data-name="Grupo 164857" transform="translate(151.848 41.125)">
        <circle id="Elipse_5529" data-name="Elipse 5529" cx="20.071" cy="20.071" r="20.071" transform="translate(0 28.385) rotate(-45)" fill="#062440"/>
        <circle id="Elipse_5530" data-name="Elipse 5530" cx="14.39" cy="14.39" r="14.39" transform="translate(8.034 28.385) rotate(-45)" fill="#b8c6f2"/>
        <circle id="Elipse_5531" data-name="Elipse 5531" cx="8.238" cy="8.238" r="8.238" transform="matrix(0.999, -0.042, 0.042, 0.999, 19.812, 20.497)" fill="#98b0f2"/>
      </g>
      <path id="Trazado_208516" data-name="Trazado 208516" d="M4361.059,2432.682a23.785,23.785,0,1,1,47.571,0,21.817,21.817,0,0,1-1.166,7.341l-45.881-2.447A23.825,23.825,0,0,1,4361.059,2432.682Z" transform="translate(-4338.832 -2363.172)" fill="#c4204a"/>
      <g id="Grupo_164858" data-name="Grupo 164858" transform="translate(25.662 49.159)">
        <path id="Trazado_208517" data-name="Trazado 208517" d="M4421.67,2449.418a20.071,20.071,0,1,0,20.063,20.081A20.071,20.071,0,0,0,4421.67,2449.418Z" transform="translate(-4401.31 -2449.138)" fill="#062440"/>
        <circle id="Elipse_5532" data-name="Elipse 5532" cx="14.39" cy="14.39" r="14.39" transform="translate(0 20.351) rotate(-45)" fill="#b8c6f2"/>
        <path id="Trazado_208518" data-name="Trazado 208518" d="M4538.932,2578.519a8.237,8.237,0,1,0,8.234,8.241A8.237,8.237,0,0,0,4538.932,2578.519Z" transform="translate(-4518.577 -2566.406)" fill="#98b0f2"/>
      </g>
      <path id="Trazado_208519" data-name="Trazado 208519" d="M6339.881,2407.1s15.62.987,17.877,8.147c1.218,2.5-12.654.951-12.654.951Z" transform="translate(-6136.271 -2361.544)" fill="#f37a50"/>
      <path id="Trazado_208520" data-name="Trazado 208520" d="M5668.389,2230.607l-9.738-7.594s-10.917-1.99-11.425,6.035C5647.518,2236.8,5665.481,2232.6,5668.389,2230.607Z" transform="translate(-5507.106 -2194.128)" fill="#c4204a"/>
      <path id="Trazado_208521" data-name="Trazado 208521" d="M5095.128,2339.731h-14.594a1.584,1.584,0,0,1-1.584-1.584h0a1.584,1.584,0,0,1,1.584-1.584h14.594a1.584,1.584,0,0,1,1.584,1.584h0A1.584,1.584,0,0,1,5095.128,2339.731Z" transform="translate(-4990.92 -2297.469)" fill="#c4204a"/>
    </g>
    <g id="Grupo_164871" data-name="Grupo 164871" transform="translate(3623.915 1100.568)">
      <path id="Trazado_208522" data-name="Trazado 208522" d="M3750.069,1428.871l-65.266.029a12.843,12.843,0,0,1-12.851-12.835l-.07-121.947a12.843,12.843,0,0,1,12.835-12.851l65.266-.028a12.842,12.842,0,0,1,12.85,12.834l.07,121.948A12.842,12.842,0,0,1,3750.069,1428.871Z" transform="translate(-3671.883 -1281.238)" fill="#2c2858"/>
      <path id="Trazado_208523" data-name="Trazado 208523" d="M3788.078,1463.958l-59.378.026a11.779,11.779,0,0,1-11.692-11.863l-.065-116.214a11.778,11.778,0,0,1,11.676-11.878L3788,1324a11.778,11.778,0,0,1,11.692,11.863l.065,116.214A11.778,11.778,0,0,1,3788.078,1463.958Z" transform="translate(-3712.813 -1320.083)" fill="#b8c6f2"/>
      <g id="Grupo_164860" data-name="Grupo 164860" transform="translate(4.131 3.924)">
        <path id="Trazado_208524" data-name="Trazado 208524" d="M3775,1421.862l12.612-7.927,2.619,7.185-11.765,7.368,1.284,2.166,19.986-12.507v-2.977l-7.279,4.558-2.622-7.187,9.895-6.219-.007-14.46-1.257-2.072,1.255-1.76,0-4.406-2.812,3.944-10.768-5.343,9.208-12.912,4.366,2.424v-2.917l-2.875-1.6,2.871-4.026,0-5.285-4.8-2.666,4.8-.5,0-2.554-8.7.889-18.194-10.109,24.01-11.951,2.873,5.237v-.343a11.9,11.9,0,0,0-5.816-10.26l.472.861-9.413,4.685-7.2-7.144-3.65,0,8.376,8.373-13.931,6.932-15.779-11.733,2.019-3.564-5.711,0-4.849,6.989-6.148-3.213,2.534-3.773-3.085,0-3.459,5.148-4.491-5.144h-.937a12.389,12.389,0,0,0-4.893,1.092l4.6,5.292-11.32,4.246c-.042.41-.062,2.746-.062,2.746l13.154-4.932-.014-.038.9,1.038L3721.9,1349.5l-4.952-11.259.008,12.618,1.822,4.13-1.818,3.2,0,8.487,7.069,10.76-1.276,1.618-5.785,2.01v2.722l7.325-2.566,12.595-15.966,5,2.183-21.359,47.208-3.55-17.5.007,13.141,1.095,5.448-1.091.306,0,5.266,4.954-1.4,35.47,12.4,11.214-6.73-.654,2.44h5.4Zm18.614-30.322,5.491,9.152-11.081,6.888-4.256-11.669,7.674-5.448Zm-4.769-2.367-6.76,4.8-6.061-3.084,6.74-4.733Zm-28.744,9.815-5.255-7.067-3.041-10.492,19.242,9.791Zm.948,9.92-8.85,6.283,4.145-12.579Zm19.019-24.09-6.671,4.734-22.565-11.482-2.4-8.954Zm-31.582-30.238.2.393,10.979-5.466,11.375,6.313-9.96,13.968-8.543-4.24Zm-.92,30.786,2.53,8.849.257.381,2.97,3.973-12.974-3.724Zm26.093,7.185,6.076,3.091-14.478,10.28-3.648-4.906Zm10.154-11.479-20.413-10.13,9.892-13.869,19.8,10.989Zm7.31-25.006,7.536,4.186-4.078,5.719-7.389-4.1Zm-21.089-11.719,18.8,10.448-3.84,5.852-22.546-12.525Zm-18.736-14.616,6.008,4.469-2.843,3.831-6.054-4.118Zm-4.34,6.282,8.018,5.457,4.373-5.752,6.615,4.919-19.113,9.513-3.364-9.112Zm-9.874-6.72,5.668,3.857-2.332,3.361-4.627-5.3Zm-4.317,6.274,4.62,5.316-10.161,14.642-3.319-1.443-.727-1.656Zm-7.066,39.748-8.329-12.675,2.691-4.733,14.4,6.289Zm6.334-17.7,7.882-11.411,6.573,17.7Zm12.341,16.588,2.312,8.088-14.608,19.186Zm-18.742,41.57,1.774-3.934,11.288-14.825,15.327,4.437-7.171,21.77Zm31.138,10.93-7.5-2.632,1.579-4.791,11.726-8.326,6.379,8.535Zm16.526-9.969-6.516-8.764,14.816-10.521,4.2,11.513Z" transform="translate(-3716.95 -1324.051)" fill="#e3eaff"/>
      </g>
      <path id="Trazado_208525" data-name="Trazado 208525" d="M3789.036,1469.638,3799.2,1455l-4.621-5.316-9.586,16.859.727,1.656Z" transform="translate(-3774.623 -1434.241)" fill="#80bc48"/>
      <path id="Trazado_208526" data-name="Trazado 208526" d="M4353.263,1405.268l-2.873-5.237-24.01,11.951,18.194,10.109,8.7-.889Z" transform="translate(-4266.387 -1389.142)" fill="#80bc48"/>
      <path id="Trazado_208527" data-name="Trazado 208527" d="M4101.56,2193.709l4.145-12.579,4.705,6.3Z" transform="translate(-4062.175 -2098.645)" fill="#80bc48"/>
      <path id="Trazado_208528" data-name="Trazado 208528" d="M4050.933,1539.5a7.892,7.892,0,0,0-7.891,7.892c0,4.359,7.891,17.869,7.891,17.869s7.892-13.51,7.892-17.869A7.892,7.892,0,0,0,4050.933,1539.5Zm0,11.931a3.81,3.81,0,1,1,3.81-3.81A3.81,3.81,0,0,1,4050.933,1551.428Z" transform="translate(-4009.02 -1515.825)" fill="#e62552"/>
      <g id="Grupo_164868" data-name="Grupo 164868" transform="translate(30.461 43.737)">
        <g id="Grupo_164861" data-name="Grupo 164861" transform="translate(7.821 3.466)">
          <path id="Trazado_208529" data-name="Trazado 208529" d="M4091.76,1798.044a.543.543,0,0,1-.223-.047l-1.676-.743a.55.55,0,0,1,.445-1.006l1.677.743a.55.55,0,0,1-.224,1.053Z" transform="translate(-4089.534 -1796.201)" fill="#e62552"/>
        </g>
        <g id="Grupo_164862" data-name="Grupo 164862" transform="translate(3.724 1.65)">
          <path id="Trazado_208530" data-name="Trazado 208530" d="M4047.437,1778.4a.553.553,0,0,1-.223-.047l-2.048-.908a.55.55,0,1,1,.445-1.006l2.048.908a.55.55,0,0,1-.223,1.053Z" transform="translate(-4044.838 -1776.394)" fill="#e62552"/>
        </g>
        <g id="Grupo_164863" data-name="Grupo 164863">
          <path id="Trazado_208531" data-name="Trazado 208531" d="M4005.289,1761.243a.55.55,0,0,1-.526-.39l-.533-1.754a.55.55,0,0,1,.75-.663l1.676.743a.55.55,0,0,1-.445,1.005l-.578-.256.184.6a.55.55,0,0,1-.366.686A.559.559,0,0,1,4005.289,1761.243Z" transform="translate(-4004.206 -1758.389)" fill="#e62552"/>
        </g>
        <g id="Grupo_164864" data-name="Grupo 164864" transform="translate(1.54 5.068)">
          <path id="Trazado_208532" data-name="Trazado 208532" d="M4044.917,1860.419a.548.548,0,0,1-.448-.23l-2.012-2.819a.55.55,0,0,1,.9-.639l2.012,2.819a.55.55,0,0,1-.447.87Zm-4.024-5.638a.551.551,0,0,1-.448-.231l-2.012-2.819a.55.55,0,1,1,.9-.639l2.011,2.819a.55.55,0,0,1-.447.87Zm-4.023-5.639a.55.55,0,0,1-.448-.23l-2.012-2.819a.55.55,0,0,1,.9-.639l2.012,2.819a.55.55,0,0,1-.447.869Zm-4.023-5.638a.55.55,0,0,1-.448-.231l-2.012-2.819a.55.55,0,1,1,.9-.639l2.012,2.819a.55.55,0,0,1-.447.87Zm-4.023-5.639a.549.549,0,0,1-.448-.23l-.431-.6a.538.538,0,0,1-.078-.159l-.791-2.6a.549.549,0,1,1,1.051-.32l.766,2.518.378.531a.55.55,0,0,1-.447.869Zm-2.23-6.521a.551.551,0,0,1-.526-.39l-1.007-3.314a.55.55,0,1,1,1.052-.32l1.007,3.314a.551.551,0,0,1-.366.686A.56.56,0,0,1,4026.593,1831.344Zm-2.015-6.628a.55.55,0,0,1-.526-.39l-1.007-3.314a.55.55,0,0,1,1.053-.32l1.006,3.314a.549.549,0,0,1-.366.686A.542.542,0,0,1,4024.578,1824.716Zm-2.014-6.627a.551.551,0,0,1-.526-.39l-1.007-3.314a.55.55,0,1,1,1.052-.32l1.007,3.314a.55.55,0,0,1-.366.686A.558.558,0,0,1,4022.564,1818.089Z" transform="translate(-4021.007 -1813.675)" fill="#e62552"/>
        </g>
        <g id="Grupo_164865" data-name="Grupo 164865" transform="translate(26.483 53.531)">
          <path id="Trazado_208533" data-name="Trazado 208533" d="M4293.676,2346.052a.55.55,0,0,1-.32-1l1.045-.745-.745-1.044a.55.55,0,1,1,.9-.639l1.065,1.492a.55.55,0,0,1-.128.768L4294,2345.95A.551.551,0,0,1,4293.676,2346.052Z" transform="translate(-4293.125 -2342.396)" fill="#e62552"/>
        </g>
        <g id="Grupo_164866" data-name="Grupo 164866" transform="translate(20.448 58.239)">
          <path id="Trazado_208534" data-name="Trazado 208534" d="M4227.835,2397.008a.55.55,0,0,1-.32-1l3.018-2.151a.55.55,0,0,1,.638.9l-3.017,2.151A.55.55,0,0,1,4227.835,2397.008Z" transform="translate(-4227.285 -2393.756)" fill="#e62552"/>
        </g>
        <g id="Grupo_164867" data-name="Grupo 164867" transform="translate(15.938 62.542)">
          <path id="Trazado_208535" data-name="Trazado 208535" d="M4178.63,2442.863a.55.55,0,0,1-.32-1l1.493-1.064a.55.55,0,0,1,.638.9l-1.493,1.064A.548.548,0,0,1,4178.63,2442.863Z" transform="translate(-4178.08 -2440.699)" fill="#e62552"/>
        </g>
      </g>
      <g id="Grupo_164870" data-name="Grupo 164870" transform="translate(4.164 107.133)">
        <path id="Trazado_208536" data-name="Trazado 208536" d="M3800.057,2450.026v27.926a8.815,8.815,0,0,1-8.811,8.815l-65.1.029a8.814,8.814,0,0,1-8.82-8.81l-.017-27.96Z" transform="translate(-3717.31 -2450.026)" fill="#fff"/>
        <path id="Rectángulo_52788" data-name="Rectángulo 52788" d="M2.817,0H35.179A2.817,2.817,0,0,1,38,2.817v0A2.817,2.817,0,0,1,35.18,5.635H2.817A2.817,2.817,0,0,1,0,2.817v0A2.817,2.817,0,0,1,2.817,0Z" transform="translate(35.825 7.532)" fill="#e3eaff"/>
        <g id="Grupo_164869" data-name="Grupo 164869" transform="translate(8.22 4.707)">
          <path id="Trazado_208537" data-name="Trazado 208537" d="M3827.211,2509.531a2.771,2.771,0,0,0-1.11-2.176,2.736,2.736,0,0,0-1.714-.553,2.8,2.8,0,0,0-2.713,2.742h-7.725a2.736,2.736,0,0,0-1.135-2.2,2.633,2.633,0,0,0-1.667-.537,2.746,2.746,0,0,0-2.714,2.73c-.466-.132-.9-.252-1.333-.385a.206.206,0,0,1-.1-.161c-.005-1.274-.013-2.548.009-3.822a1.048,1.048,0,0,1,.235-.556,7.694,7.694,0,0,1,2.429-1.971,8.933,8.933,0,0,1,3.318-1.185,8.687,8.687,0,0,1,1.014-.064c1.076-.008,2.153.034,3.226-.014a4.206,4.206,0,0,1,2.6.746c.889.6,1.739,1.259,2.588,1.917a1.323,1.323,0,0,0,.666.273,14.393,14.393,0,0,1,4.2,1.1,6.492,6.492,0,0,1,1.055.684.82.82,0,0,1,.3.7q-.007,1.068,0,2.134c0,.119-.015.2-.153.235C3828.074,2509.281,3827.663,2509.4,3827.211,2509.531Zm-17.583-5.243,5.309.181v-1.725A7.442,7.442,0,0,0,3809.629,2504.288Zm6.651-1.579v1.8l4.77.167c0-.022.008-.044.012-.066-.273-.213-.535-.442-.822-.634-.486-.326-.988-.629-1.484-.941A4.778,4.778,0,0,0,3816.28,2502.709Z" transform="translate(-3806.99 -2501.373)" fill="#b8c6f2"/>
          <path id="Trazado_208538" data-name="Trazado 208538" d="M3834.128,2570.244a1.879,1.879,0,1,1-1.886,1.873A1.884,1.884,0,0,1,3834.128,2570.244Z" transform="translate(-3829.927 -2563.931)" fill="#b8c6f2"/>
          <path id="Trazado_208539" data-name="Trazado 208539" d="M3978.8,2570.244a1.879,1.879,0,1,1-1.9,1.857A1.884,1.884,0,0,1,3978.8,2570.244Z" transform="translate(-3961.326 -2563.931)" fill="#b8c6f2"/>
        </g>
        <rect id="Rectángulo_52789" data-name="Rectángulo 52789" width="57.804" height="6.24" rx="3.12" transform="translate(13.513 19.111)" fill="#e3eaff"/>
        <path id="Rectángulo_52790" data-name="Rectángulo 52790" d="M3.12,0H54.684A3.12,3.12,0,0,1,57.8,3.12v0a3.12,3.12,0,0,1-3.12,3.12H3.12A3.12,3.12,0,0,1,0,3.12v0A3.12,3.12,0,0,1,3.12,0Z" transform="translate(13.513 27.449)" fill="#e3eaff"/>
      </g>
      <path id="Trazado_208540" data-name="Trazado 208540" d="M4097.26,1950.031l3.041,10.492,5.255,7.067,10.947-7.768Z" transform="translate(-4058.269 -1888.728)" fill="#80bc48"/>
    </g>
    <g id="c" transform="translate(3704.439 1126.071)">
      <g id="Grupo_164878" data-name="Grupo 164878" transform="translate(17.824 0)">
        <path id="v-2" d="M4819.443,1759.294h0l-3.136.012-.71,7.407,3.661,1.933,3.9-1.911-.631-7.429Z" transform="translate(-4809.107 -1740.978)" fill="#f37a50"/>
        <g id="Grupo_164877" data-name="Grupo 164877" transform="translate(0)">
          <g id="Grupo_164876" data-name="Grupo 164876">
            <ellipse id="Elipse_5533" data-name="Elipse 5533" cx="9.811" cy="7.705" rx="9.811" ry="7.705" transform="translate(0 20.73) rotate(-82.434)" fill="#f37a50"/>
            <path id="Trazado_208541" data-name="Trazado 208541" d="M4795.893,1702.938c-.776,1.011-1.754,2.241-1.754,2.241a1.943,1.943,0,0,0,1.779,1.332c-.608-.323-1.194-.809-.854-1.629S4795.893,1702.938,4795.893,1702.938Z" transform="translate(-4789.618 -1689.787)" fill="#de623c"/>
            <path id="Trazado_208542" data-name="Trazado 208542" d="M4773.566,1568.18a6.656,6.656,0,0,0-4.249-6.8s1.055-.37.8-1.918a4.113,4.113,0,0,1-2.522.583c-5.851-.58-9.534.383-8.952,2.676.207.816-3.589,1.234-1.9,6.649.361-.639.687-3.039,1.824-3.568s.465,1.342,3.049,1.051c2.607-.293,4.305-1.375,6.205-.346,1.519.934,3.419,7.165,3.332,7.591C4771.354,1573.122,4773.365,1570.429,4773.566,1568.18Z" transform="translate(-4755.258 -1559.464)" fill="#201d40"/>
            <path id="Trazado_208543" data-name="Trazado 208543" d="M4756.988,1696.964s.5,2.919,1.135,3.7c.138-1.256,2.9-.466,4.093-.361,2.168.19,4.37-1.735,5.1,1.114,2.762.16,3.768-5.921,3.768-5.921,1.7,6.077-1.343,10.509-8.039,11.126C4758.633,1707.028,4756.189,1701.4,4756.988,1696.964Z" transform="translate(-4755.737 -1683.026)" fill="#201d40"/>
            <path id="Trazado_208544" data-name="Trazado 208544" d="M4840.513,1684.7a.746.746,0,1,0-.694-.794A.745.745,0,0,0,4840.513,1684.7Z" transform="translate(-4831.11 -1671.871)"/>
            <path id="Trazado_208545" data-name="Trazado 208545" d="M4773.34,1682.225a.746.746,0,1,0-.694-.794A.746.746,0,0,0,4773.34,1682.225Z" transform="translate(-4770.094 -1669.619)"/>
            <g id="Grupo_164872" data-name="Grupo 164872" transform="translate(1.662 9.616)">
              <path id="Trazado_208546" data-name="Trazado 208546" d="M4763.3,1665.8a.368.368,0,0,0,.33-.16,1.1,1.1,0,0,1,.722-.524,1.336,1.336,0,0,1,.9.268.37.37,0,0,0,.462-.578,2.081,2.081,0,0,0-1.463-.423,1.808,1.808,0,0,0-1.229.838.37.37,0,0,0,.28.579Z" transform="translate(-4762.958 -1664.37)" fill="#201d40"/>
            </g>
            <g id="Grupo_164873" data-name="Grupo 164873" transform="translate(8.444 9.959)">
              <path id="Trazado_208547" data-name="Trazado 208547" d="M4839.6,1669.793a.37.37,0,0,0,.328-.581,2.317,2.317,0,0,0-1.531-1.087,1.8,1.8,0,0,0-1.3.333.37.37,0,0,0,.458.58,1.067,1.067,0,0,1,.743-.18,1.634,1.634,0,0,1,1.02.776A.369.369,0,0,0,4839.6,1669.793Z" transform="translate(-4836.955 -1668.108)" fill="#201d40"/>
            </g>
            <g id="Grupo_164875" data-name="Grupo 164875" transform="translate(14.601 11.764)">
              <path id="Trazado_208548" data-name="Trazado 208548" d="M4904.936,1688.537a1.926,1.926,0,1,0,2.973-.222A2.129,2.129,0,0,0,4904.936,1688.537Z" transform="translate(-4904.119 -1687.807)" fill="#f37a50"/>
              <g id="Grupo_164874" data-name="Grupo 164874" transform="translate(1.137 1.053)">
                <path id="Trazado_208549" data-name="Trazado 208549" d="M4917.041,1701.57a.276.276,0,0,1-.106-.071,1.26,1.26,0,0,1-.25-1.527,1.342,1.342,0,0,1,1.414-.648.279.279,0,0,1-.122.544.8.8,0,0,0-.81.383.715.715,0,0,0,.178.871.278.278,0,0,1-.3.449Z" transform="translate(-4916.527 -1699.295)" fill="#de623c"/>
              </g>
            </g>
            <path id="Trazado_208550" data-name="Trazado 208550" d="M4796.531,1753.571c.031-.192-.012-.375-.205-.35a15.641,15.641,0,0,1-4.154.033c-.193-.021-.239.163-.2.353a2.3,2.3,0,0,0,2.245,1.659A2.48,2.48,0,0,0,4796.531,1753.571Z" transform="translate(-4787.639 -1735.459)" fill="#fff"/>
          </g>
        </g>
      </g>
      <path id="Trazado_208551" data-name="Trazado 208551" d="M4702.384,2816.467c-2.773,3.826-9.582,1.479-9.356,6.653,10.355-.067,14.659,0,14.659,0a38.042,38.042,0,0,0-.457-5.114Z" transform="translate(-4679.947 -2701.247)"/>
      <path id="Trazado_208552" data-name="Trazado 208552" d="M4871.409,2817.561c-2.773,3.825-9.583,1.478-9.358,6.653,10.356-.066,14.659,0,14.659,0a37.879,37.879,0,0,0-.457-5.114Z" transform="translate(-4833.477 -2702.241)"/>
      <path id="Trazado_208553" data-name="Trazado 208553" d="M4731.355,2179.266s-1.681,24.52-1,29.972,3.1,12.44,2.828,30.472c3.375.845,8.267,0,8.267,0s.725-20.389-2.843-29.5c1.45-8.846,6.107-29.106,6.107-29.106Z" transform="translate(-4713.711 -2122.454)" fill="#2e2a5c"/>
      <path id="Trazado_208554" data-name="Trazado 208554" d="M4812.571,2186.578s3.4,27.528,5.057,32.75,3.108,9.047,6.117,26.81c3.469.174,8.479.066,8.479.066s-.454-22.008-5.856-27.132c-.183-8.97.873-32.317.873-32.317Z" transform="translate(-4788.538 -2129.095)" fill="#373178"/>
      <g id="v" transform="translate(15.404 24.874)">
        <path id="h-5" d="M4742.7,1832.194s-5.9-2.064-7.862-1.118c-6.11,2.942-7.511,0-7.511,0-1.952.168-7.845,1.118-7.845,1.118,0,6.581-.439,13.185-.32,18.166.084,4.337-.742,16.14-.742,16.14a59.571,59.571,0,0,0,12.65,1.749,57.881,57.881,0,0,0,12.408-1.68s-.329-11.954-.6-16.4C4742.963,1845.191,4742.7,1838.757,4742.7,1832.194Z" transform="translate(-4718.418 -1830.828)" fill="#98b0f2"/>
      </g>
      <g id="c-2" data-name="c" transform="translate(5.462 26.24)">
        <path id="c-3" data-name="c" d="M4610.483,1855.511c2.434-5.806,9.656-9.5,10.481-9.781l1.675,7.454a43.588,43.588,0,0,0-5.988,4.271c.426,2.075.356,4.111,1.557,6.736,0,0-1.043-1.44-2.331-.588-1.251.828-3.553-.862-3.553-.862A6.167,6.167,0,0,1,4610.483,1855.511Z" transform="translate(-4609.961 -1845.73)" fill="#5e8adb"/>
      </g>
      <g id="c-4" data-name="c" transform="translate(0 26.235)">
        <g id="c-5" data-name="c" transform="translate(0 2.254)">
          <g id="c-6" data-name="c">
            <path id="c-7" data-name="c" d="M4557.711,1892.477a.648.648,0,0,1-.126.026h-.138a.659.659,0,0,1-.56-.46l-6.488-20.918a.645.645,0,0,1-.026-.126.584.584,0,0,1,0-.083c0-.017,0-.034,0-.05s.006-.029.008-.043a.657.657,0,0,1,.451-.523.673.673,0,0,1,.124-.026.648.648,0,0,1,.14,0h16.333l6.545,22.228H4557.7Z" transform="translate(-4550.371 -1870.271)" fill="#80bc48"/>
            <path id="c-8" data-name="c" d="M4730.245,1870.3a.66.66,0,0,1,.826.434l6.447,20.866.015.049a.659.659,0,0,1-.432.822h0a.659.659,0,0,1-.825-.434l-6.464-20.913A.658.658,0,0,1,4730.245,1870.3Z" transform="translate(-4713.337 -1870.271)" fill="#17962e"/>
          </g>
        </g>
        <path id="c-9" data-name="c" d="M4568.937,1972.295a.7.7,0,0,0-.195-.085c.006-.01.014-.02.021-.03a1.191,1.191,0,0,0-.061-1.637.693.693,0,0,0-.234-.1.984.984,0,0,0-.3-1.095.738.738,0,0,0-.422-.118.982.982,0,0,0-.322-1.147,1.154,1.154,0,0,0-1.256,1.895.828.828,0,0,0,.364.131,1.122,1.122,0,0,0,.164,1.458.7.7,0,0,0,.235.1.983.983,0,0,0,.3,1.095.729.729,0,0,0,.389.118.841.841,0,0,0,.256,1.015.974.974,0,0,0,1.061-1.6Z" transform="translate(-4564.367 -1956.74)" fill="#f37a50"/>
        <path id="Trazado_208555" data-name="Trazado 208555" d="M4715.746,1970.973l-1.489-.863a2.814,2.814,0,0,0-2.8-2.163l.668,2.163s-1.177.914-3.969-.65c-2.728-.613-1.562,1.376-2.467,1.519-1.334.211.973,2.833,3.7,3.234,3.525.519,3.944-.2,3.944-.2l1.995.7Z" transform="translate(-4691.096 -1956.739)" fill="#f37a50"/>
        <path id="c-10" data-name="c" d="M4827.39,1862.365c-4.977-.348-14.915-3.006-14.915-3.006a8.027,8.027,0,0,0-.983,4.851c7.728,6.775,19.359,8.966,22.927,7.335,3.258-1.489.944-21.326-7.236-25.869Z" transform="translate(-4787.515 -1845.676)" fill="#5e8adb"/>
      </g>
      <path id="Trazado_208556" data-name="Trazado 208556" d="M4697.416,1887.448a1.206,1.206,0,1,0,.6-1.721A1.3,1.3,0,0,0,4697.416,1887.448Z" transform="translate(-4683.836 -1855.753)" fill="#17962e"/>
      <path id="Trazado_208557" data-name="Trazado 208557" d="M4675.119,1892.013a.719.719,0,1,0,.356-1.027A.773.773,0,0,0,4675.119,1892.013Z" transform="translate(-4663.624 -1860.557)" fill="#17962e"/>
    </g>
  </g>
</svg>
