<svg xmlns="http://www.w3.org/2000/svg" width="44.623" height="212.194" viewBox="0 0 44.623 212.194">
  <g id="Grupo_152577" data-name="Grupo 152577" transform="translate(-197.745 -1731.806)">
    <g id="Grupo_146169" data-name="Grupo 146169">
      <g id="Grupo_146167" data-name="Grupo 146167" transform="translate(2396.375 11383.081)">
        <g id="Grupo_143430" data-name="Grupo 143430" transform="translate(-2198.63 -9543.646) rotate(-90)">
          <g id="Grupo_143424" data-name="Grupo 143424">
            <path id="Trazado_185200" data-name="Trazado 185200" d="M92.851,14.037c-4.233,0-6.323-3.379-8-6.1-1.7-2.748-2.852-4.433-5.02-4.433s-3.317,1.685-5.014,4.433c-1.679,2.716-3.768,6.1-8,6.1s-6.323-3.379-8-6.1c-1.7-2.748-2.85-4.433-5.016-4.433s-3.315,1.685-5.014,4.433c-1.679,2.716-3.768,6.1-8,6.1s-6.321-3.381-8-6.1c-1.7-2.746-2.848-4.431-5.012-4.431S24.462,5.193,22.764,7.94c-1.679,2.718-3.766,6.1-8,6.1s-6.319-3.379-8-6.1C5.07,5.193,3.92,3.509,1.756,3.509A1.754,1.754,0,1,1,1.756,0c4.229,0,6.319,3.379,8,6.1,1.7,2.748,2.848,4.433,5.012,4.433S18.079,8.844,19.778,6.1c1.679-2.716,3.768-6.1,8-6.1s6.319,3.379,8,6.1c1.7,2.748,2.848,4.433,5.014,4.433S44.1,8.844,45.8,6.1c1.679-2.716,3.768-6.1,8-6.1s6.321,3.379,8,6.1c1.7,2.748,2.848,4.433,5.016,4.433S70.131,8.844,71.83,6.1c1.677-2.716,3.768-6.1,8-6.1s6.325,3.379,8,6.1c1.7,2.748,2.852,4.433,5.018,4.433S96.17,8.844,97.871,6.1c1.679-2.716,3.77-6.1,8-6.1a1.754,1.754,0,1,1,0,3.509c-2.168,0-3.319,1.685-5.02,4.433C99.176,10.658,97.086,14.037,92.851,14.037Z" fill="#491079"/>
            <path id="Trazado_185201" data-name="Trazado 185201" d="M92.851,14.039c-4.233,0-6.323-3.381-8-6.1-1.7-2.75-2.852-4.435-5.02-4.435s-3.317,1.685-5.014,4.433c-1.679,2.716-3.768,6.1-8,6.1s-6.323-3.381-8-6.1c-1.7-2.748-2.85-4.433-5.016-4.433s-3.315,1.685-5.014,4.433c-1.679,2.716-3.768,6.1-8,6.1s-6.321-3.383-8-6.1c-1.7-2.748-2.848-4.433-5.012-4.433s-3.313,1.685-5.012,4.433c-1.679,2.716-3.766,6.1-8,6.1s-6.319-3.381-8-6.1C5.07,5.193,3.92,3.509,1.756,3.509A1.754,1.754,0,1,1,1.756,0c4.229,0,6.319,3.381,8,6.1,1.7,2.746,2.848,4.431,5.012,4.431S18.079,8.844,19.778,6.1c1.679-2.716,3.768-6.1,8-6.1s6.319,3.381,8,6.1c1.7,2.746,2.848,4.431,5.014,4.431S44.1,8.844,45.8,6.1c1.679-2.716,3.768-6.1,8-6.1s6.321,3.381,8,6.1c1.7,2.746,2.848,4.431,5.016,4.431S70.131,8.844,71.83,6.1c1.677-2.716,3.768-6.1,8-6.1s6.325,3.381,8,6.1c1.7,2.746,2.852,4.431,5.018,4.431S96.17,8.844,97.871,6.1c1.679-2.716,3.77-6.1,8-6.1a1.754,1.754,0,1,1,0,3.509c-2.168,0-3.319,1.685-5.02,4.433C99.176,10.658,97.086,14.039,92.851,14.039Z" transform="translate(0 15.293)" fill="#491079"/>
            <path id="Trazado_185202" data-name="Trazado 185202" d="M92.851,14.037c-4.233,0-6.323-3.379-8-6.1-1.7-2.748-2.852-4.433-5.02-4.433s-3.317,1.685-5.014,4.433c-1.679,2.716-3.768,6.1-8,6.1s-6.323-3.379-8-6.1c-1.7-2.748-2.85-4.433-5.016-4.433s-3.315,1.685-5.014,4.433c-1.679,2.716-3.768,6.1-8,6.1s-6.321-3.379-8-6.1c-1.7-2.748-2.848-4.433-5.012-4.433s-3.313,1.685-5.012,4.433c-1.679,2.716-3.766,6.1-8,6.1s-6.319-3.379-8-6.1C5.07,5.193,3.92,3.509,1.756,3.509A1.754,1.754,0,1,1,1.756,0c4.229,0,6.319,3.381,8,6.1,1.7,2.746,2.848,4.431,5.012,4.431S18.079,8.844,19.778,6.1c1.679-2.716,3.768-6.1,8-6.1s6.319,3.381,8,6.1c1.7,2.748,2.848,4.433,5.014,4.433S44.1,8.844,45.8,6.1c1.679-2.714,3.768-6.1,8-6.1s6.321,3.381,8,6.1c1.7,2.748,2.848,4.433,5.016,4.433S70.131,8.844,71.83,6.1c1.677-2.714,3.768-6.1,8-6.1s6.325,3.381,8,6.1c1.7,2.748,2.852,4.433,5.018,4.433S96.17,8.844,97.871,6.1c1.679-2.714,3.77-6.1,8-6.1a1.754,1.754,0,1,1,0,3.509c-2.168,0-3.319,1.685-5.02,4.433C99.176,10.658,97.086,14.037,92.851,14.037Z" transform="translate(0 30.586)" fill="#491079"/>
          </g>
        </g>
      </g>
      <g id="Grupo_146168" data-name="Grupo 146168" transform="translate(2396.375 11487.646)">
        <g id="Grupo_143430-2" data-name="Grupo 143430" transform="translate(-2198.63 -9543.646) rotate(-90)">
          <g id="Grupo_143424-2" data-name="Grupo 143424">
            <path id="Trazado_185200-2" data-name="Trazado 185200" d="M92.851,14.037c-4.233,0-6.323-3.379-8-6.1-1.7-2.748-2.852-4.433-5.02-4.433s-3.317,1.685-5.014,4.433c-1.679,2.716-3.768,6.1-8,6.1s-6.323-3.379-8-6.1c-1.7-2.748-2.85-4.433-5.016-4.433s-3.315,1.685-5.014,4.433c-1.679,2.716-3.768,6.1-8,6.1s-6.321-3.381-8-6.1c-1.7-2.746-2.848-4.431-5.012-4.431S24.462,5.193,22.764,7.94c-1.679,2.718-3.766,6.1-8,6.1s-6.319-3.379-8-6.1C5.07,5.193,3.92,3.509,1.756,3.509A1.754,1.754,0,1,1,1.756,0c4.229,0,6.319,3.379,8,6.1,1.7,2.748,2.848,4.433,5.012,4.433S18.079,8.844,19.778,6.1c1.679-2.716,3.768-6.1,8-6.1s6.319,3.379,8,6.1c1.7,2.748,2.848,4.433,5.014,4.433S44.1,8.844,45.8,6.1c1.679-2.716,3.768-6.1,8-6.1s6.321,3.379,8,6.1c1.7,2.748,2.848,4.433,5.016,4.433S70.131,8.844,71.83,6.1c1.677-2.716,3.768-6.1,8-6.1s6.325,3.379,8,6.1c1.7,2.748,2.852,4.433,5.018,4.433S96.17,8.844,97.871,6.1c1.679-2.716,3.77-6.1,8-6.1a1.754,1.754,0,1,1,0,3.509c-2.168,0-3.319,1.685-5.02,4.433C99.176,10.658,97.086,14.037,92.851,14.037Z" fill="#491079"/>
            <path id="Trazado_185201-2" data-name="Trazado 185201" d="M92.851,14.039c-4.233,0-6.323-3.381-8-6.1-1.7-2.75-2.852-4.435-5.02-4.435s-3.317,1.685-5.014,4.433c-1.679,2.716-3.768,6.1-8,6.1s-6.323-3.381-8-6.1c-1.7-2.748-2.85-4.433-5.016-4.433s-3.315,1.685-5.014,4.433c-1.679,2.716-3.768,6.1-8,6.1s-6.321-3.383-8-6.1c-1.7-2.748-2.848-4.433-5.012-4.433s-3.313,1.685-5.012,4.433c-1.679,2.716-3.766,6.1-8,6.1s-6.319-3.381-8-6.1C5.07,5.193,3.92,3.509,1.756,3.509A1.754,1.754,0,1,1,1.756,0c4.229,0,6.319,3.381,8,6.1,1.7,2.746,2.848,4.431,5.012,4.431S18.079,8.844,19.778,6.1c1.679-2.716,3.768-6.1,8-6.1s6.319,3.381,8,6.1c1.7,2.746,2.848,4.431,5.014,4.431S44.1,8.844,45.8,6.1c1.679-2.716,3.768-6.1,8-6.1s6.321,3.381,8,6.1c1.7,2.746,2.848,4.431,5.016,4.431S70.131,8.844,71.83,6.1c1.677-2.716,3.768-6.1,8-6.1s6.325,3.381,8,6.1c1.7,2.746,2.852,4.431,5.018,4.431S96.17,8.844,97.871,6.1c1.679-2.716,3.77-6.1,8-6.1a1.754,1.754,0,1,1,0,3.509c-2.168,0-3.319,1.685-5.02,4.433C99.176,10.658,97.086,14.039,92.851,14.039Z" transform="translate(0 15.293)" fill="#491079"/>
            <path id="Trazado_185202-2" data-name="Trazado 185202" d="M92.851,14.037c-4.233,0-6.323-3.379-8-6.1-1.7-2.748-2.852-4.433-5.02-4.433s-3.317,1.685-5.014,4.433c-1.679,2.716-3.768,6.1-8,6.1s-6.323-3.379-8-6.1c-1.7-2.748-2.85-4.433-5.016-4.433s-3.315,1.685-5.014,4.433c-1.679,2.716-3.768,6.1-8,6.1s-6.321-3.379-8-6.1c-1.7-2.748-2.848-4.433-5.012-4.433s-3.313,1.685-5.012,4.433c-1.679,2.716-3.766,6.1-8,6.1s-6.319-3.379-8-6.1C5.07,5.193,3.92,3.509,1.756,3.509A1.754,1.754,0,1,1,1.756,0c4.229,0,6.319,3.381,8,6.1,1.7,2.746,2.848,4.431,5.012,4.431S18.079,8.844,19.778,6.1c1.679-2.716,3.768-6.1,8-6.1s6.319,3.381,8,6.1c1.7,2.748,2.848,4.433,5.014,4.433S44.1,8.844,45.8,6.1c1.679-2.714,3.768-6.1,8-6.1s6.321,3.381,8,6.1c1.7,2.748,2.848,4.433,5.016,4.433S70.131,8.844,71.83,6.1c1.677-2.714,3.768-6.1,8-6.1s6.325,3.381,8,6.1c1.7,2.748,2.852,4.433,5.018,4.433S96.17,8.844,97.871,6.1c1.679-2.714,3.77-6.1,8-6.1a1.754,1.754,0,1,1,0,3.509c-2.168,0-3.319,1.685-5.02,4.433C99.176,10.658,97.086,14.037,92.851,14.037Z" transform="translate(0 30.586)" fill="#491079"/>
          </g>
        </g>
      </g>
    </g>
  </g>
</svg>
