<svg id="Grupo_151673" data-name="Grupo 151673" xmlns="http://www.w3.org/2000/svg" width="100.609" height="41.713" viewBox="0 0 100.609 41.713">
  <g id="Grupo_143424" data-name="Grupo 143424" transform="translate(0 0)">
    <path id="Trazado_185200" data-name="Trazado 185200" d="M191.294,84.178c-3.957,0-5.911-3.159-7.48-5.7-1.59-2.569-2.666-4.144-4.692-4.144s-3.1,1.575-4.687,4.144c-1.569,2.539-3.523,5.7-7.478,5.7s-5.911-3.159-7.48-5.7c-1.588-2.569-2.664-4.144-4.689-4.144s-3.1,1.575-4.687,4.144c-1.569,2.539-3.523,5.7-7.478,5.7s-5.909-3.161-7.476-5.7c-1.588-2.567-2.662-4.142-4.685-4.142s-3.1,1.575-4.685,4.142c-1.569,2.541-3.521,5.7-7.476,5.7s-5.907-3.159-7.476-5.7c-1.588-2.567-2.662-4.142-4.685-4.142a1.64,1.64,0,1,1,0-3.28c3.954,0,5.907,3.159,7.476,5.7,1.586,2.569,2.662,4.144,4.685,4.144s3.1-1.575,4.685-4.144c1.569-2.539,3.523-5.7,7.476-5.7s5.907,3.159,7.474,5.7c1.588,2.569,2.662,4.144,4.687,4.144s3.1-1.575,4.687-4.144c1.569-2.539,3.523-5.7,7.478-5.7s5.909,3.159,7.48,5.7c1.586,2.569,2.662,4.144,4.689,4.144s3.1-1.575,4.687-4.144c1.567-2.539,3.523-5.7,7.478-5.7s5.913,3.159,7.482,5.7c1.59,2.569,2.666,4.144,4.69,4.144s3.1-1.575,4.692-4.144c1.569-2.539,3.524-5.7,7.482-5.7a1.64,1.64,0,1,1,0,3.28c-2.026,0-3.1,1.575-4.692,4.144C197.207,81.019,195.253,84.178,191.294,84.178Z" transform="translate(-104.499 -71.056)" fill="#9c60a9"/>
    <path id="Trazado_185201" data-name="Trazado 185201" d="M191.294,91.842c-3.957,0-5.911-3.161-7.48-5.7-1.59-2.571-2.666-4.146-4.692-4.146s-3.1,1.575-4.687,4.144c-1.569,2.539-3.523,5.7-7.478,5.7s-5.911-3.161-7.48-5.7C157.89,83.573,156.813,82,154.789,82s-3.1,1.575-4.687,4.144c-1.569,2.539-3.523,5.7-7.478,5.7s-5.909-3.162-7.476-5.7C133.56,83.573,132.485,82,130.463,82s-3.1,1.575-4.685,4.144c-1.569,2.539-3.521,5.7-7.476,5.7s-5.907-3.161-7.476-5.7C109.238,83.573,108.163,82,106.141,82a1.64,1.64,0,1,1,0-3.28c3.954,0,5.907,3.161,7.476,5.7,1.586,2.567,2.662,4.142,4.685,4.142s3.1-1.575,4.685-4.142c1.569-2.539,3.523-5.7,7.476-5.7s5.907,3.161,7.474,5.7c1.588,2.567,2.662,4.142,4.687,4.142s3.1-1.575,4.687-4.142c1.569-2.539,3.523-5.7,7.478-5.7s5.909,3.161,7.48,5.7c1.586,2.567,2.662,4.142,4.689,4.142s3.1-1.575,4.687-4.142c1.567-2.539,3.523-5.7,7.478-5.7s5.913,3.161,7.482,5.7c1.59,2.567,2.666,4.142,4.69,4.142s3.1-1.575,4.692-4.142c1.569-2.539,3.524-5.7,7.482-5.7a1.64,1.64,0,1,1,0,3.28c-2.026,0-3.1,1.575-4.692,4.144C197.207,88.681,195.253,91.842,191.294,91.842Z" transform="translate(-104.499 -64.423)" fill="#9c60a9"/>
    <path id="Trazado_185202" data-name="Trazado 185202" d="M191.294,99.5c-3.957,0-5.911-3.159-7.48-5.7-1.59-2.569-2.666-4.144-4.692-4.144s-3.1,1.575-4.687,4.144c-1.569,2.539-3.523,5.7-7.478,5.7s-5.911-3.159-7.48-5.7c-1.588-2.569-2.664-4.144-4.689-4.144s-3.1,1.575-4.687,4.144c-1.569,2.539-3.523,5.7-7.478,5.7s-5.909-3.159-7.476-5.7c-1.588-2.569-2.662-4.144-4.685-4.144s-3.1,1.575-4.685,4.144c-1.569,2.539-3.521,5.7-7.476,5.7s-5.907-3.159-7.476-5.7c-1.588-2.569-2.662-4.144-4.685-4.144a1.64,1.64,0,1,1,0-3.28c3.954,0,5.907,3.161,7.476,5.7,1.586,2.567,2.662,4.142,4.685,4.142s3.1-1.575,4.685-4.142c1.569-2.539,3.523-5.7,7.476-5.7s5.907,3.161,7.474,5.7c1.588,2.569,2.662,4.144,4.687,4.144s3.1-1.575,4.687-4.144c1.569-2.537,3.523-5.7,7.478-5.7s5.909,3.161,7.48,5.7c1.586,2.569,2.662,4.144,4.689,4.144s3.1-1.575,4.687-4.144c1.567-2.537,3.523-5.7,7.478-5.7s5.913,3.161,7.482,5.7c1.59,2.569,2.666,4.144,4.69,4.144s3.1-1.575,4.692-4.144c1.569-2.537,3.524-5.7,7.482-5.7a1.64,1.64,0,1,1,0,3.28c-2.026,0-3.1,1.575-4.692,4.144C197.207,96.343,195.253,99.5,191.294,99.5Z" transform="translate(-104.499 -57.789)" fill="#9c60a9"/>
  </g>
</svg>
