<svg id="Grupo_151038" data-name="Grupo 151038" xmlns="http://www.w3.org/2000/svg" xmlns:xlink="http://www.w3.org/1999/xlink" width="295" height="282.892" viewBox="0 0 295 282.892">
  <defs>
    <clipPath id="clip-path">
      <rect id="Rectángulo_47757" data-name="Rectángulo 47757" width="295" height="282.892" fill="none"/>
    </clipPath>
    <clipPath id="clip-path-6">
      <rect id="Rectángulo_47756" data-name="Rectángulo 47756" width="295" height="282.892" fill="#a667b4"/>
    </clipPath>
    <clipPath id="clip-path-7">
      <rect id="Rectángulo_47752" data-name="Rectángulo 47752" width="4.941" height="17.996" fill="none"/>
    </clipPath>
    <clipPath id="clip-path-8">
      <rect id="Rectángulo_47753" data-name="Rectángulo 47753" width="28.297" height="4.499" fill="none"/>
    </clipPath>
    <clipPath id="clip-path-9">
      <rect id="Rectángulo_47754" data-name="Rectángulo 47754" width="3.275" height="3.331" fill="none"/>
    </clipPath>
    <clipPath id="clip-path-10">
      <rect id="Rectángulo_47755" data-name="Rectángulo 47755" width="2.404" height="10.399" fill="none"/>
    </clipPath>
  </defs>
  <g id="Grupo_151037" data-name="Grupo 151037" clip-path="url(#clip-path)">
    <g id="Grupo_150993" data-name="Grupo 150993">
      <g id="Grupo_150992" data-name="Grupo 150992" clip-path="url(#clip-path)">
        <path id="Trazado_190067" data-name="Trazado 190067" d="M240.155,382.961c-11.514-5.452-16.109-18.41-17.732-30.482-.271-2.015-.849-4.09-.193-6.01s2.676-3.5,4.613-2.956c1.607.449,2.548,2.07,3.622,3.361a11.89,11.89,0,0,0,5.458,3.693,4.528,4.528,0,0,0,4.177-.324c1.567-1.246,1.366-3.668,1.017-5.659q-.978-5.565-1.954-11.13a18.818,18.818,0,0,1-.4-6.02,6.27,6.27,0,0,1,3.178-4.836c1.807-.851,4.335-.155,5.066,1.728a18.688,18.688,0,0,1,.476,2.471,2.126,2.126,0,0,0,1.56,1.766c.835.1,1.537-.6,2.034-1.285a26.86,26.86,0,0,0,3.542-7.987,37.3,37.3,0,0,1,3.183-8.162,10.931,10.931,0,0,1,6.608-5.33c2.827-.645,6.166.6,7.361,3.282s.042,5.815-1.357,8.39a45.117,45.117,0,0,1-7.768,10.4,3.714,3.714,0,0,0-1.267,1.928c-.208,1.4,1.274,2.508,2.66,2.723a23.433,23.433,0,0,0,4.74-.263c1.585-.08,3.384.321,4.22,1.69,1.161,1.9-.181,4.322-1.621,6a38.646,38.646,0,0,1-10.176,8.418,13.037,13.037,0,0,0-3.846,2.746,3.74,3.74,0,0,0-.466,4.424c.952,1.284,2.861,1.423,4.349.879a26.953,26.953,0,0,0,4.09-2.41c2.564-1.5,6.132-1.907,8.287.164a6.394,6.394,0,0,1,1.614,5.462,14.746,14.746,0,0,1-2.187,5.436,38.869,38.869,0,0,1-14.416,14.266c-5.98,3.277-11.765,4.869-18.469,3.629" transform="translate(-73.655 -101.436)" fill="#f5f5f5"/>
        <path id="Trazado_190068" data-name="Trazado 190068" d="M251.942,375.51a180.912,180.912,0,0,1,3.836-20.424l1.281-5.3c.424-1.738.845-3.464,1.36-5.125a90.407,90.407,0,0,1,3.51-9.378c1.261-2.929,2.564-5.662,3.8-8.209s2.447-4.9,3.635-6.991a71.731,71.731,0,0,1,6.337-9.462c.832-1.055,1.505-1.851,1.969-2.385l.53-.6a1.522,1.522,0,0,1,.19-.2,1.4,1.4,0,0,1-.162.222l-.5.628c-.444.549-1.1,1.36-1.913,2.427a75.824,75.824,0,0,0-6.221,9.5c-1.171,2.1-2.358,4.45-3.586,7s-2.515,5.285-3.765,8.21a91.542,91.542,0,0,0-3.475,9.349c-.51,1.653-.925,3.363-1.35,5.106l-1.278,5.3a185.652,185.652,0,0,0-3.858,20.377" transform="translate(-83.617 -102.033)" fill="#e0e0e0"/>
        <path id="Trazado_190069" data-name="Trazado 190069" d="M258.5,352.457a4.118,4.118,0,0,1-.339-.817c-.2-.533-.458-1.313-.766-2.282-.617-1.936-1.378-4.639-2.207-7.623s-1.626-5.67-2.271-7.591c-.32-.962-.587-1.738-.778-2.272a3.992,3.992,0,0,1-.257-.846,4.07,4.07,0,0,1,.392.793c.233.518.538,1.283.891,2.237.712,1.906,1.553,4.59,2.382,7.578.81,2.946,1.542,5.611,2.1,7.648.259.919.477,1.692.653,2.314a4.059,4.059,0,0,1,.2.862" transform="translate(-83.595 -109.863)" fill="#e0e0e0"/>
        <path id="Trazado_190070" data-name="Trazado 190070" d="M286.6,349.446a5.672,5.672,0,0,1-1,.3c-.647.17-1.585.411-2.735.745-2.3.65-5.455,1.66-8.883,2.926s-6.478,2.556-8.658,3.548c-1.094.488-1.969.907-2.576,1.194a5.612,5.612,0,0,1-.958.414,5.523,5.523,0,0,1,.893-.545c.587-.327,1.447-.783,2.529-1.3,2.158-1.056,5.2-2.383,8.641-3.661a91.675,91.675,0,0,1,8.942-2.829c1.162-.3,2.113-.505,2.772-.631a5.46,5.46,0,0,1,1.033-.152" transform="translate(-86.885 -115.975)" fill="#e0e0e0"/>
        <path id="Trazado_190071" data-name="Trazado 190071" d="M243.136,393.371a1.329,1.329,0,0,1-.228-.283c-.161-.231-.357-.512-.595-.853-.514-.742-1.229-1.837-2.094-3.2-1.732-2.726-4.007-6.567-6.46-10.839s-4.691-8.13-6.364-10.888l-1.991-3.261-.537-.891a.184.184,0,1,1,.063-.041l.595.852c.513.743,1.228,1.837,2.093,3.2,1.733,2.726,4.007,6.567,6.461,10.841s4.689,8.128,6.362,10.887l1.992,3.261.536.891a1.342,1.342,0,0,1,.166.325" transform="translate(-74.575 -120.419)" fill="#e0e0e0"/>
        <path id="Trazado_190072" data-name="Trazado 190072" d="M284.483,383.5a1.389,1.389,0,0,1-.314.2l-.933.5-3.446,1.8c-2.91,1.519-6.9,3.663-11.314,6.038s-8.43,4.486-11.371,5.945c-1.47.73-2.666,1.309-3.5,1.692l-.964.436a1.355,1.355,0,0,1-.347.128,1.4,1.4,0,0,1,.314-.2l.933-.5,3.445-1.8c2.91-1.519,6.9-3.663,11.316-6.039s8.428-4.485,11.369-5.944c1.471-.73,2.666-1.309,3.5-1.692l.963-.436a1.387,1.387,0,0,1,.347-.128" transform="translate(-83.733 -127.278)" fill="#e0e0e0"/>
        <path id="Trazado_190073" data-name="Trazado 190073" d="M118.9,206.636s-7.938,1.1-3.482,18.489,8.237,26.347,8.237,26.347.6,3.938-2.576,3.816-9.647-2.7-11.842.726c-2.278,3.553-.287,7.834,4.693,12.314s15.528,14.7,16.478,15.626c.933.91,1.641,2.839-.535,3.1s-17.628-1.55-18.05,5.834,15.5,17.587,17.22,18.736,1.99,2.048,1.6,3.047-5.522-.1-9.938-.436-9.6.049-9.481,4.329,8.474,15.1,32.864,23.139l11.546,2.986,8.535-8.4c17.169-19.1,19.049-32.64,17.02-36.411s-6.714-1.531-10.379.955-7.576,5.992-8.407,5.317-1.042-1.59-.122-3.441,9.668-18.618,5.633-24.816-16.544,3.055-18.563,3.907-2.364-1.173-2.006-2.427c.363-1.277,4.44-15.385,6.535-21.748s1.694-11.067-2.047-13.017c-3.608-1.882-7.943,3.571-10.638,5.254s-4.132-2.032-4.132-2.032-1.173-9.654-5.945-26.956-12.381-14.2-12.381-14.2" transform="translate(-35.945 -68.52)" fill="#ebebeb"/>
        <path id="Trazado_190074" data-name="Trazado 190074" d="M162.865,355.393c-3.455-12.721-9.215-35.433-14.262-54.907s-9.63-37.088-13.019-49.826c-1.7-6.356-3.075-11.5-4.03-15.08l-1.093-4.1-.275-1.069c-.06-.242-.082-.368-.082-.368s.046.12.118.357l.311,1.06,1.161,4.083c1,3.547,2.419,8.689,4.144,15.051,3.454,12.721,8.079,30.333,13.124,49.8s10.767,42.2,14.157,54.932" transform="translate(-43.18 -76.348)" fill="#e0e0e0"/>
        <path id="Trazado_190075" data-name="Trazado 190075" d="M123.041,286.577a3.861,3.861,0,0,1,.76.408c.478.281,1.157.708,1.991,1.243,1.666,1.074,3.928,2.615,6.4,4.361l6.3,4.492,1.916,1.349a3.909,3.909,0,0,1,.685.523,3.8,3.8,0,0,1-.764-.4c-.478-.283-1.157-.71-1.986-1.253-1.656-1.09-3.9-2.66-6.363-4.406l-6.327-4.446-1.924-1.34a3.863,3.863,0,0,1-.681-.529" transform="translate(-40.836 -95.111)" fill="#e0e0e0"/>
        <path id="Trazado_190076" data-name="Trazado 190076" d="M151.488,293.693c-.086-.055,2.886-4.861,6.638-10.731s6.864-10.588,6.95-10.533-2.886,4.859-6.638,10.733-6.864,10.587-6.95,10.532" transform="translate(-50.277 -90.416)" fill="#e0e0e0"/>
        <path id="Trazado_190077" data-name="Trazado 190077" d="M161.069,341.895a4.01,4.01,0,0,1,.633-.612l1.8-1.576c1.519-1.332,3.608-3.182,5.838-5.306s4.193-4.11,5.6-5.561l1.666-1.718a4.062,4.062,0,0,1,.643-.6,3.953,3.953,0,0,1-.536.7c-.363.434-.9,1.052-1.582,1.8-1.358,1.5-3.291,3.524-5.533,5.65s-4.359,3.954-5.923,5.237c-.785.639-1.426,1.148-1.879,1.487a3.984,3.984,0,0,1-.725.5" transform="translate(-53.457 -108.368)" fill="#e0e0e0"/>
        <path id="Trazado_190078" data-name="Trazado 190078" d="M131.818,339.2a3.43,3.43,0,0,1,.792.192l2.114.654c1.78.567,4.23,1.376,6.93,2.29s5.138,1.762,6.9,2.393l2.076.766a3.4,3.4,0,0,1,.745.329,3.461,3.461,0,0,1-.792-.192l-2.114-.654c-1.78-.567-4.23-1.376-6.931-2.29s-5.136-1.761-6.895-2.393l-2.076-.766a3.463,3.463,0,0,1-.745-.328" transform="translate(-43.749 -112.576)" fill="#e0e0e0"/>
        <path id="Trazado_190079" data-name="Trazado 190079" d="M135.2,380.25a5.641,5.641,0,0,1,1.01.256l2.713.828c2.286.714,5.434,1.726,8.905,2.865s6.608,2.189,8.873,2.968l2.675.94a5.667,5.667,0,0,1,.965.392,5.524,5.524,0,0,1-1.01-.255l-2.713-.828c-2.285-.715-5.434-1.726-8.906-2.866s-6.607-2.189-8.871-2.968l-2.676-.939a5.63,5.63,0,0,1-.965-.393" transform="translate(-44.87 -126.199)" fill="#e0e0e0"/>
        <path id="Trazado_190080" data-name="Trazado 190080" d="M172.011,382.083a6.381,6.381,0,0,1,.783-.8l2.211-2.081c1.865-1.758,4.432-4.2,7.189-6.969s5.2-5.34,6.946-7.214l2.074-2.219a6.458,6.458,0,0,1,.792-.786,6.357,6.357,0,0,1-.684.882c-.459.552-1.135,1.34-1.988,2.3-1.7,1.922-4.11,4.526-6.877,7.3s-5.362,5.189-7.274,6.9c-.959.853-1.741,1.535-2.293,1.995a6.471,6.471,0,0,1-.879.688" transform="translate(-57.088 -120.15)" fill="#e0e0e0"/>
        <path id="Trazado_190081" data-name="Trazado 190081" d="M60.046,39l-6.52-2.034s-1.708,5.475-7.428,3.8A5.525,5.525,0,0,1,42.04,35.8a6.119,6.119,0,0,1,2.112-5.136c1.674-1.479,4.615-2.38,8.768-.235l4.587-14.7-6.447-2.011-2.686,8.611s-9.772-.483-12.881,9.482c-2.974,9.534,4.885,14.416,8.545,15.558,2.8.873,12.544,3.171,16.009-8.37" transform="translate(-11.561 -4.552)" fill="#f5f5f5"/>
        <rect id="Rectángulo_47730" data-name="Rectángulo 47730" width="6.402" height="6.854" transform="translate(40.365 6.111) rotate(-72.674)" fill="#f5f5f5"/>
        <path id="Trazado_190082" data-name="Trazado 190082" d="M99.377,23.566l2.611-.689a2.3,2.3,0,0,1,1.69-2.832,2.185,2.185,0,0,1,2.4.808,2.421,2.421,0,0,1,.371,2.164c-.25.847-1.046,1.766-2.887,1.921l1.553,5.887,2.582-.681-.91-3.449a5.214,5.214,0,0,0,2.322-5.881c-1.008-3.818-4.665-3.8-6.131-3.415-1.121.3-4.867,1.573-3.6,6.167" transform="translate(-32.897 -5.719)" fill="#ebebeb"/>
        <rect id="Rectángulo_47731" data-name="Rectángulo 47731" width="2.71" height="2.531" transform="translate(72.533 26.321) rotate(-14.783)" fill="#ebebeb"/>
        <path id="Trazado_190083" data-name="Trazado 190083" d="M422.315,126.221l2.539.92a2.3,2.3,0,0,1,3-1.368,2.185,2.185,0,0,1,1.515,2.032,2.419,2.419,0,0,1-.926,1.991c-.687.554-1.865.858-3.467-.064l-2.074,5.725,2.511.909,1.215-3.353a5.214,5.214,0,0,0,5.256-3.515c1.345-3.713-1.672-5.781-3.1-6.3-1.09-.395-4.9-1.477-6.473,3.02" transform="translate(-140.161 -40.755)" fill="#ebebeb"/>
        <rect id="Rectángulo_47732" data-name="Rectángulo 47732" width="2.531" height="2.71" transform="matrix(0.341, -0.94, 0.94, 0.341, 281.445, 98.258)" fill="#ebebeb"/>
        <path id="Trazado_190084" data-name="Trazado 190084" d="M18.52,164.158l5.373-2.069a4.894,4.894,0,0,1,2.92-6.4,4.657,4.657,0,0,1,5.279,1.153,5.159,5.159,0,0,1,1.293,4.5c-.332,1.854-1.8,3.989-5.67,4.746L32.383,178.2l5.313-2.046-2.734-7.1a11.118,11.118,0,0,0,3.546-13.009c-3.027-7.857-10.775-6.968-13.792-5.805-2.306.888-9.949,4.472-6.2,13.912" transform="translate(-5.808 -49.613)" fill="#f5f5f5"/>
        <rect id="Rectángulo_47733" data-name="Rectángulo 47733" width="5.779" height="5.397" transform="translate(27.521 131.091) rotate(-21.067)" fill="#f5f5f5"/>
        <path id="Trazado_190085" data-name="Trazado 190085" d="M418.107,197.011l-3.808,1.467a3.467,3.467,0,0,1-2.069,4.534,3.3,3.3,0,0,1-3.741-.817,3.656,3.656,0,0,1-.917-3.188c.236-1.314,1.278-2.827,4.019-3.363l-3.308-8.585-3.765,1.45,1.938,5.029a7.879,7.879,0,0,0-2.513,9.219c2.145,5.567,7.637,4.937,9.774,4.114,1.634-.629,7.05-3.17,4.39-9.859" transform="translate(-133.864 -62.082)" fill="#f5f5f5"/>
        <rect id="Rectángulo_47734" data-name="Rectángulo 47734" width="4.095" height="3.824" transform="translate(268.552 121.106) rotate(-21.067)" fill="#f5f5f5"/>
      </g>
    </g>
    <g id="Grupo_150995" data-name="Grupo 150995">
      <g id="Grupo_150994" data-name="Grupo 150994" clip-path="url(#clip-path)">
        <path id="Trazado_190086" data-name="Trazado 190086" d="M295,423c0,.1-66.044.174-147.493.174C66.029,423.175,0,423.1,0,423s66.029-.174,147.507-.174c81.449,0,147.493.078,147.493.174" transform="translate(0 -140.332)" fill="#263238"/>
      </g>
    </g>
    <g id="Grupo_151000" data-name="Grupo 151000">
      <g id="Grupo_151039" data-name="Grupo 151039">
        <path id="Trazado_190087" data-name="Trazado 190087" d="M50.646,372.583c.634-2.457-.977-4.924-2.783-6.706s-3.965-3.379-4.9-5.736c-1.523-3.819.524-8.763-2.074-11.949-1.528-1.875-4.268-2.5-5.624-4.5a10.25,10.25,0,0,1-1.221-3.578A36.343,36.343,0,0,0,25,323.2a31.532,31.532,0,0,0,3.546,16.3c1.052,2,2.344,3.956,2.692,6.191.566,3.631-1.46,7.37-.569,10.934,1.02,4.077,5.6,6.805,5.816,11,.184,3.548-2.909,6.662-2.678,10.207a9.572,9.572,0,0,0,1.579,4.206c2.743,4.561,6.773,7.7,12.881,7.6l7.482.262Z" transform="translate(-8.282 -107.265)" fill="#9541a8"/>
        <path id="Trazado_190089" data-name="Trazado 190089" d="M71.43,377.33a5.979,5.979,0,0,0,2.06-.045,12.479,12.479,0,0,0,2.431-.611,10.326,10.326,0,0,0,3-1.645,4.185,4.185,0,0,0,1.235-1.646,7.739,7.739,0,0,0,.352-2.236,21.594,21.594,0,0,1,.175-2.42,6.669,6.669,0,0,1,.914-2.406c.882-1.549,2.346-3.016,2.819-5.12a16.94,16.94,0,0,0-.2-6.558c-.347-2.243-.683-4.69.174-7.028.8-2.34,2.443-4.452,3.264-7.089.816-2.664.436-5.529.609-8.355a11.087,11.087,0,0,1,.975-4.154c.605-1.324,1.445-2.573,2.1-3.967,1.328-2.818,1.562-6.012,1.926-9.142q.266-2.366.536-4.78a23.441,23.441,0,0,1,.831-4.784,42.129,42.129,0,0,1,1.79-4.63,15.369,15.369,0,0,0,.868-2.418,24.5,24.5,0,0,0,.242-2.574,30.364,30.364,0,0,0-.2-5.179c-.2-1.726-.514-3.438-.7-5.168-.011-.1-.023-.2-.033-.3l-.039-.344-.306.153a11.555,11.555,0,0,0-4.027,3.4,18.324,18.324,0,0,0-2.475,4.56,56.21,56.21,0,0,0-2.33,9.8,26.605,26.605,0,0,1-3.074,9.048c-.819,1.332-1.811,2.549-2.679,3.848a10.578,10.578,0,0,0-1.857,4.264c-.442,3.165,1.3,5.944.938,8.746a9.707,9.707,0,0,1-1.365,3.883c-.679,1.2-1.478,2.3-2.235,3.417a21.943,21.943,0,0,0-2.008,3.452,10.942,10.942,0,0,0-.919,3.75c-.182,2.523.176,4.916-.009,7.176a16.512,16.512,0,0,1-1.847,6.149c-.9,1.841-1.911,3.5-2.755,5.119a26.375,26.375,0,0,0-1.134,2.384,11.7,11.7,0,0,0-.656,2.365,14.922,14.922,0,0,0-.055,4.271,10.755,10.755,0,0,0,2.141,5.445,5.169,5.169,0,0,0,.6.655,3.006,3.006,0,0,0,.491.417c.279.206.428.3.428.3a9.453,9.453,0,0,1-1.448-1.432,10.833,10.833,0,0,1-2.031-5.409,14.847,14.847,0,0,1,.1-4.208,11.555,11.555,0,0,1,.661-2.31c.319-.772.714-1.555,1.141-2.352.85-1.6,1.867-3.257,2.791-5.11a16.8,16.8,0,0,0,1.911-6.257c.2-2.307-.151-4.709.04-7.173a10.554,10.554,0,0,1,.9-3.625,21.634,21.634,0,0,1,1.986-3.383c.757-1.106,1.565-2.219,2.264-3.439a10.105,10.105,0,0,0,1.427-4.041c.361-2.985-1.37-5.783-.92-8.724a10.149,10.149,0,0,1,1.793-4.079c.855-1.275,1.851-2.493,2.7-3.859a27.008,27.008,0,0,0,3.145-9.2,55.984,55.984,0,0,1,2.314-9.715,17.906,17.906,0,0,1,2.409-4.44,11.089,11.089,0,0,1,3.858-3.258l-.345-.191c.011.095.023.2.034.3.188,1.75.5,3.465.7,5.172a29.875,29.875,0,0,1,.2,5.1,24.491,24.491,0,0,1-.23,2.5,15.085,15.085,0,0,1-.84,2.332,42.58,42.58,0,0,0-1.8,4.681,23.842,23.842,0,0,0-.842,4.864q-.268,2.416-.53,4.784c-.357,3.144-.592,6.287-1.871,9.007-.631,1.354-1.47,2.607-2.093,3.975a11.51,11.51,0,0,0-1,4.307c-.163,2.887.212,5.709-.569,8.267s-2.408,4.669-3.232,7.083c-.883,2.439-.517,4.965-.16,7.2a16.732,16.732,0,0,1,.242,6.434c-.432,2.01-1.855,3.463-2.755,5.057a6.93,6.93,0,0,0-.928,2.5,21.728,21.728,0,0,0-.157,2.449,7.578,7.578,0,0,1-.319,2.175,4,4,0,0,1-1.161,1.574,10.256,10.256,0,0,1-2.93,1.653,12.912,12.912,0,0,1-2.4.65,9.608,9.608,0,0,1-1.522.147c-.344-.013-.523-.007-.523-.007" transform="translate(-22.449 -94.499)" fill="#263238"/>
        <path id="Trazado_190090" data-name="Trazado 190090" d="M96.952,291.413a.858.858,0,0,0-.072.226c-.044.18-.1.4-.166.674-.147.589-.323,1.479-.6,2.59s-.972,2.362-1.553,3.908c-.6,1.533-1.215,3.31-1.779,5.306s-1.076,4.211-1.6,6.584a27.707,27.707,0,0,1-2.4,7.306c-.613,1.215-1.3,2.445-1.851,3.791a17.622,17.622,0,0,0-1.078,4.293,86.9,86.9,0,0,1-1.613,9.051l-4.23,17.287-3.545,14.1-2.35,9.515c-.261,1.1-.466,1.963-.615,2.593l-.148.677a.865.865,0,0,0-.034.235.917.917,0,0,0,.082-.222l.2-.665c.17-.625.4-1.484.7-2.571l2.5-9.477c1.04-4.018,2.275-8.784,3.645-14.073,1.313-5.319,2.755-11.159,4.269-17.291a85.57,85.57,0,0,0,1.61-9.088,17.267,17.267,0,0,1,1.037-4.189c.528-1.311,1.208-2.535,1.822-3.763a27.884,27.884,0,0,0,2.388-7.419c.512-2.379,1-4.589,1.543-6.58s1.125-3.766,1.7-5.3c.551-1.541,1.207-2.809,1.483-3.955.259-1.139.4-2.019.519-2.62.048-.277.087-.5.119-.683a.907.907,0,0,0,.024-.236" transform="translate(-24.331 -96.717)" fill="#263238"/>
        <path id="Trazado_190091" data-name="Trazado 190091" d="M61.864,365.58c4.887-2.9,6.289-11.721,4.251-17.027S60.508,338.4,59.958,332.74c-.423-4.349,1-8.813-.012-13.064-1.367-5.736-6.968-10.18-6.9-16.077.036-3.309,1.918-6.422,1.768-9.728-.184-4.055-3.3-7.271-5.223-10.843-2.95-5.467-3.145-11.931-4.154-18.061s-3.345-12.695-8.778-15.707c-.8,5.2-2.172,8.768-1.742,15.819.154,2.532,3.1,7.379,3.5,12.929.239,3.317.4,6.638.607,9.957a31.939,31.939,0,0,0,1.565,9.541c.887,2.316,2.312,4.42,2.971,6.81,1.239,4.5-.389,9.37.612,13.926.848,3.861,3.52,7.184,4.065,11.1.767,5.5-2.793,11.216-.971,16.462.9,2.6,3.046,4.693,3.654,7.382.471,2.086-.043,4.294.384,6.389.688,3.375,7.127,6,10.566,5.789" transform="translate(-11.561 -82.726)" fill="#a667b4"/>
        <path id="Trazado_190092" data-name="Trazado 190092" d="M39.577,256.991a1.37,1.37,0,0,0,.021.294c.028.218.064.5.11.855.112.752.238,1.855.492,3.282.273,1.435,1.013,3.051,1.6,5,.624,1.942,1.244,4.182,1.793,6.691s1.024,5.282,1.514,8.269a34.65,34.65,0,0,0,2.5,9.35c.685,1.562,1.454,3.125,2.031,4.791a21.485,21.485,0,0,1,1.031,5.281,106.692,106.692,0,0,0,1.433,11.383l4.22,21.741c1.368,6.659,2.6,12.658,3.637,17.708,1.047,5.014,1.9,9.082,2.493,11.931.3,1.382.534,2.467.7,3.239.08.348.144.625.194.84a1.323,1.323,0,0,0,.082.283,1.331,1.331,0,0,0-.034-.293c-.038-.217-.087-.5-.148-.849-.146-.776-.351-1.867-.613-3.257-.559-2.856-1.358-6.934-2.343-11.961l-3.536-17.728c-1.285-6.684-2.7-14.026-4.18-21.735a107.785,107.785,0,0,1-1.438-11.346,21.93,21.93,0,0,0-1.066-5.386c-.6-1.7-1.375-3.271-2.06-4.82a34.517,34.517,0,0,1-2.517-9.237c-.506-2.981-.993-5.764-1.575-8.276s-1.218-4.759-1.869-6.7c-.621-1.955-1.382-3.556-1.676-4.955s-.437-2.515-.579-3.258c-.065-.351-.117-.631-.158-.848a1.314,1.314,0,0,0-.069-.286" transform="translate(-13.134 -85.292)" fill="#263238"/>
      </g>
    </g>
    <g id="Grupo_151002" data-name="Grupo 151002">
      <g id="Grupo_151001" data-name="Grupo 151001" clip-path="url(#clip-path)">
        <path id="Trazado_190093" data-name="Trazado 190093" d="M387.3,43.938h-2.66a2.26,2.26,0,0,1-2.32,2.273,2.152,2.152,0,0,1-2.085-1.374,2.384,2.384,0,0,1,.19-2.154c.451-.744,1.44-1.42,3.232-1.1v-6h-2.63V39.1a5.135,5.135,0,0,0-3.688,5.018c0,3.889,3.488,4.792,4.98,4.792,1.142,0,5.031-.276,4.981-4.968" transform="translate(-125.233 -11.81)" fill="#7c3e8a"/>
        <rect id="Rectángulo_47739" data-name="Rectángulo 47739" width="2.669" height="2.493" transform="translate(255.759 20.046)" fill="#7c3e8a"/>
        <path id="Trazado_190094" data-name="Trazado 190094" d="M394.624,33.017a1.907,1.907,0,0,0,.005-.337c-.007-.244-.016-.571-.027-.989-.011-.217-.01-.462-.033-.729l-.122-.873-.146-1.018q-.133-.536-.282-1.138a18.433,18.433,0,0,0-2.4-5.513,19.458,19.458,0,0,0-14.624-8.937,20.078,20.078,0,0,0-2.666-.053c-.451.031-.909.022-1.364.088l-1.373.206a19.568,19.568,0,0,0-5.426,1.853,20.882,20.882,0,0,0-4.876,3.544,20.469,20.469,0,0,0-3.668,5.105,18.567,18.567,0,0,0-1.91,6.223,12.368,12.368,0,0,0-.141,1.66,15.117,15.117,0,0,0-.031,1.678,19.875,19.875,0,0,0,.425,3.361,19.641,19.641,0,0,0,2.815,6.691l-.021-.2-2.735,6.815-.162.4.419-.116,7.286-2-.18-.035a19.551,19.551,0,0,0,8.326,3.637,17.711,17.711,0,0,0,4.265.265,13.7,13.7,0,0,0,2.048-.193l1-.155c.327-.061.645-.16.965-.239a19.489,19.489,0,0,0,11.085-7.6,18.635,18.635,0,0,0,2.387-4.526l.365-1.019q.128-.5.246-.967t.22-.885c.054-.285.084-.559.123-.815.065-.515.154-.968.174-1.365s.025-.724.034-1c.005-.253.01-.455.013-.611a.1.1,0,1,0-.035,0c-.013.156-.029.357-.048.609-.019.276-.041.607-.068.995s-.13.842-.205,1.352a19.386,19.386,0,0,1-14.376,15.5c-.314.074-.626.171-.949.229l-.979.147a13.3,13.3,0,0,1-2.011.18,17.369,17.369,0,0,1-4.182-.276,19.2,19.2,0,0,1-8.144-3.587l-.081-.061-.1.027-7.29,1.988.257.288,2.743-6.812.043-.106-.063-.1a19.242,19.242,0,0,1-2.75-6.541,19.523,19.523,0,0,1-.416-3.285,14.589,14.589,0,0,1,.029-1.64,12.046,12.046,0,0,1,.137-1.624A18.165,18.165,0,0,1,358,24.421a20.109,20.109,0,0,1,3.579-5,20.537,20.537,0,0,1,4.765-3.481,19.193,19.193,0,0,1,5.309-1.832L373,13.9c.446-.066.9-.059,1.337-.092a19.922,19.922,0,0,1,2.616.041,19.255,19.255,0,0,1,14.451,8.706,18.55,18.55,0,0,1,2.445,5.424l.3,1.124q.088.537.165,1.007t.142.865c.029.265.036.508.053.724.031.415.054.741.072.983a1.9,1.9,0,0,0,.039.336" transform="translate(-117.994 -4.447)" fill="#263238"/>
      </g>
    </g>
    <g id="Grupo_151016" data-name="Grupo 151016">
      <g id="Grupo_151015" data-name="Grupo 151015" clip-path="url(#clip-path)">
        <path id="Trazado_190095" data-name="Trazado 190095" d="M115.835,124.766H154.42s0-32.4,33.668-32.977c17.485-.3,26.551,11.152,30.235,19.927a34.573,34.573,0,0,1-2.748,31.251c-6.545,10.791-20.639,21.633-46.644,17.052l-.246,85.965h38.153V195.021s53.51-13.833,53.51-72.8c0-56.422-45.627-68.611-70.149-69.394-13.646-.436-18.592-1.022-35.468,1.374-21.507,3.053-39.352,28.025-38.9,70.569" transform="translate(-38.441 -17.4)" fill="#7f0f98"/>
        <rect id="Rectángulo_47741" data-name="Rectángulo 47741" width="38.721" height="36.164" transform="translate(130.137 246.506)" fill="#9541a8"/>
        <path id="Trazado_190097" data-name="Trazado 190097" d="M91.913,124.9H130.5s0-32.4,33.668-32.977c17.485-.3,26.551,11.152,30.235,19.927a34.573,34.573,0,0,1-2.748,31.251c-6.545,10.791-20.886,20.6-46.889,16.017v87h38.153V195.152s53.51-13.833,53.51-72.8c0-56.422-50.6-69.527-72.258-69.527-16.562,0-72.985,4-72.257,72.075" transform="translate(-30.502 -17.531)" fill="#9541a8"/>
        <rect id="Rectángulo_47746" data-name="Rectángulo 47746" width="38.721" height="36.164" transform="translate(114.154 246.506)" fill="#a667b4"/>
        <path id="Trazado_190099" data-name="Trazado 190099" d="M187.58,111.415a3.581,3.581,0,0,1-.577-.035c-.377-.019-.927-.126-1.644-.133a33.623,33.623,0,0,0-6.05.251,43.348,43.348,0,0,0-8.734,2.054,37.249,37.249,0,0,0-4.867,2.093,25.861,25.861,0,0,0-4.759,3.083,23.629,23.629,0,0,0-3.9,4.115,39.6,39.6,0,0,0-2.919,4.423,39.176,39.176,0,0,0-3.455,8.275,33.357,33.357,0,0,0-1.161,5.942c-.082.713-.1,1.269-.124,1.646a3.6,3.6,0,0,1-.051.576,3.579,3.579,0,0,1-.019-.577c0-.379,0-.938.059-1.656a30.917,30.917,0,0,1,1.058-6,38.313,38.313,0,0,1,3.413-8.365,39.11,39.11,0,0,1,2.928-4.474,23.713,23.713,0,0,1,3.945-4.177,25.927,25.927,0,0,1,4.823-3.116,36.887,36.887,0,0,1,4.918-2.093,42.219,42.219,0,0,1,8.81-2,31.215,31.215,0,0,1,6.089-.142c.72.029,1.269.158,1.644.2a3.552,3.552,0,0,1,.568.1" transform="translate(-49.559 -36.847)" fill="#263238"/>
        <path id="Trazado_190100" data-name="Trazado 190100" d="M261.241,85.216a.815.815,0,0,1-.126-.152l-.337-.465-1.27-1.8c-.278-.389-.569-.835-.919-1.3l-1.2-1.462L256,78.357c-.5-.583-1.089-1.151-1.674-1.775s-1.193-1.281-1.871-1.921L250.3,72.71c-.376-.333-.744-.689-1.144-1.019l-1.243-.979c-.848-.653-1.69-1.366-2.609-2.024a83.551,83.551,0,0,0-12.642-7.466L229.14,59.63l-3.5-1.357c-1.137-.472-2.3-.807-3.423-1.179-1.13-.35-2.218-.756-3.32-1.014l-3.2-.839c-1.036-.275-2.065-.437-3.047-.651-.987-.184-1.931-.43-2.858-.546l-2.657-.384c-1.688-.289-3.238-.347-4.589-.483-.677-.053-1.307-.126-1.888-.153l-1.592-.043-2.2-.071-.573-.027a.845.845,0,0,1-.2-.021.831.831,0,0,1,.2-.015l.574-.007,2.207.006,1.6.013c.583.017,1.215.08,1.894.124,1.357.118,2.912.158,4.607.433l2.669.363c.931.109,1.878.348,2.87.528.987.208,2.021.366,3.061.636l3.211.828c1.108.255,2.2.658,3.336,1.007,1.129.369,2.3.7,3.44,1.175l3.514,1.358,3.536,1.6a82.1,82.1,0,0,1,12.683,7.522c.919.664,1.763,1.384,2.612,2.044l1.243.989c.4.334.768.694,1.143,1.031l2.153,1.974c.676.648,1.269,1.328,1.864,1.945s1.163,1.207,1.661,1.8l1.366,1.7,1.186,1.484c.343.471.627.925.9,1.32l1.218,1.843.309.483a.82.82,0,0,1,.095.171" transform="translate(-65.083 -17.537)" fill="#263238"/>
        <path id="Trazado_190101" data-name="Trazado 190101" d="M267.928,225.294a2.688,2.688,0,0,1-.292.4l-.89,1.106c-.385.482-.867,1.063-1.456,1.712s-1.233,1.414-2.009,2.2c-.76.8-1.6,1.671-2.544,2.56-.921.916-1.964,1.829-3.051,2.8a83.594,83.594,0,0,1-15.606,10.76c-1.3.669-2.523,1.321-3.706,1.855-1.167.568-2.28,1.042-3.3,1.469-1.01.446-1.951.78-2.769,1.1s-1.53.564-2.117.752l-1.351.438a2.619,2.619,0,0,1-.478.13,2.626,2.626,0,0,1,.456-.2l1.328-.5c.579-.208,1.285-.47,2.093-.807s1.742-.681,2.742-1.14c1.009-.44,2.111-.925,3.27-1.5,1.174-.543,2.39-1.2,3.678-1.876,2.55-1.4,5.295-3.045,8.065-4.941,2.757-1.913,5.27-3.894,7.484-5.779,1.088-.964,2.136-1.866,3.061-2.77.951-.877,1.8-1.735,2.567-2.521.786-.771,1.443-1.519,2.041-2.157s1.1-1.2,1.5-1.67l.939-1.064a2.7,2.7,0,0,1,.346-.356" transform="translate(-75.791 -74.772)" fill="#263238"/>
        <path id="Trazado_190102" data-name="Trazado 190102" d="M227.03,313.786c-.1,0-.174-10.732-.174-23.967s.077-23.969.174-23.969.174,10.73.174,23.969-.078,23.967-.174,23.967" transform="translate(-75.291 -88.233)" fill="#263238"/>
        <path id="Trazado_190103" data-name="Trazado 190103" d="M229.233,402.707c-.1,0-.174-7.531-.174-16.819s.077-16.82.174-16.82.174,7.53.174,16.82-.078,16.819-.174,16.819" transform="translate(-76.022 -122.489)" fill="#263238"/>
      </g>
    </g>
    <g id="Grupo_151036" data-name="Grupo 151036">
      <g id="Grupo_151035" data-name="Grupo 151035" clip-path="url(#clip-path-6)">
        <path id="Trazado_190104" data-name="Trazado 190104" d="M286.115,149.537c-.674,1.345,1.823,2.43,3.263,2.866a18.22,18.22,0,0,0,10.265-.973,9.2,9.2,0,0,0,3.488-3.912,27.4,27.4,0,0,0,1.77-5s-15.785,1.034-18.786,7.023" transform="translate(-94.921 -47.299)" fill="#5e0b70"/>
        <path id="Trazado_190106" data-name="Trazado 190106" d="M352.4,144.317a15.134,15.134,0,0,0,8.91,2.8,6.321,6.321,0,0,0,4.243-1.334c.515-.471.9-1.073,1.43-1.526.36-.307.781-.541,1.12-.872a1.43,1.43,0,0,0,.492-1.268,2.641,2.641,0,0,0-.923-1.475c-1.813-1.028-3.976-.991-6.06-.943a20.74,20.74,0,0,0-6.113,1.2c-1.615.543-3.309,1.311-4.129,2.805" transform="translate(-116.617 -46.357)" fill="#7c3e8a"/>
        <path id="Trazado_190108" data-name="Trazado 190108" d="M298.409,153.576l33.306.436a.428.428,0,0,0,.413-.559l-3.907-12.186s.576-6.089,1.372-13.418c1.207-11.12,2.814-25.1,2.835-25.065-2.275-6.384-15.717-7.473-15.717-7.473l-15.32.911-.539-.9-4.409,2.049a20.488,20.488,0,0,0-2.765,1.56c-2.91,1.95-9.93,6.414-11.208,11.4-2.958,11.52,2.052,24.381,2.052,24.381l3.216-2.513a22.627,22.627,0,0,1,2.552-1.706l6.455,17.294a3.048,3.048,0,0,0-1.4,2.22,3.436,3.436,0,0,0,3.065,3.57" transform="translate(-93.438 -31.633)" fill="#a667b4"/>
        <g id="Grupo_151025" data-name="Grupo 151025" transform="translate(214.903 84.288)" opacity="0.3">
          <g id="Grupo_151024" data-name="Grupo 151024">
            <g id="Grupo_151023" data-name="Grupo 151023" clip-path="url(#clip-path-7)">
              <path id="Trazado_190109" data-name="Trazado 190109" d="M326,143.421c1.056-5.678.5-11.516-.063-17.263-1.849,4.7-1.783,10-3.739,14.66a6.267,6.267,0,0,0-.522,1.543,1.726,1.726,0,0,0,.445,1.507c.532.486,1.325.225,2.04.138a7.775,7.775,0,0,0,1.839-.585" transform="translate(-321.658 -126.158)"/>
            </g>
          </g>
        </g>
        <g id="Grupo_151028" data-name="Grupo 151028" transform="translate(206.533 110.47)" opacity="0.4">
          <g id="Grupo_151027" data-name="Grupo 151027">
            <g id="Grupo_151026" data-name="Grupo 151026" clip-path="url(#clip-path-8)">
              <path id="Trazado_190110" data-name="Trazado 190110" d="M309.577,169.572c2.689.932,5.517-.8,8.346-1.1a21.045,21.045,0,0,1,5.6.527,41.842,41.842,0,0,0,11.359.278,4.345,4.345,0,0,0,1.671-.431,2.016,2.016,0,0,0,.874-1.658c-6.29-.645-12.581-1.03-18.87-1.676a11.852,11.852,0,0,0-4.718.15,11.319,11.319,0,0,0-4.706,3.554" transform="translate(-309.129 -165.346)"/>
            </g>
          </g>
        </g>
        <path id="Trazado_190111" data-name="Trazado 190111" d="M365.912,128.573c-2.724-6.122-12.311-23.067-12.311-23.067l-7.425,9.309,1.733,18.273s3.92-4.377,14.883-4.464a5.376,5.376,0,0,1,4.081,2.149Z" transform="translate(-114.892 -35.016)" fill="#a667b4"/>
        <path id="Trazado_190112" data-name="Trazado 190112" d="M307.916,131.175a25.274,25.274,0,0,1-1.251-4,25.235,25.235,0,0,1-.915-4.087,25.337,25.337,0,0,1,1.251,4,25.253,25.253,0,0,1,.915,4.086" transform="translate(-101.471 -40.853)" fill="#263238"/>
        <path id="Trazado_190113" data-name="Trazado 190113" d="M345.336,117.585a4.446,4.446,0,0,1,.687.585,18.61,18.61,0,0,1,1.654,1.817,17.539,17.539,0,0,1,3.546,7.255,13.56,13.56,0,0,1,.212,4.475c-.172,1.368-.434,2.569-.6,3.588s-.281,1.841-.334,2.416a6.027,6.027,0,0,1-.094.893,3.585,3.585,0,0,1-.042-.9,21.154,21.154,0,0,1,.226-2.446c.137-1.026.374-2.239.526-3.586a13.767,13.767,0,0,0-.235-4.365,18.366,18.366,0,0,0-3.4-7.176c-1.235-1.646-2.2-2.5-2.147-2.553" transform="translate(-114.612 -39.025)" fill="#263238"/>
        <path id="Trazado_190114" data-name="Trazado 190114" d="M326.489,177.646a3.152,3.152,0,0,1-.725.211,6.935,6.935,0,0,1-.87.168,11.521,11.521,0,0,1-1.166.142,17.194,17.194,0,0,1-3.059-.017,18.17,18.17,0,0,1-7.122-2.211,17.226,17.226,0,0,1-2.531-1.718c-.347-.263-.625-.544-.881-.777a7.057,7.057,0,0,1-.621-.631,3.183,3.183,0,0,1-.478-.585c.05-.048.768.754,2.132,1.8a19.263,19.263,0,0,0,2.532,1.63,19.2,19.2,0,0,0,7,2.174,19.211,19.211,0,0,0,3.01.09c1.717-.089,2.763-.344,2.777-.276" transform="translate(-102.565 -57.16)" fill="#263238"/>
        <path id="Trazado_190115" data-name="Trazado 190115" d="M349.5,174.636a2.365,2.365,0,0,1,.256.975,6.016,6.016,0,0,1-.178,2.435,4.251,4.251,0,0,1-1.31,2.069,1.844,1.844,0,0,1-.881.5c-.029-.05.3-.254.713-.681a4.727,4.727,0,0,0,1.143-1.989,13.043,13.043,0,0,0,.257-3.311" transform="translate(-115.295 -57.96)" fill="#263238"/>
        <path id="Trazado_190116" data-name="Trazado 190116" d="M347.129,178.159a3.63,3.63,0,0,1-1.43,3.687c-.074-.072.55-.737.937-1.758.4-1.014.39-1.926.494-1.93" transform="translate(-114.731 -59.129)" fill="#263238"/>
        <path id="Trazado_190117" data-name="Trazado 190117" d="M337.739,145.252a13.581,13.581,0,0,1-1.188,1.711,13.817,13.817,0,0,1-1.169,1.724,6.2,6.2,0,0,1,2.356-3.435" transform="translate(-111.305 -48.206)" fill="#263238"/>
        <path id="Trazado_190118" data-name="Trazado 190118" d="M299.178,118.944a16.888,16.888,0,0,1-1.477-.979,19.022,19.022,0,0,0-7.89-2.946,16.845,16.845,0,0,1-1.757-.229,6.186,6.186,0,0,1,1.784-.016,15.979,15.979,0,0,1,8,2.988,6.19,6.19,0,0,1,1.338,1.181" transform="translate(-95.602 -38.078)" fill="#263238"/>
        <path id="Trazado_190119" data-name="Trazado 190119" d="M354.356,105.173a28.9,28.9,0,0,0-3.375,3.159,28.913,28.913,0,0,0-2.537,3.865,4.13,4.13,0,0,1,.466-1.3,13.239,13.239,0,0,1,4.249-5.048,4.114,4.114,0,0,1,1.2-.679" transform="translate(-115.642 -34.905)" fill="#263238"/>
        <path id="Trazado_190120" data-name="Trazado 190120" d="M327.114,96.934a1.286,1.286,0,0,1,.15.309,5.738,5.738,0,0,1,.311.937,7.932,7.932,0,0,1-.012,3.618,8.891,8.891,0,0,1-2.726,4.6,9.24,9.24,0,0,1-6.147,2.189,10.394,10.394,0,0,1-6.206-2.074,11.859,11.859,0,0,1-3.415-4.139,12.622,12.622,0,0,1-1.138-3.438,9.409,9.409,0,0,1-.12-.977,1.224,1.224,0,0,1-.005-.343c.035,0,.076.466.259,1.294a13.655,13.655,0,0,0,1.223,3.352,11.9,11.9,0,0,0,3.388,3.995,10.2,10.2,0,0,0,6.017,1.984,9.006,9.006,0,0,0,5.934-2.083,8.774,8.774,0,0,0,2.7-4.421,8.209,8.209,0,0,0,.12-3.532c-.165-.829-.37-1.259-.329-1.275" transform="translate(-102.154 -32.171)" fill="#263238"/>
        <g id="Grupo_151031" data-name="Grupo 151031" transform="translate(224.079 97.268)" opacity="0.3">
          <g id="Grupo_151030" data-name="Grupo 151030">
            <g id="Grupo_151029" data-name="Grupo 151029" clip-path="url(#clip-path-9)">
              <path id="Trazado_190121" data-name="Trazado 190121" d="M338.609,146.548c-.01-.334-.053-.727-.343-.894a.657.657,0,0,0-.605.01,1.71,1.71,0,0,0-.484.4,8.194,8.194,0,0,0-1.786,2.854l3.276-.283c-.021-.691-.036-1.4-.057-2.086" transform="translate(-335.391 -145.586)"/>
            </g>
          </g>
        </g>
        <g id="Grupo_151034" data-name="Grupo 151034" transform="translate(235.794 86.266)" opacity="0.3">
          <g id="Grupo_151033" data-name="Grupo 151033">
            <g id="Grupo_151032" data-name="Grupo 151032" clip-path="url(#clip-path-10)">
              <path id="Trazado_190122" data-name="Trazado 190122" d="M355.3,134.194a10.73,10.73,0,0,0-2.374-5.074,16.743,16.743,0,0,1,.145,10.4l.171-.442c.91-1.851,2.309-3.009,2.058-4.882" transform="translate(-352.926 -129.119)"/>
            </g>
          </g>
        </g>
        <path id="Trazado_190123" data-name="Trazado 190123" d="M338.2,368.509l-2,29.967-13.029-.154-2.052-31.155Z" transform="translate(-106.578 -121.859)" fill="#ffbe9d"/>
        <path id="Trazado_190124" data-name="Trazado 190124" d="M337.137,407.971l0,.867s14.686,5.911,14.84,8.7l-29.169-.171.454-9.7a16.686,16.686,0,0,0,13.873.311" transform="translate(-107.137 -135.298)" fill="#9541a8"/>
        <path id="Trazado_190125" data-name="Trazado 190125" d="M327.459,412.307a1.191,1.191,0,0,0-.832,1.354,1.145,1.145,0,0,0,1.336.836,1.256,1.256,0,0,0,.873-1.439,1.188,1.188,0,0,0-1.485-.716" transform="translate(-108.396 -136.824)" fill="#fff"/>
        <path id="Trazado_190126" data-name="Trazado 190126" d="M322.811,421.026l.109-2.334,27.917,1.018s1.3.573,1.143,1.487Z" transform="translate(-107.137 -138.959)" fill="#263238"/>
        <path id="Trazado_190127" data-name="Trazado 190127" d="M343.086,409.478c-.005.142-.718.2-1.422.657-.716.436-1.08,1.05-1.211.993-.132-.028.086-.879.947-1.413s1.717-.367,1.685-.236" transform="translate(-112.981 -135.857)" fill="#263238"/>
        <path id="Trazado_190128" data-name="Trazado 190128" d="M348.013,411.437c.032.138-.587.377-1.074.977-.505.585-.631,1.235-.772,1.229-.134.021-.228-.813.392-1.547s1.452-.794,1.454-.658" transform="translate(-114.856 -136.532)" fill="#263238"/>
        <path id="Trazado_190129" data-name="Trazado 190129" d="M351.464,415.744c-.13.03-.323-.683.047-1.461s1.038-1.084,1.1-.965c.08.118-.355.534-.649,1.177s-.353,1.236-.5,1.249" transform="translate(-116.591 -137.167)" fill="#263238"/>
        <path id="Trazado_190130" data-name="Trazado 190130" d="M328.574,37.893a4.734,4.734,0,0,0-1.786-5.336A7.758,7.758,0,0,0,321,31.419a23.008,23.008,0,0,0-5.707,1.972,6.442,6.442,0,0,0-10.935,3.57,4.095,4.095,0,0,0-4.852,5.378l9.031,3.172L318.4,62.86a7.89,7.89,0,0,0,11.611-10.491,6.769,6.769,0,0,0,1.386-1.714,6.911,6.911,0,0,0,3.192-4.274,7.3,7.3,0,0,0-6.014-8.489" transform="translate(-99.323 -10.387)" fill="#263238"/>
        <path id="Trazado_190131" data-name="Trazado 190131" d="M323.112,77.253c-.561-2.824-.951-4.758-.946-4.738,0,0,5.325-2.073,4.958-9.511-.183-3.7-1.594-9.531-2.9-14.264-1.179-4.261-5.15-8.959-9.358-7.6L302.14,47.352c-1.278.412-1.5,1.612-1.2,2.921l.021.638,4.951,20.483L308,80.55a7.734,7.734,0,0,0,15.109-3.3" transform="translate(-99.839 -13.574)" fill="#ffbe9d"/>
        <path id="Trazado_190132" data-name="Trazado 190132" d="M334.8,59.708a.944.944,0,0,1-.695,1.118.9.9,0,0,1-1.126-.633.944.944,0,0,1,.694-1.118.9.9,0,0,1,1.127.633" transform="translate(-110.504 -19.595)" fill="#263238"/>
        <path id="Trazado_190133" data-name="Trazado 190133" d="M333.079,57.588c-.089.144-.9-.226-1.89-.015s-1.616.861-1.75.762c-.064-.043.007-.285.276-.583a2.588,2.588,0,0,1,1.37-.758,2.485,2.485,0,0,1,1.535.162c.355.17.5.367.459.432" transform="translate(-109.33 -18.898)" fill="#263238"/>
        <path id="Trazado_190134" data-name="Trazado 190134" d="M320.332,63.025a.944.944,0,0,1-.695,1.118.9.9,0,0,1-1.126-.633.943.943,0,0,1,.694-1.118.9.9,0,0,1,1.127.633" transform="translate(-105.702 -20.696)" fill="#263238"/>
        <path id="Trazado_190135" data-name="Trazado 190135" d="M318.7,61.113c-.09.144-.9-.226-1.89-.015s-1.617.861-1.75.762c-.064-.043.005-.285.276-.583a2.585,2.585,0,0,1,1.369-.758,2.487,2.487,0,0,1,1.536.162c.354.17.5.367.459.432" transform="translate(-104.558 -20.068)" fill="#263238"/>
        <path id="Trazado_190136" data-name="Trazado 190136" d="M326.96,66.776a6.7,6.7,0,0,1,1.553-.629c.248-.08.478-.18.484-.362a1.32,1.32,0,0,0-.327-.717l-1.156-1.774a34.012,34.012,0,0,1-2.745-4.7,33.971,33.971,0,0,1,3.117,4.467q.589.938,1.126,1.792a1.5,1.5,0,0,1,.341.968.65.65,0,0,1-.339.458,1.717,1.717,0,0,1-.418.15,6.631,6.631,0,0,1-1.635.345" transform="translate(-107.785 -19.447)" fill="#263238"/>
        <path id="Trazado_190137" data-name="Trazado 190137" d="M327.712,87.947a18.709,18.709,0,0,1-10.179-.549s3.5,4.571,10.56,2.386Z" transform="translate(-105.386 -29.006)" fill="#eb996e"/>
        <path id="Trazado_190138" data-name="Trazado 190138" d="M318.544,59.042c-.066.286-1.088.279-2.252.565-1.171.264-2.082.726-2.269.5-.084-.11.051-.388.4-.7a4.038,4.038,0,0,1,3.445-.811c.455.122.7.311.673.446" transform="translate(-104.213 -19.413)" fill="#263238"/>
        <path id="Trazado_190139" data-name="Trazado 190139" d="M332.325,52.845c-.16.269-1.018.2-1.994.4-.981.164-1.767.529-2.006.333-.107-.1-.025-.35.291-.639a3.2,3.2,0,0,1,1.54-.709,3.158,3.158,0,0,1,1.682.12c.393.16.555.369.486.5" transform="translate(-108.953 -17.314)" fill="#263238"/>
        <path id="Trazado_190140" data-name="Trazado 190140" d="M307.288,41.714a5.032,5.032,0,0,0,6.822,3.659c1.059-.43,2.149-1.236,3.223-.847,1.13.409,1.485,1.91,2.533,2.5,1.5.838,3.3-.614,5.013-.47,1.322.111,2.346,1.139,3.38,1.968s2.471,1.524,3.639.9a14.941,14.941,0,0,0-1.183-3.218,5.012,5.012,0,0,0-2.447-2.314,18.8,18.8,0,0,1-1.784-.6c-1.206-.62-1.746-2.022-2.626-3.054a5.515,5.515,0,0,0-4.679-1.875c-1.447.149-2.819.877-4.272.815-1.074-.045-2.1-.523-3.178-.505-2.094.035-3.666,1.869-4.827,3.611" transform="translate(-101.857 -12.722)" fill="#263238"/>
        <path id="Trazado_190141" data-name="Trazado 190141" d="M309.363,44.259c-.956-.071-2.925-.273-3.572-.955a5.634,5.634,0,0,0-5.373-1.762,4.651,4.651,0,0,0-3.353,4.45,6.69,6.69,0,0,0-4.877,4.792,7.753,7.753,0,0,0,1.669,7.019,13.9,13.9,0,0,1,1.1,1.587,11.373,11.373,0,0,0-1.189,1.8c-1.527,3.38,2.618,4.675,2.618,4.675.011,2.272,2.105,2.262,3.449,2.255,1.291-.007,2.087,3.576,3.132,3.436L301.9,60.493a1.385,1.385,0,0,0,.49.088c2.533.045,1.871-4.746,1.051-5.986a14.349,14.349,0,0,0,1.9-3.056,10.357,10.357,0,0,0,.1-5.122c.883-.13,4.343-2.127,3.923-2.159" transform="translate(-96.892 -13.737)" fill="#263238"/>
        <path id="Trazado_190142" data-name="Trazado 190142" d="M305.315,70.038a2.145,2.145,0,0,0-3.444-1.149c-.642.573-1.024,1.535-.619,3.148,1.079,4.3,5.174,2.331,5.15,2.206-.015-.078-.625-2.429-1.087-4.205" transform="translate(-99.927 -22.697)" fill="#ffbe9d"/>
        <path id="Trazado_190143" data-name="Trazado 190143" d="M305.271,73.607c-.023-.009-.062.071-.174.161a.774.774,0,0,1-.557.152c-.5-.053-1.06-.679-1.275-1.448a2.542,2.542,0,0,1-.059-1.125.893.893,0,0,1,.419-.717.394.394,0,0,1,.494.095c.088.106.082.2.107.2s.074-.1-.005-.265a.492.492,0,0,0-.237-.227.581.581,0,0,0-.442-.005,1.085,1.085,0,0,0-.615.863,2.616,2.616,0,0,0,.041,1.264c.245.859.892,1.559,1.559,1.583a.829.829,0,0,0,.657-.285c.106-.14.1-.242.088-.246" transform="translate(-100.518 -23.361)" fill="#eb996e"/>
        <path id="Trazado_190144" data-name="Trazado 190144" d="M331.681,55.448c-.027-.033.389-.3.938-.971a6.322,6.322,0,0,0,1.343-3.341,6.151,6.151,0,0,0-.24-2.477,5.311,5.311,0,0,0-1.527-2.373,6.278,6.278,0,0,0-6.141-1.2c-.2.065-.388.165-.578.244-.182.1-.355.2-.525.3l-.265.149,0-.295a2.171,2.171,0,0,0-.54-1.4,3.451,3.451,0,0,0-1.234-.882,4.554,4.554,0,0,0-2.868-.21c-1.844.418-3.408,1.261-4.885,1.431a4.724,4.724,0,0,1-3.333-.669,2.72,2.72,0,0,1-.653-.668,1.141,1.141,0,0,1-.148-.289,3.818,3.818,0,0,0,.875.851,4.706,4.706,0,0,0,3.227.541,11.587,11.587,0,0,0,2.244-.647,20.251,20.251,0,0,1,2.608-.855,5.784,5.784,0,0,1,1.51-.151,4.655,4.655,0,0,1,1.557.358,3.781,3.781,0,0,1,1.362.967,2.515,2.515,0,0,1,.627,1.628l-.269-.146c.182-.1.365-.218.56-.32.2-.084.4-.191.616-.26a6.564,6.564,0,0,1,6.473,1.285A5.571,5.571,0,0,1,334,48.573a6.323,6.323,0,0,1,.208,2.59,6.247,6.247,0,0,1-1.484,3.4,4.432,4.432,0,0,1-.745.691,1.355,1.355,0,0,1-.3.193" transform="translate(-103.223 -14.115)" fill="#455a64"/>
        <path id="Trazado_190145" data-name="Trazado 190145" d="M331.071,38.006a4.837,4.837,0,0,0-1.384-.475,3.663,3.663,0,0,0-1.644.149,3.249,3.249,0,0,0-1.694,1.231l-.163.235-.1-.267a5.024,5.024,0,0,0-4.075-3.026,6.487,6.487,0,0,0-3.917,1.132,17.319,17.319,0,0,1-3.105,1.607,4.887,4.887,0,0,1-2.35.277,2.95,2.95,0,0,1-.624-.172c-.136-.059-.2-.095-.2-.106.011-.031.3.088.84.143a5.123,5.123,0,0,0,2.25-.373,18.791,18.791,0,0,0,3.027-1.652A10.618,10.618,0,0,1,319.8,35.8a5.086,5.086,0,0,1,2.243-.287,5.269,5.269,0,0,1,4.319,3.264l-.264-.031a3.454,3.454,0,0,1,1.869-1.3,3.69,3.69,0,0,1,1.745-.088,3.135,3.135,0,0,1,1.048.4,1.12,1.12,0,0,1,.308.248" transform="translate(-103.487 -11.776)" fill="#455a64"/>
        <path id="Trazado_190146" data-name="Trazado 190146" d="M326.249,73.622a1.455,1.455,0,0,0-1.174-.341,1.719,1.719,0,0,0-1.126.822l-.017.025c-.011.019-.027.035-.037.055l.016-.011a.825.825,0,0,0-.126.5,1.215,1.215,0,0,0,.7.9,1.537,1.537,0,0,0,1.75-.254,1.254,1.254,0,0,0,.015-1.7" transform="translate(-107.46 -24.317)" fill="#e8505b"/>
        <path id="Trazado_190147" data-name="Trazado 190147" d="M326.474,76.012c-.052.01-.117-.2-.295-.478a2.094,2.094,0,0,0-2.169-.986c-.327.049-.528.138-.554.092s.14-.207.5-.331a1.977,1.977,0,0,1,2.447,1.113c.141.349.118.585.076.591" transform="translate(-107.35 -24.629)" fill="#263238"/>
        <path id="Trazado_190148" data-name="Trazado 190148" d="M306.277,77.643c.033-.021.191.335-.059.841a1.358,1.358,0,0,1-.712.643,1.383,1.383,0,0,1-1.814-1.142,1.36,1.36,0,0,1,.273-.921c.348-.445.737-.455.732-.417.023.053-.293.152-.528.554a1.211,1.211,0,0,0-.158.749,1.115,1.115,0,0,0,1.389.875,1.211,1.211,0,0,0,.607-.466c.261-.386.214-.714.271-.716" transform="translate(-100.79 -25.434)" fill="#e8505b"/>
        <path id="Trazado_190149" data-name="Trazado 190149" d="M303.431,77.14c.037.017-.02.228-.311.37a.848.848,0,0,1-.555.054.89.89,0,0,1-.611-1.13A.846.846,0,0,1,302.3,76c.278-.166.486-.1.479-.058s-.164.087-.329.253a.635.635,0,0,0,.586,1.083c.23-.048.351-.169.392-.138" transform="translate(-100.2 -25.188)" fill="#e8505b"/>
        <path id="Trazado_190150" data-name="Trazado 190150" d="M315.161,157.788s16.542.959,26.319,1.049c7.574.07,10.95-1.942,12.464-6.807,1.271-4.086-1.461-11.92-1.461-11.92-5.12.026-8.281.732-11.577,2.276l.878,3.582-26.671,2.3Z" transform="translate(-104.582 -46.501)" fill="#ffbe9d"/>
        <path id="Trazado_190151" data-name="Trazado 190151" d="M360.515,152.65a9.653,9.653,0,0,0-5.716-3.9,2.366,2.366,0,0,1,1.061.093,7.081,7.081,0,0,1,4.182,2.85,2.363,2.363,0,0,1,.474.954" transform="translate(-117.754 -49.361)" fill="#eb996e"/>
        <path id="Trazado_190152" data-name="Trazado 190152" d="M301.71,132.1h0a32,32,0,0,0-8.874,3.739l4,10.866a6.133,6.133,0,0,0,8.661,3.468c5.032-2.875,6.805-11.267,6.805-11.267l5.529-23.971-9.159-5.74Z" transform="translate(-97.189 -36.242)" fill="#ffbe9d"/>
        <path id="Trazado_190153" data-name="Trazado 190153" d="M315.659,100.59l.369-7.884-2.045-7.985c-.114-.442-.17-.994.189-1.263a.972.972,0,0,1,1.235.039c.56.572,3.231,7.585,3.231,7.585a41.047,41.047,0,0,1,4.777-2.555c.723-.118,1.625,2.062,1.682,2.235a12.717,12.717,0,0,1,.007,1.466s2.507.075,2.731.419a8.6,8.6,0,0,1,.289,2.126s1.06.34,1.231,1.144.512,2.126.012,2.416-1.555.871-1.555.871-.425,4.09-.535,4.462a25.356,25.356,0,0,1-2.459,2.662Z" transform="translate(-104.179 -27.632)" fill="#ffbe9d"/>
        <path id="Trazado_190154" data-name="Trazado 190154" d="M303.782,141.662c.011-.022.25.142.768.311a5.227,5.227,0,0,0,2.362.187,6.584,6.584,0,0,0,3.419-1.577,15.822,15.822,0,0,0,3.179-4.024,18.032,18.032,0,0,0,1.238-2.761,28.26,28.26,0,0,0,.857-3.2c.524-2.252,1.09-4.675,1.69-7.251l4.006-17.122.011-.046.035-.034c.46-.451.922-.915,1.38-1.393.228-.239.456-.481.674-.73a4.581,4.581,0,0,0,.3-.377c.078-.08.081-.242.112-.412.181-1.338.322-2.72.47-4.112l.009-.088.078-.044,1.273-.714c.1-.057.24-.128.3-.176a.372.372,0,0,0,.12-.224,2.133,2.133,0,0,0,.008-.692,10.393,10.393,0,0,0-.3-1.452,1.79,1.79,0,0,0-1.064-.858l-.115-.042-.005-.117c-.017-.387-.043-.785-.086-1.181-.023-.2-.048-.4-.089-.587a1.115,1.115,0,0,0-.077-.248c-.021-.043-.011-.011-.041-.039a.644.644,0,0,0-.112-.047,11.794,11.794,0,0,0-2.447-.276l-.174-.009.005-.172c.012-.412.03-.873.011-1.305a1.374,1.374,0,0,0-.156-.448c-.072-.161-.148-.32-.229-.476a5.736,5.736,0,0,0-.547-.883,1.477,1.477,0,0,0-.339-.333.325.325,0,0,0-.355-.041,8.592,8.592,0,0,0-.941.432c-1.247.649-2.459,1.358-3.647,2.063l-.174.1-.075-.188-1.871-4.684-.915-2.292a.951.951,0,0,0-.734-.687.744.744,0,0,0-.869.319.78.78,0,0,0-.1.476c.019.149.093.374.136.557l.3,1.15q.3,1.146.6,2.271l1.158,4.411.006.023v.024c-.133,2.743-.26,5.376-.382,7.882v.019l0,.017c-2.525,8.216-4.619,15.031-6.086,19.806l-1.718,5.513-.462,1.446c-.107.326-.172.491-.172.491s.037-.174.13-.5.24-.83.422-1.458c.382-1.291.937-3.16,1.642-5.536l5.969-19.842-.006.035c.114-2.507.233-5.14.357-7.884l.005.047q-.572-2.159-1.169-4.408l-.6-2.27-.3-1.15c-.048-.2-.109-.359-.147-.606a1.118,1.118,0,0,1,.144-.68,1.036,1.036,0,0,1,.541-.455,1.289,1.289,0,0,1,.691-.022,1.375,1.375,0,0,1,.612.311,1.351,1.351,0,0,1,.36.577q.455,1.137.918,2.292l1.875,4.683-.249-.084c1.194-.71,2.4-1.418,3.666-2.076a8.86,8.86,0,0,1,.991-.452.759.759,0,0,1,.337-.047.729.729,0,0,1,.317.126,1.8,1.8,0,0,1,.423.409,6.048,6.048,0,0,1,.583.939c.083.163.163.327.237.494a1.636,1.636,0,0,1,.186.567c.021.473,0,.919-.011,1.342l-.168-.18a11.781,11.781,0,0,1,2.551.3.938.938,0,0,1,.172.075.424.424,0,0,1,.172.174,1.4,1.4,0,0,1,.11.339c.045.211.071.417.094.621.045.41.071.81.088,1.207l-.12-.158A2.11,2.11,0,0,1,326.1,95.6a10.1,10.1,0,0,1,.32,1.547,2.429,2.429,0,0,1-.016.812.71.71,0,0,1-.242.413,3.544,3.544,0,0,1-.341.2l-1.28.716.088-.132c-.15,1.4-.292,2.771-.477,4.125l-.042.259a.676.676,0,0,1-.124.291,4.676,4.676,0,0,1-.329.41c-.225.256-.456.5-.686.741-.462.48-.927.945-1.39,1.4l.045-.08c-1.47,6.2-2.834,11.96-4.054,17.11-.613,2.573-1.189,4.994-1.724,7.244a28.291,28.291,0,0,1-.883,3.222,18.183,18.183,0,0,1-1.272,2.785,15.872,15.872,0,0,1-3.252,4.043,6.649,6.649,0,0,1-3.511,1.566,5.148,5.148,0,0,1-2.394-.242,3.535,3.535,0,0,1-.568-.257,1.167,1.167,0,0,1-.182-.107" transform="translate(-100.822 -27.563)" fill="#eb996e"/>
        <path id="Trazado_190155" data-name="Trazado 190155" d="M328.952,96.57c0,.049-.227.074-.579.091a6.635,6.635,0,0,0-1.331.158,2.63,2.63,0,0,0-1.134.605c-.245.228-.351.422-.4.4s-.013-.257.216-.565a2.245,2.245,0,0,1,1.23-.778,3.869,3.869,0,0,1,1.428-.067c.357.047.573.108.57.155" transform="translate(-108.027 -31.987)" fill="#eb996e"/>
        <path id="Trazado_190156" data-name="Trazado 190156" d="M327.7,96.374c-.09-.034-.1-.24-.013-.461s.223-.373.313-.339.1.24.013.461-.223.372-.313.339" transform="translate(-108.736 -31.719)" fill="#eb996e"/>
        <path id="Trazado_190157" data-name="Trazado 190157" d="M333.68,100.354a6.257,6.257,0,0,1-1.983.274,1.358,1.358,0,0,0-1.1.531c-.176.273-.118.5-.168.514-.032.03-.213-.226-.051-.625a1.089,1.089,0,0,1,.478-.53,2.116,2.116,0,0,1,.8-.236,5.63,5.63,0,0,1,2.025.071" transform="translate(-109.625 -33.271)" fill="#eb996e"/>
        <path id="Trazado_190158" data-name="Trazado 190158" d="M334.574,104c.1,0,.152.5.124,1.1s-.127,1.092-.223,1.088-.152-.5-.124-1.1.127-1.092.223-1.088" transform="translate(-110.965 -34.517)" fill="#eb996e"/>
        <path id="Trazado_190159" data-name="Trazado 190159" d="M338.845,129.028l.594-2.048a.559.559,0,0,1,.937-.236l.775.791.484-1.926a.559.559,0,0,1,1.047-.106l1.094,2.281Z" transform="translate(-112.459 -41.548)" fill="#fff"/>
        <path id="Trazado_190160" data-name="Trazado 190160" d="M343.855,130.375a17.665,17.665,0,0,1-4.8,1.189,17.664,17.664,0,0,1,4.8-1.189" transform="translate(-112.527 -43.262)" fill="#fff"/>
        <path id="Trazado_190161" data-name="Trazado 190161" d="M285.884,113.293c.016.013-.249.257-.594.794a6.8,6.8,0,0,0-.906,2.523,18.23,18.23,0,0,0-.12,4c.073,1.512.2,3.172.381,4.909a86.215,86.215,0,0,0,1.41,8.833c.238,1.12.452,2.022.6,2.645l.172.718c.038.164.051.253.051.253s-.031-.083-.077-.245c-.056-.2-.122-.437-.2-.712-.164-.619-.393-1.519-.643-2.638a78.262,78.262,0,0,1-1.452-8.839c-.185-1.74-.3-3.4-.371-4.918a17.851,17.851,0,0,1,.152-4.026,6.649,6.649,0,0,1,.957-2.535,4.025,4.025,0,0,1,.639-.764" transform="translate(-94.287 -37.601)" fill="#fff"/>
        <path id="Trazado_190162" data-name="Trazado 190162" d="M300.833,99.7a.767.767,0,0,1-.15.082l-.441.21c-.382.182-.934.45-1.6.817a57.745,57.745,0,0,0-5.02,3.137c-1.907,1.312-3.6,2.551-4.834,3.433l-1.467,1.039-.4.275a.735.735,0,0,1-.146.088.782.782,0,0,1,.13-.111l.388-.3,1.441-1.074c1.219-.9,2.9-2.155,4.812-3.469a50.18,50.18,0,0,1,5.053-3.109c.671-.356,1.231-.613,1.622-.78l.452-.187a.782.782,0,0,1,.161-.056" transform="translate(-95.177 -33.088)" fill="#fff"/>
        <path id="Trazado_190163" data-name="Trazado 190163" d="M349.352,103.506a.545.545,0,0,1-.112-.084l-.3-.261a11.837,11.837,0,0,0-1.17-.873,23.805,23.805,0,0,0-4.3-2.174,43.441,43.441,0,0,0-4.579-1.523c-.6-.166-1.082-.287-1.417-.37l-.386-.1a.586.586,0,0,1-.133-.043.482.482,0,0,1,.139.016l.392.073c.339.067.83.174,1.43.327a37.1,37.1,0,0,1,4.606,1.49,21.788,21.788,0,0,1,4.3,2.221,8.486,8.486,0,0,1,1.527,1.3" transform="translate(-111.833 -32.551)" fill="#fff"/>
        <path id="Trazado_190164" data-name="Trazado 190164" d="M306.873,179.7a.952.952,0,0,1-.261-.09,4.423,4.423,0,0,1-.663-.355,3.222,3.222,0,0,1-1.453-1.968,3.849,3.849,0,0,1,.259-2.445,3.373,3.373,0,0,1,.387-.646.909.909,0,0,1,.186-.2,7.842,7.842,0,0,0-.482.889,3.955,3.955,0,0,0-.213,2.374,3.255,3.255,0,0,0,1.373,1.917c.512.357.879.5.868.526" transform="translate(-101.028 -57.747)" fill="#fff"/>
        <path id="Trazado_190165" data-name="Trazado 190165" d="M304.914,171.708a2.949,2.949,0,0,1,.318.838,2.919,2.919,0,0,1,.184.878,5.8,5.8,0,0,1-.5-1.716" transform="translate(-101.194 -56.988)" fill="#fff"/>
        <path id="Trazado_190166" data-name="Trazado 190166" d="M310.195,325.091l20.38-.1-.369-70.458-.19-71.668-27.6-.343-4.962,9.355A33.6,33.6,0,0,0,293.634,204c-.347,3.238,2.079,13.8,2.926,16.484l7.6,24.092Z" transform="translate(-97.443 -60.576)" fill="#263238"/>
        <path id="Trazado_190167" data-name="Trazado 190167" d="M346.63,183.137l22.392,61.046a28.16,28.16,0,0,1-2.761,23.851l-26,50.746-14.618-18.288,21.754-45.46-19.177-31.07,3.227-40.76,9.033-.145Z" transform="translate(-108.078 -60.754)" fill="#263238"/>
        <path id="Trazado_190168" data-name="Trazado 190168" d="M345.316,213.787s.017.106.031.313l.058.92c.044.826.108,2.015.188,3.54.15,3.09.365,7.534.63,13.018.253,5.5.554,12.046.889,19.312.164,3.634.335,7.449.513,11.4.127,1.977.069,3.993.093,6.036q.009,3.067.019,6.217c.028,16.79.053,31.989.072,43.008-.007,5.491-.013,9.939-.018,13.033-.009,1.526-.017,2.717-.022,3.543-.007.394-.011.7-.015.922-.005.207-.017.314-.017.314s-.013-.106-.019-.314-.011-.528-.02-.921c-.01-.826-.025-2.018-.043-3.543-.022-3.093-.053-7.542-.093-13.032-.044-11.018-.106-26.215-.174-43q-.009-3.148-.017-6.216c-.023-2.044.037-4.059-.087-6.036-.171-3.954-.336-7.769-.493-11.4-.306-7.264-.582-13.809-.814-19.31s-.4-9.932-.519-13.023c-.053-1.525-.095-2.715-.124-3.542-.01-.393-.017-.7-.023-.921s0-.315,0-.315" transform="translate(-114.605 -70.953)" fill="#455a64"/>
        <path id="Trazado_190169" data-name="Trazado 190169" d="M344.547,184.98a2.62,2.62,0,0,1,.141.663c.069.43.152,1.054.241,1.827.18,1.545.366,3.688.474,6.06s.113,4.523.075,6.078c-.02.778-.046,1.407-.076,1.841a2.535,2.535,0,0,1-.082.673,20.747,20.747,0,0,1-.089-2.515c-.024-1.553-.069-3.7-.176-6.062s-.255-4.5-.371-6.052a20.242,20.242,0,0,1-.137-2.513" transform="translate(-114.346 -61.393)" fill="#455a64"/>
        <path id="Trazado_190170" data-name="Trazado 190170" d="M337.466,186.951a1.631,1.631,0,0,0-.452.762.867.867,0,0,0,.259.814.889.889,0,0,0,1.519-.695.864.864,0,0,0-.447-.728,1.631,1.631,0,0,0-.872-.156c-.009-.018.064-.088.237-.138a1.141,1.141,0,0,1,1.4,1,1.2,1.2,0,0,1-2.06.944,1.141,1.141,0,0,1,.156-1.718c.15-.1.252-.108.259-.089" transform="translate(-111.756 -61.988)" fill="#455a64"/>
        <path id="Trazado_190171" data-name="Trazado 190171" d="M316.516,185.227a2,2,0,0,1,.183.639,6.345,6.345,0,0,1,.059,1.816,7.3,7.3,0,0,1-.771,2.588,6.85,6.85,0,0,1-5.221,3.748,7.293,7.293,0,0,1-2.7-.1,6.334,6.334,0,0,1-1.7-.637,2,2,0,0,1-.547-.377,11.62,11.62,0,0,0,2.3.774,7.015,7.015,0,0,0,8.4-6.029,11.573,11.573,0,0,0,0-2.425" transform="translate(-101.497 -61.475)" fill="#455a64"/>
        <path id="Trazado_190172" data-name="Trazado 190172" d="M358.376,191.047a2.7,2.7,0,0,1-1.283-.152,5.961,5.961,0,0,1-4.05-4.462,2.7,2.7,0,0,1-.027-1.292c.062,0,.065.491.267,1.236a6.46,6.46,0,0,0,3.89,4.285c.722.273,1.211.323,1.2.385" transform="translate(-117.143 -61.446)" fill="#455a64"/>
        <path id="Trazado_190173" data-name="Trazado 190173" d="M368.811,291.49a4.2,4.2,0,0,1-1.181.939,5.469,5.469,0,0,1-1.52.665,3.67,3.67,0,0,1-2.051-.055,5.959,5.959,0,0,1-2.854-2.272,5.254,5.254,0,0,1-.783-1.285,8.274,8.274,0,0,1,.976,1.134,6.334,6.334,0,0,0,2.767,2.092,4.283,4.283,0,0,0,3.343-.492,14.017,14.017,0,0,1,1.3-.726" transform="translate(-119.619 -96.075)" fill="#455a64"/>
        <path id="Trazado_190174" data-name="Trazado 190174" d="M363.388,295.575a33.131,33.131,0,0,1-3.935-5.533,33.2,33.2,0,0,1,3.935,5.533" transform="translate(-119.297 -96.261)" fill="#455a64"/>
        <path id="Trazado_190175" data-name="Trazado 190175" d="M313.713,216.415c-.09.035-.327-.349-.531-.859s-.3-.953-.208-.989.327.349.531.859.3.953.208.989" transform="translate(-103.861 -71.211)" fill="#fafafa"/>
        <path id="Trazado_190176" data-name="Trazado 190176" d="M333.373,219.366c-.1,0-.174-.331-.174-.739s.077-.74.174-.74.174.331.174.74-.077.739-.174.739" transform="translate(-110.585 -72.314)" fill="#fafafa"/>
        <path id="Trazado_190177" data-name="Trazado 190177" d="M325.38,229.695c-.1.007-.2-.4-.237-.912s.015-.929.111-.936.2.4.237.913-.015.929-.111.935" transform="translate(-107.908 -75.62)" fill="#fafafa"/>
        <path id="Trazado_190178" data-name="Trazado 190178" d="M310.288,237.848c-.08.059-.355-.188-.713-.444s-.673-.448-.643-.541.442-.036.847.26.585.673.508.726" transform="translate(-102.53 -78.599)" fill="#fafafa"/>
        <path id="Trazado_190179" data-name="Trazado 190179" d="M336.58,247.575c-.08-.053.021-.345.225-.651s.434-.511.514-.458-.021.345-.225.651-.434.511-.514.458" transform="translate(-111.698 -81.796)" fill="#fafafa"/>
        <path id="Trazado_190180" data-name="Trazado 190180" d="M320.649,249.672c-.1,0-.174-.552-.174-1.232s.077-1.232.174-1.232.174.551.174,1.232-.077,1.232-.174,1.232" transform="translate(-106.362 -82.045)" fill="#fafafa"/>
        <path id="Trazado_190181" data-name="Trazado 190181" d="M314.918,261.614c-.057.077-.406-.079-.78-.351s-.632-.556-.575-.633.406.079.78.351.633.556.576.633" transform="translate(-104.065 -86.493)" fill="#fafafa"/>
        <path id="Trazado_190182" data-name="Trazado 190182" d="M331.062,265.994c.039.088-.178.27-.484.406s-.586.175-.625.088.178-.269.484-.406.586-.175.625-.088" transform="translate(-109.506 -88.265)" fill="#fafafa"/>
        <path id="Trazado_190183" data-name="Trazado 190183" d="M320.113,283.049c-.086.043-.432-.474-.772-1.154s-.547-1.267-.46-1.31.432.474.772,1.154.547,1.267.46,1.31" transform="translate(-105.827 -93.122)" fill="#fafafa"/>
        <path id="Trazado_190184" data-name="Trazado 190184" d="M338.426,281.694c-.085-.045.067-.5.339-1.006s.561-.887.646-.842-.067.5-.339,1.006-.561.887-.646.842" transform="translate(-112.312 -92.876)" fill="#fafafa"/>
        <path id="Trazado_190185" data-name="Trazado 190185" d="M330.5,296.94c-.1-.015-.091-.542-.193-1.169s-.266-1.127-.176-1.172.413.428.52,1.118-.06,1.242-.15,1.223" transform="translate(-109.557 -97.773)" fill="#fafafa"/>
        <path id="Trazado_190186" data-name="Trazado 190186" d="M321.776,306.278c-.072.065-.4-.186-.745-.561s-.559-.73-.487-.794.4.186.745.561.558.73.487.794" transform="translate(-106.38 -101.197)" fill="#fafafa"/>
        <path id="Trazado_190187" data-name="Trazado 190187" d="M342.529,309.631c-.069-.068.177-.428.548-.8s.728-.629.8-.561-.177.428-.549.805-.728.628-.8.561" transform="translate(-113.678 -102.306)" fill="#fafafa"/>
        <path id="Trazado_190188" data-name="Trazado 190188" d="M330.916,322.459c-.1-.015-.1-.524,0-1.137s.245-1.1.34-1.086.1.524,0,1.138-.245,1.1-.34,1.085" transform="translate(-109.803 -106.282)" fill="#fafafa"/>
        <path id="Trazado_190189" data-name="Trazado 190189" d="M322.647,329.138c-.083.049-.375-.3-.652-.769s-.434-.9-.351-.945.375.3.652.77.434.9.351.945" transform="translate(-106.742 -108.667)" fill="#fafafa"/>
        <path id="Trazado_190190" data-name="Trazado 190190" d="M341.075,338.1c.056.078-.285.418-.76.758s-.907.554-.963.476.285-.418.761-.758.907-.554.963-.476" transform="translate(-112.625 -112.206)" fill="#fafafa"/>
        <path id="Trazado_190191" data-name="Trazado 190191" d="M326.278,347.414c-.094-.034.025-.573.082-1.237s.038-1.215.136-1.232.275.545.21,1.263-.343,1.241-.428,1.206" transform="translate(-108.276 -114.483)" fill="#fafafa"/>
        <path id="Trazado_190192" data-name="Trazado 190192" d="M332.038,363.136c-.075.06-.357-.167-.629-.507s-.432-.665-.357-.725.356.167.629.507.432.665.357.725" transform="translate(-109.866 -120.109)" fill="#fafafa"/>
        <path id="Trazado_190193" data-name="Trazado 190193" d="M325.033,372.913c-.08.054-.447-.343-.821-.887s-.613-1.03-.534-1.084.447.343.821.887.613,1.03.534,1.084" transform="translate(-107.42 -123.11)" fill="#fafafa"/>
        <path id="Trazado_190194" data-name="Trazado 190194" d="M344.493,360.68c-.09-.034-.08-.282.022-.554s.257-.466.347-.432.08.281-.022.554-.257.466-.347.432" transform="translate(-114.313 -119.377)" fill="#fafafa"/>
        <path id="Trazado_190195" data-name="Trazado 190195" d="M336.213,384.226c-.088-.046.079-.522.209-1.117s.184-1.1.284-1.1.2.529.055,1.176-.468,1.088-.548,1.042" transform="translate(-111.577 -126.784)" fill="#fafafa"/>
        <path id="Trazado_190196" data-name="Trazado 190196" d="M341.286,230.1c-.087.041-.3-.228-.473-.6s-.245-.707-.158-.748.3.228.473.6.245.707.158.748" transform="translate(-113.047 -75.92)" fill="#fafafa"/>
        <path id="Trazado_190197" data-name="Trazado 190197" d="M326.817,199.624c.053.085-.418.46-.914.995s-.846,1.024-.934.977.143-.645.68-1.215,1.122-.837,1.168-.757" transform="translate(-107.848 -66.248)" fill="#fafafa"/>
        <path id="Trazado_190198" data-name="Trazado 190198" d="M339.662,198.4c-.1.02-.254-.377-.486-.835s-.45-.824-.377-.889.436.227.688.734.267.975.174.99" transform="translate(-112.439 -65.272)" fill="#fafafa"/>
        <path id="Trazado_190199" data-name="Trazado 190199" d="M301.587,208.5c-.09-.035,0-.478.2-.989s.439-.9.528-.861,0,.477-.2.989-.438.9-.528.861" transform="translate(-100.082 -68.585)" fill="#fafafa"/>
        <path id="Trazado_190200" data-name="Trazado 190200" d="M302.109,223.907c-.061.074-.442-.142-.85-.482s-.69-.676-.628-.75.442.142.85.482.689.676.628.75" transform="translate(-99.773 -73.898)" fill="#fafafa"/>
        <path id="Trazado_190201" data-name="Trazado 190201" d="M327.842,187.031c-.09.035-.272-.211-.408-.551s-.174-.645-.085-.681.272.211.408.551.174.645.085.681" transform="translate(-108.627 -61.664)" fill="#fafafa"/>
        <path id="Trazado_190202" data-name="Trazado 190202" d="M352.268,194.172c-.094-.021-.086-.423.019-.9s.265-.845.359-.824.086.423-.019.9-.265.845-.359.824" transform="translate(-116.892 -63.871)" fill="#fafafa"/>
        <path id="Trazado_190203" data-name="Trazado 190203" d="M357.971,205.412c-.089-.037.032-.535.271-1.114s.5-1.018.592-.981-.032.535-.271,1.114-.5,1.018-.592.981" transform="translate(-118.797 -67.478)" fill="#fafafa"/>
        <path id="Trazado_190204" data-name="Trazado 190204" d="M353.366,214.572c-.086.043-.4-.419-.71-1.031s-.484-1.144-.4-1.187.4.418.71,1.031.485,1.144.4,1.187" transform="translate(-116.903 -70.477)" fill="#fafafa"/>
        <path id="Trazado_190205" data-name="Trazado 190205" d="M362.575,224.1c-.09-.035-.025-.421.146-.863s.381-.773.47-.738.025.421-.146.863-.381.773-.47.738" transform="translate(-120.321 -73.843)" fill="#fafafa"/>
        <path id="Trazado_190206" data-name="Trazado 190206" d="M354.527,233.437c-.082.051-.285-.128-.456-.4s-.242-.534-.16-.585.285.128.456.4.242.534.16.585" transform="translate(-117.448 -77.145)" fill="#fafafa"/>
        <path id="Trazado_190207" data-name="Trazado 190207" d="M355.7,251.7c-.07.065-.486-.268-.928-.744s-.744-.915-.673-.981.486.268.928.744.744.915.673.981" transform="translate(-117.519 -82.961)" fill="#fafafa"/>
        <path id="Trazado_190208" data-name="Trazado 190208" d="M365.972,241c-.076.059-.44-.279-.814-.755s-.617-.911-.541-.97.44.279.815.755.616.911.541.97" transform="translate(-121.007 -79.41)" fill="#fafafa"/>
        <path id="Trazado_190209" data-name="Trazado 190209" d="M372.208,255.59c-.087-.041.065-.543.339-1.12s.566-1.012.653-.971-.065.543-.339,1.12-.566,1.013-.653.971" transform="translate(-123.523 -84.132)" fill="#fafafa"/>
        <path id="Trazado_190210" data-name="Trazado 190210" d="M359.586,268.039c-.086.051-.395-.32-.826-.713s-.821-.677-.776-.766.543.075,1.012.51.671.923.59.968" transform="translate(-118.81 -88.461)" fill="#fafafa"/>
        <path id="Trazado_190211" data-name="Trazado 190211" d="M360.386,281.237c0,.1-.331.174-.739.174s-.74-.078-.74-.174.331-.174.74-.174.739.078.739.174" transform="translate(-119.117 -93.282)" fill="#fafafa"/>
        <path id="Trazado_190212" data-name="Trazado 190212" d="M373.28,276.84c-.084-.051.088-.468.215-.993s.178-.971.278-.978.208.479.06,1.062-.476.962-.553.909" transform="translate(-123.88 -91.225)" fill="#fafafa"/>
        <path id="Trazado_190213" data-name="Trazado 190213" d="M384.982,280.928c-.091.032-.337-.436-.552-1.045s-.313-1.129-.222-1.161.337.436.551,1.045.313,1.128.223,1.161" transform="translate(-127.503 -92.504)" fill="#fafafa"/>
        <path id="Trazado_190214" data-name="Trazado 190214" d="M383.447,298.057c-.085-.045.121-.605.46-1.252s.683-1.136.768-1.091-.121.605-.46,1.253-.683,1.135-.768,1.09" transform="translate(-127.255 -98.143)" fill="#fafafa"/>
        <path id="Trazado_190215" data-name="Trazado 190215" d="M371.958,308.237c-.089.037-.363-.426-.613-1.034s-.38-1.13-.291-1.167.363.427.613,1.034.38,1.13.291,1.167" transform="translate(-123.139 -101.569)" fill="#fafafa"/>
        <path id="Trazado_190216" data-name="Trazado 190216" d="M359.586,313.139c0,.1-.276.174-.616.174s-.616-.077-.616-.174.276-.174.616-.174.616.078.616.174" transform="translate(-118.934 -103.869)" fill="#fafafa"/>
        <path id="Trazado_190217" data-name="Trazado 190217" d="M366.935,328.35c-.094.025-.279-.369-.415-.879s-.172-.944-.079-.969.279.369.416.879.17.944.078.969" transform="translate(-121.601 -108.362)" fill="#fafafa"/>
        <path id="Trazado_190218" data-name="Trazado 190218" d="M358.34,323.306c-.082-.049.016-.365.22-.706s.436-.576.518-.526-.016.365-.22.706-.436.576-.518.526" transform="translate(-118.919 -106.89)" fill="#fafafa"/>
        <path id="Trazado_190219" data-name="Trazado 190219" d="M358,340.583c-.1.011-.228-.448-.3-1.027s-.046-1.056.049-1.068.228.448.3,1.027.046,1.056-.049,1.068" transform="translate(-118.706 -112.34)" fill="#fafafa"/>
      </g>
    </g>
  </g>
</svg>
