<svg xmlns="http://www.w3.org/2000/svg" xmlns:xlink="http://www.w3.org/1999/xlink" width="126" height="126" viewBox="0 0 126 126">
  <defs>
    <clipPath id="clip-path">
      <circle id="Elipse_5208" data-name="Elipse 5208" cx="63" cy="63" r="63" transform="translate(1160 1095)" fill="#e9e897" stroke="#707070" stroke-width="1"/>
    </clipPath>
    <clipPath id="clip-path-2">
      <rect id="Rectángulo_46102" data-name="Rectángulo 46102" width="114.19" height="104.272" fill="#e9e897"/>
    </clipPath>
  </defs>
  <g id="Grupo_146166" data-name="Grupo 146166" transform="translate(-1160 -1097)">
    <circle id="Elipse_5209" data-name="Elipse 5209" cx="63" cy="63" r="63" transform="translate(1160 1097)" fill="#e9e897"/>
    <g id="Enmascarar_grupo_56303" data-name="Enmascarar grupo 56303" transform="translate(0 2)" clip-path="url(#clip-path)">
      <g id="Grupo_146165" data-name="Grupo 146165" transform="translate(1163 1116.732)">
        <g id="Grupo_146165-2" data-name="Grupo 146165" transform="translate(0 -0.005)" clip-path="url(#clip-path-2)">
          <path id="Trazado_187863" data-name="Trazado 187863" d="M488.635,172.916a159.256,159.256,0,0,1-11.478,19.254c-2.3,3.13-4.617,5.7-6.594,6.772a15.756,15.756,0,0,0-4.928,4.485,35.983,35.983,0,0,0-5.13,10.531l-14.79-22.376s.5-21.873,2.281-25.531c2.588-5.332,3.838-16.1,4.833-18.249.738-1.591,2.844-9.809,3.046-10.413a2.007,2.007,0,0,1,1.7-.659,2.649,2.649,0,0,1,2.283,2.157,24.58,24.58,0,0,1-.3,12.385c.558,5.636-1.119,9.82.057,10.927.044.041.125.022.24-.052,2.039-1.309,14.694-19.759,16.253-20.157,1.646-.42,12.528,30.927,12.528,30.927" transform="translate(-419.209 -128.597)" fill="#ffb27d"/>
          <path id="Trazado_187864" data-name="Trazado 187864" d="M166.142,1223.577H128.835c8.528-18.185,15.942-33.491,15.942-33.491s21.242.649,22.144,10.156" transform="translate(-121.173 -1119.309)" fill="#cecc35"/>
          <path id="Trazado_187865" data-name="Trazado 187865" d="M1151.77,11.867l-4.58,6.715-4.494,6.589a1.029,1.029,0,0,1-.934.412c-1.078-.1-2.413-1.658-3.453-2.519l-.105-.087a3.245,3.245,0,0,1-.431-4.555l6.87-8.3h0l2.037-2.462a3.244,3.244,0,0,1,4.555-.431l.105.087a3.245,3.245,0,0,1,.431,4.556" transform="translate(-1069.412 -6.1)" fill="#ffb27d"/>
          <path id="Trazado_187866" data-name="Trazado 187866" d="M1221.961,76.034l-4.494,6.589a1.029,1.029,0,0,1-.935.412l2.88-15.465c.006.087.5,7.025,2.548,8.463" transform="translate(-1144.183 -63.552)" fill="#efa26f"/>
          <path id="Trazado_187867" data-name="Trazado 187867" d="M686.138,1047.2c-2.3,3.13-4.617,5.7-6.594,6.772a15.757,15.757,0,0,0-4.928,4.485c-1.559-.727-3.336-1.579-5.073-2.423a2.893,2.893,0,0,1-.125-5.144l.06-.033c1.941-1.111,3.93-5.033,3.93-5.033Z" transform="translate(-628.19 -983.623)" fill="#efa26f"/>
          <path id="Trazado_187868" data-name="Trazado 187868" d="M595.862,153.524l-1.2,4.838a2.542,2.542,0,0,0,1.72.1c.673-.333,1.222-4.673-.522-4.934" transform="translate(-559.298 -144.393)" fill="#ffc197"/>
          <path id="Trazado_187869" data-name="Trazado 187869" d="M713.888,65.854H688.119a4.622,4.622,0,0,1-4.609-4.609V4.6A4.622,4.622,0,0,1,688.119,0h25.769A4.622,4.622,0,0,1,718.5,4.6V61.246a4.622,4.622,0,0,1-4.609,4.609" transform="translate(-642.861 0.005)" fill="#2b478b"/>
          <path id="Trazado_187870" data-name="Trazado 187870" d="M744.19,30.856V86.186A3.41,3.41,0,0,1,740.8,89.6H716.059a3.41,3.41,0,0,1-3.387-3.412V30.856a3.41,3.41,0,0,1,3.387-3.412H740.8a3.41,3.41,0,0,1,3.388,3.412" transform="translate(-670.288 -25.812)" fill="#c0d8fb"/>
          <path id="Trazado_187871" data-name="Trazado 187871" d="M740.8,27.444,716.365,89.6h-.306a3.41,3.41,0,0,1-3.387-3.412V30.856a3.41,3.41,0,0,1,3.387-3.412Z" transform="translate(-670.288 -25.812)" fill="#cbe1fd"/>
          <path id="Trazado_187872" data-name="Trazado 187872" d="M876.831,9.79H866.49a1.536,1.536,0,0,1-1.532-1.532V8.018a1.536,1.536,0,0,1,1.532-1.532h10.342a1.536,1.536,0,0,1,1.532,1.532v.241a1.536,1.536,0,0,1-1.532,1.532" transform="translate(-813.518 -6.1)" fill="#2b478b"/>
          <path id="Trazado_187873" data-name="Trazado 187873" d="M1194.97,424.835l-.683.26-4.593,1.745a2.932,2.932,0,0,1-.326.1,3.138,3.138,0,0,1-3.709-1.916l-.067-.176a3.137,3.137,0,0,1,1.813-4.036l4.282-1.627.311-.118.683-.26a3.137,3.137,0,0,1,4.035,1.813l.067.176a3.137,3.137,0,0,1-1.813,4.036" transform="translate(-1114.892 -393.711)" fill="#ffb27d"/>
          <path id="Trazado_187874" data-name="Trazado 187874" d="M1210.94,465.4a18.332,18.332,0,0,1-2.9.913,1.223,1.223,0,0,1-.958-.479,2.833,2.833,0,0,1-.578-1.042,3.314,3.314,0,0,1-.157-.665,2.81,2.81,0,0,1,.025-.791.79.79,0,0,1,.438-.564l0,0a18.113,18.113,0,0,1,2.786-1.092,1.21,1.21,0,0,1,1.5.671l.1.264.493,1.35a1.157,1.157,0,0,1-.754,1.438" transform="translate(-1134.591 -434.167)" fill="#ffd3b6"/>
          <path id="Trazado_187875" data-name="Trazado 187875" d="M1218.375,477.342a18.323,18.323,0,0,1-2.9.913,1.223,1.223,0,0,1-.958-.479c-.039-.09-.074-.185-.108-.286a3.321,3.321,0,0,1-.157-.665,2.8,2.8,0,0,1,.025-.791.788.788,0,0,1,.438-.564l0,0a18.116,18.116,0,0,1,2.786-1.092,1.32,1.32,0,0,1,1.127.179l.493,1.35a1.157,1.157,0,0,1-.754,1.438" transform="translate(-1142.027 -446.113)" fill="#ffc197"/>
          <path id="Trazado_187876" data-name="Trazado 187876" d="M1213.215,562.552l-3.542.964a2.034,2.034,0,0,1-2.489-1.424l-.109-.4a2.034,2.034,0,0,1,1.424-2.49l3.542-.964a2.034,2.034,0,0,1,2.49,1.424l.109.4a2.034,2.034,0,0,1-1.424,2.49" transform="translate(-1135.221 -524.971)" fill="#ffb27d"/>
          <path id="Trazado_187877" data-name="Trazado 187877" d="M1221.2,582.1a15.98,15.98,0,0,1-2.443.514,1.194,1.194,0,0,1-.966-.766,2.689,2.689,0,0,1-.26-1.02,2.029,2.029,0,0,1,.079-.606.627.627,0,0,1,.4-.4l0,0a15.82,15.82,0,0,1,2.366-.66,1,1,0,0,1,1.182.612l.091.319.273.958a.9.9,0,0,1-.725,1.056" transform="translate(-1145.126 -544.696)" fill="#ffd3b6"/>
          <path id="Trazado_187878" data-name="Trazado 187878" d="M1224.193,590.519a15.984,15.984,0,0,1-2.443.514,1.194,1.194,0,0,1-.966-.767,2.258,2.258,0,0,1-.071-.489,2.037,2.037,0,0,1,.079-.606.63.63,0,0,1,.4-.4l0,0a15.714,15.714,0,0,1,2.366-.659,1.069,1.069,0,0,1,1.085.4l.273.958a.9.9,0,0,1-.725,1.056" transform="translate(-1148.114 -553.112)" fill="#ffc197"/>
          <path id="Trazado_187879" data-name="Trazado 187879" d="M335.818,1158.969s7.29,6.983,12.205,9.678l3.721-2.639v3.893s7.318,1.294,9.626,0v-10.617l-20.555-10.3Z" transform="translate(-315.846 -1080.648)" fill="#ed7d2b"/>
          <path id="Trazado_187880" data-name="Trazado 187880" d="M320.3,1072.027c-2.831.581-8.934-1.644-8.934-1.644l.984-9.507-6.9,7.9c-3.509-1.306-9-4.714-12.259-6.835-1.624-1.056-2.7-1.793-2.7-1.793,4.6-7.405,9.231-14.331,9.231-14.331,1.359,2.718,4.574,5.078,8.06,6.966a68.548,68.548,0,0,0,12.332,4.971c0,5.65.177,14.275.177,14.275" transform="translate(-273.224 -983.618)" fill="#dceaff"/>
          <path id="Trazado_187881" data-name="Trazado 187881" d="M1189.389,285.638l-.076.026-4.643,1.192a3.839,3.839,0,0,1-4.692-2.455l-.276-.96a3.56,3.56,0,0,1,2.493-4.293l1.533-.394,3.111-.8a3.838,3.838,0,0,1,4.692,2.455l.276.96a3.553,3.553,0,0,1-2.416,4.267" transform="translate(-1109.423 -261.303)" fill="#ffb27d"/>
          <path id="Trazado_187882" data-name="Trazado 187882" d="M1239.94,312.946l-2.256,1.017-.014,0a2.41,2.41,0,0,1-.273.056c-.038.006-.076.01-.114.014a.3.3,0,0,1-.048,0,.359.359,0,0,1-.312-.507,2.244,2.244,0,0,0,.128-1.53l-.054-.2a.017.017,0,0,0,0-.006l-.175-.641a2.4,2.4,0,0,0-.818-1.247c-.046-.038-.094-.073-.143-.107a.648.648,0,0,1,.19-1.154l.014,0,2.476-.374a1.179,1.179,0,0,1,1.369.917l.2.729.423,1.556c.166.613.021,1.306-.591,1.472" transform="translate(-1162.102 -289.906)" fill="#ffd3b6"/>
          <path id="Trazado_187883" data-name="Trazado 187883" d="M1246.578,328.878l-2.256,1.017-.014,0c-.053.01-.218.038-.435.071a.359.359,0,0,1-.311-.507,2.243,2.243,0,0,0,.127-1.53l-.054-.2a.017.017,0,0,0,0-.006l-.175-.641a2.4,2.4,0,0,0-.818-1.247.629.629,0,0,1,.355-.253l.014,0,2.476-.374a1.126,1.126,0,0,1,1.259.639l.423,1.556c.166.613.021,1.306-.591,1.472" transform="translate(-1168.739 -305.839)" fill="#ffc197"/>
          <path id="Trazado_187884" data-name="Trazado 187884" d="M635.677,407.069s-1.013-8.843-1.948-10.567-1.725-5.178-.288-7.744,1.935-7.5,1.935-7.5c.558,5.636-1.119,9.819.057,10.927.044.041.125.022.24-.052Z" transform="translate(-595.028 -358.58)" fill="#efa26f"/>
          <path id="Trazado_187885" data-name="Trazado 187885" d="M437.433,280.365h35.181a2.211,2.211,0,0,0,2.211-2.211v-14.09a2.211,2.211,0,0,0-2.211-2.211H437.433a2.211,2.211,0,0,0-2.211,2.211v14.09a2.211,2.211,0,0,0,2.211,2.211" transform="translate(-409.339 -246.279)" fill="#699dee"/>
          <path id="Trazado_187886" data-name="Trazado 187886" d="M821.083,122.617h-13.77a1.85,1.85,0,0,1-1.85-1.85v-2.612a1.85,1.85,0,0,1,1.85-1.85h13.77a1.85,1.85,0,0,1,1.85,1.85v2.612a1.85,1.85,0,0,1-1.85,1.85" transform="translate(-757.561 -109.389)" fill="#9abff6"/>
          <path id="Trazado_187887" data-name="Trazado 187887" d="M771.859,877.363H755.983a2.215,2.215,0,0,1-2.215-2.215v-3.356a2.215,2.215,0,0,1,2.215-2.215h15.876a2.215,2.215,0,0,1,2.215,2.215v3.356a2.215,2.215,0,0,1-2.215,2.215" transform="translate(-708.94 -817.862)" fill="#9abff6"/>
          <path id="Trazado_187888" data-name="Trazado 187888" d="M882.548,638.571h-15a2.654,2.654,0,0,1-2.654-2.654v-5.869a2.654,2.654,0,0,1,2.654-2.654h15a2.654,2.654,0,0,1,2.654,2.654v5.869a2.654,2.654,0,0,1-2.654,2.654" transform="translate(-813.459 -590.082)" fill="#e9e897"/>
          <path id="Trazado_187889" data-name="Trazado 187889" d="M1163.98,727.219h-27.361c-1.312-.88-8.126-5.527-10.945-8.992-.6-.734-2.783-7.062-4.462-12.2-1.049-3.209-1.9-5.955-2.044-6.585a8.178,8.178,0,0,1-.1-1.243v-.006c-.071-2.1.026-6.153.127-9.372v-.015l0-.042c0-.141.009-.281.014-.419v0c0-.014,0-.028,0-.042.019-.559.036-1.086.053-1.565.042-1.2.078-2.1.093-2.451l.006-.164h0a2.98,2.98,0,0,1,3.119.541,4.576,4.576,0,0,1,1.175,2.011c.229.616.444,1.324.644,2.07.768,2.868,1.32,6.3,1.614,7.216.475,1.484,6.068,8.009,6.418,8.415l.017.02v-10.3l-4.223-11.3-1.734-4.639-.871-2.331a42.03,42.03,0,0,1-2.457-4.833,22.821,22.821,0,0,1-1.219-3.574c-.067-.281-.123-.558-.168-.83h0a6.026,6.026,0,0,1,.053-2.673,1.934,1.934,0,0,1,2.036-1.565c.073,0,.144.009.212.017a1.442,1.442,0,0,1,.2.039,1.418,1.418,0,0,1,.352.146h0a1.423,1.423,0,0,1,.459.429l1.4,1.828c.527.69,1.143,1.5,1.734,2.272,1.053,1.384,2.03,2.675,2.3,3.053,1.453,2.045,5.365,8.71,5.365,8.71l4.579.192a3.037,3.037,0,0,1,1.946.815c1.628,1.521,5.139,4.811,5.57,5.3,0,.16,2.728,1.472,4.836,2.641a28.862,28.862,0,0,1,4.371,2.894,5.049,5.049,0,0,1,1.274,1.544c.982,2.137,3.645,20.721,4.918,29.908.41,2.953.675,4.936.7,5.088" transform="translate(-1052.489 -622.947)" fill="#ffb27d"/>
          <path id="Trazado_187890" data-name="Trazado 187890" d="M1400.665,939.745s4.242,6.925,4.8,7.237,2.745.749,2.994,0-7.8-7.237-7.8-7.237" transform="translate(-1317.365 -883.857)" fill="#efa26f"/>
          <path id="Trazado_187891" data-name="Trazado 187891" d="M1614.114,1052.344l-.021-.019a28.873,28.873,0,0,0-4.371-2.894c-1.935-1.073-4.393-2.266-4.782-2.579.449.514,3.609,4.089,4.824,4.357,1.068.235,3.493.9,4.35,1.135" transform="translate(-1509.491 -984.594)" fill="#efa26f"/>
          <path id="Trazado_187892" data-name="Trazado 187892" d="M1342.8,1206.461v-10.3s2.448,4.095,2.635,6.341-1.017,5.881-2.635,3.964" transform="translate(-1262.943 -1125.018)" fill="#efa26f"/>
          <path id="Trazado_187893" data-name="Trazado 187893" d="M1173.632,666.079a18.524,18.524,0,0,1-1.219-2.349,1.175,1.175,0,0,1,.162-.9,2.038,2.038,0,0,1,.642-.667,2.126,2.126,0,0,1,.451-.243,1.751,1.751,0,0,1,.577-.106.613.613,0,0,1,.493.286l0,0a17.927,17.927,0,0,1,1.328,2.225,1.141,1.141,0,0,1-.2,1.4l-.172.126-.882.644a.838.838,0,0,1-1.186-.417" transform="translate(-1102.656 -622.451)" fill="#ffd3b6"/>
          <path id="Trazado_187894" data-name="Trazado 187894" d="M1173.632,674.426a18.528,18.528,0,0,1-1.219-2.349,1.175,1.175,0,0,1,.162-.9c.058-.048.119-.094.187-.139a2.127,2.127,0,0,1,.451-.243,1.751,1.751,0,0,1,.577-.106.612.612,0,0,1,.493.286l0,0a17.951,17.951,0,0,1,1.328,2.225,1.355,1.355,0,0,1,.088,1l-.882.644a.838.838,0,0,1-1.186-.417" transform="translate(-1102.656 -630.798)" fill="#ffc197"/>
          <path id="Trazado_187895" data-name="Trazado 187895" d="M1461.119,127.987h-5.735a2.752,2.752,0,0,1-2.744-2.743v-4.724a2.751,2.751,0,0,1,2.744-2.743h5.735a2.751,2.751,0,0,1,2.743,2.743v4.724a2.751,2.751,0,0,1-2.743,2.743" transform="translate(-1366.25 -110.771)" fill="#dfebfd"/>
          <path id="Trazado_187896" data-name="Trazado 187896" d="M1495.1,167.36c.312.822,2.984,2.979,2.984,2.979s.871-.708,1.677-1.47a5.948,5.948,0,0,0,1.3-1.509,1.584,1.584,0,0,0-1.188-2.182,2.088,2.088,0,0,1-3.588,0,1.587,1.587,0,0,0-.534.188,1.631,1.631,0,0,0-.653,1.994" transform="translate(-1406.08 -155.334)" fill="#cbe1fd"/>
          <path id="Trazado_187897" data-name="Trazado 187897" d="M2.636,736.636H19.819a2.5,2.5,0,0,1,2.49,2.49v7.538a2.294,2.294,0,0,1-2.287,2.287H19.58l.828,3.5-5.2-3.5H2.488A2.5,2.5,0,0,1,0,746.464v-7.191a2.644,2.644,0,0,1,2.636-2.637" transform="translate(0 -692.827)" fill="#dfebfd"/>
          <path id="Trazado_187898" data-name="Trazado 187898" d="M29.564,814.607H47.479a.444.444,0,0,0,0-.887H29.564a.444.444,0,0,0,0,.887" transform="translate(-27.388 -765.326)" fill="#cbe1fd"/>
          <path id="Trazado_187899" data-name="Trazado 187899" d="M29.564,848H47.479a.444.444,0,0,0,0-.887H29.564a.444.444,0,0,0,0,.887" transform="translate(-27.388 -796.734)" fill="#cbe1fd"/>
          <path id="Trazado_187900" data-name="Trazado 187900" d="M29.564,881.394H47.479a.444.444,0,0,0,0-.887H29.564a.444.444,0,0,0,0,.887" transform="translate(-27.388 -828.142)" fill="#cbe1fd"/>
          <path id="Trazado_187901" data-name="Trazado 187901" d="M192.351,760.069h7.606a.528.528,0,0,0,0-1.056h-7.606a.528.528,0,0,0,0,1.056" transform="translate(-180.415 -713.873)" fill="#cbe1fd"/>
          <path id="Trazado_187902" data-name="Trazado 187902" d="M84.194,760.069h4.577a.419.419,0,0,0,.417-.417v-.221a.419.419,0,0,0-.417-.418H84.194a.419.419,0,0,0-.417.418v.221a.419.419,0,0,0,.417.417" transform="translate(-78.795 -713.873)" fill="#cbe1fd"/>
          <path id="Trazado_187903" data-name="Trazado 187903" d="M1496.027,757.017l10.807,3.533-6.473-6.309-.657,1.541-2.782.014Z" transform="translate(-1407.056 -709.385)" fill="#9ec3f6"/>
          <path id="Trazado_187904" data-name="Trazado 187904" d="M1403.379,727.057l-8.387-6.38-8.961-2.047Z" transform="translate(-1303.601 -675.891)" fill="#fff"/>
          <path id="Trazado_187905" data-name="Trazado 187905" d="M1568.893,714.234l6.474,6.309-4.315-8.839Z" transform="translate(-1475.588 -669.378)" fill="#fff"/>
          <path id="Trazado_187906" data-name="Trazado 187906" d="M264.732,74.485l-10.1,1.441,6.7-4.569.341,1.465,2.456.445Z" transform="translate(-239.488 -67.112)" fill="#9ec3f6"/>
          <path id="Trazado_187907" data-name="Trazado 187907" d="M254.63,73.089l8.406-4.334,8.239-.414Z" transform="translate(-239.487 -64.276)" fill="#fff"/>
          <path id="Trazado_187908" data-name="Trazado 187908" d="M261.334,30.685l-6.7,4.569,5.189-7.141Z" transform="translate(-239.487 -26.441)" fill="#fff"/>
          <path id="Trazado_187909" data-name="Trazado 187909" d="M509.65,315a5.738,5.738,0,1,1-5.738-5.738A5.709,5.709,0,0,1,509.65,315" transform="translate(-468.546 -290.87)" fill="#fff"/>
          <path id="Trazado_187910" data-name="Trazado 187910" d="M551.333,356.472l-.045-.048a.8.8,0,0,0-.4-.128c-.135-.023-.322-.049-.588-.084l-.087-.009-.067-.006c-.076-.04-.1-.356-.1-.689,0-.025,0-.05,0-.075,0-.126.005-.25.01-.362,0-.007,0-.014,0-.021.164.014.273.013.273.013.306-.024.5-.844.565-1.506a2.234,2.234,0,0,0,.151-.756.977.977,0,0,0-.2-.632.842.842,0,0,0-.215-.193c-.019-.019-.039-.036-.058-.053-.284-.316-1.44-1.5-2.2-.815-.02-.068-.266-.837-1.463-.585.074-.008.6-.058.758.157a.981.981,0,0,0-.776-.035.706.706,0,0,0-.266.432v0s0,0,0,0h0a.017.017,0,0,0,0,.005c-.005.024-.011.049-.017.073,0,0,0,.007,0,.011s0,0,0,0h0a1.245,1.245,0,0,0-.014.453c.045.187.375.745.594.745a.654.654,0,0,0,.25-.061,2.768,2.768,0,0,0-.089.325c-.232,1.094.494,1.924.871,1.719.241-.131.424.291.424.291v0a2.318,2.318,0,0,1-.418,1.452c-.058.007-.184.022-.342.047h0a3.967,3.967,0,0,0-.977.244l-.01,0a1.01,1.01,0,0,0-.24.133l0,0h0a.349.349,0,0,0-.077.08.2.2,0,0,0-.025.036,6.574,6.574,0,0,0-.419,1.146,4.867,4.867,0,0,0,6.052-.19,3.044,3.044,0,0,0-.861-1.131" transform="translate(-513.662 -329.629)" fill="#2b478b"/>
          <path id="Trazado_187911" data-name="Trazado 187911" d="M757.25,341.046h-6.519a.412.412,0,0,1-.411-.411v-.2a.412.412,0,0,1,.411-.411h6.519a.412.412,0,0,1,.411.411v.2a.412.412,0,0,1-.411.411" transform="translate(-705.697 -319.806)" fill="#fff"/>
          <path id="Trazado_187912" data-name="Trazado 187912" d="M757.327,408.172H750.65a.332.332,0,0,1,0-.664h6.677a.332.332,0,0,1,0,.664" transform="translate(-705.695 -383.273)" fill="#fff"/>
          <path id="Trazado_187913" data-name="Trazado 187913" d="M754.371,434.579h-3.8a.255.255,0,0,1-.254-.254v-.155a.255.255,0,0,1,.254-.254h3.8a.255.255,0,0,1,.254.254v.155a.255.255,0,0,1-.254.254" transform="translate(-705.695 -408.109)" fill="#fff"/>
          <path id="Trazado_187914" data-name="Trazado 187914" d="M846.528,434.579H840.39a.32.32,0,0,1-.319-.319v-.026a.32.32,0,0,1,.319-.319h6.138a.32.32,0,0,1,.319.319v.026a.32.32,0,0,1-.319.319" transform="translate(-790.111 -408.109)" fill="#fff"/>
          <path id="Trazado_187915" data-name="Trazado 187915" d="M901.38,408.172h-8.755a.332.332,0,1,1,0-.664h8.755a.332.332,0,1,1,0,.664" transform="translate(-839.227 -383.273)" fill="#fff"/>
          <path id="Trazado_187916" data-name="Trazado 187916" d="M757.327,460.986H750.65a.332.332,0,0,1,0-.664h6.677a.332.332,0,0,1,0,.664" transform="translate(-705.695 -432.946)" fill="#fff"/>
          <path id="Trazado_187917" data-name="Trazado 187917" d="M901.38,460.986h-8.755a.332.332,0,0,1,0-.664h8.755a.332.332,0,0,1,0,.664" transform="translate(-839.227 -432.946)" fill="#fff"/>
          <path id="Trazado_187918" data-name="Trazado 187918" d="M894.069,341.046h-4.682a.353.353,0,0,1-.352-.352v-.314a.353.353,0,0,1,.352-.352h4.682a.353.353,0,0,1,.352.352v.314a.353.353,0,0,1-.352.352" transform="translate(-836.163 -319.806)" fill="#fff"/>
          <path id="Trazado_187919" data-name="Trazado 187919" d="M796.51,895.328h-4.634a.293.293,0,0,1-.292-.292V894.9a.293.293,0,0,1,.292-.292h4.634a.293.293,0,0,1,.292.292v.139a.293.293,0,0,1-.292.292" transform="translate(-744.506 -841.4)" fill="#699dee"/>
          <path id="Trazado_187920" data-name="Trazado 187920" d="M796.563,930.464h-4.747a.236.236,0,1,1,0-.472h4.747a.236.236,0,1,1,0,.472" transform="translate(-744.504 -874.684)" fill="#699dee"/>
          <path id="Trazado_187921" data-name="Trazado 187921" d="M794.461,949.238h-2.7a.181.181,0,0,1-.181-.181v-.11a.181.181,0,0,1,.181-.181h2.7a.181.181,0,0,1,.181.181v.11a.181.181,0,0,1-.181.181" transform="translate(-744.504 -892.341)" fill="#699dee"/>
          <path id="Trazado_187922" data-name="Trazado 187922" d="M859.982,949.238h-4.364a.227.227,0,0,1-.227-.227v-.018a.227.227,0,0,1,.227-.227h4.364a.227.227,0,0,1,.227.227v.018a.227.227,0,0,1-.227.227" transform="translate(-804.52 -892.341)" fill="#699dee"/>
          <path id="Trazado_187923" data-name="Trazado 187923" d="M898.979,930.464h-6.224a.236.236,0,1,1,0-.472h6.224a.236.236,0,1,1,0,.472" transform="translate(-839.44 -874.684)" fill="#699dee"/>
          <path id="Trazado_187924" data-name="Trazado 187924" d="M796.563,968.012h-4.747a.236.236,0,1,1,0-.472h4.747a.236.236,0,0,1,0,.472" transform="translate(-744.504 -909.999)" fill="#699dee"/>
          <path id="Trazado_187925" data-name="Trazado 187925" d="M898.979,968.012h-6.224a.236.236,0,0,1,0-.472h6.224a.236.236,0,0,1,0,.472" transform="translate(-839.44 -909.999)" fill="#699dee"/>
          <path id="Trazado_187926" data-name="Trazado 187926" d="M893.783,895.328h-3.329a.251.251,0,0,1-.25-.25v-.223a.251.251,0,0,1,.25-.25h3.329a.251.251,0,0,1,.25.25v.223a.251.251,0,0,1-.25.25" transform="translate(-837.262 -841.4)" fill="#699dee"/>
          <path id="Trazado_187927" data-name="Trazado 187927" d="M848.2,137.5H843.57a.293.293,0,0,1-.292-.292v-.139a.293.293,0,0,1,.292-.292H848.2a.293.293,0,0,1,.292.292v.139a.293.293,0,0,1-.292.292" transform="translate(-793.127 -128.643)" fill="#699dee"/>
          <path id="Trazado_187928" data-name="Trazado 187928" d="M848.259,172.637h-4.747a.236.236,0,1,1,0-.472h4.747a.236.236,0,0,1,0,.472" transform="translate(-793.125 -161.926)" fill="#699dee"/>
          <path id="Trazado_187929" data-name="Trazado 187929" d="M846.157,191.412h-2.7a.181.181,0,0,1-.181-.181v-.11a.181.181,0,0,1,.181-.181h2.7a.181.181,0,0,1,.181.181v.11a.181.181,0,0,1-.181.181" transform="translate(-793.125 -179.584)" fill="#699dee"/>
          <path id="Trazado_187930" data-name="Trazado 187930" d="M911.679,191.412h-4.364a.227.227,0,0,1-.227-.227v-.018a.227.227,0,0,1,.227-.227h4.364a.227.227,0,0,1,.227.227v.018a.227.227,0,0,1-.227.227" transform="translate(-853.142 -179.584)" fill="#699dee"/>
          <path id="Trazado_187931" data-name="Trazado 187931" d="M950.674,172.637H944.45a.236.236,0,1,1,0-.472h6.224a.236.236,0,0,1,0,.472" transform="translate(-888.06 -161.926)" fill="#699dee"/>
          <path id="Trazado_187932" data-name="Trazado 187932" d="M945.478,137.5h-3.329a.251.251,0,0,1-.25-.25v-.223a.251.251,0,0,1,.25-.25h3.329a.251.251,0,0,1,.25.25v.223a.251.251,0,0,1-.25.25" transform="translate(-885.883 -128.643)" fill="#699dee"/>
          <path id="Trazado_187933" data-name="Trazado 187933" d="M909.7,662.63h-5.074a.321.321,0,0,1-.32-.32v-.152a.321.321,0,0,1,.32-.32H909.7a.321.321,0,0,1,.32.32v.152a.321.321,0,0,1-.32.32" transform="translate(-850.525 -622.477)" fill="#fff"/>
          <path id="Trazado_187934" data-name="Trazado 187934" d="M909.759,701.1h-5.2a.258.258,0,0,1,0-.517h5.2a.258.258,0,1,1,0,.517" transform="translate(-850.524 -658.916)" fill="#fff"/>
          <path id="Trazado_187935" data-name="Trazado 187935" d="M907.458,721.651H904.5a.2.2,0,0,1-.2-.2v-.121a.2.2,0,0,1,.2-.2h2.957a.2.2,0,0,1,.2.2v.121a.2.2,0,0,1-.2.2" transform="translate(-850.523 -678.248)" fill="#fff"/>
          <path id="Trazado_187936" data-name="Trazado 187936" d="M979.189,721.651h-4.778a.249.249,0,0,1-.248-.248v-.02a.249.249,0,0,1,.248-.248h4.778a.249.249,0,0,1,.248.248v.02a.249.249,0,0,1-.248.248" transform="translate(-916.228 -678.248)" fill="#fff"/>
          <path id="Trazado_187937" data-name="Trazado 187937" d="M1021.883,701.1h-6.814a.258.258,0,1,1,0-.517h6.814a.258.258,0,1,1,0,.517" transform="translate(-954.458 -658.916)" fill="#fff"/>
          <path id="Trazado_187938" data-name="Trazado 187938" d="M909.759,742.206h-5.2a.258.258,0,0,1,0-.517h5.2a.258.258,0,1,1,0,.517" transform="translate(-850.524 -697.579)" fill="#fff"/>
          <path id="Trazado_187939" data-name="Trazado 187939" d="M1021.883,742.206h-6.814a.258.258,0,1,1,0-.517h6.814a.258.258,0,1,1,0,.517" transform="translate(-954.458 -697.579)" fill="#fff"/>
          <path id="Trazado_187940" data-name="Trazado 187940" d="M909.759,763.6h-5.2a.258.258,0,0,1,0-.517h5.2a.258.258,0,1,1,0,.517" transform="translate(-850.524 -717.703)" fill="#fff"/>
          <path id="Trazado_187941" data-name="Trazado 187941" d="M1021.883,763.6h-6.814a.258.258,0,1,1,0-.517h6.814a.258.258,0,1,1,0,.517" transform="translate(-954.458 -717.703)" fill="#fff"/>
          <path id="Trazado_187942" data-name="Trazado 187942" d="M1016.194,662.63h-3.644a.275.275,0,0,1-.274-.274v-.244a.275.275,0,0,1,.274-.274h3.644a.275.275,0,0,1,.274.274v.244a.275.275,0,0,1-.274.274" transform="translate(-952.074 -622.477)" fill="#fff"/>
          <path id="Trazado_187943" data-name="Trazado 187943" d="M781.721,82.78l-.353.253-.354-.25a.434.434,0,0,1,.707,0" transform="translate(-734.566 -77.686)" fill="#fff"/>
          <path id="Trazado_187944" data-name="Trazado 187944" d="M773.41,72.23a1.047,1.047,0,0,0-.858.446l.224.157a.775.775,0,0,1,1.264,0l.223-.16a1.049,1.049,0,0,0-.853-.438" transform="translate(-726.607 -67.934)" fill="#fff"/>
          <path id="Trazado_187945" data-name="Trazado 187945" d="M758.267,52.52a2.217,2.217,0,0,0-1.815.943l.224.157a1.946,1.946,0,0,1,3.174-.012l.222-.16a2.216,2.216,0,0,0-1.8-.928" transform="translate(-711.465 -49.396)" fill="#fff"/>
          <path id="Trazado_187946" data-name="Trazado 187946" d="M766.506,63.31a1.586,1.586,0,0,0-1.294.668l.224.157a1.316,1.316,0,0,1,2.136-.008l.222-.159a1.585,1.585,0,0,0-1.287-.658" transform="translate(-719.704 -59.545)" fill="#fff"/>
          <path id="Trazado_187947" data-name="Trazado 187947" d="M753.684,678.043a2.254,2.254,0,0,0,3.546,1.847l.055-.039a2.254,2.254,0,1,0-3.6-1.808" transform="translate(-708.861 -635.599)" fill="#fff"/>
          <path id="Trazado_187948" data-name="Trazado 187948" d="M771.669,690.56l-.208-.184-.052.01a1.4,1.4,0,0,0-.121-.076c.014-.084.025-.162.034-.231a3.707,3.707,0,0,0,.035-.41c.11-.005.184-.017.184-.017.208-.048.218-.759.17-1.129a.267.267,0,0,0,.116-.022c.158-.07.167-.308.167-.308a.279.279,0,0,1-.113.112s.263-.361-.042-.608-.616-.086-.793-.075c-.389.024-.641.047-.767.3a1.419,1.419,0,0,0,.164,1.2c0,.024.008.047.011.071a.476.476,0,0,0,.1.227,1.59,1.59,0,0,1-.288.67,1.043,1.043,0,0,0-.207.223l0,0h0a2.258,2.258,0,0,0-.291.638v0a2.136,2.136,0,0,0,.411.226l.029.012.006,0,.047.018c.038.015.076.029.115.041s.082.025.123.036l.057.014.051.011.007,0,.034.007.08.014.018,0,.044.006.063.007.071.005.067,0h.172l.037,0h0l.071-.005a2.237,2.237,0,0,0,.849-.257,2.366,2.366,0,0,0-.448-.542" transform="translate(-723.982 -646.67)" fill="#699dee"/>
          <path id="Trazado_187949" data-name="Trazado 187949" d="M1125.768,898.073a2.269,2.269,0,1,0,2.269-2.269,2.257,2.257,0,0,0-2.269,2.269" transform="translate(-1058.817 -842.529)" fill="#fff"/>
          <path id="Trazado_187950" data-name="Trazado 187950" d="M1141.887,910.053a.077.077,0,0,0-.011-.017.176.176,0,0,0-.036-.037h0a.451.451,0,0,0-.112-.062l0,0a1.828,1.828,0,0,0-.455-.114c-.074-.011-.132-.018-.159-.021a1.081,1.081,0,0,1-.2-.677h0s.085-.2.2-.136c.176.1.515-.292.406-.8a1.384,1.384,0,0,0-.042-.151.313.313,0,0,0,.117.029c.1,0,.256-.26.277-.348s0-.375-.142-.46a.459.459,0,0,0-.362.016c.07-.1.308-.078.351-.073-.556-.115-.67.241-.68.273-.353-.319-.893.233-1.025.38l-.027.025a.381.381,0,0,0-.1.089.456.456,0,0,0-.091.295,1.045,1.045,0,0,0,.07.353c.032.309.121.691.264.7,0,0,.051,0,.127-.006,0,0,0,.007,0,.01,0,.052,0,.11,0,.168v.035c0,.155-.009.3-.044.321l-.031,0-.041,0c-.124.016-.212.028-.274.039a.362.362,0,0,0-.185.059l-.021.023a1.413,1.413,0,0,0-.4.527,2.269,2.269,0,0,0,2.822.089,3.017,3.017,0,0,0-.2-.534" transform="translate(-1071.507 -853.223)" fill="#e9e897"/>
          <path id="Trazado_187951" data-name="Trazado 187951" d="M1125.768,131.207a2.269,2.269,0,1,0,2.269-2.269,2.257,2.257,0,0,0-2.269,2.269" transform="translate(-1058.817 -121.27)" fill="#fff"/>
          <path id="Trazado_187952" data-name="Trazado 187952" d="M1141.887,143.184a.1.1,0,0,0-.011-.017.178.178,0,0,0-.036-.037h0a.492.492,0,0,0-.112-.062l0,0a1.856,1.856,0,0,0-.455-.114h0c-.074-.012-.132-.019-.159-.022a.252.252,0,0,1-.058-.074h0a1.408,1.408,0,0,1-.137-.6h0s.085-.2.2-.136c.176.1.515-.291.406-.8a1.362,1.362,0,0,0-.042-.152.314.314,0,0,0,.117.029c.1,0,.256-.26.277-.347s0-.375-.142-.46a.459.459,0,0,0-.362.017c.07-.1.308-.078.351-.074-.556-.115-.67.241-.68.273-.353-.319-.893.233-1.025.38l-.027.025a.386.386,0,0,0-.1.09.454.454,0,0,0-.091.294,1.041,1.041,0,0,0,.07.353c.032.309.121.691.264.7,0,0,.051,0,.127-.005,0,0,0,.006,0,.01,0,.052,0,.11,0,.169v.035c0,.155-.009.3-.044.321l-.031,0-.041,0c-.124.016-.212.029-.274.039a.368.368,0,0,0-.185.059l-.021.023a1.416,1.416,0,0,0-.4.528c.021.018.043.036.066.054l.011.009.051.037.036.027.037.025c.018.013.036.025.056.036l.038.024.048.028.053.03,0,0,0,0h0l.008,0,.043.022h0l.013.007.024.012.024.011.055.024.056.023.026.01.026.01.052.018.055.018.047.014h0l.03.008c.054.015.109.028.165.039l.073.013.019,0h.006l.048.006h.017l.044,0h.008l.014,0,.08.005h.045l.078,0a2.255,2.255,0,0,0,1.355-.45,3.034,3.034,0,0,0-.2-.534" transform="translate(-1071.507 -131.961)" fill="#e9e897"/>
          <path id="Trazado_187953" data-name="Trazado 187953" d="M1184.584,1413.884l-8.173,4.231h-5.441c-1.312-.88-8.126-5.527-10.945-8.992-.6-.734-2.783-7.062-4.462-12.2v0c.223.682,4.91,10.664,6.245,11.8s8.341,7.741,10.277,7.674c1.875-.064,11.854-2.361,12.472-2.5l.028-.006" transform="translate(-1086.839 -1313.844)" fill="#efa26f"/>
          <path id="Trazado_187954" data-name="Trazado 187954" d="M1454.078,1663.366h-29.466a118.4,118.4,0,0,1,12.993-4.225l.028-.007c5.034-1.273,10.215-2.045,13.03-.887l.02.03Z" transform="translate(-1339.888 -1559.094)" fill="#d2e3fc"/>
          <path id="Trazado_187955" data-name="Trazado 187955" d="M1119.6,1096.462h0c.5-.182,1.194-.3,1.533.265.528.881-1.433,8.657-1.678,9.636Z" transform="translate(-1052.878 -1031.111)" fill="#efa26f"/>
          <path id="Trazado_187956" data-name="Trazado 187956" d="M1121.758,1028.553l-.169,4.7a2.409,2.409,0,0,0,1.551-.259c.562-.42.265-4.5-1.383-4.445" transform="translate(-1054.886 -967.383)" fill="#ffc197"/>
          <path id="Trazado_187957" data-name="Trazado 187957" d="M362.927,1182.194c-2.831.581-8.934-1.644-8.934-1.644l.984-9.507-6.9,7.9c-3.509-1.306-9-4.714-12.259-6.835,8.357-.911,14.6-9.158,14.6-9.158a68.55,68.55,0,0,0,12.332,4.971c0,5.65.177,14.275.177,14.275" transform="translate(-315.85 -1093.785)" fill="#cbe1fd"/>
          <path id="Trazado_187958" data-name="Trazado 187958" d="M464.869,1323.377a1.148,1.148,0,1,1,1.137,1.158,1.148,1.148,0,0,1-1.137-1.158" transform="translate(-437.223 -1243.604)" fill="#f99746"/>
        </g>
      </g>
    </g>
  </g>
</svg>
