<svg xmlns="http://www.w3.org/2000/svg" xmlns:xlink="http://www.w3.org/1999/xlink" width="171.691" height="209.348" viewBox="0 0 171.691 209.348">
  <defs>
    <clipPath id="clip-path">
      <path id="Trazado_206300" data-name="Trazado 206300" d="M903.577-38.824l-8.945,5.165-5.5,3.172a5.811,5.811,0,0,0-.518.3,7.288,7.288,0,0,0-3.494,6.271l0,25.705a7.274,7.274,0,0,1-2.949,5.9,7.446,7.446,0,0,1-4.449,1.495,7.324,7.324,0,0,1-3.676-1A22.151,22.151,0,0,1,862.968-11V-37.663A22.114,22.114,0,0,0,860-48.737a22.126,22.126,0,0,0-8.107-8.107L892.5-80.29h0a22.2,22.2,0,0,1,8.112,8.116A22.119,22.119,0,0,1,903.581-61.1v11.615C903.581-46.163,903.577-38.824,903.577-38.824Z" transform="translate(-851.894 80.29)" fill="none"/>
    </clipPath>
  </defs>
  <g id="Grupo_163154" data-name="Grupo 163154" transform="translate(-773.696 245.372)">
    <ellipse id="Shadow" cx="18.816" cy="10.863" rx="18.816" ry="10.863" transform="translate(907.755 -103.182)" fill="#9a9a9a"/>
    <path id="Shadow-2" data-name="Shadow" d="M866,80.47l84.165,48.594,38.575-22.271-84.182-48.6Z" transform="translate(-59.538 -165.088)" fill="#9a9a9a"/>
    <path id="Shadow-3" data-name="Shadow" d="M807.9,70.489,790.477,60.433a.57.57,0,0,1,0-1.079l61.254-35.365a2.064,2.064,0,0,1,1.869,0l17.418,10.056a.57.57,0,0,1,0,1.08L809.765,70.489A2.064,2.064,0,0,1,807.9,70.489Z" transform="translate(-16.394 -145.524)" fill="#9a9a9a"/>
    <g id="Grupo_164910" data-name="Grupo 164910" transform="translate(812.88 -245.372)">
      <path id="Trazado_208559" data-name="Trazado 208559" d="M6132.634,1095.033l9.46,22.831a21.383,21.383,0,0,1-1.092,18.627l-19.184,34.3a21.382,21.382,0,0,0-2.592,12.79l2.135,19.306a21.387,21.387,0,0,1-7.794,18.967h0a21.386,21.386,0,0,1-29.657-2.65l-11.965-13.875a21.385,21.385,0,0,1-2.98-23.435l12.542-25.4a21.392,21.392,0,0,0,2.188-10.459l-1.729-37.265a21.387,21.387,0,0,1,12.15-20.29l9.548-4.559A21.386,21.386,0,0,1,6132.634,1095.033Z" transform="translate(-6066.753 -1081.828)" fill="#455a64"/>
      <g id="Grupo_164879" data-name="Grupo 164879" transform="translate(28.724 29.254)">
        <path id="Trazado_208560" data-name="Trazado 208560" d="M6500.278,1642.2c-1.679-29.918,2.851-60.262,6.947-80.448,2.45-12.081,4.925-21.5,6.569-27.274,1.094-3.844,1.908-6.38,2.4-7.832,1.062-3.149,1.277-3.285,1.6-3.492a1.093,1.093,0,0,1,1.427,1.62c-1.534,2.919-19.9,61.357-16.761,117.3a1.092,1.092,0,1,1-2.181.122Zm18.686-117.2,0,0Zm0,0h0Z" transform="translate(-6499.919 -1522.988)" fill="#fff"/>
      </g>
    </g>
    <path id="Trazado_208603" data-name="Trazado 208603" d="M6558.77,2021.119a13.765,13.765,0,0,0,5.944-12.424,39.665,39.665,0,0,1,2.625-16.917c5.785-15.26,18.9-24.438,29.289-20.5s14.125,19.5,8.341,34.763a42.4,42.4,0,0,1-4.124,8.147,13.545,13.545,0,0,0-1.261,12.493,17.364,17.364,0,0,1-12.727,23.541,13.623,13.623,0,0,0-8.371,5.321c-5.736,7.858-14.405,11.727-21.794,8.926-9.472-3.59-13.253-16.778-8.448-29.455A29.424,29.424,0,0,1,6558.77,2021.119Z" transform="matrix(0.995, -0.105, 0.105, 0.995, -5876.383, -1458.288)" fill="#ff725e"/>
    <g id="Device" transform="translate(787.068 -232.285)">
      <g id="Device-2" data-name="Device" transform="translate(0)">
        <g id="Grupo_163154-2" data-name="Grupo 163154" transform="translate(5.92 3.605)">
          <path id="Trazado_206207" data-name="Trazado 206207" d="M888.361-223.675l-51.7,29.845a4.171,4.171,0,0,0-1.878,3.258V-73.979c0,1.2.843,1.686,1.878,1.084l51.7-29.845A4.17,4.17,0,0,0,890.24-106V-222.591C890.24-223.789,889.4-224.276,888.361-223.675Zm-.828,106.935a2.6,2.6,0,0,1-1.611,2.192L838.914-87.41c-.887.513-1.612.1-1.612-.932v-91.332a3.579,3.579,0,0,1,1.612-2.795L885.922-209.6c.892-.518,1.611-.1,1.611.927Z" transform="translate(-834.783 223.933)" fill="#37474f"/>
        </g>
        <g id="Grupo_163155" data-name="Grupo 163155" transform="translate(0 31.697)">
          <path id="Trazado_206208" data-name="Trazado 206208" d="M828.633-35.789a4.208,4.208,0,0,1-3.528-.117l-2.15-1.243a4.144,4.144,0,0,1-1.885-3.258V-156.992a3.553,3.553,0,0,1,.326-1.405,4.52,4.52,0,0,1,.224-.452,0,0,0,0,0,0,0l5.916,3.417h0a5.148,5.148,0,0,0-.326.689,3.419,3.419,0,0,0-.228,1.164V-36.99C826.99-35.887,827.706-35.384,828.633-35.789Z" transform="translate(-821.069 158.854)" fill="#263238"/>
        </g>
        <path id="Trazado_206209" data-name="Trazado 206209" d="M896.147,67.129c1.639-.946,2.968-.179,2.968,1.714a6.561,6.561,0,0,1-2.968,5.141c-1.639.946-2.968.179-2.968-1.714A6.561,6.561,0,0,1,896.147,67.129Z" transform="translate(-862.052 62.346)" fill="#27debf"/>
        <g id="Grupo_163156" data-name="Grupo 163156" transform="translate(27.731 21.128)">
          <path id="Trazado_206210" data-name="Trazado 206210" d="M897.36-183.168c.7-.4,1.26-.076,1.26.728a2.786,2.786,0,0,1-1.26,2.183c-.7.4-1.26.076-1.26-.727A2.784,2.784,0,0,1,897.36-183.168Z" transform="translate(-891.443 183.34)"/>
          <path id="Trazado_206211" data-name="Trazado 206211" d="M886.363-172.778l9.732-5.618c.581-.335,1.051-.1,1.051.532a2.254,2.254,0,0,1-1.051,1.746l-9.732,5.618c-.581.335-1.051.1-1.051-.532A2.256,2.256,0,0,1,886.363-172.778Z" transform="translate(-885.312 180.617)"/>
        </g>
        <path id="Trazado_206212" data-name="Trazado 206212" d="M890.849-98.388a2.6,2.6,0,0,1-1.611,2.191L842.23-69.057c-.887.512-1.612.1-1.612-.932v-91.332a3.579,3.579,0,0,1,1.612-2.795l47.008-27.134c.892-.518,1.611-.1,1.611.927Z" transform="translate(-832.179 209.09)" fill="#afafaf" stroke="#fff" stroke-miterlimit="10" stroke-width="1"/>
        <g id="Grupo_163157" data-name="Grupo 163157" transform="translate(0.554)">
          <path id="Trazado_206213" data-name="Trazado 206213" d="M883.156-227.636c-.135-.978-.917-1.331-1.857-.787l-51.7,29.846a3.829,3.829,0,0,0-1.326,1.406l-5.916-3.417a3.81,3.81,0,0,1,1.331-1.4l51.695-29.851a4.151,4.151,0,0,1,3.761,0l2.16,1.238A4.218,4.218,0,0,1,883.156-227.636Z" transform="translate(-822.352 232.285)" fill="#455a64"/>
        </g>
      </g>
      <g id="Grupo_163158" data-name="Grupo 163158" transform="translate(19.033 46.584)">
        <path id="Trazado_206214" data-name="Trazado 206214" d="M868.579-93.653a3.166,3.166,0,0,1,1.475-.483,1.734,1.734,0,0,1,1.153.371,2.516,2.516,0,0,1,.761,1.156,6.122,6.122,0,0,1,.31,1.848q.013.372.012.687v1.2c0,.2,0,.429-.012.673a10.41,10.41,0,0,1-.3,2.212,9.682,9.682,0,0,1-.743,2.015,8.008,8.008,0,0,1-1.13,1.689,5.778,5.778,0,0,1-1.463,1.214l-3.161,1.825a.17.17,0,0,1-.222-.016.383.383,0,0,1-.094-.288V-91.193a.918.918,0,0,1,.094-.4.588.588,0,0,1,.222-.272Zm1.533,4.071q-.071-2.032-1.592-1.153l-1.193.689V-83.2l1.252-.723a3.241,3.241,0,0,0,1.533-2.957c.007-.257.012-.5.012-.719v-1.289C870.124-89.1,870.12-89.334,870.113-89.582Z" transform="translate(-865.161 107.186)" fill="#fff"/>
        <path id="Trazado_206215" data-name="Trazado 206215" d="M887.7-105.367q.234-.135.357-.008a.688.688,0,0,1,.17.3L890.78-95.2a.9.9,0,0,1,.047.244.751.751,0,0,1-.076.323.478.478,0,0,1-.181.222l-1.475.852q-.234.135-.334.04a.41.41,0,0,1-.123-.227l-.328-1.307-3.114,1.8-.328,1.685a1.334,1.334,0,0,1-.123.369.79.79,0,0,1-.334.346L882.937-90a.138.138,0,0,1-.182-.012.315.315,0,0,1-.076-.236,1.558,1.558,0,0,1,.047-.3l2.552-12.828a2.342,2.342,0,0,1,.17-.495.866.866,0,0,1,.357-.4Zm-1.9,8.971,1.9-1.095-.948-3.778Z" transform="translate(-875.118 113.608)" fill="#fff"/>
        <path id="Trazado_206216" data-name="Trazado 206216" d="M907.1-117.721a.17.17,0,0,1,.222.016.386.386,0,0,1,.094.288v1.911a.925.925,0,0,1-.094.4.6.6,0,0,1-.222.273l-2.06,1.19v9.245a.923.923,0,0,1-.094.4.6.6,0,0,1-.222.273l-1.534.885a.169.169,0,0,1-.222-.016.383.383,0,0,1-.093-.288V-112.4l-2.061,1.19a.17.17,0,0,1-.222-.016.382.382,0,0,1-.094-.288v-1.911a.914.914,0,0,1,.094-.4.593.593,0,0,1,.222-.272Z" transform="translate(-885.244 120.609)" fill="#fff"/>
        <path id="Trazado_206217" data-name="Trazado 206217" d="M920.488-124.3c.156-.09.275-.092.357-.008a.693.693,0,0,1,.17.3l2.552,9.881a.879.879,0,0,1,.047.243.745.745,0,0,1-.076.323.482.482,0,0,1-.181.222l-1.475.851q-.234.135-.334.04a.407.407,0,0,1-.123-.226l-.328-1.307-3.114,1.8-.328,1.685a1.339,1.339,0,0,1-.123.368.789.789,0,0,1-.334.346l-1.475.852a.139.139,0,0,1-.182-.013.315.315,0,0,1-.076-.235,1.561,1.561,0,0,1,.047-.3l2.552-12.828a2.342,2.342,0,0,1,.17-.494.868.868,0,0,1,.357-.4Zm-1.9,8.971,1.9-1.095-.948-3.778Z" transform="translate(-893.752 124.367)" fill="#fff"/>
      </g>
    </g>
    <g id="Analysis" transform="translate(796.682 -172.004)">
      <g id="Grupo_163181" data-name="Grupo 163181" transform="translate(0 0)">
        <g id="Grupo_163179" data-name="Grupo 163179">
          <path id="Trazado_206249" data-name="Trazado 206249" d="M847.616-63.523l46.146-26.642v6.394L847.616-57.128Z" transform="translate(-845.77 91.231)" fill="#455a64"/>
          <path id="Trazado_206250" data-name="Trazado 206250" d="M851.894-58.247v2.131l42.455-24.511v-2.131Z" transform="translate(-848.202 87.022)" fill="#263238"/>
          <path id="Trazado_206251" data-name="Trazado 206251" d="M845.186-64.926l-1.846-1.066,46.147-26.643,1.845,1.066Z" transform="translate(-843.34 92.635)" fill="#37474f"/>
          <path id="Trazado_206252" data-name="Trazado 206252" d="M843.34-30.913l1.846,1.066v6.395l-1.845-1.066Z" transform="translate(-843.34 57.556)" fill="#263238"/>
        </g>
        <g id="Grupo_163180" data-name="Grupo 163180" transform="translate(3.692 5.329)">
          <path id="Trazado_206253" data-name="Trazado 206253" d="M1102.035,162.787l-40.613,23.432v-1.041l40.609-23.432Z" transform="translate(-970.977 -57.269)" fill="#37474f"/>
          <path id="Trazado_206254" data-name="Trazado 206254" d="M903.577-38.824l-8.945,5.165-5.5,3.172a5.811,5.811,0,0,0-.518.3,7.288,7.288,0,0,0-3.494,6.271l0,25.705a7.274,7.274,0,0,1-2.949,5.9,7.446,7.446,0,0,1-4.449,1.495,7.324,7.324,0,0,1-3.676-1A22.151,22.151,0,0,1,862.968-11V-37.663A22.114,22.114,0,0,0,860-48.737a22.126,22.126,0,0,0-8.107-8.107L892.5-80.29h0a22.2,22.2,0,0,1,8.112,8.116A22.119,22.119,0,0,1,903.581-61.1v11.615C903.581-46.163,903.577-38.824,903.577-38.824Z" transform="translate(-851.894 80.29)" fill="#f5f5f5"/>
          <path id="Trazado_206255" data-name="Trazado 206255" d="M918.345,64.634a22.139,22.139,0,0,1-11.074-19.176l0-25.721a22.091,22.091,0,0,0-1.74-8.6A22.813,22.813,0,0,0,904.3,8.662,22.152,22.152,0,0,0,896.2.559h0a7.382,7.382,0,0,0-11.07,6.4v2.62l-.006-2.624,0,25.705v-.009a7.389,7.389,0,0,1-11.075,6.4,22.151,22.151,0,0,1-11.074-19.181V-6.793A22.109,22.109,0,0,0,860-17.867a22.121,22.121,0,0,0-8.107-8.107v1.063A21.291,21.291,0,0,1,862.059-6.793V19.871a23.121,23.121,0,0,0,11.529,19.967,8.206,8.206,0,0,0,8.293,0c.159-.091.313-.186.468-.291l.014-.009a8.2,8.2,0,0,0,3.663-6.88l0-25.705a6.473,6.473,0,0,1,9.711-5.608,21.282,21.282,0,0,1,10.62,18.39V25.7l0,19.753a23.126,23.126,0,0,0,11.529,19.967l24.447,14.107V78.49Z" transform="translate(-851.894 49.42)" fill="#455a64"/>
          <path id="Trazado_206256" data-name="Trazado 206256" d="M1031.978,57.818,991.37,81.25,967.377,67.394A22.139,22.139,0,0,1,956.3,48.217l0-25.721a22.092,22.092,0,0,0-1.741-8.6,22.735,22.735,0,0,0-1.227-2.472,22.151,22.151,0,0,0-8.107-8.1,7.3,7.3,0,0,0-7.062-.177l5.5-3.172,11.063-6.387,23.68-13.669.059-.036a7.305,7.305,0,0,1,7.371,0,22.127,22.127,0,0,1,8.107,8.107A22.133,22.133,0,0,1,996.909-.936l0,25.717a22.152,22.152,0,0,0,11.074,19.181Z" transform="translate(-900.925 46.66)" fill="#fafafa"/>
          <path id="Trazado_206257" data-name="Trazado 206257" d="M945.842,54.548a21.282,21.282,0,0,0-10.62-18.39,6.473,6.473,0,0,0-9.711,5.608l0,25.705a8.2,8.2,0,0,1-3.663,6.88l-.014.01c-.155.1-.309.2-.468.291l24.48-14.134Z" transform="translate(-891.376 14.608)" fill="#e0e0e0"/>
          <path id="Trazado_206258" data-name="Trazado 206258" d="M945.842,54.548a21.282,21.282,0,0,0-10.62-18.39,6.473,6.473,0,0,0-9.711,5.608l0,25.705a8.2,8.2,0,0,1-3.663,6.88l-.014.01c-.155.1-.309.2-.468.291l24.48-14.134Z" transform="translate(-891.376 14.608)" opacity="0.15"/>
        </g>
      </g>
      <g id="Grupo_163221" data-name="Grupo 163221" transform="translate(3.692 5.329)">
        <g id="Grupo_163220" data-name="Grupo 163220" clip-path="url(#clip-path)">
          <g id="Grupo_163219" data-name="Grupo 163219" transform="translate(6.653 3.999)">
            <path id="Trazado_206259" data-name="Trazado 206259" d="M867.866-51.451a3.161,3.161,0,0,0,3.448.26l28.977-16.73c1.086-.628,1.343-1.8.493-2.534a3.356,3.356,0,0,0-3.566-.118L868.227-53.835C867.14-53.208,867.012-52.182,867.866-51.451Z" transform="translate(-867.307 71.026)" fill="#27debf"/>
            <g id="Grupo_163182" data-name="Grupo 163182" transform="translate(23.6 4.78)">
              <path id="Trazado_206260" data-name="Trazado 206260" d="M922.3-51.486a.321.321,0,0,1-.279-.161.322.322,0,0,1,.118-.44l13.549-7.823a.322.322,0,0,1,.44.117.322.322,0,0,1-.118.44l-13.548,7.823A.324.324,0,0,1,922.3-51.486Z" transform="translate(-921.979 59.952)" opacity="0.4"/>
            </g>
            <g id="Grupo_163183" data-name="Grupo 163183" transform="translate(24.646 6.525)">
              <path id="Trazado_206261" data-name="Trazado 206261" d="M924.724-47.444a.322.322,0,0,1-.279-.161.321.321,0,0,1,.118-.439l13.548-7.823a.323.323,0,0,1,.44.118.321.321,0,0,1-.118.439l-13.549,7.823A.32.32,0,0,1,924.724-47.444Z" transform="translate(-924.402 55.91)" opacity="0.4"/>
            </g>
            <g id="Grupo_163184" data-name="Grupo 163184" transform="translate(25.524 8.341)">
              <path id="Trazado_206262" data-name="Trazado 206262" d="M926.76-43.236a.321.321,0,0,1-.279-.161.321.321,0,0,1,.117-.44l13.549-7.823a.321.321,0,0,1,.439.117.321.321,0,0,1-.117.44l-13.549,7.823A.321.321,0,0,1,926.76-43.236Z" transform="translate(-926.437 51.702)" opacity="0.4"/>
            </g>
            <g id="Grupo_163185" data-name="Grupo 163185" transform="translate(26.23 10.231)">
              <path id="Trazado_206263" data-name="Trazado 206263" d="M928.394-38.858a.322.322,0,0,1-.279-.161.322.322,0,0,1,.118-.44l13.548-7.823a.323.323,0,0,1,.44.118.322.322,0,0,1-.118.44L928.555-38.9A.32.32,0,0,1,928.394-38.858Z" transform="translate(-928.072 47.324)" opacity="0.4"/>
            </g>
            <g id="Grupo_163186" data-name="Grupo 163186" transform="translate(26.745 12.083)">
              <path id="Trazado_206264" data-name="Trazado 206264" d="M929.589-34.568a.322.322,0,0,1-.279-.161.322.322,0,0,1,.117-.44l13.549-7.823a.322.322,0,0,1,.439.118.321.321,0,0,1-.117.44L929.75-34.612A.32.32,0,0,1,929.589-34.568Z" transform="translate(-929.266 43.035)" opacity="0.4"/>
            </g>
            <g id="Grupo_163187" data-name="Grupo 163187" transform="translate(27.094 14.073)">
              <path id="Trazado_206265" data-name="Trazado 206265" d="M930.4-29.957a.322.322,0,0,1-.279-.161.321.321,0,0,1,.117-.439l13.548-7.823a.322.322,0,0,1,.439.118.321.321,0,0,1-.117.44L930.557-30A.321.321,0,0,1,930.4-29.957Z" transform="translate(-930.073 38.424)" opacity="0.4"/>
            </g>
            <g id="Grupo_163188" data-name="Grupo 163188" transform="translate(27.283 16.197)">
              <path id="Trazado_206266" data-name="Trazado 206266" d="M930.835-25.037a.322.322,0,0,1-.279-.161.322.322,0,0,1,.117-.44l13.549-7.823a.322.322,0,0,1,.439.118.321.321,0,0,1-.117.44L931-25.081A.32.32,0,0,1,930.835-25.037Z" transform="translate(-930.512 33.504)" opacity="0.4"/>
            </g>
            <g id="Grupo_163189" data-name="Grupo 163189" transform="translate(8.061 20.373)">
              <path id="Trazado_206267" data-name="Trazado 206267" d="M886.21-4.394a.227.227,0,0,1-.2-.114.227.227,0,0,1,.083-.31L918.97-23.8a.227.227,0,0,1,.31.083.227.227,0,0,1-.083.31L886.323-4.424A.227.227,0,0,1,886.21-4.394Z" transform="translate(-885.982 23.828)" opacity="0.4"/>
              <path id="Trazado_206268" data-name="Trazado 206268" d="M886.21.307a.227.227,0,0,1-.114-.423L918.97-19.1a.226.226,0,0,1,.31.083.227.227,0,0,1-.083.31L886.323.276A.222.222,0,0,1,886.21.307Z" transform="translate(-885.982 21.157)" opacity="0.4"/>
              <path id="Trazado_206269" data-name="Trazado 206269" d="M886.21,5.008a.227.227,0,0,1-.114-.424L918.97-14.4a.227.227,0,0,1,.31.083.227.227,0,0,1-.083.31L886.323,4.977A.227.227,0,0,1,886.21,5.008Z" transform="translate(-885.982 18.485)" opacity="0.4"/>
              <path id="Trazado_206270" data-name="Trazado 206270" d="M886.21,9.709a.227.227,0,0,1-.114-.424L918.97-9.695a.226.226,0,0,1,.31.083.226.226,0,0,1-.083.31L886.323,9.678A.227.227,0,0,1,886.21,9.709Z" transform="translate(-885.982 15.813)" opacity="0.4"/>
            </g>
            <g id="Grupo_163194" data-name="Grupo 163194" transform="translate(3.27 18.913)">
              <g id="Grupo_163191" data-name="Grupo 163191" transform="translate(4.791 7.442)">
                <g id="Grupo_163190" data-name="Grupo 163190" transform="translate(0 0)">
                  <path id="Trazado_206271" data-name="Trazado 206271" d="M886.21.531A.227.227,0,0,1,886.1.107L903.5-9.942a.226.226,0,0,1,.31.083.227.227,0,0,1-.083.31L886.323.5A.227.227,0,0,1,886.21.531Z" transform="translate(-885.982 9.972)" opacity="0.4"/>
                </g>
              </g>
              <g id="Grupo_163192" data-name="Grupo 163192" transform="translate(4.465 4.879)">
                <path id="Trazado_206272" data-name="Trazado 206272" d="M885.289-14.495a21.418,21.418,0,0,1,1.612,4.113,21.2,21.2,0,0,1,.753,4.5.328.328,0,0,0,.534.282l.968-.559a.99.99,0,0,0,.455-.851,23.082,23.082,0,0,0-.815-4.633,24.952,24.952,0,0,0-1.557-3.98.549.549,0,0,0-.765-.214l-.952.55A.606.606,0,0,0,885.289-14.495Z" transform="translate(-885.226 15.91)" fill="#27debf"/>
              </g>
              <g id="Grupo_163193" data-name="Grupo 163193" transform="translate(7.308 0.919)">
                <path id="Trazado_206273" data-name="Trazado 206273" d="M891.9-23.726a22.875,22.875,0,0,1,2.329,4.965,21.431,21.431,0,0,1,1.039,5.433.324.324,0,0,0,.528.283l.967-.559a1,1,0,0,0,.459-.852,23.244,23.244,0,0,0-1.058-5.423,22.269,22.269,0,0,0-2.314-4.932.615.615,0,0,0-.806-.2l-.963.535A.517.517,0,0,0,891.9-23.726Z" transform="translate(-891.814 25.085)" fill="#27debf"/>
              </g>
              <path id="Trazado_206274" data-name="Trazado 206274" d="M906.377-15.609" transform="translate(-892.782 20.618)" fill="#27debf"/>
              <path id="Trazado_206275" data-name="Trazado 206275" d="M908.014-17.631l-.951.549a.738.738,0,0,0-.316.824,22.162,22.162,0,0,1,.864,4.894.324.324,0,0,0,.527.283l.967-.559a1,1,0,0,0,.459-.852,23.107,23.107,0,0,0-.891-4.88A.431.431,0,0,0,908.014-17.631Z" transform="translate(-892.976 21.807)" fill="#27debf"/>
              <path id="Trazado_206276" data-name="Trazado 206276" d="M916.064-26.9a.486.486,0,0,0-.711-.244l-.958.545a.664.664,0,0,0-.277.806q.26.651.5,1.354A21.45,21.45,0,0,1,915.658-19a.324.324,0,0,0,.527.283l.967-.559a1,1,0,0,0,.458-.852,23.216,23.216,0,0,0-1.058-5.423Q916.325-26.243,916.064-26.9Z" transform="translate(-897.156 27.212)" fill="#27debf"/>
              <path id="Trazado_206277" data-name="Trazado 206277" d="M880.569-8.661a.16.16,0,0,0-.22-.059l-.4.234c-.089-.559-.193-1.112-.32-1.655l.547-.316a.16.16,0,0,0,.059-.22.16.16,0,0,0-.219-.059l-.469.271c-.136-.548-.288-1.09-.464-1.621l.521-.3a.161.161,0,0,0,.059-.22.16.16,0,0,0-.22-.059l-.469.271c-.18-.518-.372-1.029-.589-1.529l-.018-.041.517-.3a.161.161,0,0,0,.059-.22.159.159,0,0,0-.22-.059l-.487.281q-.338-.76-.747-1.509l.515-.3a.161.161,0,0,0,.059-.22.16.16,0,0,0-.22-.059l-.511.295q-.409-.723-.886-1.434l.58-.335a.161.161,0,0,0,.059-.22.16.16,0,0,0-.22-.059l-.6.346c-.341-.5-.7-.988-1.091-1.472a.161.161,0,0,0-.227-.025.161.161,0,0,0-.025.226q.566.708,1.063,1.433l-.552.319a.161.161,0,0,0-.059.22.161.161,0,0,0,.139.081.163.163,0,0,0,.08-.022l.572-.331q.476.71.887,1.434l-.642.371a.161.161,0,0,0-.059.22.16.16,0,0,0,.139.081.16.16,0,0,0,.08-.022l.637-.368q.409.75.746,1.51l-.664.384a.161.161,0,0,0-.059.22.16.16,0,0,0,.139.081.161.161,0,0,0,.081-.022l.635-.366,0,.006c.222.513.42,1.036.6,1.567l-.679.392a.161.161,0,0,0-.059.22.159.159,0,0,0,.139.081.159.159,0,0,0,.08-.022l.628-.362c.174.532.324,1.075.458,1.624l-.673.389a.161.161,0,0,0-.059.22.161.161,0,0,0,.139.081.158.158,0,0,0,.08-.022l.595-.343c.125.546.226,1.1.312,1.66l-.729.421a.161.161,0,0,0-.059.22.16.16,0,0,0,.139.081.161.161,0,0,0,.081-.022l.622-.36q.141,1.019.2,2.066a.161.161,0,0,0,.161.153h.008a.16.16,0,0,0,.152-.169c-.039-.751-.114-1.492-.219-2.222l.511-.295A.161.161,0,0,0,880.569-8.661Z" transform="translate(-874.883 22.708)" opacity="0.4"/>
            </g>
            <g id="Grupo_163213" data-name="Grupo 163213" transform="translate(7.461 36.372)">
              <g id="Grupo_163197" data-name="Grupo 163197" transform="translate(2.758 3.248)" opacity="0.15">
                <g id="Grupo_163195" data-name="Grupo 163195" transform="translate(0.228 0.227)">
                  <path id="Trazado_206278" data-name="Trazado 206278" d="M891.667,45.947a26.18,26.18,0,0,1-.146-3.66c.132-.468,2.093-7.2,5.7-9.295a2.463,2.463,0,0,1,.711-.3,1.332,1.332,0,0,1,.3-.035c.956,0,1.385,1.33,1.8,2.617a13.021,13.021,0,0,0,.569,1.547,1.734,1.734,0,0,0,1.46,1.2,2.017,2.017,0,0,0,.988-.305c1.734-.988,2.233-3.663,2.761-6.5a32.037,32.037,0,0,1,.851-3.752,5.3,5.3,0,0,1,2.147-3.221,1.665,1.665,0,0,1,.8-.262c1,0,1.385,1.791,1.753,3.521a14.411,14.411,0,0,0,.73,2.653c.366.834.848,1.24,1.472,1.24a2.1,2.1,0,0,0,1.04-.326c2.128-1.229,2.772-3.311,3.395-5.325.529-1.71,1.028-3.325,2.432-4.141a2.1,2.1,0,0,1,1.044-.328,1.313,1.313,0,0,1,.459.081,8.979,8.979,0,0,1,.068.964l.023,4.077c.038.78.09,1.393.162,1.92Z" transform="translate(-891.508 -21.286)" fill="#27debf"/>
                </g>
                <g id="Grupo_163196" data-name="Grupo 163196">
                  <path id="Trazado_206279" data-name="Trazado 206279" d="M922.131,28.148c-.091-.609-.146-1.3-.182-2.04l-.023-4.076a9.331,9.331,0,0,0-.086-1.122,1.547,1.547,0,0,0-.668-.15h0a2.31,2.31,0,0,0-1.159.359c-3.131,1.822-1.936,7.221-5.826,9.465a1.883,1.883,0,0,1-.926.3c-.58,0-.971-.439-1.264-1.105-.916-2.065-.891-6.31-2.692-6.31a1.869,1.869,0,0,0-.916.293,5.609,5.609,0,0,0-2.249,3.349c-1.159,3.635-1.091,8.743-3.508,10.12a1.8,1.8,0,0,1-.876.276c-.575,0-.954-.443-1.255-1.076-.748-1.568-1.011-4.294-2.574-4.294a1.564,1.564,0,0,0-.343.041,2.679,2.679,0,0,0-.777.322c-3.844,2.236-5.812,9.456-5.812,9.456a26.312,26.312,0,0,0,.187,4.064l.445-.257a4.844,4.844,0,0,1-.07-.484,25.915,25.915,0,0,1-.11-3.253c.182-.637,2.109-7.11,5.589-9.134a2.24,2.24,0,0,1,.647-.271,1.111,1.111,0,0,1,.243-.029c.79,0,1.194,1.251,1.583,2.46a13.222,13.222,0,0,0,.58,1.575c.157.33.634,1.335,1.665,1.335a2.23,2.23,0,0,0,1.1-.335c1.826-1.04,2.333-3.766,2.871-6.652a31.953,31.953,0,0,1,.845-3.725,5.094,5.094,0,0,1,2.043-3.093,1.453,1.453,0,0,1,.689-.232c.821,0,1.2,1.775,1.531,3.341a14.609,14.609,0,0,0,.745,2.7c.4.913.967,1.377,1.681,1.377a2.31,2.31,0,0,0,1.153-.357c2.206-1.273,2.892-3.494,3.5-5.454.515-1.666,1-3.24,2.329-4.012a1.885,1.885,0,0,1,.929-.3h0a1.088,1.088,0,0,1,.25.028c.049.461.05.786.05.792l.023,4.1c.035.7.081,1.277.144,1.777a3.206,3.206,0,0,0,.088.474l.4-.233" transform="translate(-890.981 -20.759)"/>
                </g>
              </g>
              <g id="Grupo_163198" data-name="Grupo 163198" transform="translate(2.761 0.174)" opacity="0.4">
                <path id="Trazado_206280" data-name="Trazado 206280" d="M891,35.848v2.057a25.983,25.983,0,0,0,.186,4.063L922.132,24.1c-.089-.608-.145-1.3-.182-2.043l-.022-4.074s0-6.088-3.868-3.855c-4.065,2.347-2.915,9.8-5.8,11.466-2.912,1.681-1.934-4.971-5.8-2.738s-1.934,7.2-5.8,9.437-1.934-9.029-5.8-6.8S890.987,33.277,891,35.848Z" transform="translate(-890.986 -13.638)" fill="#27debf"/>
              </g>
              <g id="Grupo_163199" data-name="Grupo 163199" transform="translate(1.195 12.476)">
                <path id="Trazado_206281" data-name="Trazado 206281" d="M887.521,61.306a.161.161,0,0,1-.08-.3l32.917-18.848a.161.161,0,0,1,.16.279L887.6,61.285A.162.162,0,0,1,887.521,61.306Z" transform="translate(-887.36 -42.136)" opacity="0.4"/>
              </g>
              <g id="Grupo_163203" data-name="Grupo 163203" transform="translate(6.465 12.476)">
                <g id="Grupo_163200" data-name="Grupo 163200" transform="translate(0.003)">
                  <path id="Trazado_206282" data-name="Trazado 206282" d="M899.735,42.779a.161.161,0,0,1-.161-.161V42.3a.161.161,0,1,1,.323,0v.322A.161.161,0,0,1,899.735,42.779Z" transform="translate(-899.574 -42.135)" fill="#fff"/>
                </g>
                <g id="Grupo_163201" data-name="Grupo 163201" transform="translate(0 0.943)">
                  <path id="Trazado_206283" data-name="Trazado 206283" d="M899.824,56.4a.161.161,0,0,1-.16-.147c-.019-.205-.035-.413-.048-.621a.161.161,0,0,1,.151-.171.149.149,0,0,1,.17.151q.019.308.047.613a.16.16,0,0,1-.146.175Zm-.076-1.235a.161.161,0,0,1-.161-.159c0-.179,0-.386-.006-.621a.161.161,0,0,1,.16-.162.148.148,0,0,1,.162.16c0,.234,0,.44.007.619a.162.162,0,0,1-.159.164Zm-.01-1.238a.161.161,0,0,1-.161-.16l0-.62a.161.161,0,0,1,.161-.161h0a.161.161,0,0,1,.161.161l0,.619a.161.161,0,0,1-.16.162Zm-.006-1.238a.161.161,0,0,1-.161-.161v-.619a.161.161,0,0,1,.161-.161h0a.161.161,0,0,1,.161.161l0,.619a.162.162,0,0,1-.161.161Zm0-1.238a.161.161,0,0,1-.161-.161v-.619a.161.161,0,0,1,.322,0v.619A.161.161,0,0,1,899.729,51.452Zm0-1.239a.161.161,0,0,1-.161-.161v-.619a.161.161,0,0,1,.322,0v.619A.161.161,0,0,1,899.728,50.213Zm0-1.238a.161.161,0,0,1-.161-.161V48.2a.161.161,0,0,1,.322,0v.619A.161.161,0,0,1,899.728,48.975Zm0-1.238h0a.161.161,0,0,1-.161-.161v-.619a.161.161,0,0,1,.322,0v.619A.161.161,0,0,1,899.728,47.737Zm0-1.238h0a.162.162,0,0,1-.161-.161v-.619a.161.161,0,0,1,.322,0v.62A.161.161,0,0,1,899.729,46.5Zm0-1.238a.161.161,0,0,1-.161-.161v-.617a.163.163,0,0,1,.161-.162h0a.16.16,0,0,1,.161.16V45.1A.161.161,0,0,1,899.73,45.26Z" transform="translate(-899.567 -44.32)" fill="#fff"/>
                </g>
                <g id="Grupo_163202" data-name="Grupo 163202" transform="translate(0.16 13.317)">
                  <path id="Trazado_206284" data-name="Trazado 206284" d="M900.14,73.627a.162.162,0,0,1-.16-.14c-.014-.107-.028-.215-.041-.322a.161.161,0,0,1,.319-.037c.013.106.026.211.041.316a.161.161,0,0,1-.139.181Z" transform="translate(-899.938 -72.986)" fill="#fff"/>
                </g>
              </g>
              <g id="Grupo_163207" data-name="Grupo 163207" transform="translate(29.674 0.506)">
                <g id="Grupo_163204" data-name="Grupo 163204" transform="translate(0.003)">
                  <path id="Trazado_206285" data-name="Trazado 206285" d="M953.5,15.049a.162.162,0,0,1-.161-.161v-.323a.161.161,0,0,1,.161-.16h0a.161.161,0,0,1,.161.161v.322A.161.161,0,0,1,953.5,15.049Z" transform="translate(-953.342 -14.405)" fill="#fff"/>
                </g>
                <g id="Grupo_163205" data-name="Grupo 163205" transform="translate(0 0.941)">
                  <path id="Trazado_206286" data-name="Trazado 206286" d="M953.592,28.669a.161.161,0,0,1-.16-.146c-.019-.205-.035-.413-.048-.621a.16.16,0,0,1,.15-.171.155.155,0,0,1,.171.15q.02.308.047.613a.16.16,0,0,1-.145.175Zm-.076-1.235a.161.161,0,0,1-.161-.159c0-.178,0-.386-.007-.62a.161.161,0,0,1,.16-.162h0a.161.161,0,0,1,.161.16c0,.233,0,.44.007.619a.162.162,0,0,1-.159.163Zm-.011-1.239a.162.162,0,0,1-.161-.16l0-.62a.161.161,0,0,1,.161-.161h0a.162.162,0,0,1,.161.161l0,.619a.162.162,0,0,1-.16.162Zm-.006-1.238a.162.162,0,0,1-.161-.161v-.619a.161.161,0,0,1,.161-.161h0a.161.161,0,0,1,.161.161V24.8a.162.162,0,0,1-.161.162Zm0-1.238a.161.161,0,0,1-.161-.161v-.619a.161.161,0,0,1,.322,0v.619A.161.161,0,0,1,953.5,23.719Zm0-1.238a.161.161,0,0,1-.161-.161V21.7a.161.161,0,1,1,.322,0v.619A.161.161,0,0,1,953.5,22.481Zm0-1.238a.161.161,0,0,1-.161-.161v-.619a.161.161,0,0,1,.322,0v.619A.161.161,0,0,1,953.5,21.243Zm0-1.239h0a.161.161,0,0,1-.161-.161v-.619a.161.161,0,0,1,.322,0v.619A.161.161,0,0,1,953.5,20Zm0-1.238h0a.161.161,0,0,1-.161-.161v-.619a.161.161,0,0,1,.322,0v.62A.161.161,0,0,1,953.5,18.766Zm0-1.238h0a.161.161,0,0,1-.161-.161v-.619a.161.161,0,1,1,.322,0v.62A.161.161,0,0,1,953.5,17.528Z" transform="translate(-953.335 -16.586)" fill="#fff"/>
                </g>
                <g id="Grupo_163206" data-name="Grupo 163206" transform="translate(0.16 13.316)">
                  <path id="Trazado_206287" data-name="Trazado 206287" d="M953.907,45.9a.162.162,0,0,1-.16-.14q-.021-.16-.041-.321a.161.161,0,0,1,.14-.179.156.156,0,0,1,.179.14q.019.159.041.317a.162.162,0,0,1-.139.181Z" transform="translate(-953.705 -45.254)" fill="#fff"/>
                </g>
              </g>
              <g id="Grupo_163211" data-name="Grupo 163211" transform="translate(18.069 9.792)">
                <g id="Grupo_163208" data-name="Grupo 163208" transform="translate(0.002)">
                  <path id="Trazado_206288" data-name="Trazado 206288" d="M926.615,36.562a.161.161,0,0,1-.161-.161v-.322a.161.161,0,0,1,.322,0V36.4A.161.161,0,0,1,926.615,36.562Z" transform="translate(-926.454 -35.918)" fill="#fff"/>
                </g>
                <g id="Grupo_163209" data-name="Grupo 163209" transform="translate(0 0.925)">
                  <path id="Trazado_206289" data-name="Trazado 206289" d="M926.706,46.233a.161.161,0,0,1-.16-.146c-.019-.2-.035-.4-.047-.607a.162.162,0,0,1,.151-.171.153.153,0,0,1,.171.151q.019.3.047.6a.161.161,0,0,1-.145.175Zm-.076-1.206a.162.162,0,0,1-.161-.16l-.007-.6a.161.161,0,0,1,.159-.163h0a.161.161,0,0,1,.161.159l.007.6a.162.162,0,0,1-.159.163Zm-.012-1.207a.161.161,0,0,1-.161-.16l0-.6a.161.161,0,0,1,.16-.162h0a.161.161,0,0,1,.161.16l0,.6a.161.161,0,0,1-.16.162Zm0-1.208a.162.162,0,0,1-.161-.161v-.6a.162.162,0,0,1,.161-.162h0a.161.161,0,0,1,.161.161v.6a.162.162,0,0,1-.161.161Zm0-1.207a.162.162,0,0,1-.161-.161v-.6a.161.161,0,0,1,.322,0v.6A.162.162,0,0,1,926.611,41.4Zm0-1.208h0a.161.161,0,0,1-.161-.161v-.6a.161.161,0,0,1,.322,0v.6A.161.161,0,0,1,926.611,40.2Zm0-1.208h0a.162.162,0,0,1-.161-.161v-.6a.161.161,0,0,1,.322,0v.6A.161.161,0,0,1,926.612,38.988Z" transform="translate(-926.45 -38.062)" fill="#fff"/>
                </g>
                <g id="Grupo_163210" data-name="Grupo 163210" transform="translate(0.158 9.373)">
                  <path id="Trazado_206290" data-name="Trazado 206290" d="M927.018,58.275a.162.162,0,0,1-.16-.14c-.014-.107-.028-.214-.041-.322a.161.161,0,1,1,.32-.038c.013.106.026.212.041.317a.162.162,0,0,1-.139.181Z" transform="translate(-926.816 -57.633)" fill="#fff"/>
                </g>
              </g>
              <g id="Grupo_163212" data-name="Grupo 163212" transform="translate(6.069 11.316)">
                <path id="Trazado_206291" data-name="Trazado 206291" d="M899.207,39.53c.307-.177.556-.06.556.263a1.177,1.177,0,0,1-.556.905c-.307.177-.556.06-.556-.263A1.176,1.176,0,0,1,899.207,39.53Z" transform="translate(-898.651 -39.448)" opacity="0.4"/>
              </g>
              <path id="Trazado_206292" data-name="Trazado 206292" d="M926.094,33.309c.307-.177.557-.06.557.263a1.177,1.177,0,0,1-.557.905c-.307.177-.556.06-.556-.262A1.178,1.178,0,0,1,926.094,33.309Z" transform="translate(-907.863 -24.596)" opacity="0.4"/>
              <path id="Trazado_206293" data-name="Trazado 206293" d="M952.973,13.316c.307-.177.557-.06.557.262a1.177,1.177,0,0,1-.557.906c-.307.177-.556.06-.556-.263A1.177,1.177,0,0,1,952.973,13.316Z" transform="translate(-923.139 -13.233)" opacity="0.4"/>
              <path id="Trazado_206294" data-name="Trazado 206294" d="M886.161,43.08A.161.161,0,1,0,886,42.8l-.42.243V41.383l.582-.336a.161.161,0,0,0-.161-.279l-.421.243v-1.75a.161.161,0,0,0-.323,0V41.2l-.583.337a.161.161,0,1,0,.161.279l.422-.244v1.662l-.583.337a.161.161,0,0,0,.08.3.165.165,0,0,0,.08-.022l.423-.244v1.662l-.584.337a.161.161,0,1,0,.161.279l.423-.244V47.3l-.584.338a.161.161,0,1,0,.161.279l.423-.245V49.33l-.584.338a.161.161,0,1,0,.161.278l.424-.245v1.662l-.585.338a.161.161,0,1,0,.161.279l.424-.245V53.4l-.586.338a.161.161,0,1,0,.161.278l.422-.243c-.01.552,0,1.1.019,1.651l-.6.347a.161.161,0,0,0,.08.3.158.158,0,0,0,.08-.022l.461-.266c.035.6.086,1.205.162,1.8a.161.161,0,0,0,.16.14h.02a.161.161,0,0,0,.139-.18c-.081-.637-.137-1.284-.17-1.936l.554-.32A.161.161,0,1,0,886,55l-.407.235c-.02-.549-.026-1.1-.012-1.655l.58-.335a.161.161,0,0,0-.161-.279l-.418.242V51.549l.579-.335a.161.161,0,1,0-.161-.278l-.419.242V49.516l.58-.335A.161.161,0,0,0,886,48.9l-.419.242V47.482l.58-.335a.161.161,0,1,0-.161-.278l-.419.242V45.449l.581-.335a.161.161,0,0,0-.161-.279l-.42.243V43.416Z" transform="translate(-884.591 -27.934)" opacity="0.4"/>
            </g>
            <path id="Trazado_206295" data-name="Trazado 206295" d="M935.859,67.122,904.941,84.973a3.009,3.009,0,0,1-3.441-.248,1.676,1.676,0,0,1,.627-2.65l30.909-17.846a2.822,2.822,0,0,1,3.313.375A1.523,1.523,0,0,1,935.859,67.122Z" transform="translate(-886.496 -5.635)" fill="#27debf"/>
            <g id="Grupo_163218" data-name="Grupo 163218" transform="translate(9.162 49.609)">
              <g id="Grupo_163214" data-name="Grupo 163214">
                <path id="Trazado_206296" data-name="Trazado 206296" d="M888.759,64.461a.227.227,0,0,1-.113-.424L923.47,43.93a.227.227,0,1,1,.227.393L888.872,64.43A.221.221,0,0,1,888.759,64.461Z" transform="translate(-888.532 -43.899)" opacity="0.4"/>
              </g>
              <g id="Grupo_163215" data-name="Grupo 163215" transform="translate(0.712 1.879)">
                <path id="Trazado_206297" data-name="Trazado 206297" d="M890.408,68.818a.227.227,0,0,1-.114-.424l34.83-20.11a.227.227,0,0,1,.227.393l-34.831,20.11A.221.221,0,0,1,890.408,68.818Z" transform="translate(-890.181 -48.253)" opacity="0.4"/>
              </g>
              <g id="Grupo_163216" data-name="Grupo 163216" transform="translate(1.59 3.682)">
                <path id="Trazado_206298" data-name="Trazado 206298" d="M892.444,73a.227.227,0,0,1-.114-.424l34.835-20.112a.227.227,0,1,1,.227.393L892.557,72.967A.222.222,0,0,1,892.444,73Z" transform="translate(-892.216 -52.43)" opacity="0.4"/>
              </g>
              <g id="Grupo_163217" data-name="Grupo 163217" transform="translate(2.628 5.398)">
                <path id="Trazado_206299" data-name="Trazado 206299" d="M894.847,76.975a.227.227,0,0,1-.113-.424l34.84-20.115a.227.227,0,0,1,.227.393L894.96,76.944A.226.226,0,0,1,894.847,76.975Z" transform="translate(-894.62 -56.404)" opacity="0.4"/>
              </g>
            </g>
          </g>
        </g>
      </g>
      <g id="Grupo_163268" data-name="Grupo 163268" transform="translate(51.855 34.287)">
        <path id="Trazado_206301" data-name="Trazado 206301" d="M964.381,4.106l28.657-16.542a5.137,5.137,0,0,1,3.792-.607c.974.394.788,1.412-.3,2.039L967.54,5.731a3.989,3.989,0,0,1-3.5.226C963.176,5.489,963.294,4.733,964.381,4.106Z" transform="translate(-963.469 13.205)" fill="#27debf"/>
        <path id="Trazado_206302" data-name="Trazado 206302" d="M972.981,11.732a.227.227,0,0,1-.113-.424L1005.9-7.759a.226.226,0,0,1,.31.083.226.226,0,0,1-.083.31L973.094,11.7A.222.222,0,0,1,972.981,11.732Z" transform="translate(-968.746 10.127)" opacity="0.4"/>
        <path id="Trazado_206303" data-name="Trazado 206303" d="M976.15,15.116a.227.227,0,0,1-.113-.423l33.082-19.1a.226.226,0,0,1,.31.083.227.227,0,0,1-.083.31l-33.082,19.1A.228.228,0,0,1,976.15,15.116Z" transform="translate(-970.547 8.22)" opacity="0.4"/>
        <g id="Grupo_163222" data-name="Grupo 163222" transform="translate(6.696 24.513)">
          <path id="Trazado_206304" data-name="Trazado 206304" d="M983.366,59.293h0a.162.162,0,0,1-.161-.161l.006-1.753c.005-1.32.005-1.32-.033-2.212l-.007-.148a21.394,21.394,0,0,0-1.177-5.973,16.665,16.665,0,0,0-2.978-5.2.161.161,0,1,1,.25-.2,16.953,16.953,0,0,1,3.031,5.3A21.7,21.7,0,0,1,983.493,55l.006.15c.039.9.039.9.033,2.227l-.006,1.752A.162.162,0,0,1,983.366,59.293Z" transform="translate(-978.981 -43.583)" opacity="0.4"/>
        </g>
        <path id="Trazado_206305" data-name="Trazado 206305" d="M987.617,36.356c-.147-.258-.306-.512-.474-.761a.511.511,0,0,1,.164-.748l12.621-7.286a.6.6,0,0,1,.8.19c.152.249.3.51.436.783a.61.61,0,0,1-.24.793l-12.551,7.246A.551.551,0,0,1,987.617,36.356Z" transform="translate(-976.868 -9.918)" fill="#27debf"/>
        <path id="Trazado_206306" data-name="Trazado 206306" d="M991.175,30.839q.142.435.26.861a.412.412,0,0,0,.635.266l29.945-17.285a.781.781,0,0,0,.348-.834q-.124-.45-.256-.864a.444.444,0,0,0-.672-.254L991.484,30.017A.724.724,0,0,0,991.175,30.839Z" transform="translate(-979.197 -1.494)" fill="#27debf"/>
        <path id="Trazado_206307" data-name="Trazado 206307" d="M991.175,30.839q.142.435.26.861a.412.412,0,0,0,.635.266l29.945-17.285a.781.781,0,0,0,.348-.834q-.124-.45-.256-.864a.444.444,0,0,0-.672-.254L991.484,30.017A.724.724,0,0,0,991.175,30.839Z" transform="translate(-979.197 -1.494)" fill="#fff" opacity="0.7"/>
        <path id="Trazado_206308" data-name="Trazado 206308" d="M993.229,47.392c.038.319.071.629.1.93a.325.325,0,0,0,.528.283l20.286-11.71a.987.987,0,0,0,.454-.851q-.038-.466-.1-.927a.354.354,0,0,0-.569-.279L993.648,46.545A.924.924,0,0,0,993.229,47.392Z" transform="translate(-980.38 -14.062)" fill="#27debf"/>
        <path id="Trazado_206309" data-name="Trazado 206309" d="M993.229,47.392c.038.319.071.629.1.93a.325.325,0,0,0,.528.283l20.286-11.71a.987.987,0,0,0,.454-.851q-.038-.466-.1-.927a.354.354,0,0,0-.569-.279L993.648,46.545A.924.924,0,0,0,993.229,47.392Z" transform="translate(-980.38 -14.062)" opacity="0.15"/>
        <path id="Trazado_206310" data-name="Trazado 206310" d="M993.618,65.781v.913c0,.313.221.441.492.284l8.685-5.014a1.087,1.087,0,0,0,.492-.852V60.2c0-.314-.22-.441-.492-.284l-8.685,5.014A1.087,1.087,0,0,0,993.618,65.781Z" transform="translate(-980.604 -28.314)" fill="#27debf"/>
        <path id="Trazado_206311" data-name="Trazado 206311" d="M993.618,65.781v.913c0,.313.221.441.492.284l8.685-5.014a1.087,1.087,0,0,0,.492-.852V60.2c0-.314-.22-.441-.492-.284l-8.685,5.014A1.087,1.087,0,0,0,993.618,65.781Z" transform="translate(-980.604 -28.314)" fill="#fff" opacity="0.5"/>
        <path id="Trazado_206312" data-name="Trazado 206312" d="M1024.141,40.184a.162.162,0,0,0-.161.161v.781l-2.315,1.336v-.584a.161.161,0,0,0-.322,0v.771l-2.315,1.336V43.41a.161.161,0,1,0-.322,0v.76l-2.315,1.336v-.564a.161.161,0,0,0-.323,0v.749l-2.315,1.336v-.553a.161.161,0,1,0-.322,0v.739l-2.315,1.336v-.543a.161.161,0,1,0-.322,0v.729l-2.315,1.336V49.54a.161.161,0,1,0-.322,0v.718l-2.315,1.336v-.522a.161.161,0,0,0-.322,0v.708l-2.315,1.336v-.512a.161.161,0,1,0-.322,0v.7l-2.315,1.336v-.5a.161.161,0,0,0-.322,0v.687l-2.315,1.336V55.67a.161.161,0,0,0-.322,0v.676L995.3,57.683V57.2a.161.161,0,0,0-.322,0v.666l-2.009,1.159a.161.161,0,0,0,.08.3.158.158,0,0,0,.08-.022l1.848-1.067v.654a.161.161,0,1,0,.322,0v-.84l2.315-1.336v.644a.161.161,0,0,0,.322,0v-.83l2.315-1.336v.633a.161.161,0,0,0,.322,0V55.01l2.315-1.336V54.3a.161.161,0,0,0,.322,0v-.809l2.315-1.336v.612a.161.161,0,0,0,.322,0v-.8l2.315-1.336v.6a.161.161,0,1,0,.322,0v-.788l2.315-1.336V49.7a.161.161,0,1,0,.322,0v-.778l2.315-1.336v.581a.161.161,0,1,0,.322,0V47.4l2.315-1.336v.571a.161.161,0,0,0,.323,0v-.757l2.315-1.336v.56a.161.161,0,1,0,.322,0v-.746l2.315-1.336v.55a.161.161,0,0,0,.322,0v-.736l2.315-1.336v.539a.161.161,0,1,0,.322,0V40.345A.162.162,0,0,0,1024.141,40.184Z" transform="translate(-980.187 -17.138)" opacity="0.4"/>
        <g id="Grupo_163226" data-name="Grupo 163226" transform="translate(11.088 44.194)">
          <g id="Grupo_163223" data-name="Grupo 163223">
            <path id="Trazado_206313" data-name="Trazado 206313" d="M996.641,89.375a5.686,5.686,0,0,0-1.686.682c-3.2,1.881-5.8,6.589-5.8,10.515,0,.1,0,.2,0,.3l5.789-2.649Z" transform="translate(-989.156 -89.289)" fill="#27debf"/>
            <path id="Trazado_206314" data-name="Trazado 206314" d="M1004.269,89.262l-1.69,8.852,5.739-3.331a9.545,9.545,0,0,0,.063-1.072C1008.382,90.48,1006.65,88.763,1004.269,89.262Z" transform="translate(-996.785 -89.177)" fill="#27debf"/>
            <path id="Trazado_206315" data-name="Trazado 206315" d="M1007.591,105.151a12.344,12.344,0,0,0,.727-2.986l-5.739,3.331Z" transform="translate(-996.785 -96.559)" fill="#27debf"/>
            <path id="Trazado_206316" data-name="Trazado 206316" d="M989.167,112.076c.132,3.713,2.677,5.262,5.794,3.463a12.637,12.637,0,0,0,5.008-6.457l-5.012.345Z" transform="translate(-989.162 -100.49)" fill="#27debf"/>
          </g>
          <g id="Grupo_163224" data-name="Grupo 163224" transform="translate(0.005)">
            <path id="Trazado_206317" data-name="Trazado 206317" d="M1004.269,89.262l-1.69,8.852,5.739-3.331a9.545,9.545,0,0,0,.063-1.072C1008.382,90.48,1006.65,88.763,1004.269,89.262Z" transform="translate(-996.789 -89.177)" fill="#fff" opacity="0.7"/>
            <path id="Trazado_206318" data-name="Trazado 206318" d="M1007.591,105.151a12.344,12.344,0,0,0,.727-2.986l-5.739,3.331Z" transform="translate(-996.789 -96.559)" opacity="0.15"/>
            <path id="Trazado_206319" data-name="Trazado 206319" d="M989.167,112.076c.132,3.713,2.677,5.262,5.794,3.463a12.637,12.637,0,0,0,5.008-6.457l-5.012.345Z" transform="translate(-989.167 -100.49)" fill="#fff" opacity="0.5"/>
          </g>
          <g id="Grupo_163225" data-name="Grupo 163225">
            <path id="Trazado_206320" data-name="Trazado 206320" d="M996.641,89.375a5.686,5.686,0,0,0-1.686.682c-3.2,1.881-5.8,6.589-5.8,10.515,0,.1,0,.2,0,.3l5.789-2.649Z" transform="translate(-989.156 -89.289)" fill="none" stroke="#fff" stroke-linecap="round" stroke-linejoin="round" stroke-width="1.053"/>
            <path id="Trazado_206321" data-name="Trazado 206321" d="M1004.269,89.262l-1.69,8.852,5.739-3.331a9.545,9.545,0,0,0,.063-1.072C1008.382,90.48,1006.65,88.763,1004.269,89.262Z" transform="translate(-996.785 -89.177)" fill="none" stroke="#fff" stroke-linecap="round" stroke-linejoin="round" stroke-width="1.053"/>
            <path id="Trazado_206322" data-name="Trazado 206322" d="M1007.591,105.151a12.344,12.344,0,0,0,.727-2.986l-5.739,3.331Z" transform="translate(-996.785 -96.559)" fill="none" stroke="#fff" stroke-linecap="round" stroke-linejoin="round" stroke-width="1.053"/>
            <path id="Trazado_206323" data-name="Trazado 206323" d="M989.167,112.076c.132,3.713,2.677,5.262,5.794,3.463a12.637,12.637,0,0,0,5.008-6.457l-5.012.345Z" transform="translate(-989.162 -100.49)" fill="none" stroke="#fff" stroke-linecap="round" stroke-linejoin="round" stroke-width="1.053"/>
          </g>
        </g>
        <g id="Grupo_163227" data-name="Grupo 163227" transform="translate(32.355 31.871)">
          <path id="Trazado_206324" data-name="Trazado 206324" d="M1041.6,67.678a13.707,13.707,0,0,0-3.176,8.234,5.913,5.913,0,0,0,.732,3.072l5.066-6.425Z" transform="translate(-1038.424 -64.635)" fill="#27debf"/>
          <path id="Trazado_206325" data-name="Trazado 206325" d="M1051.021,60.631a4.837,4.837,0,0,0-2.618.745,9.89,9.89,0,0,0-2.622,2.295l2.622,4.881Z" transform="translate(-1042.606 -60.627)" fill="#27debf"/>
          <path id="Trazado_206326" data-name="Trazado 206326" d="M1057.118,62.49a3.029,3.029,0,0,0-2.645-1.854l-2.618,7.921Z" transform="translate(-1046.058 -60.632)" fill="#27debf"/>
          <path id="Trazado_206327" data-name="Trazado 206327" d="M1050.448,64.931,1045.185,71l-5.066,6.425c.995,1.618,2.89,2.009,5.066.75,3.2-1.85,5.8-6.562,5.8-10.529A6.262,6.262,0,0,0,1050.448,64.931Z" transform="translate(-1039.387 -63.073)" fill="#27debf"/>
        </g>
        <g id="Grupo_163228" data-name="Grupo 163228" transform="translate(33.087 31.871)">
          <path id="Trazado_206328" data-name="Trazado 206328" d="M1051.021,60.631a4.837,4.837,0,0,0-2.618.745,9.89,9.89,0,0,0-2.622,2.295l2.622,4.881Z" transform="translate(-1043.337 -60.627)" fill="#fff" opacity="0.7"/>
          <path id="Trazado_206329" data-name="Trazado 206329" d="M1057.118,62.49a3.029,3.029,0,0,0-2.645-1.854l-2.618,7.921Z" transform="translate(-1046.79 -60.632)" opacity="0.15"/>
          <path id="Trazado_206330" data-name="Trazado 206330" d="M1050.448,64.931,1045.185,71l-5.066,6.425c.995,1.618,2.89,2.009,5.066.75,3.2-1.85,5.8-6.562,5.8-10.529A6.262,6.262,0,0,0,1050.448,64.931Z" transform="translate(-1040.119 -63.073)" fill="#fff" opacity="0.5"/>
        </g>
        <g id="Grupo_163229" data-name="Grupo 163229" transform="translate(32.355 31.871)">
          <path id="Trazado_206331" data-name="Trazado 206331" d="M1041.6,67.678a13.707,13.707,0,0,0-3.176,8.234,5.913,5.913,0,0,0,.732,3.072l5.066-6.425Z" transform="translate(-1038.424 -64.635)" fill="none" stroke="#fff" stroke-linecap="round" stroke-linejoin="round" stroke-width="1.053"/>
          <path id="Trazado_206332" data-name="Trazado 206332" d="M1051.021,60.631a4.837,4.837,0,0,0-2.618.745,9.89,9.89,0,0,0-2.622,2.295l2.622,4.881Z" transform="translate(-1042.606 -60.627)" fill="none" stroke="#fff" stroke-linecap="round" stroke-linejoin="round" stroke-width="1.053"/>
          <path id="Trazado_206333" data-name="Trazado 206333" d="M1057.118,62.49a3.029,3.029,0,0,0-2.645-1.854l-2.618,7.921Z" transform="translate(-1046.058 -60.632)" fill="none" stroke="#fff" stroke-linecap="round" stroke-linejoin="round" stroke-width="1.053"/>
          <path id="Trazado_206334" data-name="Trazado 206334" d="M1050.448,64.931,1045.185,71l-5.066,6.425c.995,1.618,2.89,2.009,5.066.75,3.2-1.85,5.8-6.562,5.8-10.529A6.262,6.262,0,0,0,1050.448,64.931Z" transform="translate(-1039.387 -63.073)" fill="none" stroke="#fff" stroke-linecap="round" stroke-linejoin="round" stroke-width="1.053"/>
        </g>
        <g id="Grupo_163234" data-name="Grupo 163234" transform="translate(24.618 39.55)">
          <g id="Grupo_163230" data-name="Grupo 163230">
            <path id="Trazado_206335" data-name="Trazado 206335" d="M1020.993,79.034l.95-.548c.272-.157.492-.029.492.284v.913a1.086,1.086,0,0,1-.492.852l-.95.549c-.271.157-.492.029-.492-.284v-.912A1.088,1.088,0,0,1,1020.993,79.034Z" transform="translate(-1020.501 -78.419)" fill="#27debf"/>
          </g>
          <g id="Grupo_163231" data-name="Grupo 163231" transform="translate(0 4.093)">
            <path id="Trazado_206336" data-name="Trazado 206336" d="M1020.993,88.517l.95-.549c.272-.157.492-.029.492.284v.912a1.087,1.087,0,0,1-.492.852l-.95.548c-.271.157-.492.029-.492-.284v-.913A1.087,1.087,0,0,1,1020.993,88.517Z" transform="translate(-1020.501 -87.902)" fill="#27debf"/>
            <path id="Trazado_206337" data-name="Trazado 206337" d="M1020.993,88.517l.95-.549c.272-.157.492-.029.492.284v.912a1.087,1.087,0,0,1-.492.852l-.95.548c-.271.157-.492.029-.492-.284v-.913A1.087,1.087,0,0,1,1020.993,88.517Z" transform="translate(-1020.501 -87.902)" fill="#fff" opacity="0.7"/>
          </g>
          <g id="Grupo_163232" data-name="Grupo 163232" transform="translate(0 8.187)">
            <path id="Trazado_206338" data-name="Trazado 206338" d="M1020.993,98l.95-.548c.272-.157.492-.03.492.284v.912a1.087,1.087,0,0,1-.492.852l-.95.548c-.271.157-.492.03-.492-.284v-.913A1.088,1.088,0,0,1,1020.993,98Z" transform="translate(-1020.501 -97.385)" fill="#27debf"/>
            <path id="Trazado_206339" data-name="Trazado 206339" d="M1020.993,98l.95-.548c.272-.157.492-.03.492.284v.912a1.087,1.087,0,0,1-.492.852l-.95.548c-.271.157-.492.03-.492-.284v-.913A1.088,1.088,0,0,1,1020.993,98Z" transform="translate(-1020.501 -97.385)" opacity="0.15"/>
          </g>
          <g id="Grupo_163233" data-name="Grupo 163233" transform="translate(0 12.281)">
            <path id="Trazado_206340" data-name="Trazado 206340" d="M1020.993,107.484l.95-.548c.272-.157.492-.03.492.284v.913a1.087,1.087,0,0,1-.492.852l-.95.548c-.271.157-.492.03-.492-.284v-.912A1.088,1.088,0,0,1,1020.993,107.484Z" transform="translate(-1020.501 -106.868)" fill="#27debf"/>
            <path id="Trazado_206341" data-name="Trazado 206341" d="M1020.993,107.484l.95-.548c.272-.157.492-.03.492.284v.913a1.087,1.087,0,0,1-.492.852l-.95.548c-.271.157-.492.03-.492-.284v-.912A1.088,1.088,0,0,1,1020.993,107.484Z" transform="translate(-1020.501 -106.868)" fill="#fff" opacity="0.5"/>
          </g>
        </g>
        <g id="Grupo_163235" data-name="Grupo 163235" transform="translate(27.206 37.759)">
          <path id="Trazado_206342" data-name="Trazado 206342" d="M1026.818,76.581a.322.322,0,0,1-.161-.6l2.891-1.668a.322.322,0,1,1,.322.557l-2.891,1.668A.319.319,0,0,1,1026.818,76.581Z" transform="translate(-1026.495 -74.269)" opacity="0.4"/>
        </g>
        <g id="Grupo_163236" data-name="Grupo 163236" transform="translate(27.161 41.894)">
          <path id="Trazado_206343" data-name="Trazado 206343" d="M1026.715,86.16a.322.322,0,0,1-.161-.6l2.891-1.669a.322.322,0,1,1,.322.557l-2.89,1.669A.321.321,0,0,1,1026.715,86.16Z" transform="translate(-1026.392 -83.847)" opacity="0.4"/>
        </g>
        <g id="Grupo_163237" data-name="Grupo 163237" transform="translate(27.117 46.028)">
          <path id="Trazado_206344" data-name="Trazado 206344" d="M1026.612,95.738a.322.322,0,0,1-.162-.6l2.891-1.669a.322.322,0,0,1,.322.558l-2.89,1.668A.321.321,0,0,1,1026.612,95.738Z" transform="translate(-1026.289 -93.426)" opacity="0.4"/>
        </g>
        <g id="Grupo_163238" data-name="Grupo 163238" transform="translate(27.072 50.163)">
          <path id="Trazado_206345" data-name="Trazado 206345" d="M1026.508,105.316a.322.322,0,0,1-.162-.6l2.891-1.668a.322.322,0,0,1,.323.558l-2.891,1.668A.33.33,0,0,1,1026.508,105.316Z" transform="translate(-1026.185 -103.004)" opacity="0.4"/>
        </g>
        <g id="Grupo_163242" data-name="Grupo 163242" transform="translate(11.126 58.564)">
          <g id="Grupo_163239" data-name="Grupo 163239">
            <path id="Trazado_206346" data-name="Trazado 206346" d="M989.567,130.924a.322.322,0,0,1-.161-.6l13.536-7.812a.322.322,0,1,1,.322.558l-13.536,7.813A.325.325,0,0,1,989.567,130.924Z" transform="translate(-989.245 -122.467)" opacity="0.4"/>
          </g>
          <g id="Grupo_163240" data-name="Grupo 163240" transform="translate(0.436 2.004)">
            <path id="Trazado_206347" data-name="Trazado 206347" d="M990.578,135.566a.322.322,0,0,1-.162-.6l13.536-7.812a.322.322,0,0,1,.322.558l-13.536,7.813A.33.33,0,0,1,990.578,135.566Z" transform="translate(-990.255 -127.11)" opacity="0.4"/>
          </g>
          <g id="Grupo_163241" data-name="Grupo 163241" transform="translate(1.06 3.942)">
            <path id="Trazado_206348" data-name="Trazado 206348" d="M992.022,140.057a.322.322,0,0,1-.161-.6l13.536-7.812a.322.322,0,1,1,.322.558l-13.536,7.813A.325.325,0,0,1,992.022,140.057Z" transform="translate(-991.7 -131.6)" opacity="0.4"/>
          </g>
        </g>
        <g id="Grupo_163246" data-name="Grupo 163246" transform="translate(32.373 46.302)">
          <g id="Grupo_163243" data-name="Grupo 163243">
            <path id="Trazado_206349" data-name="Trazado 206349" d="M1038.789,102.518a.322.322,0,0,1-.161-.6l13.536-7.813a.322.322,0,0,1,.322.558l-13.536,7.812A.321.321,0,0,1,1038.789,102.518Z" transform="translate(-1038.467 -94.061)" opacity="0.4"/>
          </g>
          <g id="Grupo_163244" data-name="Grupo 163244" transform="translate(0.436 2.003)">
            <path id="Trazado_206350" data-name="Trazado 206350" d="M1039.8,107.159a.322.322,0,0,1-.161-.6l13.536-7.812a.322.322,0,0,1,.322.558l-13.536,7.813A.327.327,0,0,1,1039.8,107.159Z" transform="translate(-1039.476 -98.702)" opacity="0.4"/>
          </g>
          <g id="Grupo_163245" data-name="Grupo 163245" transform="translate(1.06 3.942)">
            <path id="Trazado_206351" data-name="Trazado 206351" d="M1041.244,111.65a.322.322,0,0,1-.161-.6l13.536-7.812a.322.322,0,1,1,.322.558l-13.536,7.813A.325.325,0,0,1,1041.244,111.65Z" transform="translate(-1040.922 -103.193)" opacity="0.4"/>
          </g>
        </g>
        <path id="Trazado_206352" data-name="Trazado 206352" d="M999.515,132.385l30.86-17.81a2.374,2.374,0,0,1,3.092.554,1.814,1.814,0,0,1-.7,2.716L1001.9,135.66a2.554,2.554,0,0,1-3.242-.443A1.989,1.989,0,0,1,999.515,132.385Z" transform="translate(-983.291 -59.225)" fill="#27debf"/>
        <g id="Grupo_163250" data-name="Grupo 163250" transform="translate(19.3 72.238)">
          <g id="Grupo_163247" data-name="Grupo 163247" transform="translate(1.693 1.194)">
            <path id="Trazado_206353" data-name="Trazado 206353" d="M1012.426,165.366a.322.322,0,0,1-.162-.6l13.535-7.811a.322.322,0,1,1,.322.558l-13.535,7.811A.331.331,0,0,1,1012.426,165.366Z" transform="translate(-1012.103 -156.911)" opacity="0.4"/>
          </g>
          <g id="Grupo_163248" data-name="Grupo 163248">
            <path id="Trazado_206354" data-name="Trazado 206354" d="M1008.5,162.6a.322.322,0,0,1-.161-.6l13.535-7.811a.322.322,0,1,1,.322.558l-13.535,7.811A.325.325,0,0,1,1008.5,162.6Z" transform="translate(-1008.18 -154.145)" opacity="0.4"/>
          </g>
          <g id="Grupo_163249" data-name="Grupo 163249" transform="translate(3.473 2.247)">
            <path id="Trazado_206355" data-name="Trazado 206355" d="M1016.549,167.806a.322.322,0,0,1-.161-.6l13.535-7.811a.322.322,0,0,1,.323.558l-13.536,7.811A.324.324,0,0,1,1016.549,167.806Z" transform="translate(-1016.227 -159.351)" opacity="0.4"/>
          </g>
        </g>
        <g id="Grupo_163254" data-name="Grupo 163254" transform="translate(38.625 61.086)">
          <g id="Grupo_163251" data-name="Grupo 163251" transform="translate(1.693 1.194)">
            <path id="Trazado_206356" data-name="Trazado 206356" d="M1057.2,139.53a.322.322,0,0,1-.161-.6l13.535-7.811a.322.322,0,0,1,.323.558l-13.536,7.811A.33.33,0,0,1,1057.2,139.53Z" transform="translate(-1056.873 -131.075)" opacity="0.4"/>
          </g>
          <g id="Grupo_163252" data-name="Grupo 163252" transform="translate(0 0)">
            <path id="Trazado_206357" data-name="Trazado 206357" d="M1053.272,136.763a.322.322,0,0,1-.161-.6l13.535-7.811a.322.322,0,0,1,.323.558l-13.535,7.811A.325.325,0,0,1,1053.272,136.763Z" transform="translate(-1052.95 -128.309)" opacity="0.4"/>
          </g>
          <g id="Grupo_163253" data-name="Grupo 163253" transform="translate(3.473 2.247)">
            <path id="Trazado_206358" data-name="Trazado 206358" d="M1061.319,141.97a.322.322,0,0,1-.162-.6l13.535-7.811a.322.322,0,0,1,.322.559l-13.535,7.811A.326.326,0,0,1,1061.319,141.97Z" transform="translate(-1060.996 -133.515)" opacity="0.4"/>
          </g>
        </g>
        <g id="Grupo_163258" data-name="Grupo 163258" transform="translate(28.952 74.784)">
          <g id="Grupo_163255" data-name="Grupo 163255" transform="translate(0 5.546)">
            <path id="Trazado_206359" data-name="Trazado 206359" d="M1044.212,174.087c-2.939-1.7-7.918-1.574-11.122.275s-3.419,4.724-.48,6.421,7.918,1.575,11.123-.274S1047.151,175.785,1044.212,174.087Zm-2,5.543a8.8,8.8,0,0,1-7.944.2c-2.1-1.213-1.946-3.266.343-4.586a8.8,8.8,0,0,1,7.944-.2C1044.654,176.256,1044.5,178.309,1042.212,179.63Z" transform="translate(-1030.539 -172.891)" fill="#27debf"/>
            <path id="Trazado_206360" data-name="Trazado 206360" d="M1042.054,179.537a5.28,5.28,0,0,1,4.767-.117c1.259.727,1.167,1.959-.206,2.752a5.279,5.279,0,0,1-4.766.117C1040.589,181.562,1040.681,180.33,1042.054,179.537Z" transform="translate(-1036.462 -176.31)" fill="#27debf"/>
          </g>
          <path id="Trazado_206361" data-name="Trazado 206361" d="M1042.054,179.537a5.28,5.28,0,0,1,4.767-.117c1.259.727,1.167,1.959-.206,2.752a5.279,5.279,0,0,1-4.766.117C1040.589,181.562,1040.681,180.33,1042.054,179.537Z" transform="translate(-1036.462 -170.764)" opacity="0.5"/>
          <path id="Trazado_206362" data-name="Trazado 206362" d="M1044.212,174.087c-2.939-1.7-7.918-1.574-11.122.275s-3.419,4.724-.48,6.421,7.918,1.575,11.123-.274S1047.151,175.785,1044.212,174.087Zm-2,5.543a8.8,8.8,0,0,1-7.944.2c-2.1-1.213-1.946-3.266.343-4.586a8.8,8.8,0,0,1,7.944-.2C1044.654,176.256,1044.5,178.309,1042.212,179.63Z" transform="translate(-1030.539 -167.345)" opacity="0.15"/>
          <g id="Grupo_163256" data-name="Grupo 163256" transform="translate(5.516 5.549)">
            <path id="Trazado_206363" data-name="Trazado 206363" d="M1043.318,173.241l.672,1.2a9.554,9.554,0,0,1,3.938-.074l.906-1.229A13.379,13.379,0,0,0,1043.318,173.241Z" transform="translate(-1043.318 -172.899)" fill="#27debf"/>
            <path id="Trazado_206364" data-name="Trazado 206364" d="M1043.318,173.241l.672,1.2a9.554,9.554,0,0,1,3.938-.074l.906-1.229A13.379,13.379,0,0,0,1043.318,173.241Z" transform="translate(-1043.318 -172.899)" fill="#fff" opacity="0.7"/>
          </g>
          <g id="Grupo_163257" data-name="Grupo 163257" transform="translate(7.953 0)">
            <path id="Trazado_206365" data-name="Trazado 206365" d="M1049.285,165.34h-.019a.321.321,0,0,1-.3-.34l.087-1.478,5.951-3.435a.322.322,0,0,1,.322.558l-5.651,3.261-.067,1.132A.321.321,0,0,1,1049.285,165.34Z" transform="translate(-1048.963 -160.043)" opacity="0.4"/>
          </g>
        </g>
        <g id="Grupo_163263" data-name="Grupo 163263" transform="translate(46.35 64.716)">
          <g id="Grupo_163262" data-name="Grupo 163262" transform="translate(0 0)">
            <g id="Grupo_163259" data-name="Grupo 163259" transform="translate(0 5.578)">
              <path id="Trazado_206366" data-name="Trazado 206366" d="M1084.518,150.837c-2.939-1.7-7.919-1.575-11.123.274s-3.418,4.724-.48,6.421,7.918,1.574,11.122-.275S1087.457,152.534,1084.518,150.837Zm-2,5.543a8.8,8.8,0,0,1-7.944.2c-2.1-1.212-1.946-3.266.343-4.586a8.8,8.8,0,0,1,7.944-.2C1084.96,153.006,1084.807,155.059,1082.518,156.38Z" transform="translate(-1070.845 -149.64)" fill="#27debf"/>
              <path id="Trazado_206367" data-name="Trazado 206367" d="M1082.36,156.287a5.278,5.278,0,0,1,4.766-.118c1.26.727,1.168,1.959-.205,2.752a5.279,5.279,0,0,1-4.767.118C1080.895,158.311,1080.987,157.079,1082.36,156.287Z" transform="translate(-1076.768 -153.059)" fill="#27debf"/>
            </g>
            <path id="Trazado_206368" data-name="Trazado 206368" d="M1082.36,156.287a5.278,5.278,0,0,1,4.766-.118c1.26.727,1.168,1.959-.205,2.752a5.279,5.279,0,0,1-4.767.118C1080.895,158.311,1080.987,157.079,1082.36,156.287Z" transform="translate(-1076.768 -147.482)" opacity="0.5"/>
            <path id="Trazado_206369" data-name="Trazado 206369" d="M1084.518,150.837c-2.939-1.7-7.919-1.575-11.123.274s-3.418,4.724-.48,6.421,7.918,1.574,11.122-.275S1087.457,152.534,1084.518,150.837Zm-2,5.543a8.8,8.8,0,0,1-7.944.2c-2.1-1.212-1.946-3.266.343-4.586a8.8,8.8,0,0,1,7.944-.2C1084.96,153.006,1084.807,155.059,1082.518,156.38Z" transform="translate(-1070.845 -144.063)" opacity="0.15"/>
            <g id="Grupo_163260" data-name="Grupo 163260" transform="translate(4.158 5.581)">
              <path id="Trazado_206370" data-name="Trazado 206370" d="M1089.993,150.841c-2.483-1.434-6.42-1.564-9.515-.456l1.062,1.086a8.745,8.745,0,0,1,6.8.325,3.727,3.727,0,0,1,.806.619l1.981-.708A5.209,5.209,0,0,0,1089.993,150.841Z" transform="translate(-1080.478 -149.647)" fill="#27debf"/>
              <path id="Trazado_206371" data-name="Trazado 206371" d="M1089.993,150.841c-2.483-1.434-6.42-1.564-9.515-.456l1.062,1.086a8.745,8.745,0,0,1,6.8.325,3.727,3.727,0,0,1,.806.619l1.981-.708A5.209,5.209,0,0,0,1089.993,150.841Z" transform="translate(-1080.478 -149.647)" fill="#fff" opacity="0.7"/>
            </g>
            <g id="Grupo_163261" data-name="Grupo 163261" transform="translate(8.002)">
              <path id="Trazado_206372" data-name="Trazado 206372" d="M1089.7,142.015h-.019a.322.322,0,0,1-.3-.341l.088-1.478,5.951-3.434a.322.322,0,0,1,.322.558l-5.651,3.26-.068,1.133A.322.322,0,0,1,1089.7,142.015Z" transform="translate(-1089.383 -136.719)" opacity="0.4"/>
            </g>
          </g>
        </g>
        <g id="Grupo_163267" data-name="Grupo 163267" transform="translate(38.737 72.547)">
          <g id="Grupo_163264" data-name="Grupo 163264" transform="translate(0 0)">
            <path id="Trazado_206373" data-name="Trazado 206373" d="M1053.531,174.472a.322.322,0,0,1-.162-.6l32.873-18.969a.322.322,0,1,1,.322.558l-32.873,18.969A.327.327,0,0,1,1053.531,174.472Z" transform="translate(-1053.208 -154.859)" opacity="0.4"/>
          </g>
          <g id="Grupo_163265" data-name="Grupo 163265" transform="translate(1.778 1.022)">
            <path id="Trazado_206374" data-name="Trazado 206374" d="M1057.649,176.84a.322.322,0,0,1-.161-.6l32.873-18.969a.322.322,0,0,1,.322.558L1057.81,176.8A.327.327,0,0,1,1057.649,176.84Z" transform="translate(-1057.327 -157.227)" opacity="0.4"/>
          </g>
          <g id="Grupo_163266" data-name="Grupo 163266" transform="translate(3.552 2.046)">
            <path id="Trazado_206375" data-name="Trazado 206375" d="M1061.759,179.213a.322.322,0,0,1-.161-.6l32.873-18.969a.322.322,0,1,1,.322.558l-32.873,18.969A.327.327,0,0,1,1061.759,179.213Z" transform="translate(-1061.437 -159.599)" opacity="0.4"/>
          </g>
        </g>
      </g>
    </g>
    <g id="Character" transform="translate(904.785 -204.602)">
      <g id="Grupo_163160" data-name="Grupo 163160" transform="translate(5.979 20.549)">
        <g id="Grupo_163159" data-name="Grupo 163159">
          <path id="Trazado_206218" data-name="Trazado 206218" d="M1120.909-120.548c-2.742.129-3.682.651-5.117,2.342-1.4,1.65-8.163,14.182-8.163,14.182s1.269,3.557,4.046,3.254l5.192-8.372Z" transform="translate(-1107.629 120.548)" fill="#ffa8a7"/>
        </g>
      </g>
      <path id="Trazado_206219" data-name="Trazado 206219" d="M1126.31-120.62a8.608,8.608,0,0,0-3.373.251c-1.4.508-2.106,1.525-3.074,3-.749,1.143-3.37,5.888-3.37,5.888s1.277,3.552,4.909,3.552Z" transform="translate(-1106.687 141.175)" fill="#e0e0e0"/>
      <g id="Character-2" data-name="Character" transform="translate(7.778 0)">
        <g id="Grupo_163161" data-name="Grupo 163161" transform="translate(0 44.071)">
          <path id="Trazado_206220" data-name="Trazado 206220" d="M1152.342,85.12v-.594c-.234.7-1.321,3.7-2.97,5.2-1.311,1.2-3.1,2.576-3.553,3.909-.473,1.386,2.488,1.851,3.712,1.635a7.552,7.552,0,0,0,4.265-2.29c.7-.865,1.153-1.891,1.656-2.572s1.662-1.44,1.934-2.228a5.024,5.024,0,0,0-.238-2.181c-.193-.734-.4-1.542-.652-1.473,0,.09,0,.453,0,.453a3.287,3.287,0,0,1-2.077.7C1153.811,85.7,1152.337,85.584,1152.342,85.12Z" transform="translate(-1131.104 -19.523)" fill="#263238"/>
          <path id="Trazado_206221" data-name="Trazado 206221" d="M1150.773,86.3c.406-.363.815-.717,1.186-1.055a12.056,12.056,0,0,0,2.534-4.048,5.7,5.7,0,0,0,.436-2.186V76.642h4.155V80.5h0v.1l-.021.011c-.2.863-2.107,3.16-3.19,4.657a6.029,6.029,0,0,1-3.754,2.5C1150.556,87.977,1149.758,87.484,1150.773,86.3Z" transform="translate(-1133.691 -15.045)" fill="#ffa8a7"/>
          <path id="Trazado_206222" data-name="Trazado 206222" d="M1118.368,75.632v-.594c-.234.7-1.321,3.7-2.97,5.2-1.31,1.2-3.1,2.576-3.553,3.908-.473,1.386,2.488,1.851,3.712,1.635a7.554,7.554,0,0,0,4.265-2.29c.7-.865,1.153-1.891,1.656-2.571s1.662-1.44,1.934-2.228a5.023,5.023,0,0,0-.238-2.181c-.193-.735-.4-1.542-.652-1.474,0,.09,0,.453,0,.453a3.283,3.283,0,0,1-2.077.7C1119.838,76.216,1118.363,76.1,1118.368,75.632Z" transform="translate(-1111.795 -14.13)" fill="#263238"/>
          <path id="Trazado_206223" data-name="Trazado 206223" d="M1116.8,76.812c.407-.363.816-.717,1.187-1.055a12.059,12.059,0,0,0,2.534-4.048,5.7,5.7,0,0,0,.436-2.186V67.154h4.155v3.854h0v.1l-.021.01c-.2.863-2.107,3.16-3.19,4.657a6.029,6.029,0,0,1-3.755,2.5C1116.582,78.489,1115.784,78,1116.8,76.812Z" transform="translate(-1114.382 -9.652)" fill="#ffa8a7"/>
          <path id="Trazado_206224" data-name="Trazado 206224" d="M1142.719-65.027c3.221,7.035-.116,31.816-.116,31.816.1,1.142,1.4,3.388,1.889,8.412.574,5.937-.9,20.844-.9,20.844a4.494,4.494,0,0,1-4.2.167s-3.96-22.451-4.7-28.353c-.65-5.151-1.9-16.478-1.9-16.478l-2,16.451a30.61,30.61,0,0,1,1.123,5.084c.336,3.472-3.028,19.637-3.028,19.637a9.228,9.228,0,0,1-4.155.125s-1.19-21.452-1.5-25.635c-.527-7.024-.2-28.941,1.087-33.1Z" transform="translate(-1118.153 66.057)" fill="#455a64"/>
          <path id="Trazado_206225" data-name="Trazado 206225" d="M1135.861-37.956l-1.046-6.534s-4.424-.916-6.43-2.8a11.443,11.443,0,0,0,5.231,3.476l1.174,5.031-.8,16.184Z" transform="translate(-1121.224 55.392)" fill="#37474f"/>
        </g>
        <path id="Trazado_206226" data-name="Trazado 206226" d="M1138.118-120.437h0c1.225.085,1.634.054,2.522.146,1.776.182,2.2,2.779,2.93,4.314a7.071,7.071,0,0,1,.2,5.322l-2.878,8.325s1.348,3.256,2.911,6.334c-7.221,4.03-16.238,1.912-18.409-1.03-.092-.624.466-5.5.81-8.687-1.272-3.19-1.607-5.213-1.071-7.322,1-3.914,4.565-7.516,5.587-7.513Z" transform="translate(-1119.234 141.097)" fill="#f0f0f0"/>
        <g id="Grupo_163169" data-name="Grupo 163169" transform="translate(5.55)">
          <path id="Trazado_206227" data-name="Trazado 206227" d="M1144.16-163.294l-1.494-.13a1.152,1.152,0,0,0,.444-.447,1.277,1.277,0,0,0-.479-1.7l-.964,1.75a8.708,8.708,0,0,0-7.991-4.322l-.771.041a8.715,8.715,0,0,0-8.24,9.167c.264,4.966.556,10.52.556,10.52l8.968-.477a9.223,9.223,0,0,0,8.72-9.7l-.067-1.311a8.7,8.7,0,0,0-.475-2.4,1.166,1.166,0,0,0,.434.127A1.277,1.277,0,0,0,1144.16-163.294Z" transform="translate(-1124.652 168.153)" fill="#455a64"/>
          <g id="Grupo_163162" data-name="Grupo 163162" transform="translate(1.591 5.759)">
            <path id="Trazado_206228" data-name="Trazado 206228" d="M1128.369-150.767a17.572,17.572,0,0,0,.074,2.856c.342,4.469,1.851,5.5,2.6,5.776a7.708,7.708,0,0,0,3.492-.289v2.642s-1.626,2.335-1.442,3.56,2.805,1.377,4.508.08a7.912,7.912,0,0,0,2.392-3.5v-6.176a1.717,1.717,0,0,0,2.442.1,3.219,3.219,0,0,0,.456-4.406c-.924-.843-2.833-.486-3.12.763,0,0-3.148-.264-3.549-5.449C1133.29-151,1128.554-153.749,1128.369-150.767Z" transform="translate(-1128.338 154.812)" fill="#ffa8a7"/>
          </g>
          <path id="Trazado_206229" data-name="Trazado 206229" d="M1152.657-145.207l.118,2.214h0a1.508,1.508,0,0,1-1.587-1.427l-.132-2.471Z" transform="translate(-1139.658 156.068)" fill="#455a64"/>
          <g id="Grupo_163163" data-name="Grupo 163163" transform="translate(7.22 10.543)">
            <path id="Trazado_206230" data-name="Trazado 206230" d="M1141.379-143.14a.573.573,0,0,0,.565.582.576.576,0,0,0,.562-.588.573.573,0,0,0-.565-.582A.577.577,0,0,0,1141.379-143.14Z" transform="translate(-1141.379 143.729)" fill="#263238"/>
          </g>
          <g id="Grupo_163164" data-name="Grupo 163164" transform="translate(5.676 15.096)">
            <path id="Trazado_206231" data-name="Trazado 206231" d="M1139.308-133.18l-1.506.57a.791.791,0,0,0,1.026.5A.843.843,0,0,0,1139.308-133.18Z" transform="translate(-1137.802 133.18)" fill="#f28f8f"/>
          </g>
          <g id="Grupo_163165" data-name="Grupo 163165" transform="translate(7.836 8.127)">
            <path id="Trazado_206232" data-name="Trazado 206232" d="M1142.806-148.848l1.319.426a.666.666,0,0,0-.42-.87A.728.728,0,0,0,1142.806-148.848Z" transform="translate(-1142.806 149.326)" fill="#455a64"/>
          </g>
          <g id="Grupo_163166" data-name="Grupo 163166" transform="translate(2.385 10.787)">
            <path id="Trazado_206233" data-name="Trazado 206233" d="M1130.176-142.576a.572.572,0,0,0,.565.582.576.576,0,0,0,.562-.588.572.572,0,0,0-.565-.582A.576.576,0,0,0,1130.176-142.576Z" transform="translate(-1130.176 143.164)" fill="#263238"/>
          </g>
          <g id="Grupo_163167" data-name="Grupo 163167" transform="translate(3.95 10.898)">
            <path id="Trazado_206234" data-name="Trazado 206234" d="M1135.524-142.907l.091,3.391-1.812-.457Z" transform="translate(-1133.803 142.907)" fill="#f28f8f"/>
          </g>
          <g id="Grupo_163168" data-name="Grupo 163168" transform="translate(7.784 15.678)">
            <path id="Trazado_206235" data-name="Trazado 206235" d="M1142.684-129.364c1.429-.265,4.344-1.273,4.743-2.468a3.034,3.034,0,0,1-.958,1.549,15.721,15.721,0,0,1-3.784,1.815Z" transform="translate(-1142.684 131.832)" fill="#f28f8f"/>
          </g>
        </g>
        <path id="Trazado_206236" data-name="Trazado 206236" d="M1140.862-88.6c2.372-.562,2.823-1.455,2.2-3.811a1.767,1.767,0,0,0-.074-.227c-.464-1.117-2.318-.453-2.318-.453s.758-.945,1.61-2.15a10.174,10.174,0,0,0,1.346-4.6l.342-4.2a2.652,2.652,0,0,0,1.126-3.124l2.849-1.751.536.373a7.241,7.241,0,0,1-.119,4.5l-2.878,8.325a47.124,47.124,0,0,1,2.911,6.334,18.667,18.667,0,0,1-15.43,1.022A21.052,21.052,0,0,0,1140.862-88.6Z" transform="translate(-1123.825 134.484)" fill="#e6e6e6"/>
        <path id="Trazado_206237" data-name="Trazado 206237" d="M1139.263-145.531l-3.262.174a1.823,1.823,0,0,0-1.856-1.35l-.281.015a1.822,1.822,0,0,0-1.62,1.215,1.565,1.565,0,0,0-1.086-.405,1.338,1.338,0,0,0-.923.33,1.815,1.815,0,0,0-1.635-.859l-.281.015a1.823,1.823,0,0,0-1.721,1.915,1.823,1.823,0,0,0,1.915,1.721l.281-.015a1.823,1.823,0,0,0,1.721-1.915,1.8,1.8,0,0,0-.133-.572,1.006,1.006,0,0,1,.777-.313,1.2,1.2,0,0,1,.987.438l.015-.01a1.839,1.839,0,0,0-.018.37,1.823,1.823,0,0,0,1.915,1.721l.281-.015a1.824,1.824,0,0,0,1.722-1.915c0-.023-.008-.044-.01-.066l2.917-.155A1.575,1.575,0,0,1,1139.263-145.531Zm-10.485,2.449-.281.015a1.516,1.516,0,0,1-1.592-1.431,1.516,1.516,0,0,1,1.431-1.592l.281-.015a1.516,1.516,0,0,1,1.592,1.431A1.515,1.515,0,0,1,1128.778-143.082Zm5.544-.3-.281.015a1.515,1.515,0,0,1-1.592-1.431,1.515,1.515,0,0,1,1.431-1.592l.281-.015a1.516,1.516,0,0,1,1.593,1.431A1.515,1.515,0,0,1,1134.322-143.378Z" transform="translate(-1120.207 155.966)" fill="#263238"/>
      </g>
      <g id="Grupo_163178" data-name="Grupo 163178" transform="translate(9.508 20.712)">
        <path id="Trazado_206247" data-name="Trazado 206247" d="M1135.151-120.024c1.891.12,3.846,1.144,4.143,3.416s2.136,14.228,1.414,15.573c-1.669,3.112-12.677,9.032-13.771,9.538a12.327,12.327,0,0,1-5.079,1.362c-1.716.019-4-.037-5.155-1.589-1.025-1.377-1.6-3.919.711-3.482a25.083,25.083,0,0,0,5.306.233l-.269-1.109a5.277,5.277,0,0,1,1.767.288c1.155.343,2.2-.649,4.244-1.909a70.67,70.67,0,0,0,6.634-5.061l-1.633-9.983S1133.408-117.062,1135.151-120.024Z" transform="translate(-1115.805 120.088)" fill="#ffa8a7"/>
        <path id="Trazado_206248" data-name="Trazado 206248" d="M1157.278-120.108a4.024,4.024,0,0,1,2.124.191c1.111.423,2.1.986,2.559,3.225s1.374,10.421,1.374,10.421a8.385,8.385,0,0,1-6.366.919l-1.417-7.425S1154.449-117.975,1157.278-120.108Z" transform="translate(-1138.275 120.172)" fill="#e0e0e0"/>
      </g>
      <g id="Grupo_163177" data-name="Grupo 163177" transform="translate(0 34.205)">
        <g id="Grupo_163170" data-name="Grupo 163170" transform="translate(0 0.219)">
          <path id="Trazado_206238" data-name="Trazado 206238" d="M1093.777-88.4l14.584,3.841,4.014,16.5-13.865-4.027Z" transform="translate(-1093.777 88.404)" fill="#e65a46"/>
          <path id="Trazado_206239" data-name="Trazado 206239" d="M1093.777-88.4l14.584,3.841,4.014,16.5-13.865-4.027Z" transform="translate(-1093.777 88.404)" fill="#e65a46" opacity="0.25"/>
          <path id="Trazado_206240" data-name="Trazado 206240" d="M1116.542-56.832c.093.893.719,1.926,2.541,2.8s5.371.384,5.371.384l-.494-2.031Z" transform="translate(-1106.715 70.46)" fill="#e65a46" opacity="0.2"/>
        </g>
        <g id="Grupo_163171" data-name="Grupo 163171" transform="translate(3.757 11.904)" opacity="0.2">
          <path id="Trazado_206241" data-name="Trazado 206241" d="M1105.313-61.334a2.96,2.96,0,0,1-2.685,1.774l-.148-.509Z" transform="translate(-1102.48 61.334)" fill="#e65a46"/>
        </g>
        <g id="Grupo_163172" data-name="Grupo 163172" transform="translate(4.269 2.044)" opacity="0.1">
          <path id="Trazado_206242" data-name="Trazado 206242" d="M1103.792-83.38l-.12-.556c-.067-.307.789-.32,1.912-.029l2.149.557c1.122.291,2.085.776,2.152,1.083l.12.556Z" transform="translate(-1103.668 84.175)" fill="#e65a46"/>
        </g>
        <g id="Grupo_163173" data-name="Grupo 163173" transform="translate(3.27)">
          <path id="Trazado_206243" data-name="Trazado 206243" d="M1101.355-88.162c-.042-.192.3-.242.775-.113l.851.235s-.254-1.2,1.634-.783a2.958,2.958,0,0,1,2.3,1.787l.908.258c.5.142.957.413,1.016.6l.108.346-7.513-1.978S1101.4-87.97,1101.355-88.162Z" transform="translate(-1101.352 88.912)" fill="#e65a46"/>
        </g>
        <g id="Grupo_163174" data-name="Grupo 163174" transform="translate(4.089 1.112)">
          <path id="Trazado_206244" data-name="Trazado 206244" d="M1103.469-86.1c.689.166.974.257,1.077.731.117.541.165.938.165.938l3.325.878s-.161-.685-.212-.952.062-.428.591-.287l.045-.212-5.21-1.326Z" transform="translate(-1103.25 86.335)" fill="#e65a46"/>
        </g>
        <g id="Grupo_163175" data-name="Grupo 163175" transform="translate(4.069 2.097)">
          <path id="Trazado_206245" data-name="Trazado 206245" d="M1103.329-83.258l-.12-.556c-.066-.307.789-.32,1.912-.029l2.149.557c1.122.291,2.085.776,2.152,1.083l.12.556Z" transform="translate(-1103.204 84.054)" fill="#e65a46"/>
        </g>
        <g id="Grupo_163176" data-name="Grupo 163176" transform="translate(0.454 5.191)">
          <path id="Trazado_206246" data-name="Trazado 206246" d="M1095.912-76.56s.546,1.866.67,2.31,1.759,1.244,2.831,1.538,2.245.644,1.737,2.143c-.467,1.382-2.232,1.7-3.129,1.658a3.32,3.32,0,0,1-2.612-2.281c-.618-1.765-.285-3.65-.53-4.681S1095.375-77.175,1095.912-76.56Z" transform="translate(-1094.83 76.886)" fill="#ffa8a7"/>
        </g>
      </g>
    </g>
  </g>
</svg>
